<svg viewBox="0 0 120 25" fill="none" xmlns="http://www.w3.org/2000/svg">
<path d="M10.6584 13.3029C11.893 11.3177 13.2922 9.49447 14.8971 7.79281C16.4197 6.13167 18.0247 4.3895 20 3.25506C20.9876 2.64733 22.0987 2.28268 23.2922 2.12062C24.3621 1.95856 25.7613 1.91804 26.5432 2.80939C27.3662 3.74125 27.2839 5.07826 27.037 6.2127C26.8312 7.22559 26.502 8.23848 26.0905 9.21086C25.144 11.4392 23.7448 13.465 21.9753 15.1667C21.6872 15.4503 22.1399 15.8554 22.428 15.6123C24.1152 13.9917 25.5144 12.047 26.502 9.94014C26.9959 8.88673 27.3662 7.79281 27.6131 6.65837C27.9012 5.52394 28.0658 4.26795 27.5308 3.13351C26.502 0.864636 23.3745 1.26979 21.3991 1.95856C19.0535 2.76887 17.2016 4.51104 15.5144 6.25322C13.4979 8.31952 11.6872 10.5884 10.1234 13.0193C9.91767 13.3435 10.4526 13.6676 10.6584 13.3029Z" fill="#666562"/>
<path d="M9.79423 14.3563C10.9465 12.128 12.5926 10.1022 14.1975 8.19797C15.7613 6.33425 17.4897 4.51104 19.5885 3.21454C21.6049 1.95856 23.9506 1.10773 26.3374 1.18876C26.9547 1.22928 27.572 1.31031 27.9012 1.87753C28.1481 2.3232 28.1893 2.8499 28.1893 3.33609C28.1481 4.55156 27.7366 5.80755 27.4074 6.9825C26.5432 9.69705 25.3498 12.2495 23.786 14.64C23.5802 14.9641 24.1152 15.2882 24.321 14.9641C25.8025 12.6952 26.9547 10.2238 27.8189 7.67127C28.2716 6.37476 28.642 5.03775 28.8066 3.66022C28.8889 2.72836 28.8066 1.63443 28.0247 1.0267C27.1193 0.297417 25.6379 0.499996 24.5679 0.662058C23.3333 0.824121 22.1399 1.22928 20.9876 1.75598C18.5597 2.89042 16.5432 4.63259 14.8148 6.61786C13.8272 7.71178 12.9218 8.88673 12.0165 10.0212C11.0288 11.3177 10.0411 12.6142 9.30041 14.0727C9.09464 14.3969 9.62962 14.6805 9.79423 14.3563Z" fill="#666562"/>
<path d="M11.358 12.7762C11.3992 12.047 11.9342 11.4392 12.3868 10.872C12.8395 10.2643 13.2922 9.69705 13.786 9.12983C14.6914 8.07643 15.6379 7.06354 16.6667 6.17219C18.7243 4.34899 21.1934 2.89042 23.9095 2.24217C25.3498 1.91805 27.0782 2.72836 27.2016 4.30847C27.3251 5.84806 26.5432 7.50921 25.9671 8.88674C24.856 11.6013 23.6625 14.2753 22.6749 17.0304C22.5514 17.395 23.1276 17.5571 23.251 17.1924C24.1975 14.4779 25.3909 11.8444 26.5021 9.17035C27.1193 7.63075 27.9835 5.84807 27.7778 4.14641C27.6132 2.5663 26.2551 1.63444 24.7325 1.51289C24.0329 1.47237 23.2922 1.71547 22.6337 1.91805C21.9342 2.12062 21.2757 2.40423 20.6173 2.68784C19.3004 3.33609 18.0658 4.10589 16.9136 5.03775C15.5556 6.13167 14.3621 7.38766 13.251 8.68416C12.716 9.33241 12.1811 9.98066 11.6872 10.6289C11.1934 11.2772 10.7407 11.8849 10.6996 12.6952C10.7407 13.1814 11.358 13.1814 11.358 12.7762Z" fill="#666562"/>
<path d="M10.4527 13.6676C13.5803 9.29187 17.3663 5.19979 22.3457 2.8904C23.5803 2.32318 24.856 1.87751 26.1728 1.55338C26.8313 1.39132 27.4897 1.26977 28.1482 1.22926C28.3951 1.18874 28.6831 1.14823 28.93 1.22926C29.4239 1.39132 29.3827 1.87751 29.3416 2.28267C29.2181 3.70071 28.5185 5.11876 27.9012 6.41526C27.3251 7.67125 26.7078 8.88672 26.0082 10.0617C24.4856 12.7357 22.7161 15.2477 20.6996 17.5976C20.4527 17.8812 20.8642 18.3269 21.1523 18.0433C23.0864 15.7744 24.8148 13.3434 26.3375 10.791C27.0782 9.49445 27.7778 8.19795 28.3951 6.82042C29.0124 5.52392 29.7119 4.10587 29.9177 2.68782C30 2.03957 30.0823 1.35081 29.6296 0.905134C29.2593 0.499978 28.642 0.540493 28.1482 0.621525C26.7078 0.783587 25.3086 1.10771 23.9506 1.5939C21.2346 2.52576 18.7654 4.06536 16.5844 5.88856C13.9918 8.03589 11.8519 10.6289 9.9177 13.3434C9.67079 13.6676 10.2058 13.9917 10.4527 13.6676Z" fill="#666562"/>
<path d="M11.7284 13.1004C13.4568 11.3582 15.1852 9.61602 17.037 7.99539C18.8066 6.37476 20.6584 4.71362 22.6749 3.41712C23.6214 2.80939 24.856 2.08011 26.0494 2.20165C26.5844 2.24217 27.1194 2.48526 27.3663 2.97145C27.6955 3.53867 27.572 4.30847 27.4486 4.9162C26.9959 7.22559 25.6379 9.45395 24.4445 11.4797C23.0453 13.8296 21.4403 16.058 19.8354 18.2864C19.5885 18.6105 20.1235 18.8941 20.3704 18.6105C21.9342 16.4226 23.5391 14.1943 24.9383 11.8849C25.6379 10.7505 26.2552 9.61602 26.8313 8.40055C27.4074 7.26611 27.9012 6.09116 28.107 4.83517C28.2716 3.82228 28.2305 2.72836 27.284 2.08011C26.3375 1.43186 25.1852 1.59392 24.1975 1.99907C21.8107 2.89042 19.8354 4.71362 17.9424 6.37476C15.6379 8.40055 13.4156 10.5074 11.2757 12.6952C10.9877 12.9788 11.4403 13.384 11.7284 13.1004Z" fill="#666562"/>
<path d="M19.0535 15.6529C19.0535 17.1925 19.0535 18.7726 19.0535 20.3122C19.0535 20.7173 19.6708 20.7173 19.6708 20.3122C19.6708 20.0285 20.1235 19.907 20.3292 19.8665C20.7819 19.7449 21.1934 19.6639 21.6461 19.5829C22.5514 19.3803 23.4568 19.2587 24.4033 19.1777C24.7325 19.1372 24.8148 18.8131 24.5679 18.6105C22.8807 17.395 21.1934 16.0985 19.465 14.9236C19.2181 14.7615 18.9712 15.0451 19.0123 15.2477C19.2181 16.5037 19.4239 17.8002 19.5885 19.0562C19.6296 19.3398 20.1235 19.3398 20.1646 19.0562C20.3292 18.2459 20.4527 17.4761 20.6173 16.6657C20.4115 16.6252 20.2058 16.6252 20 16.5847C20.0412 17.2735 20.0412 17.9622 20.0823 18.651C20.0823 18.9751 20.6173 19.0562 20.6996 18.732C20.7819 18.3269 20.9053 17.9622 20.9877 17.5571C20.7819 17.5166 20.5761 17.5166 20.3704 17.4761C20.4115 17.9217 20.4527 18.3269 20.4938 18.7726C20.4938 18.9751 20.7407 19.1777 20.9465 19.0157C21.1934 18.8131 21.358 18.6105 21.4815 18.3269C21.2757 18.3674 21.1111 18.3674 20.9053 18.4079C20.9877 18.5295 21.0288 18.651 21.07 18.7726C21.1111 18.8941 21.2346 19.0157 21.358 19.0157C21.5638 19.0157 21.7284 18.9346 21.9342 18.8536C21.9753 18.8131 22.2634 18.651 22.3045 18.6915C22.5103 19.0157 23.0453 18.732 22.8395 18.3674C22.6749 18.1243 22.428 18.0433 22.1399 18.0838C21.8518 18.1243 21.6461 18.4079 21.358 18.4079C21.4403 18.489 21.5638 18.57 21.6461 18.651C21.6049 18.4484 21.5226 18.2864 21.4403 18.1243C21.3169 17.8812 20.9465 17.9622 20.8642 18.2053C20.823 18.3269 20.7407 18.4484 20.6173 18.5295C20.7819 18.6105 20.9465 18.6915 21.07 18.7726C21.0288 18.3269 20.9877 17.9217 20.9465 17.4761C20.9053 17.1519 20.4115 17.0304 20.3292 17.395C20.2469 17.8002 20.1235 18.1648 20.0412 18.57C20.2469 18.6105 20.4527 18.6105 20.6584 18.651C20.6173 17.9622 20.6173 17.2735 20.5761 16.5847C20.5761 16.2606 20.0412 16.139 19.9588 16.5037C19.7942 17.314 19.6708 18.0838 19.5062 18.8941C19.7119 18.8941 19.9177 18.8941 20.0823 18.8941C19.8765 17.6381 19.6708 16.3416 19.5062 15.0856C19.3416 15.2072 19.2181 15.3287 19.0535 15.4098C20.7819 16.5847 22.4691 17.8407 24.1564 19.0967C24.1975 18.8941 24.2798 18.732 24.321 18.5295C23.2099 18.651 22.0988 18.8131 21.0288 19.0562C20.3292 19.2182 19.0123 19.3398 18.9712 20.3122C19.177 20.3122 19.3827 20.3122 19.5885 20.3122C19.5885 18.7726 19.5885 17.1925 19.5885 15.6529C19.6708 15.2882 19.0535 15.2882 19.0535 15.6529Z" fill="#666562"/>
<path d="M19.3416 9.65653C18.107 11.6418 16.7078 13.465 15.1029 15.1667C13.5802 16.8278 11.9753 18.57 10 19.7044C8.97119 20.3121 7.81893 20.7173 6.66667 20.8388C5.59671 21.0009 4.19753 21.0414 3.41564 20.1501C2.59259 19.2182 2.6749 17.8812 2.92181 16.7468C3.12757 15.7339 3.45679 14.721 3.86831 13.7486C4.81482 11.5202 6.21399 9.49446 7.98354 7.79281C8.27161 7.5092 7.81893 7.10404 7.53087 7.34713C5.84362 8.96776 4.44445 10.9125 3.45679 13.0193C2.96296 14.0727 2.59259 15.1667 2.34568 16.3011C2.13992 17.5166 1.97531 18.732 2.51029 19.8665C3.5391 22.1353 6.66667 21.7302 8.64198 21.0414C10.9877 20.2311 12.8395 18.4889 14.5267 16.7468C16.5432 14.6805 18.3539 12.4116 19.9177 9.98065C20.0823 9.65653 19.5473 9.3324 19.3416 9.65653Z" fill="#666562"/>
<path d="M20.1647 8.64366C19.0124 10.872 17.3663 12.8978 15.7614 14.802C14.1976 16.6658 12.4692 18.489 10.3704 19.7855C8.35396 21.0415 6.00828 21.8923 3.62145 21.8112C3.00416 21.7707 2.38688 21.6897 2.05766 21.1225C1.81075 20.6768 1.76959 20.1501 1.76959 19.6639C1.81075 18.4485 2.22227 17.1925 2.55149 16.0175C3.41568 13.303 4.6091 10.7505 6.17289 8.36005C6.37865 8.03593 5.84367 7.7118 5.63791 8.03593C4.15642 10.3048 3.00416 12.7763 2.13996 15.3287C1.68729 16.6252 1.31692 17.9623 1.15231 19.3398C1.07001 20.2717 1.15231 21.3656 1.9342 21.9733C2.83955 22.7026 4.32103 22.5 5.39099 22.338C6.62556 22.1759 7.81898 21.7707 8.97124 21.244C11.3992 20.1096 13.4157 18.3674 15.1441 16.3822C16.1317 15.2882 17.0371 14.1133 17.9424 12.9788C18.9301 11.6823 19.9177 10.3858 20.6585 8.92727C20.8642 8.60315 20.3704 8.31954 20.1647 8.64366Z" fill="#666562"/>
<path d="M18.6009 10.2237C18.5597 10.953 18.0247 11.5607 17.5721 12.128C17.1194 12.7357 16.6667 13.3029 16.1729 13.8701C15.2675 14.9235 14.321 15.9364 13.2922 16.8278C11.2346 18.651 8.76547 20.1095 6.04943 20.7578C4.6091 21.0819 2.8807 20.2716 2.75724 18.6915C2.67494 17.1114 3.41568 15.4908 3.99181 14.0727C5.10292 11.3582 6.29634 8.68413 7.28399 5.92906C7.40745 5.56442 6.83132 5.40236 6.70786 5.767C5.76136 8.48155 4.56794 11.1151 3.45683 13.7891C2.83955 15.3287 1.97535 17.1114 2.18111 18.813C2.34572 20.3932 3.70375 21.325 5.22638 21.4466C5.92597 21.4871 6.66671 21.244 7.32515 21.0414C8.02473 20.8388 8.68317 20.5552 9.34161 20.2716C10.6585 19.6234 11.893 18.8536 13.0453 17.9217C14.4033 16.8278 15.5967 15.5718 16.7079 14.2753C17.2428 13.627 17.7778 12.9788 18.2716 12.3305C18.7655 11.6823 19.2181 11.0746 19.2593 10.2642C19.2593 9.81857 18.642 9.81857 18.6009 10.2237Z" fill="#666562"/>
<path d="M19.5473 9.33243C16.4198 13.7081 12.6338 17.8002 7.65434 20.1096C6.41977 20.6768 5.14405 21.1225 3.82718 21.4466C3.16875 21.6087 2.51031 21.7302 1.85187 21.7707C1.60496 21.8112 1.31689 21.8518 1.06998 21.7707C0.576153 21.6087 0.617306 21.1225 0.658458 20.7173C0.781915 19.2993 1.4815 17.8812 2.09879 16.5847C2.67492 15.3287 3.2922 14.1133 3.99179 12.9383C5.51442 10.2643 7.28397 7.75232 9.30043 5.40241C9.54735 5.1188 9.13582 4.67313 8.84776 4.95674C6.9136 7.22561 5.18521 9.65655 3.66257 12.209C2.92183 13.5055 2.22224 14.802 1.60496 16.1796C0.987676 17.4761 0.288088 18.8941 0.0823262 20.3122C2.16942e-05 20.8794 -0.0822828 21.6087 0.370392 22.0138C0.740762 22.419 1.35805 22.3785 1.85187 22.2974C3.2922 22.1354 4.69138 21.8112 6.0494 21.3251C8.76545 20.3527 11.2346 18.8536 13.4157 16.9899C15.9671 14.8426 18.1482 12.2496 20.0823 9.535C20.2881 9.33243 19.7531 9.0083 19.5473 9.33243Z" fill="#666562"/>
<path d="M18.2716 9.85909C16.5432 11.6013 14.8148 13.3434 12.963 14.9641C11.1934 16.5847 9.34155 18.2458 7.32509 19.5423C6.37859 20.1501 5.14402 20.8793 3.95061 20.7578C3.41563 20.7173 2.88065 20.4742 2.63374 19.988C2.30452 19.4208 2.42797 18.651 2.55143 18.0433C3.00411 15.7339 4.36213 13.5055 5.55555 11.4797C6.95472 9.12981 8.55966 6.90145 10.1646 4.67309C10.4115 4.34896 9.87653 4.06535 9.62962 4.34896C8.06583 6.53681 6.4609 8.76517 5.06172 11.0746C4.36213 12.209 3.74485 13.3434 3.16872 14.5589C2.59258 15.6933 2.09876 16.8683 1.893 18.1243C1.72839 19.1372 1.76954 20.2311 2.71604 20.8793C3.66254 21.5276 4.81481 21.3655 5.80246 20.9604C8.14814 20.0285 10.1646 18.2053 12.0576 16.5442C14.3621 14.5184 16.5844 12.4116 18.7243 10.2237C18.9712 10.0212 18.5597 9.57548 18.2716 9.85909Z" fill="#666562"/>
<path d="M10.9465 7.34714C10.9465 5.80755 10.9465 4.22743 10.9465 2.68784C10.9465 2.28268 10.3293 2.28268 10.3293 2.68784C10.3293 2.97145 9.87659 3.093 9.67082 3.13351C9.21815 3.25506 8.80663 3.33609 8.35395 3.41712C7.4486 3.6197 6.54325 3.74125 5.59675 3.82228C5.26753 3.86279 5.18523 4.18692 5.43214 4.3895C7.11938 5.60497 8.80663 6.90147 10.535 8.07642C10.7819 8.23849 11.0288 7.95488 10.9877 7.7523C10.7819 6.49631 10.5762 5.19981 10.4116 3.94383C10.3704 3.66022 9.87659 3.66022 9.83543 3.94383C9.67082 4.75414 9.54737 5.52394 9.38276 6.33425C9.58852 6.37476 9.79428 6.37477 10 6.41528C9.95889 5.72651 9.95889 5.03775 9.91774 4.34898C9.91774 4.02486 9.38276 3.94383 9.30045 4.26795C9.21815 4.67311 9.09469 5.03775 9.01239 5.4429C9.21815 5.48342 9.42391 5.48342 9.62967 5.52394C9.58852 5.07826 9.54737 4.67311 9.50622 4.22743C9.50622 4.02486 9.2593 3.82228 9.05354 3.98434C8.80663 4.18692 8.64202 4.3895 8.51856 4.67311C8.72432 4.63259 8.88893 4.63259 9.09469 4.59208C9.01239 4.47053 8.97124 4.34898 8.93008 4.22743C8.88893 4.10589 8.76547 3.98434 8.64202 3.98434C8.43626 3.98434 8.27165 4.06537 8.06589 4.1464C8.02473 4.18692 7.73667 4.34898 7.69552 4.30847C7.48975 3.98434 6.95477 4.26795 7.16054 4.63259C7.32514 4.87569 7.57206 4.95672 7.86012 4.9162C8.14819 4.87569 8.35395 4.59208 8.64202 4.59208C8.55971 4.51104 8.43626 4.43001 8.35395 4.34898C8.3951 4.55156 8.47741 4.71362 8.55971 4.87569C8.68317 5.11878 9.05354 5.03775 9.13584 4.79465C9.177 4.67311 9.2593 4.55156 9.38276 4.47053C9.21815 4.3895 9.05354 4.30847 8.93008 4.22743C8.97124 4.67311 9.01239 5.07826 9.05354 5.52394C9.09469 5.84806 9.58852 5.96961 9.67082 5.60497C9.75313 5.19981 9.87659 4.83517 9.95889 4.43001C9.75313 4.3895 9.54737 4.3895 9.34161 4.34898C9.38276 5.03775 9.38276 5.72651 9.42391 6.41528C9.42391 6.73941 9.95889 6.86095 10.0412 6.49631C10.2058 5.686 10.3293 4.9162 10.4939 4.10589C10.2881 4.10589 10.0823 4.10589 9.91774 4.10589C10.1235 5.36187 10.3293 6.65837 10.4939 7.91436C10.6585 7.79281 10.7819 7.67127 10.9465 7.59023C9.21815 6.41528 7.53091 5.15929 5.84366 3.90331C5.80251 4.10589 5.72021 4.26795 5.67905 4.47053C6.79017 4.34898 7.90128 4.18692 8.97124 3.94383C9.67082 3.78176 10.9877 3.66022 11.0288 2.68784C10.8231 2.68784 10.6173 2.68784 10.4116 2.68784C10.4116 4.22743 10.4116 5.80755 10.4116 7.34714C10.3293 7.71178 10.9465 7.71178 10.9465 7.34714Z" fill="#666562"/>

<path d="M48.8513 10.436C47.8673 9.836 46.7393 9.452 45.7553 8.852C45.0113 8.396 44.1233 7.628 44.1713 6.668C44.2193 5.684 45.3233 5.132 46.1393 4.844C47.4353 4.412 48.8033 4.316 50.1473 4.628C51.5153 4.916 52.0913 2.828 50.7233 2.54C48.5873 2.06 46.2113 2.252 44.2673 3.332C42.3713 4.364 41.4833 6.404 42.4193 8.42C43.3793 10.46 45.5873 11.108 47.4113 12.092C48.2033 12.524 48.9953 13.076 49.3073 13.964C49.5233 14.66 49.1873 15.308 48.6113 15.716C47.6753 16.388 46.4273 16.316 45.3473 16.148C44.8913 16.076 44.2433 16.004 43.8593 15.692C43.7873 15.62 43.5473 15.38 43.6433 15.26C44.6033 14.252 43.0673 12.716 42.1313 13.748C41.3633 14.564 41.2913 15.764 41.8913 16.7C42.5633 17.708 43.7633 18.068 44.8913 18.236C47.1233 18.596 49.8113 18.38 51.0593 16.196C52.3553 13.964 50.7953 11.588 48.8513 10.436ZM68.3948 7.46C67.9148 7.172 67.1468 7.316 66.9068 7.844C65.7308 10.388 64.5308 12.932 63.3548 15.452C62.4908 12.74 61.6508 10.004 60.7868 7.268C60.5228 6.404 59.2748 6.164 58.8188 7.004C57.7148 9.044 56.8988 11.228 56.3948 13.46C55.6268 11.42 54.8588 9.38 54.1148 7.316C53.8988 6.788 53.3708 6.404 52.7708 6.572C52.2428 6.716 51.8108 7.34 52.0268 7.892C53.2748 11.3 54.5468 14.684 55.7948 18.068C56.2268 19.22 57.8588 19.052 57.9308 17.78C58.0748 15.308 58.6268 12.86 59.5388 10.532C60.4028 13.268 61.2428 16.004 62.1068 18.716C62.3468 19.532 63.6668 19.868 64.0748 18.98C65.6348 15.644 67.2188 12.284 68.7788 8.924C69.0188 8.396 68.9228 7.772 68.3948 7.46ZM78.2556 8.252C77.7516 6.692 76.3596 5.708 74.7036 5.756C72.9756 5.804 71.6076 6.86 70.3116 7.94C69.8796 8.3 69.9276 9.068 70.3116 9.452C70.7676 9.908 71.3916 9.836 71.8476 9.452C72.7116 8.732 73.7676 7.82 74.9676 7.916C76.0236 8.012 76.3116 8.948 76.3596 9.884C76.3836 10.316 76.3836 10.772 76.3836 11.204C75.4956 10.748 74.4636 10.58 73.4076 10.724C71.6076 11.012 69.9036 12.404 69.4716 14.204C68.9676 16.292 70.3116 17.996 72.3516 18.308C73.6956 18.524 75.0156 18.308 76.1916 17.756C76.1916 18.044 76.1676 18.332 76.1676 18.644C76.1436 20.036 78.3036 20.036 78.3276 18.644C78.3756 16.94 78.4236 15.26 78.4716 13.556C78.4716 13.484 78.4716 13.412 78.4716 13.34C78.4716 13.244 78.4716 13.124 78.4716 13.028C78.5196 11.468 78.7596 9.74 78.2556 8.252ZM76.2876 13.964C76.2876 14.372 76.2636 14.78 76.2636 15.212C75.3756 15.932 74.2716 16.292 73.1196 16.244C72.1356 16.172 71.2476 15.74 71.6076 14.612C72.2316 12.596 75.0156 12.308 76.2876 13.796C76.2876 13.868 76.2876 13.916 76.2876 13.964ZM92.4327 9.764C91.4727 7.748 89.3367 6.548 87.1287 6.692C85.4007 6.788 83.7927 7.532 82.5927 8.732C82.6167 8.3 82.6407 7.892 82.6647 7.46C82.7367 6.068 80.5767 6.068 80.5047 7.46C80.2167 12.548 79.9287 17.636 79.6647 22.7C79.5687 24.092 81.7287 24.092 81.8247 22.7C81.9207 20.636 82.0407 18.572 82.1607 16.508C83.3847 17.588 84.9207 18.26 86.6007 18.308C88.7367 18.38 90.7767 17.3 92.0007 15.572C93.2247 13.868 93.3207 11.636 92.4327 9.764ZM87.3207 16.124C85.6647 16.34 83.8887 15.5 82.9047 14.18C82.7367 13.964 82.5447 13.796 82.3287 13.724C82.3527 13.22 82.3767 12.74 82.4007 12.26C82.6887 12.188 82.9767 12.02 83.0967 11.756C83.7687 10.364 84.9207 9.332 86.4327 8.948C87.8247 8.612 89.3607 8.996 90.2007 10.22C91.8327 12.644 90.1047 15.764 87.3207 16.124ZM94.4712 7.004C94.3032 10.268 94.1352 13.508 93.9912 16.772C93.9192 18.164 96.0792 18.164 96.1512 16.772C96.3192 13.508 96.4632 10.268 96.6312 7.004C96.7032 5.612 94.5432 5.636 94.4712 7.004ZM96.9432 2.9C96.8952 2.732 96.7992 2.564 96.6792 2.42C96.6552 2.396 96.6072 2.372 96.5832 2.348C96.4872 2.228 96.3672 2.156 96.2472 2.108C96.1032 2.06 95.9832 2.012 95.8152 2.012C95.6712 2.012 95.5272 2.06 95.4072 2.108C95.2632 2.156 95.1672 2.228 95.0472 2.348C94.9992 2.42 94.9512 2.492 94.8792 2.564C94.7832 2.732 94.7352 2.9 94.7352 3.116C94.7592 3.188 94.7592 3.284 94.7832 3.38C94.8312 3.572 94.9272 3.74 95.0472 3.86C95.0952 3.908 95.1192 3.932 95.1432 3.956C95.2392 4.052 95.3592 4.148 95.5032 4.172C95.6232 4.244 95.7672 4.268 95.9112 4.268C96.0552 4.268 96.1992 4.244 96.3192 4.172C96.4632 4.148 96.5832 4.052 96.6792 3.956C96.7272 3.884 96.7992 3.812 96.8472 3.74C96.9432 3.572 96.9912 3.38 96.9912 3.188C96.9912 3.092 96.9672 2.996 96.9432 2.9ZM107.649 15.62C106.065 16.46 104.169 17.324 102.345 16.892C100.641 16.508 99.6093 15.236 99.7773 13.484C99.9213 11.876 100.953 10.316 102.297 9.428C103.881 8.42 105.777 8.252 107.529 8.852C108.849 9.308 109.401 7.22 108.105 6.764C104.433 5.492 100.209 7.124 98.4333 10.628C97.5933 12.308 97.2572 14.348 98.0493 16.124C98.7933 17.756 100.473 18.788 102.201 19.052C104.529 19.412 106.737 18.548 108.753 17.492C109.977 16.844 108.897 14.972 107.649 15.62ZM118.756 8.252C118.252 6.692 116.86 5.708 115.204 5.756C113.476 5.804 112.108 6.86 110.812 7.94C110.38 8.3 110.428 9.068 110.812 9.452C111.268 9.908 111.892 9.836 112.348 9.452C113.212 8.732 114.268 7.82 115.468 7.916C116.524 8.012 116.812 8.948 116.86 9.884C116.884 10.316 116.884 10.772 116.884 11.204C115.996 10.748 114.964 10.58 113.908 10.724C112.108 11.012 110.404 12.404 109.972 14.204C109.468 16.292 110.812 17.996 112.852 18.308C114.196 18.524 115.516 18.308 116.692 17.756C116.692 18.044 116.668 18.332 116.668 18.644C116.644 20.036 118.804 20.036 118.828 18.644C118.876 16.94 118.924 15.26 118.972 13.556C118.972 13.484 118.972 13.412 118.972 13.34C118.972 13.244 118.972 13.124 118.972 13.028C119.02 11.468 119.26 9.74 118.756 8.252ZM116.788 13.964C116.788 14.372 116.764 14.78 116.764 15.212C115.876 15.932 114.772 16.292 113.62 16.244C112.636 16.172 111.748 15.74 112.108 14.612C112.732 12.596 115.516 12.308 116.788 13.796C116.788 13.868 116.788 13.916 116.788 13.964Z" fill="#666562"/>
</svg>
