<svg viewBox="0 0 40 40" fill="none" xmlns="http://www.w3.org/2000/svg">
<path d="M14.2304 22.4057C15.8787 19.746 17.7468 17.3035 19.8896 15.0237C21.9225 12.7983 24.0653 10.4643 26.7026 8.94445C28.0213 8.13026 29.5048 7.64175 31.0981 7.42463C32.5267 7.20752 34.3948 7.15324 35.4387 8.34738C36.5376 9.59581 36.4277 11.387 36.098 12.9068C35.8233 14.2638 35.3837 15.6208 34.8343 16.9235C33.5706 19.9089 31.7025 22.6228 29.3399 24.9026C28.9553 25.2825 29.5597 25.8253 29.9443 25.4997C32.197 23.3285 34.0651 20.7231 35.3837 17.9005C36.0431 16.4893 36.5376 15.0237 36.8672 13.5039C37.2518 11.9841 37.4716 10.3014 36.7573 8.78162C35.3837 5.74197 31.208 6.28477 28.5707 7.20752C25.4389 8.2931 22.9665 10.6271 20.7138 12.9611C18.0215 15.7294 15.604 18.769 13.5161 22.0258C13.2414 22.46 13.9557 22.8942 14.2304 22.4057Z" fill="#666562"/>
<path d="M13.0766 23.817C14.615 20.8316 16.8128 18.1177 18.9556 15.5665C21.0435 13.0697 23.3511 10.6271 26.1532 8.89016C28.8455 7.2075 31.9773 6.06764 35.164 6.1762C35.9881 6.23048 36.8123 6.33903 37.2519 7.09894C37.5815 7.69602 37.6365 8.40165 37.6365 9.053C37.5815 10.6814 37.0321 12.364 36.5925 13.9381C35.4387 17.5749 33.8453 20.9945 31.7575 24.1969C31.4828 24.6312 32.197 25.0654 32.4717 24.6312C34.4497 21.5915 35.9881 18.2805 37.142 14.8609C37.7463 13.124 38.2408 11.3327 38.4606 9.48724C38.5705 8.23881 38.4606 6.77327 37.4167 5.95908C36.2079 4.98205 34.2299 5.25345 32.8014 5.47056C31.1531 5.68768 29.5597 6.23048 28.0213 6.93611C24.7796 8.45593 22.0874 10.7899 19.7797 13.4496C18.4611 14.9152 17.2523 16.4893 16.0436 18.0091C14.7249 19.746 13.4063 21.483 12.4173 23.437C12.1426 23.8713 12.8568 24.2512 13.0766 23.817Z" fill="#666562"/>
<path d="M15.1645 21.7001C15.2194 20.723 15.9337 19.9089 16.5381 19.1489C17.1425 18.3348 17.7469 17.5748 18.4062 16.8149C19.6149 15.4037 20.8786 14.0467 22.2522 12.8525C24.9994 10.41 28.2961 8.45591 31.9223 7.58744C33.8454 7.15321 36.153 8.2388 36.3178 10.3557C36.4827 12.4183 35.4387 14.6438 34.6695 16.4893C33.186 20.126 31.5927 23.7084 30.274 27.3994C30.1092 27.8879 30.8784 28.105 31.0432 27.6165C32.3069 23.9798 33.9003 20.4516 35.3838 16.8692C36.208 14.8066 37.3618 12.4183 37.087 10.1386C36.8673 8.02168 35.0541 6.77325 33.0212 6.61042C32.0872 6.55614 31.0982 6.88181 30.2191 7.15321C29.285 7.42461 28.4059 7.80456 27.5268 8.18452C25.7686 9.05299 24.1203 10.0843 22.5819 11.3327C20.7688 12.7983 19.1754 14.4809 17.6919 16.2179C16.9776 17.0863 16.2634 17.9548 15.604 18.8233C14.9447 19.6917 14.3403 20.5059 14.2854 21.5915C14.3403 22.2429 15.1645 22.2429 15.1645 21.7001Z" fill="#666562"/>
<path d="M13.9557 22.8942C18.1314 17.0321 23.1862 11.5498 29.8344 8.45592C31.4828 7.69601 33.186 7.09894 34.9442 6.6647C35.8233 6.44758 36.7024 6.28475 37.5815 6.23047C37.9112 6.17619 38.2958 6.12191 38.6254 6.23047C39.2848 6.44758 39.2298 7.09894 39.1749 7.64173C39.01 9.54151 38.076 11.4413 37.2518 13.1782C36.4826 14.8609 35.6585 16.4893 34.7244 18.0634C32.6915 21.6458 30.3289 25.0111 27.6367 28.1593C27.307 28.5393 27.8565 29.1363 28.2411 28.7564C30.8234 25.7167 33.1311 22.46 35.164 19.0404C36.153 17.3035 37.087 15.5665 37.9112 13.721C38.7353 11.9841 39.6694 10.0843 39.9441 8.18452C40.054 7.31605 40.1639 6.3933 39.5595 5.79623C39.065 5.25344 38.2408 5.30772 37.5815 5.41628C35.6585 5.63339 33.7904 6.06763 31.9772 6.71898C28.351 7.96741 25.0543 10.03 22.1423 12.4726C18.6809 15.3494 15.8238 18.8233 13.2414 22.46C12.9118 22.8942 13.626 23.3285 13.9557 22.8942Z" fill="#666562"/>
<path d="M15.659 22.1343C17.9666 19.8003 20.2742 17.4663 22.7467 15.2951C25.1093 13.124 27.5817 10.8985 30.274 9.16157C31.5377 8.34738 33.186 7.37035 34.7794 7.53319C35.4936 7.58747 36.2079 7.91315 36.5376 8.5645C36.9771 9.32441 36.8123 10.3557 36.6475 11.1699C36.0431 14.2638 34.2299 17.2492 32.6366 19.9632C30.7685 23.1114 28.6257 26.0967 26.4829 29.0821C26.1532 29.5163 26.8675 29.8963 27.1971 29.5163C29.285 26.5852 31.4278 23.5999 33.2959 20.506C34.2299 18.9861 35.0541 17.4663 35.8233 15.8379C36.5925 14.3181 37.2518 12.744 37.5266 11.0613C37.7463 9.70436 37.6914 8.23882 36.4277 7.37035C35.164 6.50188 33.6256 6.719 32.3069 7.26179C29.1202 8.45594 26.4829 10.8985 23.9555 13.124C20.8786 15.8379 17.9116 18.6605 15.0546 21.5915C14.67 21.9715 15.2743 22.5143 15.659 22.1343Z" fill="#666562"/>
<path d="M25.4389 25.5539C25.4389 27.6166 25.4389 29.7334 25.4389 31.7961C25.4389 32.3389 26.2631 32.3389 26.2631 31.7961C26.2631 31.4161 26.8675 31.2533 27.1422 31.199C27.7466 31.0362 28.296 30.9276 28.9004 30.819C30.1091 30.5476 31.3179 30.3848 32.5816 30.2762C33.0212 30.222 33.1311 29.7877 32.8014 29.5163C30.5487 27.888 28.296 26.151 25.9884 24.5769C25.6587 24.3598 25.329 24.7397 25.384 25.0111C25.6587 26.6938 25.9334 28.4307 26.1532 30.1134C26.2081 30.4934 26.8675 30.4934 26.9224 30.1134C27.1422 29.0278 27.307 27.9965 27.5268 26.9109C27.2521 26.8566 26.9774 26.8566 26.7026 26.8024C26.7576 27.7251 26.7576 28.6479 26.8125 29.5706C26.8125 30.0048 27.5268 30.1134 27.6367 29.6792C27.7466 29.1364 27.9114 28.6479 28.0213 28.1051C27.7466 28.0508 27.4718 28.0508 27.1971 27.9965C27.2521 28.5936 27.307 29.1364 27.362 29.7334C27.362 30.0048 27.6916 30.2762 27.9663 30.0591C28.296 29.7877 28.5158 29.5163 28.6806 29.1364C28.4059 29.1907 28.1861 29.1907 27.9114 29.2449C28.0213 29.4078 28.0762 29.5706 28.1312 29.7334C28.1861 29.8963 28.3509 30.0591 28.5158 30.0591C28.7905 30.0591 29.0103 29.9506 29.285 29.842C29.3399 29.7877 29.7245 29.5706 29.7795 29.6249C30.0542 30.0591 30.7685 29.6792 30.4938 29.1907C30.274 28.865 29.9443 28.7564 29.5597 28.8107C29.1751 28.865 28.9004 29.2449 28.5158 29.2449C28.6257 29.3535 28.7905 29.4621 28.9004 29.5706C28.8454 29.2992 28.7356 29.0821 28.6257 28.865C28.4608 28.5393 27.9663 28.6479 27.8565 28.9735C27.8015 29.1364 27.6916 29.2992 27.5268 29.4078C27.7466 29.5163 27.9663 29.6249 28.1312 29.7334C28.0762 29.1364 28.0213 28.5936 27.9663 27.9965C27.9114 27.5623 27.2521 27.3994 27.1422 27.888C27.0323 28.4307 26.8675 28.9193 26.7576 29.4621C27.0323 29.5163 27.307 29.5163 27.5817 29.5706C27.5268 28.6479 27.5268 27.7251 27.4718 26.8024C27.4718 26.3681 26.7576 26.2053 26.6477 26.6938C26.4279 27.7794 26.2631 28.8107 26.0433 29.8963C26.318 29.8963 26.5927 29.8963 26.8125 29.8963C26.5378 28.2136 26.2631 26.4767 26.0433 24.794C25.8235 24.9569 25.6587 25.1197 25.4389 25.2283C27.7466 26.8024 29.9993 28.485 32.252 30.1677C32.3069 29.8963 32.4168 29.6792 32.4717 29.4078C30.9882 29.5706 29.5048 29.7877 28.0762 30.1134C27.1422 30.3305 25.384 30.4934 25.329 31.7961C25.6038 31.7961 25.8785 31.7961 26.1532 31.7961C26.1532 29.7334 26.1532 27.6166 26.1532 25.5539C26.2631 25.0654 25.4389 25.0654 25.4389 25.5539Z" fill="#666562"/>
<path d="M25.8235 17.5205C24.1752 20.1802 22.3071 22.6228 20.1643 24.9025C18.1314 27.128 15.9886 29.462 13.3513 30.9818C11.9777 31.796 10.4393 32.3388 8.90086 32.5016C7.47233 32.7187 5.60424 32.773 4.56031 31.5789C3.46143 30.3304 3.57132 28.5392 3.90098 27.0194C4.1757 25.6624 4.61525 24.3054 5.16469 23.0027C6.4284 20.0174 8.29648 17.3034 10.6591 15.0237C11.0437 14.6437 10.4393 14.1009 10.0547 14.4266C7.80199 16.5978 5.9339 19.2032 4.61525 22.0257C3.95593 23.437 3.46143 24.9025 3.13177 26.4223C2.85705 28.0507 2.63728 29.6791 3.35155 31.1989C4.72514 34.2386 8.90086 33.6958 11.5382 32.773C14.67 31.6874 17.1424 29.3534 19.3951 27.0194C22.0874 24.2512 24.5049 21.2115 26.5927 17.9548C26.8125 17.5205 26.0983 17.0863 25.8235 17.5205Z" fill="#666562"/>
<path d="M26.9224 16.1636C25.384 19.1489 23.1862 21.8629 21.0434 24.414C18.9556 26.9109 16.6479 29.3534 13.8458 31.0904C11.1535 32.773 8.02175 33.9129 4.83502 33.8043C4.01086 33.7501 3.1867 33.6415 2.74715 32.8816C2.41749 32.2845 2.36255 31.5789 2.36255 30.9275C2.41749 29.2992 2.96693 27.6165 3.40648 26.0424C4.5603 22.4057 6.15366 18.9861 8.24153 15.7836C8.51624 15.3494 7.80198 14.9151 7.52726 15.3494C5.54928 18.389 4.01086 21.7 2.85704 25.1196C2.25266 26.8566 1.75817 28.6478 1.53839 30.4933C1.4285 31.7417 1.53839 33.2073 2.58232 34.0215C3.79108 34.9985 5.76906 34.7271 7.1976 34.51C8.84591 34.2929 10.4393 33.7501 11.9777 33.0444C15.2194 31.5246 17.9116 29.1906 20.2193 26.5309C21.5379 25.0654 22.7467 23.4913 23.9554 21.9714C25.2741 20.2345 26.5927 18.4976 27.5817 16.5435C27.8564 16.1093 27.1971 15.7293 26.9224 16.1636Z" fill="#666562"/>
<path d="M24.8346 18.2805C24.7796 19.2575 24.0653 20.0717 23.461 20.8316C22.8566 21.6458 22.2522 22.4057 21.5929 23.1656C20.3841 24.5769 19.1204 25.9338 17.7468 27.128C14.9996 29.5706 11.703 31.5246 8.07672 32.3931C6.15369 32.8273 3.84605 31.7417 3.68122 29.6248C3.57133 27.5079 4.56032 25.3368 5.32953 23.437C6.81301 19.8003 8.40638 16.2178 9.72503 12.5268C9.88986 12.0383 9.12065 11.8212 8.95582 12.3097C7.69211 15.9464 6.09875 19.4746 4.61527 23.057C3.79111 25.1197 2.63729 27.5079 2.91201 29.7877C3.13179 31.9046 4.94493 33.153 6.97785 33.3158C7.91189 33.3701 8.90088 33.0444 9.77998 32.773C10.714 32.5016 11.5931 32.1217 12.4722 31.7417C14.2304 30.8733 15.8787 29.842 17.4172 28.5935C19.2303 27.128 20.8237 25.4453 22.3071 23.7084C23.0214 22.8399 23.7357 21.9715 24.395 21.103C25.0543 20.2345 25.6587 19.4203 25.7137 18.3347C25.7137 17.7377 24.8895 17.7377 24.8346 18.2805Z" fill="#666562"/>
<path d="M26.0983 17.0863C21.9225 22.9485 16.8677 28.4307 10.2195 31.5246C8.57122 32.2846 6.86796 32.8816 5.10976 33.3159C4.23066 33.533 3.35156 33.6958 2.47247 33.7501C2.1428 33.8044 1.7582 33.8587 1.42853 33.7501C0.769209 33.533 0.824153 32.8816 0.879097 32.3388C1.04393 30.4391 1.97797 28.5393 2.80213 26.8023C3.57134 25.1197 4.3955 23.4913 5.32954 21.9172C7.36246 18.3348 9.72504 14.9694 12.4173 11.8212C12.7469 11.4413 12.1975 10.8442 11.8129 11.2242C9.23054 14.2638 6.92291 17.5206 4.88999 20.9402C3.901 22.6771 2.96696 24.414 2.1428 26.2595C1.31865 27.9965 0.384603 29.8963 0.109884 31.796C-2.997e-06 32.5559 -0.109891 33.533 0.494491 34.0758C0.988984 34.6186 1.81314 34.5643 2.47247 34.4557C4.3955 34.2386 6.26358 33.8044 8.07673 33.153C11.703 31.8503 14.9996 29.842 17.9117 27.3451C21.3182 24.4683 24.2302 20.9944 26.8125 17.3577C27.0873 17.0863 26.373 16.6521 26.0983 17.0863Z" fill="#666562"/>
<path d="M24.395 17.7919C22.0874 20.126 19.7798 22.46 17.3073 24.6311C14.9447 26.8023 12.4722 29.0278 9.78 30.7647C8.51629 31.5789 6.86798 32.5559 5.27461 32.3931C4.56034 32.3388 3.84607 32.0131 3.51641 31.3618C3.07686 30.6019 3.24169 29.5706 3.40652 28.7564C4.0109 25.6624 5.82405 22.6771 7.41742 19.9631C9.2855 16.8149 11.4283 13.8296 13.5711 10.8442C13.9008 10.41 13.1865 10.03 12.8568 10.41C10.769 13.341 8.62618 16.3264 6.75809 19.4203C5.82405 20.9401 4.99989 22.46 4.23068 24.0884C3.46147 25.6082 2.80214 27.1823 2.52742 28.8649C2.30765 30.2219 2.36259 31.6875 3.6263 32.5559C4.89 33.4244 6.42843 33.2073 7.74708 32.6645C10.8789 31.4161 13.5711 28.9735 16.0985 26.748C19.1754 24.0341 22.1423 21.2115 24.9994 18.2805C25.3291 18.0091 24.7796 17.412 24.395 17.7919Z" fill="#666562"/>
<path d="M14.6151 14.4266C14.6151 12.364 14.6151 10.2471 14.6151 8.1845C14.6151 7.64171 13.7909 7.64171 13.7909 8.1845C13.7909 8.56446 13.1865 8.72729 12.9118 8.78157C12.3074 8.94441 11.758 9.05297 11.1536 9.16153C9.94484 9.43292 8.73607 9.59576 7.47237 9.70432C7.03282 9.7586 6.92293 10.1928 7.25259 10.4642C9.50529 12.0926 11.758 13.8296 14.0656 15.4037C14.3953 15.6208 14.7249 15.2408 14.67 14.9694C14.3953 13.2868 14.1206 11.5498 13.9008 9.86716C13.8458 9.4872 13.1865 9.4872 13.1316 9.86716C12.9118 10.9527 12.747 11.9841 12.5272 13.0696C12.8019 13.1239 13.0766 13.1239 13.3513 13.1782C13.2964 12.2555 13.2964 11.3327 13.2415 10.41C13.2415 9.97572 12.5272 9.86716 12.4173 10.3014C12.3074 10.8442 12.1426 11.3327 12.0327 11.8755C12.3074 11.9298 12.5821 11.9298 12.8569 11.9841C12.8019 11.387 12.747 10.8442 12.692 10.2471C12.692 9.97572 12.3624 9.70432 12.0876 9.92144C11.758 10.1928 11.5382 10.4642 11.3734 10.8442C11.6481 10.7899 11.8679 10.7899 12.1426 10.7356C12.0327 10.5728 11.9778 10.41 11.9228 10.2471C11.8679 10.0843 11.703 9.92144 11.5382 9.92144C11.2635 9.92144 11.0437 10.03 10.769 10.1386C10.714 10.1928 10.3294 10.41 10.2745 10.3557C9.99978 9.92144 9.28551 10.3014 9.56023 10.7899C9.78 11.1156 10.1097 11.2241 10.4943 11.1699C10.8789 11.1156 11.1536 10.7356 11.5382 10.7356C11.4283 10.6271 11.2635 10.5185 11.1536 10.41C11.2085 10.6813 11.3184 10.8985 11.4283 11.1156C11.5931 11.4413 12.0876 11.3327 12.1975 11.007C12.2525 10.8442 12.3624 10.6814 12.5272 10.5728C12.3074 10.4642 12.0876 10.3557 11.9228 10.2471C11.9778 10.8442 12.0327 11.387 12.0876 11.9841C12.1426 12.4183 12.8019 12.5811 12.9118 12.0926C13.0217 11.5498 13.1865 11.0613 13.2964 10.5185C13.0217 10.4642 12.747 10.4642 12.4722 10.41C12.5272 11.3327 12.5272 12.2555 12.5821 13.1782C12.5821 13.6124 13.2964 13.7753 13.4063 13.2868C13.6261 12.2012 13.7909 11.1699 14.0107 10.0843C13.736 10.0843 13.4612 10.0843 13.2415 10.0843C13.5162 11.7669 13.7909 13.5039 14.0107 15.1865C14.2304 15.0237 14.3953 14.8609 14.6151 14.7523C12.3074 13.1782 10.0547 11.4955 7.80203 9.81288C7.74709 10.0843 7.6372 10.3014 7.58226 10.5728C9.06574 10.41 10.5492 10.1928 11.9778 9.86716C12.9118 9.65004 14.67 9.4872 14.7249 8.1845C14.4502 8.1845 14.1755 8.1845 13.9008 8.1845C13.9008 10.2471 13.9008 12.364 13.9008 14.4266C13.7909 14.9151 14.6151 14.9151 14.6151 14.4266Z" fill="#666562"/>
</svg>
