<svg viewBox="0 0 20 20" xmlns="http://www.w3.org/2000/svg">
<path d="M4.13921 10.475C7.83921 12.375 11.5392 14.075 15.2392 15.875C16.2392 16.375 16.8392 14.875 15.8392 14.475C12.0392 12.975 8.1392 11.475 4.3392 10.075C4.0392 10.075 3.93921 10.375 4.13921 10.475Z" fill="currentColor"/>
<path d="M16.139 15.775C16.039 11.975 16.039 8.175 16.239 4.275C16.339 3.275 14.739 3.275 14.639 4.275C14.539 8.175 14.739 11.975 15.539 15.775C15.639 16.075 16.139 16.075 16.139 15.775Z" fill="currentColor"/>
<path d="M4.23922 10.475C8.53922 8.97499 12.5392 6.875 16.0392 4.075C16.8392 3.475 15.7392 2.37499 14.9392 2.97499C11.5392 5.77499 7.93923 8.17499 4.03923 10.175C3.93923 10.275 4.03922 10.575 4.23922 10.475Z" fill="currentColor"/>
<path d="M15.0391 14.0751C12.3391 12.4751 9.23913 11.2751 6.43913 9.9751C6.33913 10.3751 6.33912 10.7751 6.23912 11.2751C8.33912 10.5751 10.4391 9.87509 12.5391 9.17509C12.3391 8.77509 12.0391 8.3751 11.8391 7.9751C11.0391 8.9751 9.93915 9.67509 8.63915 9.67509C7.93915 9.67509 7.63913 10.8751 8.43913 10.9751C10.0391 11.2751 11.4391 11.7751 12.8391 12.6751C12.9391 12.1751 12.9391 11.7751 13.0391 11.2751C12.2391 11.3751 11.6391 11.0751 11.1391 10.4751C10.8391 10.8751 10.5391 11.2751 10.2391 11.6751C11.4391 12.3751 12.5391 13.1751 13.6391 13.8751C14.4391 14.3751 15.0391 13.2751 14.5391 12.6751C14.1391 12.1751 13.6391 11.5751 13.2391 11.0751C12.8391 11.4751 12.5391 11.7751 12.1391 12.1751C12.6391 12.6751 13.0391 13.1751 13.5391 13.7751C14.1391 14.3751 14.9391 13.6751 14.8391 13.0751C14.6391 11.9751 14.5391 10.8751 14.3391 9.7751C14.2391 9.3751 13.7391 9.0751 13.3391 9.2751C12.4391 9.6751 11.9391 10.0751 11.4391 10.8751C11.0391 11.5751 12.0391 12.4751 12.6391 11.7751C13.3391 10.8751 13.6391 9.97511 13.5391 8.87511C13.5391 8.47511 13.1391 8.07509 12.6391 8.17509C11.7391 8.57509 11.0391 9.0751 10.4391 9.9751C10.1391 10.4751 10.6391 11.0751 11.2391 10.9751C12.5391 10.5751 13.5391 9.7751 14.2391 8.5751C14.4391 8.0751 14.1391 7.5751 13.6391 7.5751C12.1391 7.5751 11.0391 8.0751 9.93913 8.9751C9.33913 9.4751 10.1391 10.4751 10.7391 9.9751C12.0391 9.0751 13.0391 8.07511 13.9391 6.87511C14.3391 6.27511 13.5391 5.57511 12.9391 5.87511C11.8391 6.57511 10.6391 7.2751 9.53914 8.0751C8.83914 8.4751 9.33914 9.47511 10.0391 9.37511C11.7391 9.07511 12.8391 8.0751 13.4391 6.4751C13.7391 5.7751 12.7391 5.3751 12.3391 5.7751C11.4391 6.5751 10.4391 7.1751 9.23912 7.5751C8.43912 7.8751 8.73915 9.17511 9.63915 8.87511C11.0391 8.47511 12.2391 7.7751 13.3391 6.7751C12.9391 6.5751 12.5391 6.3751 12.2391 6.0751C11.7391 7.1751 10.9391 7.7751 9.83913 7.9751C10.0391 8.3751 10.2391 8.8751 10.3391 9.2751C11.4391 8.5751 12.6391 7.8751 13.7391 7.0751C13.4391 6.7751 13.1391 6.4751 12.7391 6.0751C12.0391 7.1751 11.1391 8.0751 10.0391 8.7751C10.3391 9.0751 10.5391 9.4751 10.8391 9.7751C11.6391 9.0751 12.5391 8.7751 13.6391 8.7751C13.4391 8.4751 13.2391 8.0751 13.0391 7.7751C12.5391 8.6751 11.9391 9.2751 10.9391 9.5751C11.2391 9.8751 11.4391 10.2751 11.7391 10.5751C12.0391 10.0751 12.5391 9.6751 13.1391 9.4751C12.8391 9.2751 12.5391 9.0751 12.2391 8.7751C12.3391 9.4751 12.1391 10.0751 11.6391 10.5751C12.0391 10.8751 12.4391 11.1751 12.8391 11.4751C13.1391 11.1751 13.5391 10.8751 13.8391 10.5751C13.5391 10.3751 13.2391 10.1751 12.8391 10.0751C13.0391 11.1751 13.1391 12.2751 13.3391 13.3751C13.7391 13.1751 14.2391 12.8751 14.6391 12.6751C14.1391 12.1751 13.7391 11.6751 13.2391 11.1751C12.5391 10.4751 11.5391 11.4751 12.1391 12.2751C12.5391 12.7751 13.0391 13.3751 13.4391 13.8751C13.7391 13.4751 14.0391 13.0751 14.3391 12.6751C13.2391 11.9751 12.0391 11.2751 10.9391 10.4751C10.1391 9.9751 9.53914 11.0751 10.0391 11.6751C10.9391 12.7751 12.0391 13.0751 13.3391 12.8751C13.9391 12.7751 14.0391 11.7751 13.5391 11.4751C12.0391 10.5751 10.4391 10.0751 8.73912 9.7751C8.63912 10.1751 8.63914 10.6751 8.53914 11.0751C10.2391 11.0751 11.7391 10.3751 12.7391 9.0751C13.1391 8.5751 12.8391 7.67511 12.0391 7.87511C9.93914 8.57511 7.83912 9.3751 5.73912 10.0751C5.23912 10.2751 5.03914 11.0751 5.53914 11.3751C8.33914 12.7751 11.4391 14.3751 14.5391 14.9751C15.1391 14.8751 15.4391 14.3751 15.0391 14.0751Z" fill="currentColor"/>
</svg>
