<svg viewBox="0 0 20 20" xmlns="http://www.w3.org/2000/svg">
<path d="M4.06863 5.78993C5.53271 6.385 7.17979 6.08748 8.64387 5.9883C10.474 5.88912 12.2126 5.69077 14.0427 5.49241C14.9577 5.39323 14.9577 3.90557 14.0427 4.00474C12.1211 4.2031 10.1995 4.30228 8.27786 4.59982C6.81378 4.79817 5.3497 4.89735 4.06863 5.5916C3.97712 5.69077 3.97712 5.78993 4.06863 5.78993Z" fill="currentColor"/>
<path d="M4.16014 5.88927C5.07519 7.57529 6.26475 8.9638 7.2713 10.5506C8.27786 12.1375 9.1014 13.8235 9.83344 15.6087C10.1995 16.5013 11.389 15.7079 11.023 14.8153C9.55893 11.4432 7.45431 7.47613 4.43465 5.69093C4.25164 5.49257 4.06864 5.69091 4.16014 5.88927Z" fill="currentColor"/>
<path d="M11.023 15.2119C12.3956 11.9391 14.0427 8.86457 15.8728 5.88923C16.4218 4.89745 15.0492 4.10403 14.5002 4.99663C12.5786 8.07115 11.2975 11.344 10.474 14.9144C10.3825 15.3111 10.9315 15.6087 11.023 15.2119Z" fill="currentColor"/>
</svg>
