<svg viewBox="0 0 20 20" xmlns="http://www.w3.org/2000/svg">
<path d="M14.2101 4.06863C13.615 5.53271 13.9125 7.17979 14.0117 8.64387C14.1109 10.474 14.3092 12.2126 14.5076 14.0427C14.6068 14.9577 16.0944 14.9577 15.9953 14.0427C15.7969 12.1211 15.6977 10.1995 15.4002 8.27786C15.2018 6.81378 15.1026 5.3497 14.4084 4.06863C14.3092 3.97712 14.2101 3.97712 14.2101 4.06863Z" fill="currentColor"/>
<path d="M14.1107 4.16014C12.4247 5.07519 11.0362 6.26475 9.44936 7.2713C7.86251 8.27786 6.17648 9.1014 4.39128 9.83344C3.49868 10.1995 4.29212 11.389 5.18472 11.023C8.55677 9.55893 12.5239 7.45431 14.3091 4.43465C14.5074 4.25164 14.3091 4.06864 14.1107 4.16014Z" fill="currentColor"/>
<path d="M4.78805 11.023C8.06092 12.3956 11.1354 14.0427 14.1108 15.8728C15.1026 16.4218 15.896 15.0492 15.0034 14.5002C11.9289 12.5786 8.65598 11.2975 5.08558 10.474C4.68886 10.3825 4.39134 10.9315 4.78805 11.023Z" fill="currentColor"/>
</svg>
