<svg viewBox="0 0 20 20" xmlns="http://www.w3.org/2000/svg">
<path d="M9.52496 4.13921C7.62496 7.83921 5.92495 11.5392 4.12495 15.2392C3.62495 16.2392 5.12496 16.8392 5.52496 15.8392C7.02496 12.0392 8.52496 8.13919 9.92496 4.3392C9.92496 4.0392 9.62496 3.93921 9.52496 4.13921Z" fill="currentColor"/>
<path d="M4.225 16.139C8.025 16.039 11.825 16.039 15.725 16.239C16.725 16.339 16.725 14.739 15.725 14.639C11.825 14.539 8.025 14.739 4.225 15.539C3.925 15.639 3.925 16.139 4.225 16.139Z" fill="currentColor"/>
<path d="M9.52501 4.23922C11.025 8.53922 13.125 12.5392 15.925 16.0392C16.525 16.8392 17.625 15.7392 17.025 14.9392C14.225 11.5392 11.825 7.93923 9.82501 4.03923C9.72501 3.93923 9.42501 4.03922 9.52501 4.23922Z" fill="currentColor"/>
<path d="M5.9249 15.0391C7.5249 12.3391 8.7249 9.23913 10.0249 6.43913C9.6249 6.33913 9.2249 6.33912 8.7249 6.23912C9.4249 8.33912 10.1249 10.4391 10.8249 12.5391C11.2249 12.3391 11.6249 12.0391 12.0249 11.8391C11.0249 11.0391 10.3249 9.93915 10.3249 8.63915C10.3249 7.93915 9.1249 7.63913 9.0249 8.43913C8.7249 10.0391 8.22491 11.4391 7.32491 12.8391C7.82491 12.9391 8.2249 12.9391 8.7249 13.0391C8.6249 12.2391 8.9249 11.6391 9.5249 11.1391C9.1249 10.8391 8.72491 10.5391 8.32491 10.2391C7.62491 11.4391 6.82489 12.5391 6.12489 13.6391C5.62489 14.4391 6.72491 15.0391 7.32491 14.5391C7.82491 14.1391 8.4249 13.6391 8.9249 13.2391C8.5249 12.8391 8.22491 12.5391 7.82491 12.1391C7.32491 12.6391 6.8249 13.0391 6.2249 13.5391C5.6249 14.1391 6.3249 14.9391 6.9249 14.8391C8.0249 14.6391 9.1249 14.5391 10.2249 14.3391C10.6249 14.2391 10.9249 13.7391 10.7249 13.3391C10.3249 12.4391 9.92489 11.9391 9.12489 11.4391C8.42489 11.0391 7.5249 12.0391 8.2249 12.6391C9.1249 13.3391 10.0249 13.6391 11.1249 13.5391C11.5249 13.5391 11.9249 13.1391 11.8249 12.6391C11.4249 11.7391 10.9249 11.0391 10.0249 10.4391C9.5249 10.1391 8.9249 10.6391 9.0249 11.2391C9.4249 12.5391 10.2249 13.5391 11.4249 14.2391C11.9249 14.4391 12.4249 14.1391 12.4249 13.6391C12.4249 12.1391 11.9249 11.0391 11.0249 9.93913C10.5249 9.33913 9.5249 10.1391 10.0249 10.7391C10.9249 12.0391 11.9249 13.0391 13.1249 13.9391C13.7249 14.3391 14.4249 13.5391 14.1249 12.9391C13.4249 11.8391 12.7249 10.6391 11.9249 9.53914C11.5249 8.83914 10.5249 9.33914 10.6249 10.0391C10.9249 11.7391 11.9249 12.8391 13.5249 13.4391C14.2249 13.7391 14.6249 12.7391 14.2249 12.3391C13.4249 11.4391 12.8249 10.4391 12.4249 9.23912C12.1249 8.43912 10.8249 8.73915 11.1249 9.63915C11.5249 11.0391 12.2249 12.2391 13.2249 13.3391C13.4249 12.9391 13.6249 12.5391 13.9249 12.2391C12.8249 11.7391 12.2249 10.9391 12.0249 9.83913C11.6249 10.0391 11.1249 10.2391 10.7249 10.3391C11.4249 11.4391 12.1249 12.6391 12.9249 13.7391C13.2249 13.4391 13.5249 13.1391 13.9249 12.7391C12.8249 12.0391 11.9249 11.1391 11.2249 10.0391C10.9249 10.3391 10.5249 10.5391 10.2249 10.8391C10.9249 11.6391 11.2249 12.5391 11.2249 13.6391C11.5249 13.4391 11.9249 13.2391 12.2249 13.0391C11.3249 12.5391 10.7249 11.9391 10.4249 10.9391C10.1249 11.2391 9.7249 11.4391 9.4249 11.7391C9.9249 12.0391 10.3249 12.5391 10.5249 13.1391C10.7249 12.8391 10.9249 12.5391 11.2249 12.2391C10.5249 12.3391 9.9249 12.1391 9.4249 11.6391C9.1249 12.0391 8.8249 12.4391 8.5249 12.8391C8.8249 13.1391 9.1249 13.5391 9.4249 13.8391C9.6249 13.5391 9.8249 13.2391 9.9249 12.8391C8.8249 13.0391 7.72489 13.1391 6.62489 13.3391C6.82489 13.7391 7.12491 14.2391 7.32491 14.6391C7.82491 14.1391 8.32491 13.7391 8.82491 13.2391C9.52491 12.5391 8.5249 11.5391 7.7249 12.1391C7.2249 12.5391 6.62489 13.0391 6.12489 13.4391C6.52489 13.7391 6.92491 14.0391 7.32491 14.3391C8.02491 13.2391 8.7249 12.0391 9.5249 10.9391C10.0249 10.1391 8.92491 9.53914 8.32491 10.0391C7.22491 10.9391 6.92489 12.0391 7.12489 13.3391C7.22489 13.9391 8.2249 14.0391 8.5249 13.5391C9.4249 12.0391 9.9249 10.4391 10.2249 8.73912C9.8249 8.63912 9.3249 8.63914 8.9249 8.53914C8.9249 10.2391 9.6249 11.7391 10.9249 12.7391C11.4249 13.1391 12.3249 12.8391 12.1249 12.0391C11.4249 9.93914 10.6249 7.83912 9.9249 5.73912C9.7249 5.23912 8.92489 5.03914 8.62489 5.53914C7.22489 8.33914 5.6249 11.4391 5.0249 14.5391C5.1249 15.1391 5.6249 15.4391 5.9249 15.0391Z" fill="currentColor"/>
</svg>
