<svg viewBox="0 0 20 20" xmlns="http://www.w3.org/2000/svg">
<path d="M5.78993 15.9314C6.385 14.4673 6.08748 12.8202 5.9883 11.3561C5.88912 9.52603 5.69077 7.78744 5.49241 5.95734C5.39323 5.0423 3.90557 5.0423 4.00474 5.95734C4.2031 7.87895 4.30228 9.80054 4.59982 11.7221C4.79817 13.1862 4.89735 14.6503 5.5916 15.9314C5.69077 16.0229 5.78993 16.0229 5.78993 15.9314Z" fill="currentColor"/>
<path d="M5.88927 15.8399C7.57529 14.9248 8.9638 13.7352 10.5506 12.7287C12.1375 11.7221 13.8235 10.8986 15.6087 10.1666C16.5013 9.80054 15.7079 8.61097 14.8153 8.97699C11.4432 10.4411 7.47613 12.5457 5.69093 15.5654C5.49257 15.7484 5.69091 15.9314 5.88927 15.8399Z" fill="currentColor"/>
<path d="M15.2119 8.97697C11.9391 7.6044 8.86457 5.95732 5.88923 4.12722C4.89745 3.5782 4.10403 4.95077 4.99663 5.4998C8.07115 7.4214 11.344 8.70246 14.9144 9.52601C15.3111 9.61751 15.6087 9.06848 15.2119 8.97697Z" fill="currentColor"/>
</svg>
