<svg viewBox="0 0 20 20" xmlns="http://www.w3.org/2000/svg">
<path d="M10.475 15.8608C12.375 12.1608 14.075 8.46081 15.875 4.76081C16.375 3.76081 14.875 3.1608 14.475 4.1608C12.975 7.96081 11.475 11.8608 10.075 15.6608C10.075 15.9608 10.375 16.0608 10.475 15.8608Z" fill="currentColor"/>
<path d="M15.775 3.861C11.975 3.96101 8.175 3.96103 4.275 3.76103C3.275 3.66103 3.275 5.26101 4.275 5.36101C8.175 5.46101 11.975 5.26101 15.775 4.46101C16.075 4.36101 16.075 3.861 15.775 3.861Z" fill="currentColor"/>
<path d="M10.475 15.7608C8.97499 11.4608 6.875 7.46077 4.075 3.96077C3.475 3.16077 2.37499 4.26077 2.97499 5.06077C5.77499 8.46077 8.17499 12.0608 10.175 15.9608C10.275 16.0608 10.575 15.9608 10.475 15.7608Z" fill="currentColor"/>
<path d="M14.0751 4.96086C12.4751 7.66086 11.2751 10.7609 9.9751 13.5609C10.3751 13.6609 10.7751 13.6609 11.2751 13.7609C10.5751 11.6609 9.87509 9.56086 9.17509 7.46086C8.77509 7.66086 8.3751 7.96087 7.9751 8.16087C8.9751 8.96087 9.67509 10.0609 9.67509 11.3609C9.67509 12.0609 10.8751 12.3609 10.9751 11.5609C11.2751 9.96087 11.7751 8.56087 12.6751 7.16087C12.1751 7.06087 11.7751 7.06086 11.2751 6.96086C11.3751 7.76086 11.0751 8.36085 10.4751 8.86085C10.8751 9.16085 11.2751 9.46088 11.6751 9.76088C12.3751 8.56088 13.1751 7.46085 13.8751 6.36085C14.3751 5.56085 13.2751 4.96086 12.6751 5.46086C12.1751 5.86086 11.5751 6.36088 11.0751 6.76088C11.4751 7.16088 11.7751 7.46085 12.1751 7.86085C12.6751 7.36085 13.1751 6.96086 13.7751 6.46086C14.3751 5.86086 13.6751 5.06087 13.0751 5.16087C11.9751 5.36087 10.8751 5.46087 9.7751 5.66087C9.3751 5.76087 9.0751 6.26087 9.2751 6.66087C9.6751 7.56087 10.0751 8.06087 10.8751 8.56087C11.5751 8.96087 12.4751 7.96085 11.7751 7.36085C10.8751 6.66085 9.97511 6.36086 8.87511 6.46086C8.47511 6.46086 8.07509 6.86085 8.17509 7.36085C8.57509 8.26085 9.0751 8.96087 9.9751 9.56087C10.4751 9.86087 11.0751 9.36088 10.9751 8.76088C10.5751 7.46088 9.7751 6.46088 8.5751 5.76088C8.0751 5.56088 7.5751 5.86085 7.5751 6.36085C7.5751 7.86085 8.0751 8.96087 8.9751 10.0609C9.4751 10.6609 10.4751 9.86088 9.9751 9.26088C9.0751 7.96088 8.07511 6.96087 6.87511 6.06087C6.27511 5.66087 5.57511 6.46087 5.87511 7.06087C6.57511 8.16087 7.2751 9.36086 8.0751 10.4609C8.4751 11.1609 9.47511 10.6609 9.37511 9.96086C9.07511 8.26086 8.0751 7.16087 6.4751 6.56087C5.7751 6.26087 5.3751 7.26087 5.7751 7.66087C6.5751 8.56087 7.1751 9.56088 7.5751 10.7609C7.8751 11.5609 9.17511 11.2609 8.87511 10.3609C8.47511 8.96085 7.7751 7.76087 6.7751 6.66087C6.5751 7.06087 6.3751 7.46088 6.0751 7.76088C7.1751 8.26088 7.7751 9.06087 7.9751 10.1609C8.3751 9.96087 8.8751 9.76087 9.2751 9.66087C8.5751 8.56087 7.8751 7.36088 7.0751 6.26088C6.7751 6.56088 6.4751 6.86088 6.0751 7.26088C7.1751 7.96088 8.0751 8.86086 8.7751 9.96086C9.0751 9.66086 9.4751 9.46087 9.7751 9.16087C9.0751 8.36087 8.7751 7.46085 8.7751 6.36085C8.4751 6.56085 8.0751 6.76086 7.7751 6.96086C8.6751 7.46086 9.2751 8.06087 9.5751 9.06087C9.8751 8.76087 10.2751 8.56088 10.5751 8.26088C10.0751 7.96088 9.6751 7.46085 9.4751 6.86085C9.2751 7.16085 9.0751 7.46088 8.7751 7.76088C9.4751 7.66088 10.0751 7.86085 10.5751 8.36085C10.8751 7.96085 11.1751 7.56087 11.4751 7.16087C11.1751 6.86087 10.8751 6.46087 10.5751 6.16087C10.3751 6.46087 10.1751 6.76087 10.0751 7.16087C11.1751 6.96087 12.2751 6.86087 13.3751 6.66087C13.1751 6.26087 12.8751 5.76085 12.6751 5.36085C12.1751 5.86085 11.6751 6.26088 11.1751 6.76088C10.4751 7.46088 11.4751 8.46085 12.2751 7.86085C12.7751 7.46085 13.3751 6.96087 13.8751 6.56087C13.4751 6.26087 13.0751 5.96087 12.6751 5.66087C11.9751 6.76087 11.2751 7.96087 10.4751 9.06087C9.9751 9.86087 11.0751 10.4609 11.6751 9.96086C12.7751 9.06086 13.0751 7.96087 12.8751 6.66087C12.7751 6.06087 11.7751 5.96086 11.4751 6.46086C10.5751 7.96086 10.0751 9.56088 9.7751 11.2609C10.1751 11.3609 10.6751 11.3609 11.0751 11.4609C11.0751 9.76086 10.3751 8.26088 9.0751 7.26088C8.5751 6.86088 7.67511 7.16086 7.87511 7.96086C8.57511 10.0609 9.3751 12.1609 10.0751 14.2609C10.2751 14.7609 11.0751 14.9609 11.3751 14.4609C12.7751 11.6609 14.3751 8.56086 14.9751 5.46086C14.8751 4.86086 14.3751 4.56086 14.0751 4.96086Z" fill="currentColor"/>
</svg>
