<svg viewBox="0 0 20 20" xmlns="http://www.w3.org/2000/svg">
<path d="M15.9314 14.2101C14.4673 13.615 12.8202 13.9125 11.3561 14.0117C9.52603 14.1109 7.78744 14.3092 5.95734 14.5076C5.0423 14.6068 5.0423 16.0944 5.95734 15.9953C7.87895 15.7969 9.80054 15.6977 11.7221 15.4002C13.1862 15.2018 14.6503 15.1026 15.9314 14.4084C16.0229 14.3092 16.0229 14.2101 15.9314 14.2101Z" fill="currentColor"/>
<path d="M15.8399 14.1107C14.9248 12.4247 13.7352 11.0362 12.7287 9.44936C11.7221 7.86251 10.8986 6.17648 10.1666 4.39128C9.80054 3.49868 8.61097 4.29212 8.97699 5.18472C10.4411 8.55677 12.5457 12.5239 15.5654 14.3091C15.7484 14.5074 15.9314 14.3091 15.8399 14.1107Z" fill="currentColor"/>
<path d="M8.97697 4.78805C7.6044 8.06092 5.95732 11.1354 4.12722 14.1108C3.5782 15.1026 4.95077 15.896 5.4998 15.0034C7.4214 11.9289 8.70246 8.65598 9.52601 5.08558C9.61751 4.68886 9.06848 4.39134 8.97697 4.78805Z" fill="currentColor"/>
</svg>
