<svg viewBox="0 0 20 20" xmlns="http://www.w3.org/2000/svg">
<path d="M15.8608 9.52496C12.1608 7.62496 8.46081 5.92495 4.76081 4.12495C3.76081 3.62495 3.1608 5.12496 4.1608 5.52496C7.9608 7.02496 11.8608 8.52496 15.6608 9.92496C15.9608 9.92496 16.0608 9.62496 15.8608 9.52496Z" fill="currentColor"/>
<path d="M3.861 4.225C3.961 8.025 3.96103 11.825 3.76103 15.725C3.66103 16.725 5.261 16.725 5.361 15.725C5.461 11.825 5.26101 8.025 4.46101 4.225C4.36101 3.925 3.861 3.925 3.861 4.225Z" fill="currentColor"/>
<path d="M15.7608 9.52501C11.4608 11.025 7.46077 13.125 3.96077 15.925C3.16077 16.525 4.26077 17.625 5.06077 17.025C8.46077 14.225 12.0608 11.825 15.9608 9.82501C16.0608 9.72501 15.9608 9.42501 15.7608 9.52501Z" fill="currentColor"/>
<path d="M4.96086 5.9249C7.66086 7.5249 10.7609 8.7249 13.5609 10.0249C13.6609 9.6249 13.6609 9.2249 13.7609 8.7249C11.6609 9.4249 9.56086 10.1249 7.46086 10.8249C7.66086 11.2249 7.96087 11.6249 8.16087 12.0249C8.96087 11.0249 10.0609 10.3249 11.3609 10.3249C12.0609 10.3249 12.3609 9.1249 11.5609 9.0249C9.96087 8.7249 8.56087 8.22491 7.16087 7.32491C7.06087 7.82491 7.06086 8.2249 6.96086 8.7249C7.76086 8.6249 8.36085 8.9249 8.86085 9.5249C9.16085 9.1249 9.46088 8.72491 9.76088 8.32491C8.56088 7.62491 7.46085 6.82489 6.36085 6.12489C5.56085 5.62489 4.96086 6.7249 5.46086 7.3249C5.86086 7.82491 6.36088 8.4249 6.76088 8.9249C7.16088 8.5249 7.46085 8.22491 7.86085 7.82491C7.36085 7.32491 6.96086 6.8249 6.46086 6.2249C5.86086 5.6249 5.06087 6.3249 5.16087 6.9249C5.36087 8.0249 5.46087 9.1249 5.66087 10.2249C5.76087 10.6249 6.26087 10.9249 6.66087 10.7249C7.56087 10.3249 8.06087 9.92489 8.56087 9.12489C8.96087 8.42489 7.96085 7.5249 7.36085 8.2249C6.66085 9.1249 6.36086 10.0249 6.46086 11.1249C6.46086 11.5249 6.86085 11.9249 7.36085 11.8249C8.26085 11.4249 8.96087 10.9249 9.56087 10.0249C9.86087 9.5249 9.36088 8.9249 8.76088 9.0249C7.46088 9.4249 6.46088 10.2249 5.76088 11.4249C5.56088 11.9249 5.86085 12.4249 6.36085 12.4249C7.86085 12.4249 8.96087 11.9249 10.0609 11.0249C10.6609 10.5249 9.86088 9.5249 9.26088 10.0249C7.96088 10.9249 6.96087 11.9249 6.06087 13.1249C5.66087 13.7249 6.46086 14.4249 7.06087 14.1249C8.16086 13.4249 9.36086 12.7249 10.4609 11.9249C11.1609 11.5249 10.6609 10.5249 9.96086 10.6249C8.26086 10.9249 7.16087 11.9249 6.56087 13.5249C6.26086 14.2249 7.26087 14.6249 7.66087 14.2249C8.56087 13.4249 9.56088 12.8249 10.7609 12.4249C11.5609 12.1249 11.2609 10.8249 10.3609 11.1249C8.96085 11.5249 7.76087 12.2249 6.66087 13.2249C7.06087 13.4249 7.46088 13.6249 7.76088 13.9249C8.26088 12.8249 9.06087 12.2249 10.1609 12.0249C9.96087 11.6249 9.76087 11.1249 9.66087 10.7249C8.56087 11.4249 7.36088 12.1249 6.26088 12.9249C6.56088 13.2249 6.86088 13.5249 7.26088 13.9249C7.96088 12.8249 8.86086 11.9249 9.96086 11.2249C9.66086 10.9249 9.46087 10.5249 9.16087 10.2249C8.36087 10.9249 7.46085 11.2249 6.36085 11.2249C6.56085 11.5249 6.76086 11.9249 6.96086 12.2249C7.46086 11.3249 8.06087 10.7249 9.06087 10.4249C8.76086 10.1249 8.56088 9.7249 8.26088 9.4249C7.96088 9.9249 7.46085 10.3249 6.86085 10.5249C7.16085 10.7249 7.46088 10.9249 7.76088 11.2249C7.66088 10.5249 7.86085 9.9249 8.36085 9.4249C7.96085 9.1249 7.56087 8.8249 7.16087 8.5249C6.86087 8.8249 6.46087 9.1249 6.16087 9.4249C6.46087 9.6249 6.76087 9.8249 7.16087 9.9249C6.96087 8.8249 6.86087 7.72489 6.66087 6.62489C6.26087 6.82489 5.76085 7.1249 5.36085 7.3249C5.86085 7.82491 6.26088 8.32491 6.76088 8.82491C7.46088 9.5249 8.46085 8.5249 7.86085 7.7249C7.46085 7.2249 6.96087 6.62489 6.56087 6.12489C6.26087 6.52489 5.96087 6.92491 5.66087 7.3249C6.76087 8.02491 7.96087 8.7249 9.06087 9.5249C9.86087 10.0249 10.4609 8.92491 9.96086 8.32491C9.06086 7.22491 7.96087 6.92489 6.66087 7.12489C6.06087 7.22489 5.96086 8.2249 6.46086 8.5249C7.96086 9.4249 9.56088 9.9249 11.2609 10.2249C11.3609 9.8249 11.3609 9.3249 11.4609 8.9249C9.76086 8.9249 8.26088 9.6249 7.26088 10.9249C6.86088 11.4249 7.16086 12.3249 7.96086 12.1249C10.0609 11.4249 12.1609 10.6249 14.2609 9.9249C14.7609 9.7249 14.9609 8.92489 14.4609 8.62489C11.6609 7.22489 8.56086 5.6249 5.46086 5.0249C4.86086 5.1249 4.56086 5.6249 4.96086 5.9249Z" fill="currentColor"/>
</svg>
