<svg viewBox="0 0 24 24" fill="none" xmlns="http://www.w3.org/2000/svg">
<path d="M21.9974 9.8847C21.814 9.05294 21.3557 7.43562 20.0264 5.72589C19.4306 4.94034 18.0096 3.1844 15.5803 2.35264C13.976 1.84434 12.6468 1.98296 10.6758 2.1678C8.61319 2.35264 7.46729 2.49126 6.18387 3.27681C4.21291 4.47825 3.38785 6.32661 2.97533 7.15837C2.79198 7.52804 2.24195 8.8681 2.0586 10.7165C1.96693 11.6406 1.50857 17.5554 5.86301 20.79C9.52992 23.4701 13.9302 22.3149 15.397 21.8528C16.0845 21.6218 20.989 19.8658 22.1807 15.4298C22.8683 13.0731 22.2724 10.9013 21.9974 9.8847ZM16.6345 8.12876C16.1762 8.49843 14.8928 9.83849 14.3886 10.7627C13.6552 12.1027 13.426 13.7663 13.426 14.6904C13.426 15.1987 13.3802 15.5222 13.1968 16.0767C13.0593 16.5388 12.9676 16.7698 12.7385 16.8623C12.5093 16.9547 12.2801 16.8623 12.0968 16.7698C11.5926 16.5388 10.4466 15.1987 10.8133 15.6608C10.4008 15.2449 9.48408 14.1821 7.69647 12.0103C7.65063 11.9641 7.55896 11.8255 7.51312 11.6406C7.46729 11.4096 7.60479 11.0861 7.83398 10.9475C8.06316 10.8089 8.33818 10.9013 8.52152 10.9937C9.11739 11.2248 9.48408 11.6868 9.57576 11.8255C10.08 12.5186 10.8592 13.489 11.7759 14.6904C11.7301 14.2745 11.7301 13.72 11.8676 13.0269C11.9134 12.7034 12.0051 12.2414 12.2801 11.6868C12.601 11.0399 13.0593 10.5316 13.7469 9.74607C13.7469 9.69986 13.7927 9.69986 13.8385 9.65365C13.8385 9.65365 15.1678 8.03634 16.8179 7.57425C16.8637 7.57425 16.9096 7.52804 16.9554 7.57425C17.0012 7.62046 17.0012 7.66667 17.0012 7.66667C17.0471 7.80529 16.6345 8.12876 16.6345 8.12876Z" fill="#B6D8C6"/>
</svg>
