<svg viewBox="0 0 40 40" xmlns="http://www.w3.org/2000/svg">
<path d="M14.275 21.3C13.975 21.6 13.675 21.9 13.375 22.3C13.075 22.6 12.875 23 12.575 23.4C12.375 23.8 12.175 24.2 12.075 24.6C11.975 24.8 11.975 25.1 12.075 25.3C12.175 25.6 12.375 25.9 12.675 26.1C13.275 26.5 14.175 26.3 14.575 25.6C14.775 25.3 14.875 25 15.075 24.7C15.875 23.8 16.675 22.9 17.575 22.1C17.775 21.9 18.075 21.6 18.275 21.4C18.475 21.7 18.675 22.1 18.875 22.4C19.175 22.9 19.575 23.4 19.975 23.9C20.375 24.5 20.875 25.1 21.375 25.6C21.575 25.8 21.775 26 21.975 26.2C22.175 26.4 22.375 26.6 22.575 26.7C23.275 27.3 23.975 27.8 24.675 28.4C24.975 28.6 25.475 28.7 25.875 28.6C26.275 28.5 26.575 28.2 26.875 27.9C27.075 27.5 27.175 27.1 27.075 26.7C26.975 26.3 26.675 26 26.375 25.7C26.175 25.6 26.075 25.5 25.875 25.4C25.575 25.1 25.175 24.8 24.875 24.6C24.475 24.3 24.175 23.9 23.775 23.5C23.575 23.3 23.475 23.1 23.275 23C23.075 22.8 22.975 22.6 22.775 22.4C22.375 22 22.075 21.5 21.675 21.1C21.275 20.6 20.875 20.1 20.475 19.6C20.475 19.6 20.475 19.5 20.375 19.5C20.875 19.1 21.275 18.7 21.775 18.3C22.775 17.4 23.775 16.6 24.775 15.8C24.975 15.9 25.275 16 25.575 16C25.875 16 26.275 15.9 26.575 15.6C26.975 15.1 27.275 14.6 27.675 14.1C27.975 13.7 27.875 13.1 27.675 12.7C27.475 12.3 26.975 12 26.475 12C26.375 12 26.275 12 26.075 12C25.775 12.1 25.475 12.1 25.175 12.2C24.775 12.3 24.375 12.6 23.975 12.8C23.275 13.2 22.675 13.7 22.075 14.2C21.575 14.6 20.975 15.1 20.475 15.5C19.975 15.9 19.475 16.4 18.875 16.8C18.775 16.9 18.675 17 18.575 17.1C18.275 16.7 18.075 16.3 17.775 15.9C17.575 15.6 17.375 15.3 17.175 15.1C16.875 14.7 16.575 14.3 16.275 13.9C16.075 13.7 15.975 13.5 15.775 13.3C15.575 13.1 15.375 13 15.175 12.9C14.975 12.8 14.775 12.7 14.575 12.7C14.275 12.7 13.875 12.8 13.675 13.1C13.275 13.5 13.275 14.1 13.475 14.6C13.675 15 13.875 15.4 14.075 15.7C14.175 16 14.475 16.1 14.775 16.2C15.075 16.6 15.275 17 15.575 17.4C15.875 17.9 16.175 18.4 16.475 18.9C16.475 18.9 16.475 19 16.575 19C16.075 19.4 15.675 19.8 15.175 20.2C14.975 20.5 14.675 20.9 14.275 21.3Z" fill="currentColor"/>
</svg>
