<svg viewBox="0 0 89 68" xmlns="http://www.w3.org/2000/svg">
<path d="M12.775 9.29999C12.475 9.59999 12.175 9.89999 11.875 10.3C11.575 10.6 11.375 11 11.075 11.4C10.875 11.8 10.675 12.2 10.575 12.6C10.475 12.8 10.475 13.1 10.575 13.3C10.675 13.6 10.875 13.9 11.175 14.1C11.775 14.5 12.675 14.3 13.075 13.6C13.275 13.3 13.375 13 13.575 12.7C14.375 11.8 15.175 10.9 16.075 10.1C16.275 9.89998 16.575 9.59999 16.775 9.39999C16.975 9.69999 17.175 10.1 17.375 10.4C17.675 10.9 18.075 11.4 18.475 11.9C18.875 12.5 19.375 13.1 19.875 13.6C20.075 13.8 20.275 14 20.475 14.2C20.675 14.4 20.875 14.6 21.075 14.7C21.775 15.3 22.475 15.8 23.175 16.4C23.475 16.6 23.975 16.7 24.375 16.6C24.775 16.5 25.075 16.2 25.375 15.9C25.575 15.5 25.675 15.1 25.575 14.7C25.475 14.3 25.175 14 24.875 13.7C24.675 13.6 24.575 13.5 24.375 13.4C24.075 13.1 23.675 12.8 23.375 12.6C22.975 12.3 22.675 11.9 22.275 11.5C22.075 11.3 21.975 11.1 21.775 11C21.575 10.8 21.475 10.6 21.275 10.4C20.875 9.99999 20.575 9.49998 20.175 9.09998C19.775 8.59998 19.375 8.09998 18.975 7.59998C18.975 7.59998 18.975 7.5 18.875 7.5C19.375 7.1 19.775 6.69999 20.275 6.29999C21.275 5.39999 22.275 4.59999 23.275 3.79999C23.475 3.89999 23.775 4 24.075 4C24.375 4 24.775 3.89998 25.075 3.59998C25.475 3.09998 25.775 2.59998 26.175 2.09998C26.475 1.69998 26.375 1.09998 26.175 0.699982C25.975 0.299982 25.475 0 24.975 0C24.875 0 24.775 0 24.575 0C24.275 0.1 23.975 0.0999817 23.675 0.199982C23.275 0.299982 22.875 0.599988 22.475 0.799988C21.775 1.19999 21.175 1.69998 20.575 2.19998C20.075 2.59998 19.475 3.1 18.975 3.5C18.475 3.9 17.975 4.39999 17.375 4.79999C17.275 4.89999 17.175 4.99998 17.075 5.09998C16.775 4.69998 16.575 4.29999 16.275 3.89999C16.075 3.59999 15.875 3.29998 15.675 3.09998C15.375 2.69998 15.075 2.29999 14.775 1.89999C14.575 1.69999 14.475 1.49999 14.275 1.29999C14.075 1.09999 13.875 0.999994 13.675 0.899994C13.475 0.799994 13.275 0.699982 13.075 0.699982C12.775 0.699982 12.375 0.799976 12.175 1.09998C11.775 1.49998 11.775 2.09998 11.975 2.59998C12.175 2.99998 12.375 3.39998 12.575 3.69998C12.675 3.99998 12.975 4.09998 13.275 4.19998C13.575 4.59998 13.775 4.99999 14.075 5.39999C14.375 5.89999 14.675 6.39999 14.975 6.89999C14.975 6.89999 14.975 7 15.075 7C14.575 7.4 14.175 7.79998 13.675 8.19998C13.475 8.49998 13.175 8.89999 12.775 9.29999Z" fill="currentColor"/>
<path d="M58.775 9.29999C58.475 9.59999 58.175 9.89999 57.875 10.3C57.575 10.6 57.375 11 57.075 11.4C56.875 11.8 56.675 12.2 56.575 12.6C56.475 12.8 56.475 13.1 56.575 13.3C56.675 13.6 56.875 13.9 57.175 14.1C57.775 14.5 58.675 14.3 59.075 13.6C59.275 13.3 59.375 13 59.575 12.7C60.375 11.8 61.175 10.9 62.075 10.1C62.275 9.89998 62.575 9.59999 62.775 9.39999C62.975 9.69999 63.175 10.1 63.375 10.4C63.675 10.9 64.075 11.4 64.475 11.9C64.875 12.5 65.375 13.1 65.875 13.6C66.075 13.8 66.275 14 66.475 14.2C66.675 14.4 66.875 14.6 67.075 14.7C67.775 15.3 68.475 15.8 69.175 16.4C69.475 16.6 69.975 16.7 70.375 16.6C70.775 16.5 71.075 16.2 71.375 15.9C71.575 15.5 71.675 15.1 71.575 14.7C71.475 14.3 71.175 14 70.875 13.7C70.675 13.6 70.575 13.5 70.375 13.4C70.075 13.1 69.675 12.8 69.375 12.6C68.975 12.3 68.675 11.9 68.275 11.5C68.075 11.3 67.975 11.1 67.775 11C67.575 10.8 67.475 10.6 67.275 10.4C66.875 9.99999 66.575 9.49998 66.175 9.09998C65.775 8.59998 65.375 8.09998 64.975 7.59998C64.975 7.59998 64.975 7.5 64.875 7.5C65.375 7.1 65.775 6.69999 66.275 6.29999C67.275 5.39999 68.275 4.59999 69.275 3.79999C69.475 3.89999 69.775 4 70.075 4C70.375 4 70.775 3.89998 71.075 3.59998C71.475 3.09998 71.775 2.59998 72.175 2.09998C72.475 1.69998 72.375 1.09998 72.175 0.699982C71.975 0.299982 71.475 0 70.975 0C70.875 0 70.775 0 70.575 0C70.275 0.1 69.975 0.0999817 69.675 0.199982C69.275 0.299982 68.875 0.599988 68.475 0.799988C67.775 1.19999 67.175 1.69998 66.575 2.19998C66.075 2.59998 65.475 3.1 64.975 3.5C64.475 3.9 63.975 4.39999 63.375 4.79999C63.275 4.89999 63.175 4.99998 63.075 5.09998C62.775 4.69998 62.575 4.29999 62.275 3.89999C62.075 3.59999 61.875 3.29998 61.675 3.09998C61.375 2.69998 61.075 2.29999 60.775 1.89999C60.575 1.69999 60.475 1.49999 60.275 1.29999C60.075 1.09999 59.875 0.999994 59.675 0.899994C59.475 0.799994 59.275 0.699982 59.075 0.699982C58.775 0.699982 58.375 0.799976 58.175 1.09998C57.775 1.49998 57.775 2.09998 57.975 2.59998C58.175 2.99998 58.375 3.39998 58.575 3.69998C58.675 3.99998 58.975 4.09998 59.275 4.19998C59.575 4.59998 59.775 4.99999 60.075 5.39999C60.375 5.89999 60.675 6.39999 60.975 6.89999C60.975 6.89999 60.975 7 61.075 7C60.575 7.4 60.175 7.79998 59.675 8.19998C59.475 8.49998 59.175 8.89999 58.775 9.29999Z" fill="currentColor"/>
<path d="M50.2587 26.644C40.4925 25.237 30.3591 26.8755 21.6473 31.5388C17.2915 33.8704 13.3469 36.9576 10.0809 40.7077C6.81493 44.4578 4.36118 48.8246 2.85066 53.5382C2.63487 54.2116 2.41907 54.8849 2.24696 55.4683C2.03117 56.1417 1.94901 56.7688 1.73322 57.4422C1.68954 57.5322 1.77953 57.5758 1.73585 57.6657C2.46851 59.1331 3.53499 58.5393 3.97697 58.0869C4.02065 57.997 4.02062 57.997 4.0643 57.9071C4.23641 57.3237 4.36226 56.6066 4.53437 56.0232C4.70648 55.4397 4.92227 54.7663 5.09438 54.1829C6.52015 49.8728 8.75293 45.7322 11.7542 42.2982C14.6656 38.8206 18.3892 35.9596 22.3441 33.7668C30.3877 29.335 39.9402 27.748 48.9869 28.8056C53.5102 29.3344 57.9976 30.624 62.1356 32.6332C66.2736 34.6424 69.9286 37.4174 72.8769 40.9611C75.779 44.3711 77.8407 48.596 78.9207 53.0111L79.1547 53.9029L79.2988 54.7509L79.4428 55.5991C79.489 55.7327 79.4917 55.9563 79.4943 56.1799L79.6409 57.2516C79.6409 57.2516 79.7797 57.6524 79.8312 58.2332C79.8827 58.8141 80.0267 59.6622 80.0808 60.4666C80.1349 61.271 80.189 62.0754 80.2405 62.6563C80.2919 63.2371 80.3408 63.5942 80.3408 63.5942C80.3923 64.1751 80.3538 64.7122 80.4027 65.0695C81.538 65.8496 82.1779 64.4978 82.2138 63.737C82.2496 62.9763 82.2216 59.9497 82.2138 59.2789C82.206 58.6082 82.2444 58.071 82.1956 57.7138C82.1904 57.2666 82.1878 57.043 82.1878 57.043L81.9948 55.8377L81.9434 55.2569L81.6605 54.0079C80.6652 49.1892 78.642 44.4273 75.6448 40.5264C72.6913 36.5355 68.6739 33.3622 64.3533 31.042C59.9891 28.8118 55.1419 27.3475 50.2587 26.644Z" fill="currentColor"/>
</svg>
