<svg viewBox="0 0 24 24" fill="none" xmlns="http://www.w3.org/2000/svg">
<path d="M19.7759 5.70269C16.8725 1.73638 11.8135 2.00377 11.4175 2.00377C7.89823 2.27117 5.34673 4.49943 4.07098 6.23747C3.19115 7.4853 2.70724 8.82225 2.57527 9.2679C2.35531 10.0255 1.95939 11.2288 2.00338 12.7886C2.04737 14.8831 2.83922 16.3983 3.27913 17.1114C5.25875 20.4983 8.82205 21.3896 9.43793 21.5233C13.969 22.5483 17.4004 19.919 17.7523 19.6516C21.1396 16.9777 21.4916 13.0114 21.5356 11.9864C21.5356 11.0505 21.6675 8.2429 19.7759 5.70269ZM17.1364 15.6853C17.0484 15.9973 16.6525 16.1755 16.4326 16.2201C15.6847 16.3983 14.8489 15.6407 14.5849 15.3733C13.969 14.794 12.9572 13.9918 11.9014 13.1451C10.0978 15.0614 8.11819 16.9331 7.10639 16.844C7.0184 16.844 6.71046 16.7994 6.49051 16.5766C6.18257 16.2646 6.44651 15.5516 6.49051 15.5516C6.49051 15.5516 7.0184 14.9723 7.06239 14.9277C7.28235 14.7049 8.16218 13.8581 10.3178 11.8973C8.38214 10.382 6.5345 8.86682 6.40252 8.2429C6.40252 8.15377 6.35853 7.97551 6.44651 7.79725C6.62248 7.57443 7.06239 7.61899 7.23836 7.61899C8.47012 7.79725 9.43793 8.82225 9.43793 8.82225C10.0978 9.5353 10.8457 10.1592 11.5935 10.7386C12.4733 9.93638 13.5291 9.00051 14.8049 7.84182C14.8049 7.84182 14.9369 7.70812 15.0248 7.66356C15.2008 7.52986 15.4648 7.61899 15.6407 7.70812C15.8607 7.84182 15.9487 8.06464 15.9927 8.28747C15.9927 8.64399 15.7287 8.95595 15.6407 9.04508C15.2448 9.4016 14.321 10.5603 13.1772 11.8527C14.365 12.6549 15.5527 13.4125 16.7405 14.3929L17.0045 14.7494C17.0045 14.7494 17.0924 14.8831 17.1364 15.0168C17.1364 15.3288 17.1804 15.5516 17.1364 15.6853Z" fill="#E4B7B7"/>
</svg>
