<svg viewBox="0 0 24 24" xmlns="http://www.w3.org/2000/svg">
<path d="M10.2187 3.21304C8.53493 3.15307 6.72645 2.91318 5.0427 3.03312C4.35673 3.09309 3.60839 3.21304 3.29659 3.81277C2.92242 4.41249 2.98478 5.25211 3.04714 5.91181C3.1095 6.69145 3.23422 7.4711 3.29659 8.31072C3.29659 9.09036 3.29659 9.92998 3.35895 10.7096C3.48367 12.3289 3.67075 13.9481 3.85784 15.5074C3.9202 16.3471 4.04492 17.1267 4.10728 17.9663C4.16964 18.566 4.232 19.1658 4.60617 19.6455C5.41687 20.785 7.47479 20.5451 8.72201 20.6051C10.5305 20.7251 12.2766 20.845 14.0851 20.905C15.7065 20.9649 17.3902 21.0849 19.0116 20.905C19.6352 20.845 20.3212 20.6051 20.6954 20.0054C21.1942 19.2857 20.9448 18.3861 20.8824 17.6065C20.7577 15.6874 20.6954 13.8282 20.6954 11.9091C20.6954 10.7696 18.8245 10.7696 18.8245 11.9091C18.8245 13.2285 18.8245 14.5479 18.8869 15.8673C18.9492 16.527 18.9492 17.1267 19.0116 17.7864C19.0116 18.0863 19.1363 18.5061 19.074 18.8059C19.0116 19.1058 19.1363 19.0458 18.7622 19.1658C17.5149 19.3457 16.0806 19.2257 14.8334 19.1658C13.4615 19.1058 12.0895 19.0458 10.7176 18.9859C9.34562 18.9259 7.91131 18.8659 6.53937 18.746C6.04048 18.686 6.04048 18.5061 5.97812 18.0263C5.85339 17.3066 5.79103 16.5869 5.72867 15.8673C5.41687 13.2884 5.16742 10.7696 5.10506 8.25074C5.10506 7.53107 4.98034 6.87137 4.91798 6.1517C4.85562 5.85184 4.98034 5.25211 4.85562 5.01222C4.79325 4.89227 4.85561 4.8323 4.66853 4.95225C4.79325 4.89227 5.10506 4.89227 5.29214 4.89227C6.91353 4.8323 8.53493 5.01222 10.1563 5.07219C11.4035 5.07219 11.4035 3.27301 10.2187 3.21304Z" fill="currentColor"/>
<path d="M11.9025 13.0486C12.4637 12.3889 13.1497 11.8491 13.8357 11.2494C14.5216 10.6497 15.2076 9.98996 15.8312 9.33026C17.0784 7.95089 18.1386 6.3916 19.1987 4.83231C19.6352 4.23259 19.074 3.51291 18.388 3.45294C16.5795 3.27302 14.7087 3.27302 12.9002 3.39297C12.4013 3.45294 11.9648 3.7528 11.9648 4.29256C11.9648 4.77234 12.4013 5.19215 12.9002 5.19215C13.7733 5.19215 14.7087 5.13218 15.5818 5.13218C16.0183 5.13218 16.4548 5.13218 16.9537 5.0722C17.2032 5.0722 17.3902 5.0722 17.6397 5.0722C17.7644 5.0722 18.0139 5.01223 18.1386 5.0722C18.0139 5.01223 17.8891 4.89229 17.702 4.83231C17.6397 4.65239 17.6397 4.65239 17.702 4.83231C17.7644 4.95226 17.7644 5.01223 17.8268 5.13218C17.8891 5.25212 17.8891 5.43204 17.9515 5.55198C18.0139 5.85185 18.0762 6.15171 18.1386 6.3916C18.2009 7.0513 18.2009 7.711 18.1386 8.43067C18.0762 8.97043 18.6375 9.39024 19.074 9.39024C19.6352 9.39024 19.947 8.97043 20.0094 8.49065C20.1341 7.59106 20.0718 6.75144 19.947 5.85185C19.8223 5.0722 19.6352 3.7528 18.7622 3.39297C18.3257 3.21305 17.7644 3.27302 17.3279 3.27302C16.829 3.27302 16.3925 3.27302 15.8936 3.333C14.8958 3.333 13.898 3.39297 12.9626 3.39297C12.9626 3.9927 12.9626 4.59242 12.9626 5.19215C14.7711 5.0722 16.6419 5.0722 18.4504 5.25212C18.2009 4.77234 17.8891 4.35253 17.6397 3.87275C16.6419 5.31209 15.6441 6.81141 14.4593 8.07084C13.898 8.73054 13.2744 9.33026 12.5884 9.87002C11.9025 10.4098 11.2165 10.9495 10.6552 11.6692C10.3434 12.029 10.2811 12.5688 10.6552 12.9286C10.9047 13.3484 11.5906 13.4084 11.9025 13.0486Z" fill="currentColor"/>
</svg>
