<svg viewBox="0 0 40 40" xmlns="http://www.w3.org/2000/svg">
<path d="M29.7107 12.3704C29.6243 12.2963 29.5378 12.2593 29.4514 12.2222C29.4081 12.1852 29.3433 12.1852 29.2785 12.1852C29.1704 12.1481 29.0623 12.1482 28.9759 12.1482C28.7598 12.1111 28.5436 12.1111 28.3059 12.1111C27.8088 12.0741 27.3117 12.0741 26.793 12.0741C25.9501 12.0741 25.1288 12.0741 24.2859 12.0741C22.4921 12.0741 20.6766 12.0741 18.8612 12.0741C16.808 12.0741 14.7548 12.037 12.7232 12.037C11.9451 12.037 11.1887 12 10.4106 12C10.3026 12.037 10.2161 12.1111 10.1729 12.2593C10.0432 12.5926 10 13.037 10 13.4074C10 13.7037 10.0216 13.963 10.0864 14.2593C10.1297 14.4815 10.2377 14.8519 10.4323 14.8519C12.5071 14.8889 14.5819 14.9259 16.6783 14.9259C18.5154 14.9259 20.3524 14.963 22.1895 14.963C24.0914 14.963 25.9717 14.963 27.8736 15C28.1546 15 28.4572 15 28.7381 15C28.8894 15 29.0191 15 29.1704 15C29.2568 15 29.3217 15 29.4081 15C29.4514 15 29.473 15 29.5162 15C29.581 15 29.6459 14.963 29.7107 14.9259C29.7323 14.8889 29.7539 14.8519 29.7972 14.7778C29.862 14.6667 29.8836 14.5556 29.9268 14.4074C30.0349 13.9259 30.0133 13.4074 29.9268 12.9259C29.8836 12.7407 29.8188 12.4444 29.7107 12.3704Z" fill="currentColor"/>
<path d="M29.7107 18.3704C29.6243 18.2963 29.5378 18.2593 29.4514 18.2222C29.4081 18.1852 29.3433 18.1852 29.2785 18.1852C29.1704 18.1481 29.0623 18.1482 28.9759 18.1482C28.7598 18.1111 28.5436 18.1111 28.3059 18.1111C27.8088 18.0741 27.3117 18.0741 26.793 18.0741C25.9501 18.0741 25.1288 18.0741 24.2859 18.0741C22.4921 18.0741 20.6766 18.0741 18.8612 18.0741C16.808 18.0741 14.7548 18.037 12.7232 18.037C11.9451 18.037 11.1887 18 10.4106 18C10.3026 18.037 10.2161 18.1111 10.1729 18.2593C10.0432 18.5926 10 19.037 10 19.4074C10 19.7037 10.0216 19.963 10.0864 20.2593C10.1297 20.4815 10.2377 20.8519 10.4323 20.8519C12.5071 20.8889 14.5819 20.9259 16.6783 20.9259C18.5154 20.9259 20.3524 20.963 22.1895 20.963C24.0914 20.963 25.9717 20.963 27.8736 21C28.1546 21 28.4572 21 28.7381 21C28.8894 21 29.0191 21 29.1704 21C29.2568 21 29.3217 21 29.4081 21C29.4514 21 29.473 21 29.5162 21C29.581 21 29.6459 20.963 29.7107 20.9259C29.7323 20.8889 29.7539 20.8519 29.7972 20.7778C29.862 20.6667 29.8836 20.5556 29.9268 20.4074C30.0349 19.9259 30.0133 19.4074 29.9268 18.9259C29.8836 18.7407 29.8188 18.4444 29.7107 18.3704Z" fill="currentColor"/>
<path d="M29.7107 24.3704C29.6243 24.2963 29.5378 24.2593 29.4514 24.2222C29.4081 24.1852 29.3433 24.1852 29.2785 24.1852C29.1704 24.1481 29.0623 24.1482 28.9759 24.1482C28.7598 24.1111 28.5436 24.1111 28.3059 24.1111C27.8088 24.0741 27.3117 24.0741 26.793 24.0741C25.9501 24.0741 25.1288 24.0741 24.2859 24.0741C22.4921 24.0741 20.6766 24.0741 18.8612 24.0741C16.808 24.0741 14.7548 24.037 12.7232 24.037C11.9451 24.037 11.1887 24 10.4106 24C10.3026 24.037 10.2161 24.1111 10.1729 24.2593C10.0432 24.5926 10 25.037 10 25.4074C10 25.7037 10.0216 25.963 10.0864 26.2593C10.1297 26.4815 10.2377 26.8519 10.4323 26.8519C12.5071 26.8889 14.5819 26.9259 16.6783 26.9259C18.5154 26.9259 20.3524 26.963 22.1895 26.963C24.0914 26.963 25.9717 26.963 27.8736 27C28.1546 27 28.4572 27 28.7381 27C28.8894 27 29.0191 27 29.1704 27C29.2568 27 29.3217 27 29.4081 27C29.4514 27 29.473 27 29.5162 27C29.581 27 29.6459 26.963 29.7107 26.9259C29.7323 26.8889 29.7539 26.8519 29.7972 26.7778C29.862 26.6667 29.8836 26.5556 29.9268 26.4074C30.0349 25.9259 30.0133 25.4074 29.9268 24.9259C29.8836 24.7407 29.8188 24.4444 29.7107 24.3704Z" fill="currentColor"/>
</svg>
