<svg viewBox="0 0 32 32" fill="none" xmlns="http://www.w3.org/2000/svg">
<path d="M11.3262 24.1427C12.0531 23.725 12.78 23.2899 13.5777 23.0288C14.6946 22.6633 15.9179 22.6285 17.0702 22.8547C18.2225 23.081 19.3217 23.5336 20.3499 24.1079C20.3676 24.1253 20.4031 24.1427 20.4031 24.1601C20.4031 24.195 20.3854 24.2124 20.3854 24.2472C20.1549 24.5779 19.8535 24.839 19.5521 25.1C19.0912 25.5004 18.6125 25.8833 18.1516 26.2836C17.9743 26.4229 17.797 26.5795 17.5843 26.6317C17.4602 26.6665 17.3184 26.6665 17.1943 26.6665C16.5206 26.6839 15.8647 26.6839 15.191 26.6839C14.9073 26.6839 14.606 26.6839 14.34 26.5969C14.0741 26.5099 13.8259 26.3358 13.5955 26.1618C12.7622 25.5352 11.9645 24.8564 11.2021 24.1253" fill="#C5D3DF"/>
<path d="M11.4683 24.3699C12.6029 23.7085 13.7375 23.1167 15.0671 23.0123C16.3435 22.9079 17.62 23.1863 18.8077 23.6563C19.0737 23.7607 19.3396 23.8826 19.6055 24.0218C19.7473 24.0914 19.8892 24.161 20.031 24.2481C20.0664 24.2655 20.2083 24.3699 20.2437 24.3699C20.2437 24.1436 20.2083 24.074 20.1374 24.2133C20.1019 24.2481 20.0664 24.3003 20.031 24.3351C19.6232 24.805 19.1091 25.188 18.6482 25.5709C18.3823 25.7972 18.1341 26.0234 17.8681 26.2323C17.5845 26.4586 17.3008 26.4412 16.9463 26.4586C16.2549 26.476 15.5635 26.4934 14.8898 26.476C14.163 26.4412 13.6134 25.9016 13.0815 25.4839C12.4965 25.0139 11.9469 24.5266 11.4151 24.0044C11.1669 23.7781 10.7946 24.1436 11.0428 24.3699C11.5746 24.8747 12.1419 25.3794 12.7092 25.8494C13.2056 26.2497 13.7729 26.8067 14.4289 26.9459C14.7834 27.0155 15.138 26.9981 15.5103 26.9981C15.9003 26.9981 16.2903 26.9981 16.6804 26.9807C17.0349 26.9807 17.4072 27.0155 17.7441 26.8937C18.0632 26.7719 18.3291 26.5282 18.595 26.3019C19.1623 25.832 19.7651 25.362 20.2969 24.8399C20.4742 24.6658 20.8288 24.3525 20.6692 24.074C20.5983 23.9522 20.4565 23.9 20.3501 23.8303C20.1905 23.7433 20.031 23.6563 19.8714 23.5693C18.6127 22.9427 17.2477 22.5249 15.8294 22.4901C15.0139 22.4727 14.1984 22.5772 13.4361 22.8556C12.6561 23.1341 11.9469 23.5345 11.2378 23.9522C10.901 24.0914 11.1669 24.544 11.4683 24.3699Z" fill="#6C838C"/>
<path d="M13.9502 24.3878C14.1097 23.8482 14.2693 23.2912 14.4289 22.7517C14.4466 22.7169 14.4466 22.682 14.482 22.6646C14.4998 22.6472 14.5352 22.6472 14.5707 22.6472C15.2621 22.595 15.9712 22.5602 16.6626 22.5254C16.769 22.5254 16.8753 22.5254 16.9463 22.5776C16.9817 22.6124 16.9994 22.6472 17.0349 22.6994C17.3008 23.2216 17.5136 23.7438 17.6731 24.3007C17.6731 24.3181 17.6908 24.353 17.6731 24.3704C17.6554 24.4226 17.5845 24.4052 17.5313 24.3878C17.2122 24.3181 16.8931 24.3704 16.5562 24.4052C15.6876 24.4922 14.8189 24.4226 13.9502 24.353" fill="#36404D"/>
<path d="M4.60745 8.73889C5.13929 7.60754 5.60022 6.44138 6.00797 5.25781C7.90489 5.76257 9.67771 6.59803 11.5037 7.25943C13.3297 7.92084 15.2976 8.4256 17.2477 8.18192C18.2759 8.06008 19.2687 7.72938 20.2615 7.39868C21.467 6.99835 22.6725 6.59803 23.878 6.1977C24.6403 5.93662 25.4026 5.69295 26.1472 5.37965C26.6259 6.16289 27.0691 6.98095 27.4591 7.83381C27.6009 8.1297 27.725 8.4256 27.7428 8.73889C27.7782 9.087 27.6718 9.43511 27.5655 9.78322C27.3173 10.6535 27.0514 11.5064 26.8032 12.3766C26.2004 14.4305 25.6154 16.7106 26.5372 18.66C26.8386 19.2866 27.2995 19.8784 27.3705 20.5746C27.4236 21.0793 27.2464 21.5667 27.0691 22.054C26.6968 23.0984 26.3068 24.1253 25.9167 25.1522C25.8636 25.3088 25.7927 25.4655 25.6331 25.5525C25.4913 25.6221 25.314 25.5873 25.1544 25.5525C23.7716 25.2392 22.4066 24.8041 21.0947 24.2819C19.9601 23.8294 18.8609 23.2898 17.7086 22.9417C16.5385 22.5762 15.2976 22.4021 14.1098 22.6806C13.0815 22.9243 12.1774 23.4639 11.2201 23.9164C9.64226 24.6648 7.90489 25.1 6.1498 25.2218C5.63568 24.2645 5.12156 23.3072 4.60745 22.3499C4.44789 22.0366 4.27061 21.7233 4.23515 21.3752C4.1997 21.0097 4.32379 20.6442 4.44789 20.2961C4.71381 19.5477 4.97974 18.7818 5.24566 18.0334C5.47613 17.372 5.70659 16.7106 5.79524 16.0144C6.1498 13.6298 4.85564 11.106 4.60745 8.73889Z" fill="#F5CE85"/>
<path d="M10.4755 16.694C10.9896 14.6575 12.727 13.4044 13.4893 11.4375L13.1347 11.4549C13.1347 11.4549 12.7802 11.1765 12.7093 11.1417C12.2661 10.8806 11.876 10.3236 11.4506 10.0277C10.8301 9.55776 9.85503 9.01819 9.26999 8.53084C8.77361 8.11311 8.36586 7.88684 7.85174 7.48651C7.10715 6.91214 7.14261 6.23333 6.50439 5.53711C7.95811 6.19851 9.46501 6.68587 10.9719 7.29506C11.7519 7.60835 12.6206 7.69538 13.3829 8.06089C13.507 8.11311 13.6311 8.18273 13.7198 8.28716C13.8616 8.44381 13.9148 8.65268 13.968 8.84414C14.163 9.54035 14.4998 10.1844 14.7303 10.8806C15.3862 12.7604 15.2089 14.7968 15.0317 16.781C15.0139 16.9028 14.9962 17.0247 14.8898 17.0769C14.8189 17.1117 14.7303 17.1117 14.6416 17.1117C13.2411 17.0247 11.8406 16.9202 10.4223 16.8158" fill="#DBB066"/>
<path d="M10.7415 16.7641C11.0074 15.772 11.5747 14.9365 12.1775 14.1185C12.7802 13.283 13.383 12.465 13.773 11.5077C13.8262 11.351 13.6844 11.177 13.5248 11.177C13.4007 11.177 13.2943 11.1944 13.1702 11.1944C13.2412 11.2118 13.2943 11.2466 13.3653 11.264C13.0461 11.0029 12.6916 10.7941 12.3902 10.4982C12.1775 10.2893 11.9647 10.0456 11.7343 9.85417C11.5038 9.66271 11.2379 9.50606 10.9897 9.332C10.4578 8.9839 9.92598 8.65319 9.42959 8.27027C8.91548 7.85255 8.27726 7.53925 7.83405 7.0519C7.60359 6.80822 7.46176 6.51233 7.31994 6.23384C7.16038 5.90314 6.9831 5.60725 6.73491 5.32876C6.62854 5.468 6.52217 5.60725 6.4158 5.74649C7.69223 6.32087 9.02184 6.77341 10.3337 7.27817C10.9542 7.52184 11.5747 7.73071 12.2306 7.90476C12.532 7.99179 12.8511 8.07882 13.1348 8.20065C13.2589 8.25287 13.4184 8.30509 13.5248 8.40952C13.6489 8.51395 13.6844 8.688 13.7375 8.82725C13.9148 9.43644 14.1808 10.0282 14.4112 10.62C14.6594 11.2466 14.819 11.908 14.8899 12.5694C15.0494 13.8748 14.9431 15.1976 14.819 16.503C14.819 16.5901 14.8012 16.6597 14.8012 16.7467C14.8012 16.7641 14.8012 16.7989 14.7835 16.8163C14.7835 16.8511 14.7658 16.8511 14.7481 16.8337C14.6949 16.8511 14.553 16.8163 14.5176 16.8163C14.3935 16.8163 14.2871 16.7989 14.163 16.7989C13.7553 16.7641 13.3475 16.7467 12.9398 16.7119C12.1243 16.6597 11.3088 16.5901 10.4756 16.5378C10.1387 16.503 10.1387 17.0426 10.4756 17.06C11.2556 17.1122 12.0179 17.1818 12.798 17.2341C13.188 17.2689 13.5957 17.2863 13.9857 17.3211C14.163 17.3385 14.3403 17.3385 14.5176 17.3559C14.6771 17.3733 14.8544 17.3907 15.014 17.3211C15.3154 17.1818 15.3331 16.8511 15.3508 16.5727C15.3863 16.2245 15.404 15.8764 15.4395 15.5283C15.4926 14.8147 15.5104 14.1011 15.4926 13.3875C15.4572 12.6912 15.3685 11.9776 15.1913 11.2988C15.014 10.6026 14.6949 9.976 14.4467 9.29719C14.3226 8.9839 14.2694 8.63579 14.1276 8.3399C13.9857 8.06141 13.7375 7.88736 13.4539 7.76552C12.8157 7.48703 12.1243 7.36519 11.4683 7.15633C10.6706 6.89525 9.8728 6.54714 9.09276 6.25125C8.2418 5.95536 7.44403 5.64206 6.66399 5.29395C6.39807 5.17211 6.13215 5.468 6.34489 5.71168C6.78809 6.21644 6.94764 6.87784 7.39085 7.3826C7.63904 7.66109 7.97588 7.86995 8.27726 8.09622C8.57864 8.30509 8.86229 8.51395 9.14594 8.74022C9.69552 9.17536 10.316 9.54087 10.901 9.94119C11.167 10.1152 11.4152 10.3067 11.6456 10.533C11.8938 10.7767 12.1243 11.0377 12.4079 11.2466C12.5852 11.3858 12.7625 11.5077 12.9575 11.6469C13.1348 11.7688 13.3121 11.734 13.5071 11.7165C13.4184 11.6121 13.3298 11.4903 13.2589 11.3858C12.4966 13.283 10.7592 14.6407 10.2451 16.6423C10.1387 16.9556 10.6528 17.0948 10.7415 16.7641Z" fill="#967B45"/>
<path d="M21.8749 16.9733C21.3608 14.9368 19.6234 13.6836 18.8611 11.7168L19.2156 11.7342C19.2156 11.7342 19.5702 11.4558 19.6411 11.4209C20.0843 11.1599 20.4743 10.6029 20.8998 10.307C21.5203 9.83705 22.4954 9.29749 23.0804 8.81014C23.5768 8.39241 23.9845 8.16614 24.4986 7.76581C25.2432 7.19143 25.2078 6.51262 25.846 5.81641C24.3923 6.47781 22.8854 6.96516 21.3785 7.57435C20.5984 7.88765 19.7298 7.97468 18.9674 8.34019C18.8433 8.39241 18.7193 8.46203 18.6306 8.56646C18.4888 8.72311 18.4356 8.93197 18.3824 9.12343C18.1874 9.81965 17.8506 10.4636 17.6201 11.1599C16.9464 13.0222 17.1237 15.0587 17.301 17.0255C17.3187 17.1473 17.3365 17.2692 17.4428 17.3214C17.5137 17.3562 17.6024 17.3562 17.691 17.3562C19.0738 17.2866 20.4921 17.1821 21.8926 17.0777" fill="#DBB066"/>
<path d="M22.1407 16.9028C21.6088 14.9012 19.8714 13.5436 19.1269 11.6464C19.0382 11.7508 18.9496 11.8727 18.8787 11.9771C19.0737 11.9945 19.251 12.0293 19.4105 11.9249C19.5346 11.8379 19.6587 11.7334 19.7828 11.6464C20.3324 11.2809 20.7047 10.7413 21.2542 10.3758C21.8393 9.97549 22.4598 9.60997 23.0271 9.19224C23.3107 8.98338 23.5766 8.75711 23.8603 8.54824C24.1617 8.32197 24.4985 8.11311 24.7822 7.86943C25.3849 7.36468 25.5267 6.56403 26.0409 5.98965C26.2536 5.76338 25.9877 5.45008 25.7218 5.57192C24.339 6.19851 22.8852 6.66846 21.4847 7.22543C20.8288 7.48651 20.1374 7.62576 19.4637 7.83462C19.1623 7.93906 18.8078 8.04349 18.5596 8.25235C18.3114 8.44381 18.2227 8.7223 18.1518 9.01819C17.9568 9.697 17.6377 10.341 17.3895 11.0024C17.159 11.6638 17.0172 12.36 16.964 13.0562C16.8931 13.7699 16.8931 14.4835 16.9286 15.1797C16.9463 15.5452 16.9817 15.9107 16.9995 16.2762C17.0172 16.5895 16.9995 16.9377 17.1058 17.2335C17.2299 17.6339 17.62 17.5991 17.9745 17.5642C18.4177 17.5294 18.8609 17.512 19.2864 17.4772C20.1728 17.425 21.0415 17.3554 21.9102 17.2858C22.247 17.2684 22.247 16.7288 21.9102 16.7636C21.1833 16.8158 20.4565 16.868 19.7119 16.9202C19.3573 16.9377 19.0028 16.9725 18.6659 16.9899C18.4886 17.0073 18.3114 17.0073 18.1341 17.0247C18.0454 17.0247 17.9568 17.0421 17.8682 17.0421C17.8327 17.0421 17.6377 17.0769 17.62 17.0595C17.5668 17.0247 17.5668 16.8158 17.5668 16.7288C17.5491 16.5721 17.5313 16.4155 17.5313 16.2414C17.4959 15.8933 17.4781 15.5452 17.4604 15.1971C17.425 14.5357 17.425 13.8569 17.4781 13.1781C17.5313 12.5341 17.6377 11.9075 17.8327 11.2809C18.0454 10.6369 18.3468 10.0451 18.5596 9.40111C18.6305 9.17484 18.6659 8.84414 18.8255 8.65268C19.0205 8.42641 19.4282 8.32197 19.7119 8.23495C20.3501 8.04349 20.9883 7.90424 21.6265 7.66057C23.0803 7.08619 24.5694 6.58143 25.9877 5.95484C25.8813 5.8156 25.7749 5.67635 25.6686 5.53711C25.2608 5.98965 25.0835 6.54662 24.7467 7.05138C24.3744 7.59095 23.7007 7.92165 23.1866 8.30457C22.6725 8.68749 22.1584 9.053 21.6265 9.40111C21.1124 9.73181 20.6338 10.0625 20.2083 10.4977C19.9778 10.7239 19.7651 10.9328 19.4992 11.1242C19.3396 11.2287 19.1978 11.3505 19.0382 11.4724C19.1091 11.4549 19.1623 11.4201 19.2332 11.4027C19.1091 11.4027 19.0028 11.3853 18.8787 11.3853C18.7191 11.3853 18.5596 11.5594 18.6305 11.716C19.0028 12.6733 19.6233 13.4914 20.226 14.3268C20.8288 15.1449 21.3961 15.9804 21.662 16.9725C21.7152 17.3554 22.2293 17.2335 22.1407 16.9028Z" fill="#967B45"/>
<path d="M26.1649 5.38086C24.9239 7.10399 23.2929 7.86983 21.5733 9.14043C20.7223 9.76702 19.9423 10.498 19.0913 11.1246C18.7545 11.3683 18.7545 11.8557 19.0736 12.0993C19.8004 12.6911 20.4741 13.3699 21.2542 13.8921C22.5838 14.7798 24.1616 15.1975 25.7039 15.5804C25.7926 15.5978 25.8989 15.6326 25.9876 15.5804C26.0762 15.5456 26.1294 15.4586 26.1471 15.3716C26.4662 13.6136 26.9626 11.7338 27.5654 10.0455C28.1327 8.39199 26.9272 6.99956 26.1649 5.38086Z" fill="#967B45"/>
<path d="M25.9345 5.24149C24.7999 6.79057 23.098 7.69565 21.5557 8.8096C20.7047 9.43619 19.9247 10.1498 19.0914 10.7938C18.7546 11.0549 18.4887 11.3682 18.595 11.8381C18.7014 12.2733 19.1801 12.5344 19.4992 12.8302C20.2792 13.5091 21.0415 14.1705 21.9811 14.623C22.8853 15.0755 23.8426 15.3714 24.8176 15.6325C25.0481 15.6847 25.2609 15.7544 25.4913 15.8066C25.7395 15.8762 25.9877 15.9458 26.2004 15.7718C26.3777 15.6325 26.4132 15.4237 26.4486 15.2148C26.5018 14.9537 26.555 14.6926 26.6082 14.4315C26.8387 13.3872 27.1046 12.3429 27.4237 11.2986C27.5832 10.759 27.8314 10.2194 27.9378 9.66246C28.0265 9.17511 27.9733 8.67035 27.8314 8.183C27.5301 7.13868 26.8741 6.21619 26.3955 5.24149C26.2536 4.9456 25.7927 5.20668 25.9345 5.50257C26.3245 6.32062 26.8387 7.08646 27.1755 7.92192C27.3173 8.30484 27.4414 8.70516 27.4414 9.10549C27.4414 9.55803 27.2996 9.95835 27.1578 10.3761C26.8387 11.316 26.5727 12.2733 26.3245 13.2306C26.2004 13.7005 26.0941 14.1879 26.0054 14.6578C25.9877 14.7622 25.97 14.8667 25.9345 14.9711C25.9168 15.0407 25.9168 15.2496 25.8636 15.3018C25.7927 15.3888 25.3495 15.2148 25.2254 15.18C24.3213 14.9363 23.4171 14.6926 22.5662 14.3097C21.6975 13.9268 20.9529 13.3872 20.2438 12.7606C20.0665 12.604 19.8892 12.4473 19.7119 12.2907C19.5346 12.1514 19.3396 12.0122 19.1801 11.8381C18.861 11.49 19.3219 11.2115 19.5701 11.0201C20.3501 10.4109 21.077 9.74949 21.8925 9.1577C22.6725 8.58333 23.5058 8.07857 24.2858 7.50419C25.0836 6.91241 25.775 6.251 26.36 5.46776C26.5905 5.24149 26.1295 4.98041 25.9345 5.24149Z" fill="#967B45"/>
<path d="M6.00824 5.25781C7.24922 6.98095 9.12841 7.86862 10.8303 9.12181C11.6635 9.731 12.4259 10.4446 13.2591 11.0712C13.6136 11.3323 13.6314 11.8545 13.2768 12.1329C12.5677 12.7247 11.9117 13.3687 11.1494 13.8909C9.81981 14.7786 8.34837 15.3878 6.80601 15.7881C6.71737 15.8055 6.32735 15.8229 6.23871 15.7881C6.15007 15.7533 6.06143 15.5096 6.0437 15.4226C5.70686 13.6646 5.44094 11.7326 4.85591 10.0443C4.27088 8.39079 5.60049 7.17241 6.00824 5.25781Z" fill="#967B45"/>
<path d="M5.77771 5.39796C6.89459 6.91223 8.54331 7.86953 10.0679 8.91385C10.9366 9.50563 11.6989 10.1844 12.5144 10.8284C12.7094 10.9851 12.9222 11.1243 13.1172 11.2984C13.2413 11.4202 13.2945 11.5769 13.2413 11.7509C13.1704 11.9424 12.9576 12.0642 12.8158 12.1861C12.6031 12.3601 12.4081 12.5516 12.1953 12.7256C11.4153 13.4044 10.5998 13.9788 9.66019 14.4488C8.75605 14.9013 7.781 15.2668 6.80595 15.5105C6.68185 15.5453 6.54003 15.5453 6.41593 15.5453C6.3982 15.5453 6.36274 15.5453 6.34502 15.5453C6.36274 15.5453 6.38047 15.5975 6.36274 15.5105C6.34502 15.4409 6.30956 15.3538 6.29183 15.2668C6.18546 14.7621 6.11455 14.2399 6.02591 13.7177C5.84863 12.7082 5.65362 11.6813 5.35224 10.7066C5.21041 10.2367 4.99767 9.76671 4.97994 9.26196C4.96222 8.84423 5.08631 8.4265 5.22814 8.04358C5.56498 7.1385 6.06136 6.28563 6.2741 5.32834C6.34502 4.99763 5.8309 4.85839 5.75999 5.18909C5.54725 6.11158 5.10404 6.92963 4.76721 7.7999C4.60765 8.18282 4.50128 8.58315 4.46583 8.98347C4.43037 9.41861 4.51901 9.83634 4.66084 10.2541C5.0154 11.2984 5.24587 12.3949 5.44088 13.4741C5.54725 14.0136 5.63589 14.5532 5.72453 15.0928C5.77771 15.4409 5.84863 15.963 6.2741 16.0327C6.69958 16.1023 7.10733 15.963 7.49735 15.8586C8.01147 15.702 8.52559 15.5279 9.0397 15.319C10.0502 14.9013 11.0075 14.3791 11.8762 13.7003C12.3194 13.3522 12.7272 12.9867 13.1349 12.6212C13.4895 12.3253 13.8618 12.0468 13.8263 11.5421C13.7909 11.0199 13.3299 10.7762 12.9576 10.4803C12.5144 10.1148 12.0712 9.74931 11.628 9.3838C9.8552 7.95655 7.62145 6.98185 6.25637 5.11947C6.04364 4.85839 5.5827 5.11947 5.77771 5.39796Z" fill="#967B45"/>
<path d="M10.2451 16.8848C11.8761 16.8848 13.5248 17.0762 15.1558 16.9718L15.2799 17.024C15.1558 17.6854 14.7835 18.7994 14.7658 19.4782C14.0567 19.2519 13.3298 19.0256 12.6207 18.782C12.5321 18.7471 12.4611 18.7297 12.3725 18.6775C12.3016 18.6427 12.2307 18.5731 12.1775 18.5209C11.5393 17.9813 10.9188 17.5114 10.2806 16.9718" fill="#967B45"/>
<path d="M22.1051 17.0938C20.4741 17.0938 18.8254 17.2852 17.1944 17.1808L17.0703 17.233C17.1944 17.8944 17.5667 19.0083 17.5844 19.6872C18.2936 19.4609 19.0204 19.2346 19.7295 18.9909C19.8182 18.9561 19.8891 18.9387 19.9777 18.8865C20.0487 18.8517 20.1196 18.7821 20.1727 18.7299C20.811 18.1903 21.4315 17.7203 22.0697 17.1808" fill="#967B45"/>
<path d="M4.35949 21.1322C5.2459 21.0626 6.13231 21.0452 7.00099 21.0452C7.60375 21.0452 8.22424 21.0278 8.827 21.0278C9.73113 21.0103 10.653 21.0103 11.5217 21.2888C12.4258 21.5847 13.2059 22.1243 13.9327 22.7335C11.238 23.8126 9.48294 24.474 6.7528 25.205C6.68188 25.2225 6.25641 25.1354 6.18549 25.1006C6.11458 25.0658 5.9373 24.7177 5.91957 24.6481C5.84866 24.4914 5.86638 24.561 5.8132 24.4044C5.35227 23.2382 4.66087 22.3158 4.28857 21.0974" fill="#DBB066"/>
<path d="M4.35939 21.3934C5.21035 21.3238 6.0613 21.3064 6.92998 21.3064C7.78094 21.289 8.64962 21.2716 9.50057 21.289C10.3161 21.289 11.1316 21.376 11.8762 21.7067C12.5676 22.0026 13.1703 22.4377 13.7376 22.9251C13.7731 22.7858 13.8085 22.6292 13.8617 22.4899C12.2484 23.1339 10.6529 23.7605 9.00418 24.2827C8.59643 24.4045 8.18868 24.5264 7.78093 24.6482C7.5682 24.7178 7.35546 24.77 7.12499 24.8223C6.96544 24.8571 6.80588 24.9441 6.64633 24.9267C6.61087 24.9267 6.29177 24.8571 6.29177 24.8397C6.30949 24.8049 6.39813 24.9789 6.34495 24.8571C6.34495 24.8397 6.30949 24.8049 6.29177 24.7875C6.25631 24.7178 6.22085 24.6482 6.1854 24.5786C6.04357 24.2827 5.91947 23.9868 5.79538 23.6909C5.3699 22.8032 4.85578 21.9678 4.5544 21.0279C4.44803 20.7146 3.93391 20.8364 4.04028 21.1671C4.32393 22.0548 4.78487 22.8555 5.21035 23.6909C5.38763 24.0564 5.52945 24.4219 5.70673 24.7875C5.8131 25.0137 5.91947 25.2748 6.1854 25.3618C6.5045 25.4663 6.77043 25.4663 7.08953 25.3792C7.55047 25.2574 8.02913 25.1182 8.49006 24.9789C9.32329 24.7352 10.1565 24.4567 10.9897 24.1435C12.018 23.7779 13.0285 23.3776 14.0213 22.9773C14.1808 22.9077 14.3049 22.6814 14.1454 22.5422C13.5426 22.0374 12.9044 21.5675 12.1775 21.2367C11.4152 20.906 10.6174 20.7668 9.76649 20.7494C8.88008 20.732 7.99367 20.7494 7.12499 20.7668C6.1854 20.7842 5.28126 20.8016 4.35939 20.8712C4.02256 20.8886 4.02256 21.4108 4.35939 21.3934Z" fill="#967B45"/>
<path d="M27.2817 21.3236C26.3953 21.254 25.5089 21.2366 24.6402 21.2366C24.0375 21.2366 23.417 21.2192 22.8142 21.2192C21.9101 21.2018 20.9882 21.2018 20.1195 21.4802C19.2154 21.7761 18.4354 22.3157 17.7085 22.9249C20.4032 24.004 22.1583 24.6654 24.8884 25.3965C24.9593 25.4139 25.3848 25.3268 25.4557 25.292C25.5266 25.2572 25.7039 24.9091 25.7216 24.8395C25.7926 24.6828 25.7748 24.7525 25.828 24.5958C26.2889 23.4296 26.9803 22.5072 27.3526 21.2888" fill="#DBB066"/>
<path d="M27.2818 21.0628C26.3777 20.9932 25.4558 20.9758 24.5517 20.9758C23.6653 20.9584 22.7789 20.941 21.9102 20.9584C21.077 20.9758 20.2792 21.115 19.4991 21.4457C18.7723 21.759 18.1163 22.229 17.5313 22.7511C17.3718 22.8904 17.4781 23.1167 17.6554 23.1863C19.3751 23.8651 21.0947 24.5439 22.8675 25.0835C23.3107 25.2227 23.7539 25.3445 24.1971 25.4664C24.4276 25.536 24.6758 25.623 24.9063 25.6404C25.0304 25.6578 25.1722 25.623 25.314 25.5882C25.4204 25.5708 25.5622 25.536 25.6508 25.4664C25.7572 25.3794 25.8281 25.2401 25.899 25.1183C26.0586 24.8224 26.165 24.5265 26.3068 24.2132C26.75 23.2559 27.3173 22.3508 27.6364 21.3587C27.7428 21.0454 27.2286 20.9062 27.1223 21.2195C26.8564 22.0549 26.4131 22.8034 26.0231 23.5866C25.8458 23.9347 25.704 24.3002 25.5445 24.6483C25.4913 24.7528 25.4558 24.8572 25.3849 24.9442C25.3849 24.9616 25.2963 25.1009 25.2963 25.1009C25.1544 24.9964 25.4558 25.0487 25.3495 25.0487C25.314 25.0487 25.2608 25.0661 25.2254 25.0835C25.1367 25.1009 25.0126 25.1531 24.9063 25.1357C24.6935 25.1183 24.4453 25.0138 24.2503 24.9442C23.8248 24.8224 23.3994 24.7005 22.9739 24.5613C22.1938 24.3176 21.4138 24.0565 20.6338 23.7607C19.6764 23.4125 18.7368 23.0296 17.7972 22.6641C17.8327 22.8034 17.8682 22.96 17.9213 23.0992C18.4886 22.6119 19.1091 22.1768 19.7828 21.8809C20.5451 21.5502 21.3429 21.4631 22.1584 21.4631C23.0093 21.4631 23.878 21.4805 24.729 21.4805C25.5799 21.4979 26.4486 21.4979 27.2996 21.5676C27.6187 21.6198 27.6187 21.0976 27.2818 21.0628Z" fill="#967B45"/>
<path d="M4.82011 8.87955C5.35195 7.71338 5.83061 6.52982 6.25609 5.32884C6.14972 5.38106 6.04335 5.45068 5.93698 5.5029C8.61394 6.21652 11.0427 7.60895 13.7374 8.21814C15.0493 8.51403 16.3966 8.61847 17.7262 8.3922C19.1268 8.14852 20.4564 7.62636 21.8037 7.17382C23.2929 6.66906 24.8175 6.21652 26.289 5.60733C26.1649 5.57252 26.0408 5.53771 25.9167 5.5203C26.2712 6.09468 26.6081 6.70387 26.9095 7.31306C27.2108 7.92225 27.6009 8.54884 27.4413 9.24506C27.2995 9.94128 27.0513 10.6201 26.8563 11.2989C26.6613 11.9429 26.4662 12.5869 26.289 13.2309C25.9699 14.4493 25.7039 15.7199 25.828 16.9905C25.8989 17.6171 26.0408 18.2262 26.3244 18.8006C26.5903 19.3402 26.9804 19.845 27.1045 20.4367C27.2286 21.0981 26.9095 21.777 26.6967 22.3861C26.4485 23.0475 26.2003 23.709 25.9521 24.3704C25.8812 24.5444 25.828 24.7185 25.7571 24.8925C25.7217 25.0144 25.6685 25.2232 25.5621 25.2928C25.4557 25.3799 25.2962 25.3102 25.1721 25.2754C24.9948 25.2406 24.8175 25.1884 24.6402 25.1536C23.9666 24.9795 23.2929 24.7881 22.637 24.5618C21.3251 24.1093 20.0664 23.5175 18.7722 23.0127C17.4958 22.5254 16.1307 22.1599 14.7479 22.2991C13.4006 22.4384 12.2837 23.1172 11.0959 23.6741C9.85492 24.2485 8.54303 24.6488 7.17796 24.8403C6.84112 24.8925 6.50429 24.9273 6.16745 24.9447C6.23836 24.9795 6.327 25.0318 6.39792 25.0666C5.83061 24.0222 5.22785 22.9953 4.71374 21.9336C4.60737 21.6899 4.51873 21.4462 4.53645 21.1852C4.53645 20.8893 4.64282 20.6108 4.74919 20.3323C4.9442 19.7579 5.15694 19.201 5.35195 18.6266C5.72424 17.5648 6.13199 16.5205 6.16745 15.3892C6.18518 14.3274 5.95471 13.2831 5.68879 12.2562C5.36968 11.09 4.99739 9.94128 4.87329 8.7403C4.83783 8.4096 4.30599 8.4096 4.34144 8.7403C4.58964 10.8986 5.60015 12.9524 5.6356 15.1281C5.6356 16.2942 5.24558 17.3386 4.85556 18.4177C4.64282 18.9921 4.44781 19.5839 4.23507 20.1582C4.04006 20.6804 3.89824 21.22 4.09325 21.777C4.30599 22.3861 4.67828 22.9431 4.97966 23.5001C5.29877 24.1093 5.6356 24.7185 5.95471 25.3102C5.99017 25.3799 6.09654 25.4495 6.18518 25.4321C7.58571 25.3277 8.96851 25.0492 10.2804 24.5444C10.9186 24.3007 11.5214 24.0222 12.1241 23.709C12.7269 23.3957 13.3474 23.0998 14.0033 22.9083C15.3861 22.5254 16.8398 22.8213 18.1694 23.2912C19.5168 23.7612 20.7932 24.4052 22.1406 24.8751C22.832 25.1188 23.5234 25.3277 24.2148 25.5191C24.5516 25.6061 24.9062 25.7106 25.243 25.7628C25.5444 25.815 25.828 25.7454 26.0053 25.5017C26.1826 25.2406 26.2712 24.8925 26.3776 24.614C26.5017 24.2659 26.6435 23.9178 26.7676 23.5871C27.0158 22.9083 27.2995 22.2295 27.5122 21.5333C27.7072 20.8719 27.6718 20.2627 27.3881 19.6361C27.1222 19.0617 26.7499 18.557 26.5549 17.9478C26.1471 16.6946 26.3067 15.337 26.6081 14.0664C26.9272 12.6913 27.3704 11.3511 27.7604 10.0109C27.849 9.68019 27.9554 9.3669 27.9909 9.01879C28.0263 8.67068 27.9554 8.33998 27.8313 8.00928C27.5654 7.36528 27.2286 6.73868 26.8917 6.12949C26.7144 5.8162 26.5372 5.5203 26.3599 5.20701C26.2712 5.06776 26.1294 5.05036 25.9876 5.11998C24.7466 5.67695 23.3993 6.09468 22.0874 6.52982C20.7932 6.96495 19.4991 7.4523 18.1872 7.7656C15.4925 8.3922 12.851 7.53933 10.3513 6.54722C8.93305 5.99025 7.55025 5.39847 6.07881 5.01555C5.93698 4.98074 5.79516 5.06776 5.7597 5.1896C5.35195 6.35576 4.89102 7.48711 4.3769 8.61847C4.23507 8.91436 4.67828 9.17544 4.82011 8.87955Z" fill="#967B45"/>
<path d="M17.6025 19.6007C17.833 19.2874 18.028 18.9393 18.1344 18.5738C18.1698 18.452 18.2053 18.3127 18.2762 18.2083C18.3117 18.1387 18.4003 18.1213 18.4535 18.1561C18.7726 18.3475 19.1272 18.5042 19.4995 18.6086C19.6058 18.6434 19.7477 18.713 19.854 18.7827C19.9072 18.8175 19.9072 18.9219 19.8363 18.9393C19.074 19.2178 18.3471 19.4267 17.6025 19.6703" fill="#36404C"/>
<path d="M14.7835 19.3742C14.5531 19.0609 14.3581 18.7128 14.2517 18.3472C14.2162 18.2254 14.1808 18.0862 14.1099 17.9817C14.0744 17.9121 13.9858 17.8947 13.9326 17.9295C13.6135 18.121 13.2589 18.2776 12.8866 18.3821C12.7802 18.4169 12.6384 18.4865 12.5321 18.5561C12.4789 18.5909 12.4789 18.6954 12.5498 18.7128C13.3121 18.9912 14.0389 19.2001 14.7835 19.4438" fill="#36404C"/>
</svg>
