<svg viewBox="0 0 20 20" xmlns="http://www.w3.org/2000/svg">
<path fill-rule="evenodd" clip-rule="evenodd" d="M6.0553 0.162959C6.36706 0.187329 6.48227 0.416576 6.69576 0.543384C6.58005 0.602355 6.64982 0.776227 6.56899 0.922134C6.64932 1.06444 6.90187 0.883378 6.98908 1.10072C6.25619 5.58427 5.80705 10.0803 5.98559 14.2302C6.16469 13.9819 6.11555 14.0331 6.2492 13.7294C6.34131 15.1746 6.22681 16.5681 6.09118 18.0247C6.1155 18.1432 6.15039 18.2301 6.21328 18.329C7.05522 15.6223 7.57094 11.1186 9.48131 8.46954C9.64247 8.46595 9.76874 8.37541 9.98223 8.50222C10.0763 8.79459 9.95692 8.96016 9.82327 9.26388C9.0742 10.9284 8.65433 12.6607 8.00991 14.586C7.80919 15.1857 7.62591 15.8289 7.4812 16.4524C7.27999 17.3403 7.26106 18.1615 6.96207 18.8636C6.74391 19.4198 6.25575 20.1136 5.8536 19.6903C5.85041 19.5087 5.79808 19.3783 5.78432 19.2282C4.91173 17.343 4.10571 15.4501 2.57742 13.899C2.62017 13.4846 2.8764 13.1969 3.22673 13.2016C3.96766 14.2377 4.44277 15.0165 5.124 16.1353C5.09578 14.2125 5.06166 11.6382 4.94892 9.96786C4.97005 9.90474 5.03663 9.89699 5.12064 9.9327C5.14177 9.86958 5.03343 9.71536 5.00862 9.88508C4.94942 9.67965 4.92878 9.45455 5.06931 9.22587C4.78556 9.2134 5.2494 8.40109 5.02215 8.12422C5.07129 8.073 5.07817 8.14803 5.13418 8.17184C5.14843 8.03368 5.09242 8.00987 4.96983 7.99381C5.04108 7.30303 5.06639 6.8451 5.04994 6.22519C5.18997 6.28472 5.11971 6.39907 5.17572 6.42288C5.01874 6.03166 5.15239 5.72794 5.11481 5.17117C5.12906 5.03301 5.23052 5.1122 5.27966 5.06098C5.23421 5.0056 5.09049 5.05267 5.28334 4.95438C5.27647 4.87935 5.21677 4.96214 5.20301 4.81207C5.22414 4.74895 5.26959 4.80432 5.3256 4.82814C5.2347 4.71739 5.19294 4.55542 5.18975 4.3738C5.26001 4.25945 5.28065 4.48454 5.31922 4.46489C5.31234 4.38986 5.31971 4.17667 5.38948 4.35054C5.39685 4.13736 5.28433 4.37795 5.18287 4.29876C5.31333 3.81342 5.2303 3.20127 5.38189 2.6528C5.4379 2.67661 5.42734 2.70818 5.48335 2.73199C5.46591 2.68852 5.44846 2.64505 5.51504 2.6373C5.53617 2.57417 5.42414 2.52655 5.40302 2.58968C5.38557 2.54621 5.29836 2.32887 5.44208 2.2818C5.44577 2.17521 5.36494 2.32112 5.34062 2.20262C5.57991 1.58327 5.2812 0.0862543 6.0553 0.162959Z" fill="currentColor"/>
<path fill-rule="evenodd" clip-rule="evenodd" d="M13.6318 19.8247C13.9441 19.8138 14.067 19.5897 14.2847 19.4722C14.171 19.4083 14.2466 19.2375 14.1708 19.0882C14.2559 18.9495 14.5021 19.1413 14.5967 18.9279C14.0163 14.416 13.7198 9.90397 14.0389 5.76474C14.2095 6.02061 14.1621 5.96732 14.2854 6.27657C14.4264 4.83635 14.3592 3.43897 14.273 1.97761C14.3014 1.86024 14.3392 1.77487 14.4054 1.67881C15.155 4.4197 15.5176 8.94238 17.3368 11.6717C17.4977 11.6822 17.6209 11.7781 17.8385 11.6606C17.9424 11.3725 17.8287 11.2019 17.7055 10.8927C17.0134 9.19714 16.6525 7.44799 16.0738 5.49634C15.8936 4.88845 15.7322 4.23787 15.6088 3.6086C15.4378 2.71268 15.4467 1.89128 15.1717 1.17679C14.9726 0.611587 14.5083 -0.102738 14.0921 0.302974C14.0827 0.484328 14.026 0.612385 14.0072 0.761745C13.0713 2.608 12.2018 4.46486 10.622 5.94896C10.6507 6.36497 10.897 6.66345 11.2472 6.67382C12.0227 5.67043 12.5239 4.91262 13.2425 3.82394C13.1492 5.74415 13.0278 8.3151 12.8585 9.97936C12.8775 10.0434 12.9438 10.054 13.0289 10.0219C13.0479 10.0859 12.9344 10.2353 12.9154 10.0647C12.8493 10.2674 12.821 10.4914 12.9537 10.726C12.6697 10.7262 13.1057 11.5579 12.8692 11.8248C12.9166 11.8781 12.926 11.8034 12.9828 11.7821C12.9923 11.9207 12.9356 11.9421 12.8125 11.9529C12.8603 12.6462 12.8701 13.1049 12.8326 13.7237C12.9746 13.6702 12.9082 13.5529 12.965 13.5315C12.7949 13.9157 12.9181 14.2249 12.8617 14.7797C12.8713 14.9184 12.9753 14.8436 13.0227 14.8969C12.9754 14.9503 12.8334 14.8971 13.0228 15.0036C13.0134 15.0783 12.9565 14.993 12.9377 15.1423C12.9567 15.2063 13.0039 15.1529 13.0607 15.1316C12.9661 15.2383 12.9189 15.3984 12.9096 15.5797C12.9759 15.697 13.0042 15.473 13.042 15.4943C13.0326 15.5689 13.0328 15.7823 13.1084 15.6116C13.1085 15.8249 13.0042 15.5796 12.9002 15.6544C13.0141 16.145 12.9104 16.7531 13.0432 17.3077C13.1 17.2863 13.0905 17.2544 13.1473 17.233C13.1284 17.2757 13.1095 17.3183 13.1758 17.329C13.1947 17.3929 13.0812 17.4357 13.0622 17.3717C13.0433 17.4144 12.9488 17.6278 13.0908 17.681C13.0909 17.7877 13.0151 17.6384 12.9867 17.7558C13.2049 18.385 12.8556 19.8681 13.6318 19.8247Z" fill="currentColor"/>
</svg>
