<svg viewBox="0 0 24 24" xmlns="http://www.w3.org/2000/svg">
<path d="M2.99725 14.8662C3.1285 14.9936 3.12851 15.121 3.25976 15.2484C3.39101 15.758 3.52221 16.3949 3.78471 16.9045C4.04721 17.5414 4.44095 18.0509 4.44095 18.0509C4.5722 18.1783 4.70343 18.4331 4.83468 18.5605L5.0972 18.8153L5.22849 18.9427L5.49093 19.1975C6.80341 20.344 8.50965 21.1083 10.0846 21.6178C11.7909 22.1274 13.6284 22.1274 15.4659 21.6178C17.1721 21.1083 18.747 20.0892 19.9283 18.6879C20.9783 17.2866 21.6345 15.6306 21.897 13.8471C22.1595 12.1911 21.8971 10.4076 21.3721 8.7516C21.1096 7.98727 20.7158 7.09554 20.1908 6.4586C19.6658 5.69427 19.0096 5.05733 18.3534 4.54777C16.9096 3.52866 15.4658 2.63693 13.6284 2.12738C13.2346 1.99999 12.7096 2 12.3159 2C11.7909 2 11.2659 2.12738 10.8722 2.50955L10.7409 2.63694C10.7409 2.76433 10.7409 2.76433 10.7409 2.89172C9.82213 2.76433 8.90342 2.89171 7.98468 3.14649C6.93469 3.52866 6.01598 4.03821 5.22849 4.67515C3.65351 6.07642 2.47224 7.85988 2.07849 10.0255C1.94724 11.0446 1.94726 12.1911 2.34101 13.2102L2.60352 13.9745C2.60352 14.3567 2.866 14.6115 2.99725 14.8662ZM19.4033 7.98726C19.4033 7.85987 19.4033 7.85987 19.4033 7.98726V7.98726ZM17.9596 18.8153C17.8283 18.8153 17.6971 18.9427 17.5658 18.9427C17.8283 18.8153 18.0909 18.6879 18.3534 18.4331C18.3534 18.4331 18.3533 18.4331 18.4846 18.4331C18.2221 18.5605 18.0908 18.6879 17.9596 18.8153ZM12.4472 20.5987C12.5784 20.5987 12.5784 20.5987 12.7096 20.5987C12.9721 20.5987 13.1033 20.5987 13.3658 20.5987C12.9721 20.7261 12.7097 20.7261 12.4472 20.5987ZM3.39098 10.6624C3.65348 8.87899 4.57222 7.22293 6.01595 6.07643C7.45969 4.92993 9.29715 4.16561 11.0034 4.54777C11.6596 4.67516 12.3159 4.92993 12.8409 5.31209H12.9721C13.6284 5.31209 13.7597 4.92993 13.7597 4.67515C14.1534 4.80254 14.6784 5.05732 15.0721 5.43949C15.2034 5.43949 15.2033 5.56688 15.3346 5.56688C15.2033 5.56688 15.0721 5.56688 15.0721 5.56688C14.9409 5.69427 15.2034 5.94903 16.1221 6.58598C16.3846 6.84075 16.6471 7.09554 17.0409 7.35032C17.3034 7.60509 17.5658 7.85988 17.8283 8.11466C18.0908 8.36943 18.2221 8.62421 18.3534 8.7516C18.4846 8.87899 18.6158 9.00637 18.6158 9.00637C18.747 9.13376 18.8784 9.26114 19.0096 9.51592L19.1408 9.77069L19.272 9.89809C19.272 9.89809 19.4033 10.0255 19.4033 10.1529C20.4533 11.6815 20.5846 13.5924 19.6658 15.121C19.2721 15.8854 18.6158 16.6497 17.8283 17.1592L17.3033 17.5414C17.1721 17.6688 16.9096 17.7962 16.7784 17.9236L16.5158 18.0509L16.2533 18.1783C15.9908 18.3057 15.8596 18.3057 15.5971 18.4331C13.7596 18.9427 11.7909 18.9427 10.0846 18.3057C9.16589 18.051 8.24715 17.6688 7.45966 17.1592L8.50971 15.3758L9.29717 13.9745L9.6909 13.3376L9.8222 13.0828V12.9554H9.6909C9.29715 12.828 8.77216 12.7006 8.37841 12.5733C7.59092 12.3185 7.19722 11.8089 7.19722 11.172C7.19722 10.535 7.5909 9.7707 8.1159 9.26115C8.64089 8.75159 9.29714 8.24204 10.0846 8.11466C10.8721 7.98727 11.5284 8.11465 12.0534 8.6242C12.5784 9.00637 13.1034 9.89808 12.9721 10.1529C12.9721 10.4076 12.7096 10.6624 12.3159 10.9172C12.0534 11.172 11.6596 11.5541 11.2659 11.9363L11.0034 12.3185L10.8722 12.5733C10.7409 12.7006 10.7409 12.828 10.7409 12.9554C10.7409 13.2102 10.7409 13.465 10.7409 13.8471C10.7409 13.8471 10.7409 14.1019 10.8722 14.4841C11.0034 14.8663 11.2659 15.3758 11.5284 15.758C12.0534 16.5223 12.7096 17.1592 12.7096 17.1592C13.2346 17.6688 13.6284 18.1783 13.7597 18.1783C13.8909 18.3057 13.8908 17.7962 13.3658 16.7771C12.9721 16.1401 12.5784 15.3758 12.3159 14.7389C12.0534 14.1019 12.0534 13.7197 12.0534 13.7197C12.0534 13.5924 12.0534 13.3376 12.0534 13.2102V12.9554C12.0534 12.9554 12.0534 12.9554 12.0534 12.828V12.7006C12.1846 12.4459 12.4472 12.1911 12.8409 11.8089C13.2346 11.5541 13.6284 11.172 13.8909 10.535C13.8909 10.4076 14.0221 10.2803 14.0221 10.0255C14.0221 9.8981 14.0221 9.64331 14.0221 9.51592C14.0221 9.38853 14.0221 9.13376 13.8909 9.00637L13.7597 8.6242C13.4972 8.11465 13.2346 7.73248 12.8409 7.35032C12.0534 6.58599 10.8721 6.20382 9.6909 6.3312C8.64091 6.45859 7.59095 7.09554 6.93471 7.73249C6.14722 8.49682 5.62222 9.38854 5.62222 10.6624C5.62222 11.2994 5.88472 11.9363 6.27847 12.3185C6.67221 12.828 7.19717 13.0828 7.72217 13.2102L7.19722 14.1019L6.14717 15.8853C5.75342 15.6306 5.49099 15.2484 5.22849 14.9936C4.57225 14.3567 4.04721 13.5924 3.78471 12.7006C3.25971 12.4459 3.25973 11.5541 3.39098 10.6624Z" fill="currentColor" />
</svg>
