<svg viewBox="0 0 32 32" fill="none" xmlns="http://www.w3.org/2000/svg">
<path d="M27.8294 13.9017C27.6639 12.9768 27.0297 9.50149 24.1345 7.09119C22.5353 5.77394 20.9085 5.32551 18.5647 4.70893C16.414 4.14839 14.925 3.75602 13.0776 4.17642C11.3129 4.59682 10.1824 5.5217 8.69345 6.75487C7.31478 7.90397 5.88097 9.08109 4.9159 11.1551C4.72289 11.5755 3.92326 13.4252 4.00598 15.9196C4.19899 20.7962 7.70081 23.9352 8.44529 24.6079C9.43793 25.5047 12.3883 28.0551 16.8276 27.9991C18.1511 27.9711 21.4875 27.7188 24.3275 25.1404C28.9599 20.9364 27.9397 14.5183 27.8294 13.9017ZM10.9545 13.6494C11.4232 13.0889 13.1603 11.2952 16.028 11.2672C16.028 11.2672 16.028 11.2672 16.0555 11.2672C18.8404 11.2672 20.6051 13.0328 21.0739 13.5654C21.4048 13.9577 21.3772 14.5183 20.9912 14.8826C20.6051 15.2189 20.0537 15.1909 19.6952 14.7985C19.4471 14.5183 18.1235 13.1169 16.0555 13.1169C13.9324 13.1169 12.6089 14.5463 12.3607 14.8546C12.1677 15.0788 11.9195 15.1629 11.6714 15.1629C11.4508 15.1629 11.2578 15.0788 11.0923 14.9387C10.6787 14.6023 10.6236 14.0138 10.9545 13.6494ZM23.7761 16.7043L19.971 20.4879C19.6125 20.8243 19.061 20.8243 18.7026 20.4879L16.0004 17.9095L13.3809 20.4879C13.2155 20.6561 12.9673 20.7402 12.7467 20.7402C12.5261 20.7402 12.278 20.6561 12.1125 20.4599L8.19713 16.5082C7.83868 16.1438 7.83868 15.5552 8.19713 15.1909C8.55558 14.8266 9.13462 14.8266 9.49308 15.1909L12.7743 18.5261L15.3938 15.9756C15.7522 15.6393 16.3037 15.6393 16.6346 15.9756L19.3092 18.5541L22.4801 15.4151C22.8386 15.0508 23.4176 15.0788 23.7761 15.4431C24.1621 15.7795 24.1345 16.368 23.7761 16.7043Z" fill="#70AAFB"/>
</svg>
