<svg preserveAspectRatio="none" viewBox="0 0 60 25" fill="none" xmlns="http://www.w3.org/2000/svg">
<path d="M33.5277 24.7313C35.1972 24.7102 36.8596 24.641 38.523 24.5718C39.7731 24.5197 41.0238 24.4677 42.2785 24.436C43.3339 24.3991 44.3948 24.3806 45.4556 24.3622C46.5165 24.3437 47.5774 24.3252 48.6327 24.2883C50.3367 24.2145 52.0352 24.1315 53.7337 24.0484C55.4322 23.9654 57.1307 23.8823 58.8347 23.8085L33.5277 24.7313ZM33.5277 24.7313C32.0703 24.7524 30.6129 24.7253 29.1554 24.6981C28.0624 24.6778 26.9693 24.6575 25.8763 24.6575C25.1534 24.6575 24.4306 24.6941 23.705 24.7309C22.974 24.7679 22.2402 24.8051 21.5009 24.8051C21.2077 24.8051 20.9145 24.7759 20.6214 24.7468C20.2549 24.7103 19.8885 24.6739 19.522 24.6944L33.5277 24.7313ZM48.6133 23.7887C50.3148 23.715 52.011 23.632 53.7088 23.549L53.7093 23.549L53.7098 23.549C55.4079 23.4659 57.1076 23.3828 58.8131 23.3089L58.8239 23.3085H58.8347C59.1748 23.3085 59.4483 23.0197 59.4282 22.6743C59.0896 16.8521 59.1208 11.1042 59.152 5.34477C59.1545 4.88343 59.157 4.42202 59.1593 3.96049C59.1685 2.11167 57.765 0.505833 56.0142 0.500063L55.9764 0.5C54.9593 0.5 53.9414 0.518361 52.9182 0.536831L52.916 0.536871C51.8951 0.555301 50.8689 0.573825 49.842 0.573825C49.31 0.573825 48.7787 0.564533 48.2524 0.555331L48.2502 0.555293C47.7218 0.546052 47.1985 0.536913 46.6759 0.536913C45.9421 0.536913 45.2271 0.568612 44.4965 0.601006C44.1202 0.617692 43.7397 0.634562 43.3503 0.647379L43.3437 0.6476C41.4512 0.684499 39.57 0.721284 37.6905 0.831357L37.6781 0.832086L37.678 0.83193C37.1481 0.849723 36.6208 0.903188 36.0738 0.958837L36.0659 0.959643C35.527 1.01448 34.9686 1.07129 34.402 1.09032L34.4005 1.09037C33.8184 1.10813 33.2427 1.0766 32.694 1.04654C32.6485 1.04404 32.6031 1.04156 32.558 1.03911C31.9604 1.00675 31.3935 0.980921 30.8324 1.01581L30.8308 1.0159C29.2294 1.11057 28.4483 1.01525 27.684 0.920711L27.6741 0.919493C26.9503 0.829963 26.2401 0.742105 24.7415 0.830977C23.4146 0.94189 19.5559 1.11261 18.1935 0.998248L18.1866 0.997673L18.1866 0.997626C15.9359 0.77751 14.57 0.686225 12.3918 0.830733C11.7416 0.888599 10.8439 0.868642 9.98673 0.845878C9.92515 0.844242 9.86377 0.842592 9.80266 0.840949C8.99012 0.819103 8.22493 0.79853 7.67783 0.831265C7.08975 0.868494 6.19908 0.896263 5.32198 0.92361L5.30146 0.92425C4.40969 0.952055 3.53468 0.979492 2.97339 1.01573C2.94384 1.01764 2.91555 1.02134 2.8883 1.02659C2.21863 1.15579 1.65904 1.75852 1.24316 2.69143C0.835844 3.60511 0.625934 4.7118 0.585857 5.59265C0.447665 8.62997 0.499513 11.654 0.579548 14.6833C0.593168 15.1988 0.607613 15.7147 0.622064 16.2308C0.692364 18.7414 0.762832 21.258 0.739478 23.7738M48.6133 23.7887L0.739455 23.7762C0.739463 23.7754 0.73947 23.7746 0.739478 23.7738M48.6133 23.7887C47.5637 23.8254 46.5079 23.8438 45.4469 23.8622L45.445 23.8623C44.3864 23.8807 43.3226 23.8992 42.2635 23.9362C40.9885 23.9684 39.7347 24.0207 38.4863 24.0728C36.8344 24.1417 35.1917 24.2102 33.5214 24.2313L33.5205 24.2313C32.0623 24.2524 30.6273 24.2255 29.1829 24.1985C28.0908 24.178 26.9933 24.1575 25.8763 24.1575C25.1407 24.1575 24.4073 24.1946 23.6858 24.2312L23.6715 24.2319C22.9412 24.2689 22.2227 24.3051 21.5009 24.3051C21.2342 24.3051 20.9668 24.2786 20.6702 24.2491C20.634 24.2456 20.5973 24.2419 20.5602 24.2383C20.2312 24.2061 19.8683 24.1745 19.4973 24.195C18.7957 24.2256 18.1083 24.2677 17.4275 24.3095C16.4322 24.3705 15.451 24.4307 14.4597 24.4528C14.0938 24.4523 13.7167 24.4024 13.3003 24.3465L13.285 24.3444C12.883 24.2904 12.4428 24.2313 12.0025 24.2313V24.2312L11.992 24.2314C10.9346 24.2536 9.86729 24.3165 8.80968 24.3789C8.10917 24.4202 7.41291 24.4613 6.72664 24.4901L6.72554 24.4902C6.32823 24.5077 5.93214 24.4991 5.52213 24.4853C5.44281 24.4827 5.36269 24.4798 5.28191 24.4769C4.95047 24.465 4.60784 24.4528 4.26309 24.4528H4.25706H4.25103H4.245H4.23897H4.23294H4.22691H4.22087H4.21484H4.20881H4.20278H4.19675H4.19072H4.18469H4.17866H4.17263H4.1666H4.16057H4.15454H4.14851H4.14248H4.13645H4.13042H4.12439H4.11836H4.11233H4.1063H4.10027H4.09424H4.08821H4.08218H4.07615H4.07012H4.06409H4.05806H4.05203H4.046H4.03997H4.03394H4.02791H4.02188H4.01585H4.00982H4.00379H3.99776H3.99173H3.9857H3.97967H3.97364H3.96761H3.96158H3.95555H3.94952H3.94349H3.93746H3.93143H3.9254H3.91937H3.91334H3.90731H3.90128H3.89525H3.88921H3.88318H3.87715H3.87112H3.86509H3.85906H3.85303H3.847H3.84097H3.83494H3.82891H3.82288H3.81685H3.81082H3.80479H3.79876H3.79273H3.7867H3.78067H3.77464H3.76861H3.76258H3.75655H3.75052H3.74449H3.73846H3.73243H3.7264H3.72037H3.71434H3.70831H3.70228H3.69625H3.69022H3.68419H3.67816H3.67213H3.6661H3.66007H3.65404H3.64801H3.64198H3.63595H3.62992H3.62389H3.61786H3.61183H3.6058H3.59977H3.59374H3.58771H3.58168H3.57565H3.56961H3.56358H3.55755H3.55152H3.54549H3.53946H3.53343H3.5274H3.52137H3.51534H3.50931H3.50328H3.49725H3.49122H3.48519H3.47916H3.47313H3.4671H3.46107H3.45504H3.44901H3.44298H3.43695H3.43092H3.42489H3.41886H3.41283H3.4068H3.40077H3.39474H3.38871H3.38268H3.37665H3.37062H3.36459H3.35856H3.35253H3.3465H3.34047H3.33444H3.32841H3.32238H3.31635H3.31032H3.30429H3.29826H3.29223H3.2862H3.28017H3.27414H3.26811H3.26208H3.25605H3.25002H3.24398H3.23795H3.23192H3.22589H3.21986H3.21383H3.2078H3.20177H3.19574H3.18971H3.18368H3.17765H3.17162H3.16559H3.15956H3.15353H3.1475H3.14147H3.13544H3.12941H3.12338H3.11735H3.11132H3.10529H3.09926H3.09323H3.0872H3.08117H3.07514H3.06911H3.06308H3.05705H3.05102H3.04499H3.03896H3.03293H3.0269H3.02087H3.01484H3.00881H3.00278H2.99675H2.99072H2.98469H2.97866H2.97263H2.9666H2.96057H2.95454H2.94851H2.94248H2.93645H2.93042H2.92439H2.91836H2.91232H2.90629H2.90026H2.89423H2.8882H2.88217H2.87614H2.87011H2.86408H2.85805H2.85202H2.84599H2.83996H2.83393H2.8279H2.82187H2.81584H2.80981H2.80378H2.79775H2.79172H2.78569H2.77966H2.77363H2.7676H2.76157H2.75554H2.74951H2.74348H2.73745H2.73142H2.72539H2.71936H2.71333H2.7073H2.70127H2.69524H2.68921H2.68318H2.67715H2.67112H2.66509H2.65906H2.65303H2.647H2.64097H2.63494H2.62891H2.62288H2.61685H2.61082H2.60479H2.59876H2.59273H2.58669H2.58066H2.57463H2.5686H2.56257H2.55654H2.55051H2.54448H2.53845H2.53242H2.52639H2.52036H2.51433H2.5083H2.50227H2.49624H2.49021H2.48418H2.47815H2.47212H2.46609H2.46006H2.45403H2.448H2.44197H2.43594H2.42991H2.42388H2.41785H2.41182H2.40579H2.39976H2.39373H2.3877H2.38167H2.37564H2.36961H2.36358H2.35755H2.35152H2.34549H2.33946H2.33343H2.3274H2.32137H2.31534H2.30931H2.30328H2.29725H2.29122H2.28519H2.27916H2.27313H2.2671H2.26107H2.25503H2.249H2.24297H2.23694H2.23091H2.22488H2.21885H2.21282H2.20679H2.20076H2.19473H2.1887H2.18267H2.17664H2.17061H2.16458H2.15855H2.15252H2.14649H2.14046H2.13443H2.1284H2.12237H2.11634H2.11031H2.10428H2.09825H2.09222H2.08619H2.08016H2.07413H2.0681H2.06207H2.05604H2.05001H2.04398H2.03795H2.03192H2.02589H2.01986H2.01383H2.0078H2.00177H1.99574H1.98971H1.98368H1.97765H1.97162H1.96559H1.95956H1.95353H1.9475H1.94147H1.93544H1.92941H1.92337H1.91734H1.91131H1.90528H1.89925H1.89322H1.88719H1.88116H1.87513H1.8691H1.86307H1.85704H1.85101H1.84498H1.83895H1.83292H1.82689H1.82086H1.81483H1.8088H1.80277H1.79674H1.79071H1.78468H1.77865H1.77262H1.76659H1.76056H1.75453H1.7485H1.74247H1.73644H1.73041H1.72438H1.71835H1.71232H1.70629H1.70026H1.69423H1.6882H1.68217H1.67614H1.67011H1.66408H1.65805H1.65202H1.64599H1.63996H1.63393H1.6279H1.62187H1.61584H1.60981H1.60378H1.59774H1.59171H1.58568H1.57965H1.57362H1.56759H1.56156H1.55553H1.5495H1.54347H1.53744H1.53141H1.52538H1.51935H1.51332H1.50729H1.50126H1.49523H1.4892H1.48317H1.47714H1.47111H1.46508H1.45905H1.45302H1.44699H1.44096H1.43493H1.4289H1.42287H1.41684H1.41081H1.40478H1.39875H1.39272H1.38669H1.38066H1.37463H1.3686H1.36257H1.35654H1.35051H1.34448H1.33845H1.33242H1.32639H1.32036H1.31433H1.3083H1.30227H1.29624H1.29021H1.28418H1.27815H1.27211H1.26608H1.26005H1.25402H1.24799H1.24196H1.23593H1.2299H1.22387H1.21784H1.21181H1.20578H1.19975H1.19372H1.18769H1.18166H1.17563C1.1038 24.4528 1.03127 24.46 0.988594 24.4642C0.982273 24.4649 0.976606 24.4654 0.971695 24.4659C0.967954 24.4662 0.943617 24.4675 0.9017 24.4335C0.857937 24.398 0.819677 24.3419 0.801899 24.2833L0.323426 24.4284M48.6133 23.7887L0.323426 24.4284M0.739478 23.7738C0.739622 23.9579 0.757638 24.1028 0.79182 24.2463L0.305868 24.3621L0.791821 24.2463C0.794635 24.2581 0.797962 24.2703 0.801897 24.2833L0.323426 24.4284M0.739478 23.7738L0.323426 24.4284" fill="#FFFEFB" stroke="#D7D4CE"/>
</svg>
