
<svg viewBox="0 0 46 54" fill="none" xmlns="http://www.w3.org/2000/svg">
<path d="M30.8319 47.9641C31.0319 48.5927 30.8319 49.1514 30.1319 49.5704C29.7319 49.8498 30.3319 50.2688 30.7319 49.9895C31.6319 49.4308 31.9319 48.5927 31.6319 47.7546C31.5319 47.4054 30.7319 47.545 30.8319 47.9641Z" fill="#231F20"/>
<path d="M27.4091 49.6443C27.1091 49.5744 26.9091 49.3649 26.8091 49.1554C26.7091 48.8062 25.9091 48.9459 26.0091 49.2951C26.2091 49.7141 26.6091 50.0633 27.2091 50.203C27.7091 50.3427 28.0091 49.784 27.4091 49.6443Z" fill="#231F20"/>
<g clip-path="url(#clip0_647_57442)">
<path d="M10.3721 12.2583C11.1793 14.7613 15.5011 15.764 19.0961 14.6047C22.6911 13.4454 25.2296 10.8558 24.4225 8.35277C23.7509 4.81683 19.4439 3.8604 15.8489 5.01971C12.2539 6.17902 9.56494 9.7553 10.3721 12.2583Z" fill="#EFDAB2"/>
<path d="M25.8589 30.248L21.0476 31.7996L21.4175 32.4621L29.1989 49.8098L25.9001 30.8602L25.8589 30.248Z" fill="#FFFCF6"/>
<path d="M6.12438 28.6389C7.31138 32.3197 16.3491 33.3157 24.3266 30.7432C28.2145 29.8021 38.3244 23.6248 37.1374 19.9439C36.4675 14.6415 26.8682 13.819 18.8907 16.3916C10.9132 18.9641 4.86976 24.7483 6.12438 28.6389Z" fill="#EFDAB2"/>
<path d="M22.168 12.9879L15.3756 15.1783L15.7552 19.7465L24.2456 17.0086L22.168 12.9879Z" fill="#EFDAB2"/>
<path fill-rule="evenodd" clip-rule="evenodd" d="M26.476 42.9087L26.7272 42.8277C26.3611 41.6925 26.1921 41.7445 26.125 41.5364C26.0258 41.2289 26.2401 40.9939 25.5734 40.9383L26.476 42.9087ZM11.9183 10.3892C11.9852 10.7071 12.1705 10.706 11.385 10.7475C11.2853 10.4146 11.2986 10.5584 11.3323 10.2999C11.7228 10.3118 11.5581 10.4083 11.9183 10.3892ZM9.04631 23.5669C8.9306 23.9181 9.13239 23.6208 8.81232 23.8669C8.68658 23.9662 8.56945 24.0448 8.47767 24.1152C8.21162 24.3159 8.00644 24.4765 7.757 24.4446C7.89305 23.9592 8.80257 23.4106 9.04631 23.5669ZM9.0349 24.6834C8.84991 25.3326 8.34039 25.1728 7.99645 25.6921C7.76666 26.0368 7.95496 26.0526 7.57239 26.176C7.39155 26.0097 7.43053 26.0201 7.32689 25.6987C7.63456 25.3825 8.51352 24.6524 9.0349 24.6834ZM30.3614 22.5382C30.0088 22.6519 29.7969 22.1052 28.512 22.0499C28.463 22.0478 28.1805 22.0317 28.172 22.0293C27.9497 21.9632 28.0591 22.0657 27.9119 21.8222C28.1518 21.3748 28.6457 21.5728 29.3587 21.7641C29.471 21.7968 30.8915 22.3673 30.3614 22.5382ZM21.6188 22.1109C21.5309 22.6114 21.4573 22.533 20.5539 22.8244C20.3027 22.9054 19.4086 23.0048 19.2166 22.9774C19.0105 22.2832 19.4437 22.5851 20.0957 22.4846C20.6695 22.394 21.0509 22.1485 21.6188 22.1109ZM34.3179 22.1914C34.0253 22.2781 34.1747 22.2682 33.9452 22.235C33.9376 22.2349 33.6107 22.1208 33.5871 22.1106L32.3218 21.5717C32.0636 21.489 31.7898 21.5237 31.7078 21.2694C31.4946 20.6082 32.4946 21.1765 32.5731 21.215C34.116 21.9758 34.1047 21.5302 34.3179 22.1914ZM16.6049 28.6462C16.0797 28.785 15.6208 28.4429 15.0466 28.406C14.8963 28.5948 14.7472 28.7399 14.6006 28.948C14.4377 29.1766 14.405 29.3276 14.0905 29.4571C13.862 29.056 13.9692 28.9704 14.2892 28.6451C14.7507 28.1747 14.4722 28.2262 14.7743 27.8455C14.9642 27.8506 16.4031 28.1625 16.6049 28.6462ZM26.4863 16.5492C25.7304 16.793 25.5767 17.1055 25.2864 16.8443C25.2603 16.3295 25.9842 16.239 26.4783 16.1536C27.2593 16.0192 28.5229 15.6219 28.6002 16.059C28.6828 16.5045 27.5925 16.1925 26.4863 16.5492ZM14.2188 30.7149C13.9771 31.0225 14.2155 30.9176 13.899 30.9303L12.4646 30.719C12.1977 30.6647 11.8705 30.5967 11.5854 30.5176C11.5717 30.5143 11.4043 30.4688 11.4013 30.4672C10.8758 30.3763 10.8959 30.62 10.7106 30.1718C11.1368 29.7102 11.819 30.1845 12.6031 30.3043L13.8417 30.4842C14.1916 30.5909 13.915 30.4198 14.2188 30.7149ZM22.3183 12.2321C21.9398 12.321 22.0143 12.2204 21.796 12.2142C21.4414 12.2035 21.6849 12.4772 21.3736 12.1666L21.2396 11.4671C21.1285 11.1226 21.0947 11.2229 20.9665 10.9043L21.3859 10.769C21.6462 11.3947 21.6982 11.1456 21.7654 11.9458C22.1206 11.4535 21.629 10.9153 21.7405 10.5194C21.8987 9.95281 22.537 10.6224 22.3183 12.2321ZM32.2163 17.3942C31.8031 17.5173 31.8031 17.4305 31.4371 17.4081C30.307 17.3437 27.7435 17.4813 26.6104 17.6757C26.0971 17.7646 26.0274 17.9428 25.8082 17.6025C25.9688 17.1143 26.686 17.2633 27.3508 17.1868L30.7173 17.0379C31.0488 17.0484 31.2657 17.0423 31.5459 17.0591C32.0252 17.0858 32.0711 16.9204 32.2163 17.3942ZM35.3992 19.8008C35.2959 20.3956 35.2265 20.2751 34.3618 19.9133C33.6352 19.609 32.8102 19.4412 32.0047 19.3181C30.7042 19.1198 28.9939 19.268 27.6849 19.6901C27.459 19.763 27.4417 19.7252 27.2386 19.7422C27.1713 18.9497 28.1349 19.0422 28.9667 18.9628C30.8374 18.7833 31.8961 18.7762 33.7024 19.2887L34.9892 19.6497C35.2033 19.6981 35.2178 19.7036 35.3992 19.8008ZM16.5541 26.248C16.3622 26.1976 16.1647 26.1924 15.9865 26.1528C15.7438 26.4021 15.7563 26.2909 15.6834 26.6488C16.0329 26.7147 16.4022 26.8815 16.5541 26.248ZM15.9486 24.0313L16.003 24.2C15.6602 24.4229 15.1644 25.0473 14.9371 25.1946C15.2049 25.4095 15.4969 25.5578 15.8247 25.6511C16.159 25.4489 16.2758 25.2351 16.4791 24.9347C16.8555 24.382 16.9048 24.2666 17.2164 24.4596C17.1609 24.8476 17.246 24.4016 16.7573 25.0084C16.1354 25.7781 16.4029 25.5898 16.6294 26.1344C16.8135 25.9244 16.9618 25.7056 17.1407 25.4871C17.3652 25.2131 17.4457 25.0365 17.8928 24.8923C17.9178 25.3565 17.9312 24.8774 17.2222 25.882C16.9778 26.2288 16.6241 26.5598 16.7325 27.0302C16.2797 27.2197 16.5807 27.3089 16.0602 27.5253C15.4118 26.4377 15.2277 27.4211 15.1239 27.549C14.9248 27.7995 14.2929 27.7889 14.9522 26.9535C14.5823 26.4296 14.7352 26.5487 14.7621 26.3639C15.1597 26.2714 15.0119 26.3574 15.3458 26.4539L15.5987 26.0941C15.2339 25.5864 14.3978 25.8101 14.2688 25.4101C14.1479 25.051 15.4366 24.1555 15.9486 24.0313ZM15.8854 8.92352C15.2507 8.97506 15.2773 8.6551 14.461 9.31139C15.3343 9.48667 15.14 9.36554 15.9391 9.08998L15.8854 8.92352ZM13.0685 9.64815C12.8735 9.43024 12.8769 9.56698 12.5829 9.46782C12.5149 9.53313 12.416 9.62884 12.3434 9.69564C12.507 9.82412 12.51 9.82569 12.7237 9.91246L12.8985 9.98116C12.9177 9.9852 12.9436 9.9947 12.9627 9.99875C13.134 10.0405 13.0254 10.0194 13.1908 10.0196L13.0708 9.6474L13.0685 9.64815ZM14.2718 8.79557C14.0709 8.81184 13.6769 8.76536 13.5871 8.77899C13.4368 8.80195 13.2506 8.98196 13.0719 9.09062C13.2016 9.14578 13.0205 9.09698 13.249 9.15858L13.7542 9.20241C14.0214 9.13156 14.1993 9.02058 14.2718 8.79557ZM15.5586 8.19426C15.3767 8.06405 15.0514 8.03367 14.7964 8.03169C14.513 8.02864 14.3895 8.22162 14.1361 8.37479C14.1544 8.3842 14.1811 8.39601 14.1926 8.39997L14.5718 8.47932C15.2432 8.52571 15.1015 8.35446 15.5586 8.19426ZM12.6062 8.65631C12.4383 8.66449 12.5009 8.69281 12.218 8.80957C12.6165 9.04349 12.4943 8.91699 12.9661 8.75464L12.6062 8.65631ZM13.945 8.06631C13.614 7.81315 13.3694 7.93033 13.1783 8.237C13.6851 8.35688 13.5029 8.24971 13.945 8.06631ZM11.8225 8.65633C13.265 7.78789 12.5617 8.05296 12.6412 7.46324C13.884 7.17479 12.5035 8.13298 15.057 6.45705C15.4391 6.20619 15.5722 6.14542 15.8239 6.43689L14.1703 7.621C14.7606 7.57359 14.9436 7.40737 15.4909 7.10837C16.5231 6.54579 16.4886 6.37569 16.6824 6.81092C16.2157 7.00481 15.7116 7.44558 15.198 7.6597C15.2186 7.66837 15.2469 7.67712 15.2576 7.67877C15.2713 7.68199 15.3034 7.69463 15.3172 7.69785C16.3322 7.94991 16.3069 7.69006 17.1242 7.17893L18.0896 6.55112C18.5056 6.27912 18.7283 6.03884 18.9952 6.52707C18.8106 6.70403 18.1675 6.91906 17.8401 7.12673C17.4873 7.35026 17.1468 7.65148 16.7709 7.80334C17.0297 7.99044 17.0291 7.96509 16.9726 8.29472C16.3125 8.44889 16.792 7.92414 15.7059 8.51686L15.9756 8.59579C16.4987 8.7028 16.6685 8.5587 17.0526 8.33782L19.5518 6.81721C20.365 6.3406 20.4832 6.13144 20.6902 6.63132C20.494 6.81967 19.9633 6.98061 19.7246 7.11628L17.1905 8.68643C17.8866 9.05411 18.1573 8.6784 18.4391 9.11842C18.1564 9.38571 17.6196 9.19638 17.2402 9.1324C16.5136 9.00938 16.7755 9.00913 16.1233 9.4007C16.7481 9.85515 17.8491 9.22957 17.927 10.1182L17.2934 10.126C16.7322 10.0109 17.3944 10.0526 16.155 9.88564L14.4269 9.70269C13.7015 9.61502 13.9047 9.68479 13.3594 10.0138C13.6281 10.2079 14.9469 10.3211 15.3148 10.3021C15.678 10.2845 15.7054 10.2272 15.8606 10.5982C15.5042 10.8025 15.6643 10.7075 14.9055 10.674C14.3971 10.6516 14.6547 10.7089 13.9357 10.9408C13.7665 10.7554 13.8228 10.796 13.8 10.52C13.4205 10.5505 12.373 10.3395 11.9895 10.2156C11.3937 10.0249 11.6598 9.911 11.6621 9.91026C11.6882 9.64405 12.2561 9.17247 12.067 8.90164C11.9015 8.64873 12.0772 9.22507 11.8225 8.65633ZM11.4895 27.4192C11.2015 27.5121 11.4258 27.4347 11.2561 27.6502C10.9284 28.0698 11.0129 28.2136 10.6994 28.4168C11.2381 29.2513 11.6216 28.1602 12.0968 27.8743C11.9753 27.5842 12.0654 27.6981 11.8407 27.5536C11.779 27.5122 11.5402 27.4029 11.4895 27.4192ZM11.6864 26.4675C11.9387 26.1692 11.9188 26.3518 11.8637 25.9994C11.6516 25.8075 11.1891 26.3063 11.0884 26.6961L11.2978 26.8327C11.5597 26.6743 11.5114 26.6745 11.6864 26.4675ZM11.6322 23.8458C10.5581 24.2943 11.0435 24.758 11.15 24.9304C11.6436 24.7253 11.4434 24.5857 11.8808 24.3246C11.7698 24.1384 11.7219 24.1002 11.6322 23.8458ZM11.9143 23.5685C12.0403 23.8725 12.0527 23.8557 12.2653 23.9786C13.1616 23.105 13.2784 23.4987 13.0622 22.8283C12.6196 23.0731 12.3048 23.4068 11.9143 23.5685ZM14.1791 22.56L13.989 21.9704C13.8958 21.6814 13.9461 21.6243 13.8818 21.3541C12.916 21.6885 13.2798 21.8698 13.2969 21.9307C13.5299 22.6927 13.2434 22.3487 13.539 22.871L14.1791 22.56ZM13.7526 20.3774L12.0781 21.4099C11.8436 21.5979 11.8433 21.6363 11.5136 21.7502C11.6463 22.1618 11.6238 22.1078 11.6362 22.4458C11.6435 22.6579 11.6754 22.9462 11.6964 23.1768C13.0892 22.7226 12.8431 22.22 12.8768 21.9615C12.5238 22.0345 12.7456 22.0753 12.4997 21.8968C12.5704 21.5243 12.598 21.5231 12.9806 21.3129C13.3139 21.1314 13.5471 21.0026 13.9159 20.8837C13.8561 20.6273 13.8401 20.4436 14.1144 20.3551C14.5269 20.2221 14.0479 20.3383 14.434 20.4154L14.6252 20.4482C14.9579 20.5094 14.8436 20.3522 15.0641 20.7202C14.6481 21.0636 14.3274 20.8658 14.3529 21.5289C14.3603 21.7332 14.4103 22.054 14.4738 22.1561C14.7683 22.6277 14.6023 21.9156 14.8465 22.6255C14.1472 23.045 13.9129 22.8627 13.7806 23.6201C13.2579 23.7427 13.4951 23.3344 12.8156 24.0359C12.7127 24.1431 12.6218 24.2082 12.5206 24.3046C12.5456 24.3272 12.7288 24.4927 12.7605 24.5438C12.882 24.747 12.8631 24.8144 12.8228 24.9499C12.4797 25.0223 12.5035 25.0248 12.3529 24.6369C11.8413 24.8019 11.8606 24.8774 11.6383 25.2375C11.8163 25.5527 11.9611 25.4652 12.1756 25.8069L12.7484 25.6503C12.5809 26.054 12.0459 26.5252 11.6903 26.89C11.852 27.1467 12.1832 27.2823 12.4097 27.4007C12.7437 27.0557 12.7763 26.7388 13.3372 26.5452C13.4568 27.058 13.2675 26.8102 12.7544 27.578L11.729 29.0139C12.4427 28.9547 12.3132 28.5217 13.2032 27.6681C13.4033 27.4759 13.6116 27.3092 13.8874 27.3913C13.905 27.7378 13.9115 27.6081 13.6537 27.8342C12.8261 28.558 13.0385 28.538 12.5891 29.1091C12.8188 29.4664 12.7444 29.1408 12.9199 29.5589C12.6167 29.6286 12.3227 29.6085 12.0866 29.5468C11.9123 29.5035 11.9004 29.4665 11.7253 29.4285C11.1626 29.3088 11.4888 29.5788 10.9964 29.2118C10.5939 28.9103 10.1102 29.0356 10.1439 28.6904C10.1759 28.3559 10.3214 28.6255 10.5443 28.1963C10.7632 27.7785 10.6873 27.7877 11.1578 27.2506L10.7884 27.0124C10.2358 27.5632 9.94088 28.2581 9.58874 28.4049C9.43672 27.752 10.2866 27.3656 10.4653 26.823C10.3322 26.6311 9.99568 26.3925 9.80203 26.2023C9.56696 26.4516 9.35642 26.6982 9.15544 26.9902C8.86674 27.4125 8.68672 27.3277 8.89697 27.9796C8.365 28.1052 8.41035 28.0013 8.25145 28.5579C8.66478 29.2005 9.06972 28.7994 9.32843 29.6017C8.83843 29.7469 8.86826 29.579 8.49993 29.3047C7.98018 28.9159 7.98648 29.0696 7.66208 29.0262C7.46823 28.4251 7.25491 28.4658 7.39239 27.9058C7.70812 27.8908 7.66542 27.8689 7.83467 28.1333C8.11434 27.9512 7.98149 27.989 8.17285 27.7461C7.94693 27.5662 7.84065 27.5443 7.70468 27.1543C7.10351 27.5702 7.56903 28.0276 6.85839 28.2618C6.60768 27.508 6.83285 27.5988 7.18506 27.0972C7.45423 26.7169 7.54385 26.3715 8.13153 26.182C8.25407 26.704 7.80318 26.6707 8.40121 27.3023C8.89813 26.9813 9.01589 26.2261 9.55409 26.0015C9.44327 25.6263 9.38471 25.7523 9.58664 25.5264C9.9223 25.5101 9.96371 25.6779 10.2149 25.9441C10.4623 26.2063 10.5072 26.2429 10.802 26.4235C11.0963 26.1525 11.1706 25.9728 11.3961 25.6857C10.9296 25.1623 9.83027 24.2227 9.96646 23.5483C10.3618 23.4566 10.4065 23.5953 10.576 24.0026C10.9212 23.8581 11.1078 23.6397 11.4166 23.4534C11.2086 22.8083 11.1967 22.5978 11.1509 22.0535C10.3844 22.6351 10.5007 22.7277 9.86236 22.9336C9.76937 22.5348 10.0762 22.3108 10.5033 22.002L12.6714 20.5907C13.3448 20.1464 13.5834 19.8525 13.7526 20.3774ZM24.1016 35.6011C23.8425 35.5392 23.8697 35.584 23.5885 35.6747L23.751 36.1787C23.7689 36.1551 23.8169 36.0911 23.8285 36.0797C24.379 35.5066 24.0467 35.92 24.1016 35.6011ZM23.8908 34.6711L23.3164 34.8308L23.426 35.1707L24.0136 34.9812C23.9287 34.8835 23.8913 34.87 23.8908 34.6711ZM23.7583 34.2289C23.5743 33.7293 23.422 33.8013 23.0465 33.9939L23.1546 34.3291L23.7583 34.2289ZM23.2231 32.8216C22.7859 32.9727 22.75 33.043 22.8832 33.4876L23.3856 33.3256L23.2231 32.8216ZM22.5622 34.1807C22.5997 34.0206 22.6474 34.3344 22.5992 33.9008L22.3304 33.1936C22.1355 32.8022 22.3548 33.0326 22.0778 33.002C22.2038 33.3927 22.3865 33.6988 22.5622 34.1807ZM22.8872 31.5592C22.5226 31.7381 22.3459 31.7108 21.8112 31.8832L22.1379 32.6125C21.8777 31.8056 22.2213 32.1134 22.9241 31.8944C22.9207 31.8445 22.888 31.5615 22.8872 31.5592ZM23.4548 31.8203C24.0033 31.6434 23.8252 31.6906 24.0117 31.827C23.9125 32.127 23.997 32.0181 23.5637 32.1578L23.6181 32.3266C23.8992 32.2436 24.1678 32.1928 24.2095 32.4958C24.252 32.8011 24.005 32.6664 23.5856 32.8016C23.8107 33.4999 23.7514 33.1974 24.0573 33.2468C24.5852 33.3293 24.6115 33.6398 24.3005 33.7248C24.2184 33.7462 24.2277 33.6411 23.896 33.7327C24.0276 33.9277 23.9514 33.9675 24.0667 34.0886C24.0751 34.0987 24.0964 34.1173 24.1063 34.1243C24.1336 34.1461 24.4328 34.2692 24.5403 34.3264C24.3926 35.0045 24.3932 34.3279 24.2357 34.8177C24.7114 35.0778 25.1203 34.7519 25.0095 35.4972C24.5688 35.5194 24.8665 35.3851 24.4258 35.4072C24.607 35.9691 24.4693 35.6919 24.7674 35.8433C24.926 35.9249 25.2185 35.9403 25.072 36.2275C24.9488 36.4689 24.9736 36.2694 24.5211 36.326C24.1423 36.3742 24.1964 36.4869 23.8292 36.4368C23.8948 36.6403 23.9646 36.8016 23.9811 37.0106C24.0345 37.7362 24.1647 37.8167 24.524 38.5048L25.4751 40.6178C25.5964 40.5047 25.701 40.4582 25.8261 40.3413C25.611 39.9818 25.5754 39.8478 25.4181 39.36L25.0556 39.3722L24.9214 38.9637C25.3371 38.7301 25.1747 38.8974 25.1743 38.604C24.7749 38.6358 24.9011 38.6563 24.7001 38.4353L24.8996 38.0442C24.4933 38.0783 24.5476 38.0965 24.4029 37.648C24.5628 37.4969 24.578 37.4333 24.8649 37.4633L24.7766 37.063C24.4547 37.2484 24.3429 37.3355 24.1584 36.8897C24.426 36.5992 25.2964 36.4027 25.4395 36.8466C25.5313 37.131 25.4959 37.0607 25.2696 37.1796C25.7212 38.3434 25.872 38.3611 25.5353 38.5794C26.155 39.1836 25.9828 38.9099 25.8543 39.4975C26.4622 39.789 26.2269 40.1482 26.2544 40.3359L26.6029 41.2904C26.9583 41.8088 26.7018 41.6209 26.8427 42.0579C27.5577 44.2751 28.1723 46.6701 29.0256 48.756C28.6667 46.9803 28.1629 45.1417 27.8959 43.3671C27.1615 39.6222 26.281 35.858 25.7291 32.0874C25.6208 31.3413 25.7046 31.5696 25.4314 30.8409L23.2338 31.4347C23.4168 31.6156 23.3383 31.4903 23.4548 31.8203ZM19.8402 21.7553C19.736 21.5822 19.6946 21.5879 19.6215 21.3613L19.5386 21.3881C19.6742 21.8165 19.5553 21.6609 19.8402 21.7553ZM18.6437 21.4929C18.7496 21.8212 18.6695 21.8649 18.9373 21.9061C19.1675 21.9416 19.2033 21.7923 19.1444 21.6096C19.0542 21.3299 18.9148 21.4105 18.6437 21.4929ZM25.0063 20.2757C25.1215 20.1518 25.2233 20.341 25.0137 19.4387C24.8188 19.5602 24.9144 19.4937 24.7607 19.6326L25.0063 20.2757ZM24.216 19.7266C24.2169 19.7135 24.2264 19.6798 24.2258 19.6621L24.1244 19.2609C23.8499 19.546 23.8759 19.8158 24.2025 19.7871C24.2065 19.7679 24.2151 19.7396 24.216 19.7266ZM16.5347 21.5094C16.8024 22.5129 17.7211 23.0028 18.4624 22.9424C18.4986 22.7393 18.5135 22.7064 18.4949 22.4674C18.1612 22.4346 17.7764 22.551 17.4918 22.5127C17.3898 22.1729 17.4192 21.972 17.3886 21.6168C17.0913 21.7127 16.9943 21.7746 16.7387 21.6529L16.5347 21.5094ZM17.8355 21.4957L17.9152 22.0979C18.4476 21.9262 18.4273 21.9659 18.2573 21.4465L17.8355 21.4957ZM19.408 20.131L19.2397 20.1853C19.31 20.474 19.2583 20.4243 19.3366 20.6671C19.4007 20.8659 19.3534 20.8454 19.6026 20.908L19.408 20.131ZM24.6026 18.4559C24.4965 18.5922 24.3196 18.7539 24.4018 18.9851L24.4916 19.2242C24.687 18.9621 24.7412 18.9012 24.6026 18.4559ZM18.928 20.4415C18.8528 20.2003 18.181 19.7661 18.5933 21.0446C18.7987 21.0268 18.8078 21.0469 19.0396 20.9926C18.9706 20.7392 18.9712 20.5756 18.928 20.4415ZM17.5238 20.2766L17.6994 21.1287L18.2131 21.0728L18.046 20.2154L17.5238 20.2766ZM23.2929 18.6944C23.3561 18.7404 23.6657 18.8958 23.7494 18.8714C23.9568 18.8122 23.8281 18.6341 23.7409 18.3636C23.4999 18.5077 23.5332 18.548 23.2929 18.6944ZM18.743 19.789C18.702 19.6619 18.602 19.2806 18.5576 19.1903C18.4094 18.8807 18.5053 18.957 18.1359 19.0583C18.329 19.6571 18.0441 19.9965 18.743 19.789ZM19.2005 19.1642C19.0561 18.7794 19.165 18.9357 18.8626 19.0077L19.1064 19.7637L19.2746 19.7095C19.1991 19.4122 19.2783 19.3739 19.2005 19.1642ZM17.3856 19.0195C17.3626 19.1928 17.4125 19.6157 17.4611 19.8297L17.9904 19.751L17.7473 19.0049L17.3856 19.0195ZM17.2031 18.0906C17.1947 18.6012 17.3949 18.5749 17.6946 18.5497C17.6304 18.2795 17.6814 18.2247 17.5875 17.9334C17.4645 17.5443 17.21 17.8203 17.2031 18.0906ZM16.5347 21.5094C16.7809 21.1288 16.9449 21.2035 17.3367 21.1716C17.1995 20.7462 17.272 20.6871 17.1214 20.2201C16.788 20.2434 16.7855 20.2671 16.6515 19.9071L17.071 19.7718C17.0171 19.5416 16.9977 19.2288 17.0223 19.0448C16.7637 19.0005 16.2489 19.1002 16.2113 18.7549C16.166 18.3382 16.6522 18.5362 16.9419 18.5117L16.7392 17.8828C15.8504 17.904 15.9708 17.9698 15.9351 18.1983L16.5347 21.5094ZM18.7904 17.6399C18.4689 17.787 18.6443 17.613 18.7276 18.5893L19.0618 18.4815L18.7904 17.6399ZM15.3015 18.3005C14.4349 18.5799 11.2938 20.4454 10.4772 21.1477C9.05149 22.3758 7.51035 23.5772 6.82273 25.3661C5.70392 28.2717 6.792 29.7049 9.62116 30.8013C15.0497 32.9049 20.5398 31.6883 25.8892 29.9173C28.2017 29.1512 35.0365 24.4355 36.1272 22.2792C36.9762 20.6042 37.0043 19.2551 36.4803 18.2219C34.9398 15.1887 26.634 14.8298 23.903 15.7105C24.2937 16.8352 25.6216 18.7832 25.7053 19.7925C25.747 20.2845 25.8165 20.3896 25.6023 20.7905C24.167 23.4485 19.8096 24.8715 17.1655 23.2917C15.3565 22.2109 15.628 19.3131 15.3015 18.3005ZM18.3169 18.1678C18.2205 17.8058 18.2847 17.8234 18.1483 17.6607C17.8933 17.8246 17.9332 17.8143 17.9626 18.1341C17.9891 18.4216 17.9954 18.5752 18.241 18.6109C18.5447 18.6533 18.3777 18.3958 18.3169 18.1678ZM18.4939 16.4364L18.4109 16.4631C18.4914 16.7128 18.4322 16.7421 18.4613 16.9982C18.5083 17.4042 18.3809 17.2615 18.7377 17.1924L18.4939 16.4364ZM17.3762 16.7024C16.4666 16.572 16.3931 16.9913 15.735 16.4889C15.7689 16.9016 15.733 17.0587 15.8918 17.5511C16.2928 17.4218 16.2584 17.4967 16.5893 17.4181C16.8488 17.0077 16.461 17.2017 17.0104 17.0041C17.1435 17.3772 17.0991 17.3737 17.4803 17.3171C17.5208 17.0718 17.6058 17.4145 17.3762 16.7024ZM17.8743 17.3789C18.4434 17.124 17.9737 17.0482 18.0499 16.4877L17.7279 16.6017C17.8355 16.9984 17.8004 17.071 17.8743 17.3789ZM19.4426 16.2223C18.8365 16.4178 18.8733 16.24 18.9124 16.5745C18.9288 16.7122 19.0731 17.1123 19.1278 17.2504C19.4274 17.1537 19.6214 17.0529 19.6679 17.3391C19.7238 17.6861 19.4653 17.5474 19.153 17.6123L19.4151 18.4569C19.8922 18.303 19.8802 18.1869 20.0933 18.5164C19.9909 18.8302 19.7854 18.8633 19.4495 18.8159C19.773 20.1741 19.3538 19.5053 20.325 19.5188C20.4179 20.0989 20.2389 19.9779 19.746 20.0194C19.8385 20.3061 19.915 20.575 19.9069 20.8022C20.2464 20.7744 20.2614 20.7262 20.4905 20.8922C20.3986 21.4119 20.347 21.0074 20.1238 21.475C20.3768 21.8018 20.3463 21.439 20.5375 21.898C19.9396 22.466 18.86 21.9821 18.9242 22.6072C18.9764 23.1161 19.08 22.7432 18.9376 23.2486C20.1909 23.9394 24.2774 22.6625 24.7542 20.6301C24.6282 20.2394 24.6723 20.2737 24.4088 20.1034C24.2032 20.6572 24.4909 20.5236 24.408 20.8898C24.3019 21.3579 24.0894 20.9593 23.999 20.8762C23.7292 21.1521 23.7691 21.2362 23.4113 21.0657C23.4114 20.7977 23.3626 20.8594 23.8365 20.3722L23.6464 19.7826C22.9778 20.2892 23.2034 20.1526 22.9196 20.1089C22.9926 19.8224 23.1496 19.5676 23.4277 19.3886C23.1081 18.9812 23.3775 18.6569 23.0013 19.0131C22.7325 19.2682 22.559 19.5667 22.1734 19.5149C22.1798 19.3137 22.2177 19.2734 22.3987 19.0696C22.7376 18.6923 23.2573 18.221 23.4694 17.7978C23.1535 17.1339 22.9372 17.0786 22.9256 16.3957C23.2648 16.5084 23.4581 16.903 23.6125 17.3815L23.9735 17.357C24.1988 18.0322 23.9356 17.6577 24.049 18.1673C24.4597 17.9021 24.1591 17.5932 23.9485 17.1455L22.1116 13.5954C21.6072 14.0745 20.1501 14.6924 19.3135 14.9622L19.4154 15.3965C18.9699 15.5376 18.9929 15.4434 18.8255 15.7449C18.9997 15.9772 18.7791 15.9717 19.3069 15.8016L19.4426 16.2223ZM17.9387 16.1509C17.9645 16.0098 17.9601 15.9883 17.9136 15.7889C17.6891 15.8817 17.7338 15.8545 17.6063 15.9799C17.9139 16.2788 17.6324 16.1399 17.9387 16.1509ZM17.2989 16.1709C17.1082 15.7372 17.0237 15.9406 16.5701 15.9541C16.3027 15.9612 16.029 15.9882 15.7353 16.0242L15.7997 16.3659C16.2214 15.9696 16.3333 16.4823 17.2989 16.1709ZM17.6095 15.2718C17.3539 15.3313 17.5363 15.2342 17.529 15.4484L17.8632 15.3406C17.7362 15.2309 17.9081 15.2036 17.6095 15.2718ZM17.082 15.4981C16.843 15.325 16.7672 15.4056 16.413 15.4356C16.5923 15.6049 16.396 15.5406 16.7 15.5523C16.8264 15.5575 16.9024 15.5407 17.082 15.4981ZM13.9368 14.1003C13.7277 14.012 13.2145 13.8329 13.3607 14.2861C13.4308 14.5034 13.7245 14.5542 13.8119 14.5413C14.0251 14.5083 13.9601 14.4093 13.9368 14.1003ZM15.4824 13.6938C15.3758 13.3631 15.3898 13.4224 15.0824 13.4475L15.1459 13.8023L15.4824 13.6938ZM14.3979 13.4156C14.5 13.74 14.3879 13.5975 14.6475 13.6848C14.698 13.2652 14.7375 13.4745 14.3979 13.4156ZM12.7031 13.1071C12.3459 13.1355 12.3666 13.0497 12.0342 13.0446L12.2109 13.932L12.8875 14.2549C12.8424 13.7283 12.9193 13.7775 12.7031 13.1071ZM14.9891 12.74L15.0972 13.0752L15.4314 12.9675L15.3233 12.6322L14.9891 12.74ZM15.9548 13.7226C16.2464 13.4908 15.9792 13.3013 15.9654 12.6115C15.7255 12.7986 15.8575 12.5059 15.8022 12.8785L15.8164 13.5222C15.9102 13.9157 15.8537 13.6378 15.9548 13.7226ZM13.9518 13.5391C13.7764 13.1847 13.6324 13.2745 13.2284 13.3078C13.4124 13.5471 13.1723 13.4101 13.5655 13.4773C13.7383 13.5083 13.7719 13.5179 13.9518 13.5391ZM14.3225 12.6767L14.4306 13.012L14.5988 12.9577L14.4907 12.6225L14.3225 12.6767ZM22.9077 9.16035C22.7432 9.39973 22.8413 9.30939 22.5995 9.45117L23.1035 11.7951L22.7693 11.9029C22.5397 11.1908 22.6207 10.6925 22.2867 9.83027C19.0608 12.1901 18.1971 12.0603 16.2457 12.613C16.1667 14.0091 16.6906 13.5823 17.0732 13.459L17.1813 13.7942C16.9534 13.9315 16.9523 13.9599 16.6205 14.067C16.7308 14.4091 16.7354 14.3285 16.7 14.5977C16.198 14.4533 16.5013 14.4627 16.1758 14.1159C15.8833 14.3608 16.1631 14.3293 15.892 14.672C15.2803 14.4634 15.9037 14.2981 15.3677 14.1902C15.3833 14.5068 15.4051 14.464 15.1417 14.6332C14.7495 14.2849 14.9769 14.209 14.4857 14.1377C14.3583 14.3421 14.348 14.5548 14.3612 14.793C14.6905 14.7174 15.2563 14.831 15.5862 14.8599L16.8452 14.7245C19.5332 14.46 21.7983 13.6811 23.5538 11.4559C23.1894 11.0833 23.086 9.78434 22.9077 9.16035ZM13.9299 12.8952C13.8322 12.5924 13.956 12.4478 13.2481 12.4694L13.2609 12.8327C13.5011 12.8753 13.6958 12.8635 13.9299 12.8952ZM12.7484 12.6713C12.6147 12.2805 12.7099 12.3468 12.3808 12.2258C12.2052 12.1625 12.052 12.074 11.9927 12.1901C11.787 12.5857 12.5325 12.649 12.7484 12.6713ZM22.9077 9.16035C23.567 9.01922 23.4003 9.84378 23.7798 11.0206C24.4949 10.1136 24.19 8.63963 23.8087 7.67017L22.9077 9.16035ZM11.4888 11.9213C11.2908 11.8754 11.1921 11.8536 10.9319 11.9145C11.2175 12.8 11.165 13.016 11.6171 13.1791L11.4001 12.5063C11.6505 12.3439 11.6468 12.4114 11.4888 11.9213ZM23.322 6.579C22.4896 5.07093 19.8212 4.85945 18.4503 4.99522C16.618 5.17518 13.2806 6.45561 11.9489 7.88048C11.3597 8.58607 10.0665 9.996 10.826 10.8129C13.5933 13.7925 21.8237 10.8959 23.0926 7.65094C23.4918 7.12917 23.5233 6.94289 23.322 6.579ZM22.6441 13.2424C22.8034 13.5076 22.9419 13.7794 23.1098 14.1107C23.2401 14.3647 23.4258 14.8459 23.5785 15.0749C27.1823 14.7627 33.5899 14.3401 36.4055 17.0592C37.699 18.3088 38.1127 20.1203 36.7638 22.3598C35.209 24.9389 30.3152 28.8014 27.5383 29.8552C27.0625 30.0367 26.1538 30.5798 26.194 31.1386C26.2741 32.2231 26.4228 33.3314 26.6352 34.4395C27.399 38.1495 28.059 42.0741 28.9612 45.7317C29.4626 47.7676 30.0439 51.59 30.3445 53.193C29.6883 51.4341 27.4807 47.1842 27.2496 46.4674L26.6514 44.8966C26.3175 43.8455 25.1771 41.1376 24.7063 40.0643C24.3069 39.1568 23.7795 37.9869 23.3476 37.1052C22.6155 35.6082 22.1437 34.0426 21.3311 32.5485C20.8819 31.7235 19.3076 32.3409 18.4816 32.3673C14.3067 32.731 3.44131 32.3169 6.21777 25.3443C7.13512 23.0448 8.38133 22.2779 10.1335 20.7685C10.9629 20.1054 14.3593 17.8641 15.2489 17.5773C15.219 17.2321 15.1769 16.8884 15.089 16.5134C15.0115 16.1862 14.8725 15.621 14.9077 15.3672C14.5814 15.4443 12.7821 14.9219 12.364 14.73C12.0085 14.5664 11.5627 14.2099 11.3056 13.9176C10.1939 12.6477 9.61691 10.4166 10.3717 8.8281C11.7486 5.93379 17.3845 4.07292 20.359 4.41289C21.611 4.55538 22.924 4.98191 23.621 6.10991C24.0198 6.7547 24.4463 7.28843 24.6648 8.05262C24.9389 9.01325 24.935 10.1529 24.4882 11.0397C24.0523 11.9128 23.3585 12.5781 22.6441 13.2424Z" fill="#231F20"/>
</g>
<defs>
<clipPath id="clip0_647_57442">
<rect width="33.0076" height="45.3865" fill="white" transform="matrix(-0.951737 0.306914 0.306914 0.951737 31.4146 0)"/>
</clipPath>
</defs>
</svg>
