<svg width="1512" height="2786" viewBox="0 0 1512 2786" fill="none" xmlns="http://www.w3.org/2000/svg">
<line x1="4.37114e-08" y1="0.5" x2="1512" y2="0.500132" stroke="black" stroke-opacity="0.1" stroke-dasharray="2 2"/>
<line x1="4.37114e-08" y1="48.5" x2="1512" y2="48.5001" stroke="black" stroke-opacity="0.1" stroke-dasharray="2 2"/>
<line x1="4.37114e-08" y1="96.5002" x2="1512" y2="96.5004" stroke="black" stroke-opacity="0.1" stroke-dasharray="2 2"/>
<line x1="4.37114e-08" y1="144.5" x2="1512" y2="144.501" stroke="black" stroke-opacity="0.1" stroke-dasharray="2 2"/>
<line x1="4.37114e-08" y1="192.501" x2="1512" y2="192.501" stroke="black" stroke-opacity="0.1" stroke-dasharray="2 2"/>
<line x1="4.37114e-08" y1="240.501" x2="1512" y2="240.501" stroke="black" stroke-opacity="0.1" stroke-dasharray="2 2"/>
<line x1="4.37114e-08" y1="288.501" x2="1512" y2="288.501" stroke="black" stroke-opacity="0.1" stroke-dasharray="2 2"/>
<line x1="4.37114e-08" y1="336.501" x2="1512" y2="336.501" stroke="black" stroke-opacity="0.1" stroke-dasharray="2 2"/>
<line x1="4.37114e-08" y1="384.501" x2="1512" y2="384.501" stroke="black" stroke-opacity="0.1" stroke-dasharray="2 2"/>
<line x1="4.37114e-08" y1="432.501" x2="1512" y2="432.501" stroke="black" stroke-opacity="0.1" stroke-dasharray="2 2"/>
<line x1="4.37114e-08" y1="480.501" x2="1512" y2="480.501" stroke="black" stroke-opacity="0.1" stroke-dasharray="2 2"/>
<line x1="4.37114e-08" y1="528.501" x2="1512" y2="528.502" stroke="black" stroke-opacity="0.1" stroke-dasharray="2 2"/>
<line x1="4.37114e-08" y1="576.502" x2="1512" y2="576.502" stroke="black" stroke-opacity="0.1" stroke-dasharray="2 2"/>
<line x1="4.37114e-08" y1="624.502" x2="1512" y2="624.502" stroke="black" stroke-opacity="0.1" stroke-dasharray="2 2"/>
<line x1="4.37114e-08" y1="672.502" x2="1512" y2="672.502" stroke="black" stroke-opacity="0.1" stroke-dasharray="2 2"/>
<line x1="4.37114e-08" y1="720.502" x2="1512" y2="720.502" stroke="black" stroke-opacity="0.1" stroke-dasharray="2 2"/>
<line x1="4.37114e-08" y1="768.502" x2="1512" y2="768.502" stroke="black" stroke-opacity="0.1" stroke-dasharray="2 2"/>
<line x1="4.37114e-08" y1="816.502" x2="1512" y2="816.502" stroke="black" stroke-opacity="0.1" stroke-dasharray="2 2"/>
<line x1="4.37114e-08" y1="864.502" x2="1512" y2="864.502" stroke="black" stroke-opacity="0.1" stroke-dasharray="2 2"/>
<line x1="4.37114e-08" y1="912.502" x2="1512" y2="912.503" stroke="black" stroke-opacity="0.1" stroke-dasharray="2 2"/>
<line x1="4.37114e-08" y1="960.503" x2="1512" y2="960.503" stroke="black" stroke-opacity="0.1" stroke-dasharray="2 2"/>
<line x1="4.37114e-08" y1="1008.5" x2="1512" y2="1008.5" stroke="black" stroke-opacity="0.1" stroke-dasharray="2 2"/>
<line x1="4.37114e-08" y1="1056.5" x2="1512" y2="1056.5" stroke="black" stroke-opacity="0.1" stroke-dasharray="2 2"/>
<line x1="4.37114e-08" y1="1104.5" x2="1512" y2="1104.5" stroke="black" stroke-opacity="0.1" stroke-dasharray="2 2"/>
<line x1="4.37114e-08" y1="1152.5" x2="1512" y2="1152.5" stroke="black" stroke-opacity="0.1" stroke-dasharray="2 2"/>
<line x1="4.37114e-08" y1="1200.5" x2="1512" y2="1200.5" stroke="black" stroke-opacity="0.1" stroke-dasharray="2 2"/>
<line x1="4.37114e-08" y1="1248.5" x2="1512" y2="1248.5" stroke="black" stroke-opacity="0.1" stroke-dasharray="2 2"/>
<line x1="4.37114e-08" y1="1296.5" x2="1512" y2="1296.5" stroke="black" stroke-opacity="0.1" stroke-dasharray="2 2"/>
<line x1="4.37114e-08" y1="1344.5" x2="1512" y2="1344.5" stroke="black" stroke-opacity="0.1" stroke-dasharray="2 2"/>
<line x1="4.37114e-08" y1="1392.5" x2="1512" y2="1392.5" stroke="black" stroke-opacity="0.1" stroke-dasharray="2 2"/>
<line x1="4.37114e-08" y1="1440.5" x2="1512" y2="1440.5" stroke="black" stroke-opacity="0.1" stroke-dasharray="2 2"/>
<line x1="4.37114e-08" y1="1488.5" x2="1512" y2="1488.5" stroke="black" stroke-opacity="0.1" stroke-dasharray="2 2"/>
<line x1="4.37114e-08" y1="1536.5" x2="1512" y2="1536.5" stroke="black" stroke-opacity="0.1" stroke-dasharray="2 2"/>
<line x1="4.37114e-08" y1="1584.5" x2="1512" y2="1584.5" stroke="black" stroke-opacity="0.1" stroke-dasharray="2 2"/>
<line x1="4.37114e-08" y1="1632.5" x2="1512" y2="1632.5" stroke="black" stroke-opacity="0.1" stroke-dasharray="2 2"/>
<line x1="4.37114e-08" y1="1680.5" x2="1512" y2="1680.5" stroke="black" stroke-opacity="0.1" stroke-dasharray="2 2"/>
<line x1="4.37114e-08" y1="1728.5" x2="1512" y2="1728.5" stroke="black" stroke-opacity="0.1" stroke-dasharray="2 2"/>
<line x1="4.37114e-08" y1="1776.5" x2="1512" y2="1776.5" stroke="black" stroke-opacity="0.1" stroke-dasharray="2 2"/>
<line x1="4.37114e-08" y1="1824.5" x2="1512" y2="1824.5" stroke="black" stroke-opacity="0.1" stroke-dasharray="2 2"/>
<line x1="4.37114e-08" y1="1872.5" x2="1512" y2="1872.51" stroke="black" stroke-opacity="0.1" stroke-dasharray="2 2"/>
<line x1="4.37114e-08" y1="1920.51" x2="1512" y2="1920.51" stroke="black" stroke-opacity="0.1" stroke-dasharray="2 2"/>
<line x1="4.37114e-08" y1="1968.51" x2="1512" y2="1968.51" stroke="black" stroke-opacity="0.1" stroke-dasharray="2 2"/>
<line x1="4.37114e-08" y1="2016.51" x2="1512" y2="2016.51" stroke="black" stroke-opacity="0.1" stroke-dasharray="2 2"/>
<line x1="4.37114e-08" y1="2064.51" x2="1512" y2="2064.51" stroke="black" stroke-opacity="0.1" stroke-dasharray="2 2"/>
<line x1="4.37114e-08" y1="2112.51" x2="1512" y2="2112.51" stroke="black" stroke-opacity="0.1" stroke-dasharray="2 2"/>
<line x1="4.37114e-08" y1="2160.51" x2="1512" y2="2160.51" stroke="black" stroke-opacity="0.1" stroke-dasharray="2 2"/>
<line x1="4.37114e-08" y1="2208.51" x2="1512" y2="2208.51" stroke="black" stroke-opacity="0.1" stroke-dasharray="2 2"/>
<line x1="4.37114e-08" y1="2256.51" x2="1512" y2="2256.51" stroke="black" stroke-opacity="0.1" stroke-dasharray="2 2"/>
<line x1="4.37114e-08" y1="2304.51" x2="1512" y2="2304.51" stroke="black" stroke-opacity="0.1" stroke-dasharray="2 2"/>
<line x1="4.37114e-08" y1="2352.51" x2="1512" y2="2352.51" stroke="black" stroke-opacity="0.1" stroke-dasharray="2 2"/>
<line x1="4.37114e-08" y1="2400.51" x2="1512" y2="2400.51" stroke="black" stroke-opacity="0.1" stroke-dasharray="2 2"/>
<line x1="4.37114e-08" y1="2448.51" x2="1512" y2="2448.51" stroke="black" stroke-opacity="0.1" stroke-dasharray="2 2"/>
<line x1="4.37114e-08" y1="2496.51" x2="1512" y2="2496.51" stroke="black" stroke-opacity="0.1" stroke-dasharray="2 2"/>
<line x1="4.37114e-08" y1="2544.51" x2="1512" y2="2544.51" stroke="black" stroke-opacity="0.1" stroke-dasharray="2 2"/>
<line x1="4.37114e-08" y1="2592.51" x2="1512" y2="2592.51" stroke="black" stroke-opacity="0.1" stroke-dasharray="2 2"/>
<line x1="4.37114e-08" y1="2640.51" x2="1512" y2="2640.51" stroke="black" stroke-opacity="0.1" stroke-dasharray="2 2"/>
<line x1="4.37114e-08" y1="2688.51" x2="1512" y2="2688.51" stroke="black" stroke-opacity="0.1" stroke-dasharray="2 2"/>
<line x1="4.37114e-08" y1="2736.51" x2="1512" y2="2736.51" stroke="black" stroke-opacity="0.1" stroke-dasharray="2 2"/>
<line x1="4.37114e-08" y1="2784.51" x2="1512" y2="2784.51" stroke="black" stroke-opacity="0.1" stroke-dasharray="2 2"/>
</svg>
