<svg preserveAspectRatio="none" viewBox="0 0 887 380" fill="none" xmlns="http://www.w3.org/2000/svg">
<path fill-rule="evenodd" clip-rule="evenodd" d="M70.852 375.292C50.7854 375.663 7.03122 376.639 7.57207 373.486C17.8483 365.962 22.716 367.467 27.0428 367.768C32.4513 368.671 55.7293 369.644 70.852 369.272V365.867C54.566 365.991 38.97 366.121 33.1536 364.265C30.827 363.523 27.0428 363.354 27.0428 359.642C28.1245 244.376 31.9105 120.683 33.7352 4.9329C46.2405 6.04653 58.4549 6.66522 70.9601 6.91269V2.70563C55.2559 1.34452 37.8067 -3.23375 25.8831 3.81927C20.3575 8.89249 15.9952 15.9455 10.4696 20.6475C1.74505 25.7207 7.27062 36.3621 5.81653 43.6626C6.10735 43.7863 6.10735 43.7863 5.81653 43.7863C3.78079 148.468 2.03587 253.149 0.872591 357.831C1.16341 364.884 -2.03561 374.288 9.59718 376.639C22.1751 378.301 38.7128 377.398 53.5446 377.398C57.3253 377.398 63.5815 377.699 70.852 377.699V375.292ZM4.32695 370.175C4.32695 294.635 5.94951 214.581 6.49036 138.44C8.11292 103.228 7.57207 55.3759 8.65378 25.5814C12.9806 20.1642 12.9806 21.067 17.6993 15.9508C22.1808 11.0916 17.4856 15.827 18.0673 15.9508C18.0673 129.913 13.6084 251.906 16.2257 365.867C5.94951 373.486 4.32695 370.175 4.32695 370.175Z" fill="#A79F91"/>
<path fill-rule="evenodd" clip-rule="evenodd" d="M881.184 343.354C875.949 338.899 896.888 317.864 873.041 319.101C821.857 318.111 770.381 318.73 719.197 318.73C509.225 319.225 299.253 320.957 89.2817 321.947C82.302 321.823 75.9039 321.823 70.6692 321.823V324.793C337.351 322.442 604.614 319.844 871.587 321.205C871.296 335.435 879.316 348.869 886.587 363.222C617.869 364.707 339.096 365.998 70.6692 365.874V369.272C335.329 368.336 584.789 366.527 848.599 367.359C857.253 367.359 864.284 368.068 862.662 368.369C846.085 370.349 835.802 373.051 817.771 373.793C733.724 375.154 643.54 374.495 559.784 374.99C396.634 375.361 233.528 375.649 70.6692 375.278V377.753C308.56 377.381 546.159 376.639 783.759 375.773C783.759 375.649 783.759 375.649 784.05 375.773C801.208 375.154 826.51 377.505 838.724 373.793C850.066 371.442 866.643 369.71 878.566 367.359C899.796 361.048 877.403 351.025 881.184 343.354Z" fill="#A79F91"/>
<path fill-rule="evenodd" clip-rule="evenodd" d="M39.1925 365.307C38.3206 364.888 36.8674 364.608 36.2861 364.188C35.7048 363.768 35.4141 363.489 35.4141 363.069C36.2861 348.938 26.6948 334.808 36.2861 320.538C51.9809 320.258 68.257 319.838 84.5331 319.698C100.809 319.558 117.667 319.838 134.524 319.698C152.253 319.558 169.401 319.139 187.131 318.999C219.102 318.719 250.782 318.019 283.334 318.439C302.226 318.719 321.118 318.439 340.01 318.159C384.479 317.74 428.947 317.18 473.707 316.9C490.855 316.76 507.712 317.18 525.151 317.04C540.846 316.9 556.25 316.62 572.235 316.48C599.265 316.201 626.586 316.201 653.616 316.061C669.601 315.921 685.587 315.781 701.572 315.781C716.686 315.781 731.799 315.921 746.913 315.921C776.268 315.921 805.623 315.781 834.978 315.781C852.417 315.781 868.693 313.123 887.004 313.402C887.004 329.072 885.26 347.399 892.816 363.209C886.132 363.209 881.191 363.209 875.959 363.209C827.131 363.489 778.593 363.908 729.474 364.188C699.247 364.328 668.439 364.328 638.212 364.468C596.359 364.608 554.506 365.028 512.653 365.028C476.032 365.167 439.41 364.888 402.789 364.888C381.863 364.888 361.227 365.167 340.01 365.167C330.419 365.167 321.118 364.888 311.527 364.888C287.113 365.028 262.989 365.307 238.866 365.447C227.24 365.447 215.323 365.028 203.407 365.028C178.121 365.167 153.125 365.447 128.13 365.587C116.213 365.727 104.588 365.447 92.3805 365.447C77.267 365.447 62.1535 365.447 47.0399 365.447C44.7148 365.447 41.8083 365.447 39.1925 365.307Z" fill="#FFFEFB"/>
<path fill-rule="evenodd" clip-rule="evenodd" d="M887 3.61108C882.045 2.37427 883.942 1.75308 883.942 1.75308C884.008 117.611 883.462 246.898 882.673 362.88L882.673 363.553C882.673 363.553 886.389 363.607 887.628 362.934C885.15 355.513 887.299 331.285 887.628 323.975C888.088 219.145 889.842 114.313 890.105 9.483C890.039 2.42001 889.477 3.61108 887 3.61108Z" fill="#A79F91"/>
<path fill-rule="evenodd" clip-rule="evenodd" d="M33.5329 0.903215C33.5329 1.33315 32.4512 2.40799 32.4512 2.40799C304.836 2.38516 614.324 3.33787 887 3.61181C887 3.61181 885.918 1.20417 882.132 0.903215C879.693 0.709331 821.651 0.372481 804.463 0.258338C558.006 0.0985388 311.542 -0.510245 65.0845 -0.601558C48.4793 -0.57873 36.2372 0.000348414 33.5329 0.903215Z" fill="#A79F91"/>
<path d="M8.61923 30.031C13.0995 27.8545 16.7559 25.2893 20.1825 22.7202C20.8796 22.2242 19.195 21.9093 18.4979 22.4052C15.113 24.8647 11.5568 27.4096 7.14746 29.521C6.42109 29.9723 7.76328 30.4581 8.61923 30.031Z" fill="#A79F91"/>
<path d="M9.01499 35.7302C13.4953 33.5538 17.1517 30.9885 20.5783 28.4194C21.2753 27.9234 19.5907 27.6085 18.8937 28.1045C15.5087 30.5639 11.9525 33.1088 7.54321 35.2202C6.81684 35.6715 8.15903 36.1573 9.01499 35.7302Z" fill="#A79F91"/>
<path d="M9.01474 41.7497C13.495 39.5733 17.1515 37.008 20.578 34.4389C21.2751 33.9429 19.5905 33.628 18.8934 34.124C15.5085 36.5834 11.9523 39.1283 7.54296 41.2397C6.81659 41.6911 8.15879 42.1768 9.01474 41.7497Z" fill="#A79F91"/>
<path d="M7.9332 48.3708C12.4135 46.1944 16.0699 43.6291 19.4965 41.06C20.1935 40.564 18.5089 40.2491 17.8119 40.7451C14.4269 43.2045 10.8708 45.7494 6.46142 47.8608C5.73505 48.3122 7.07725 48.7979 7.9332 48.3708Z" fill="#A79F91"/>
<path d="M7.93295 55.5935C12.4132 53.417 16.0697 50.8518 19.4962 48.2827C20.1933 47.7867 18.5087 47.4718 17.8116 47.9677C14.4267 50.4272 10.8705 52.9721 6.46118 55.0835C5.73481 55.5348 7.077 56.0206 7.93295 55.5935Z" fill="#A79F91"/>
<path d="M7.93295 61.0105C12.4132 58.834 16.0697 56.2688 19.4962 53.6996C20.1933 53.2037 18.5087 52.8888 17.8116 53.3847C14.4267 55.8442 10.8705 58.3891 6.46118 60.5005C5.73481 60.9518 7.077 61.4376 7.93295 61.0105Z" fill="#A79F91"/>
<path d="M7.93295 68.2341C12.4132 66.0577 16.0697 63.4924 19.4962 60.9233C20.1933 60.4273 18.5087 60.1124 17.8116 60.6084C14.4267 63.0678 10.8705 65.6127 6.46118 67.7241C5.73481 68.1754 7.077 68.6612 7.93295 68.2341Z" fill="#A79F91"/>
<path d="M7.93295 76.0583C12.4132 73.8819 16.0697 71.3166 19.4962 68.7475C20.1933 68.2515 18.5087 67.9366 17.8116 68.4326C14.4267 70.892 10.8705 73.4369 6.46118 75.5483C5.73481 75.9997 7.077 76.4854 7.93295 76.0583Z" fill="#A79F91"/>
<path d="M7.93295 82.6794C12.4132 80.503 16.0697 77.9377 19.4962 75.3686C20.1933 74.8726 18.5087 74.5577 17.8116 75.0537C14.4267 77.5131 10.8705 80.058 6.46118 82.1694C5.73481 82.6208 7.077 83.1065 7.93295 82.6794Z" fill="#A79F91"/>
<path d="M7.9332 88.6989C12.4135 86.5225 16.0699 83.9572 19.4965 81.3881C20.1935 80.8921 18.5089 80.5772 17.8119 81.0732C14.4269 83.5327 10.8708 86.0776 6.46142 88.1889C5.73505 88.6403 7.07725 89.1261 7.9332 88.6989Z" fill="#A79F91"/>
<path d="M7.93295 94.7175C12.4132 92.5411 16.0697 89.9758 19.4962 87.4067C20.1933 86.9107 18.5087 86.5958 17.8116 87.0918C14.4267 89.5512 10.8705 92.0961 6.46118 94.2075C5.73481 94.6588 7.077 95.1446 7.93295 94.7175Z" fill="#A79F91"/>
<path d="M7.9332 100.737C12.4135 98.5606 16.0699 95.9953 19.4965 93.4262C20.1935 92.9302 18.5089 92.6153 17.8119 93.1113C14.4269 95.5708 10.8708 98.1156 6.46142 100.227C5.73505 100.678 7.07725 101.164 7.9332 100.737Z" fill="#A79F91"/>
<path d="M7.93295 107.96C12.4132 105.783 16.0697 103.218 19.4962 100.649C20.1933 100.153 18.5087 99.838 17.8116 100.334C14.4267 102.793 10.8705 105.338 6.46118 107.45C5.73481 107.901 7.077 108.387 7.93295 107.96Z" fill="#A79F91"/>
<path d="M6.93893 113.363C11.7045 111.132 15.6175 108.517 19.2893 105.901C20.0355 105.396 18.2776 105.094 17.5314 105.6C13.9065 108.106 10.0994 110.699 5.41014 112.864C4.63456 113.325 6.02813 113.801 6.93893 113.363Z" fill="#A79F91"/>
<path d="M6.19584 137.631C11.2529 135.392 15.4085 132.77 19.3089 130.146C20.1014 129.64 18.2409 129.34 17.4484 129.847C13.5982 132.36 9.55473 134.96 4.57886 137.133C3.75542 137.595 5.22929 138.07 6.19584 137.631Z" fill="#A79F91"/>
<path d="M6.06458 171.136C11.1829 168.866 15.4018 166.217 19.3642 163.567C20.1689 163.054 18.3044 162.763 17.4997 163.275C13.5896 165.814 9.4837 168.441 4.44804 170.644C3.61301 171.112 5.08613 171.581 6.06458 171.136Z" fill="#A79F91"/>
<path d="M6.03304 203.664C10.7651 201.487 14.627 198.922 18.2461 196.353C18.9823 195.857 17.203 195.542 16.4668 196.038C12.8917 198.498 9.13567 201.042 4.47856 203.154C3.71138 203.605 5.12899 204.091 6.03304 203.664Z" fill="#A79F91"/>
<path d="M5.21209 237.101C10.1932 234.925 14.2583 232.36 18.0679 229.79C18.8429 229.294 16.97 228.98 16.195 229.476C12.4317 231.935 8.47802 234.48 3.5758 236.591C2.76823 237.043 4.26046 237.528 5.21209 237.101Z" fill="#A79F91"/>
<path d="M4.3909 269.604C9.62104 267.428 13.8894 264.863 17.8895 262.293C18.7032 261.797 16.7367 261.483 15.923 261.978C11.9715 264.438 7.82012 266.983 2.67279 269.094C1.82485 269.546 3.39169 270.031 4.3909 269.604Z" fill="#A79F91"/>
<path d="M6.95999 118.776C11.8055 116.529 15.7907 113.899 19.5317 111.269C20.2917 110.761 18.5138 110.463 17.7538 110.972C14.0612 113.491 10.1834 116.099 5.41583 118.28C4.62642 118.743 6.03382 119.217 6.95999 118.776Z" fill="#A79F91"/>
<path d="M6.16583 146.155C11.4017 143.881 15.7191 141.228 19.7742 138.575C20.5976 138.062 18.6924 137.772 17.869 138.285C13.8675 140.826 9.66574 143.457 4.51445 145.663C3.66005 146.132 5.16488 146.601 6.16583 146.155Z" fill="#A79F91"/>
<path d="M5.93937 177.782C10.5816 175.606 14.3703 173.04 17.9208 170.471C18.643 169.975 16.8975 169.66 16.1753 170.156C12.6679 172.616 8.98316 175.161 4.41438 177.272C3.66174 177.723 5.05247 178.209 5.93937 177.782Z" fill="#A79F91"/>
<path d="M6.03304 211.821C10.7651 209.645 14.627 207.079 18.2461 204.51C18.9823 204.014 17.203 203.699 16.4668 204.195C12.8917 206.655 9.13567 209.2 4.47856 211.311C3.71138 211.762 5.12899 212.248 6.03304 211.821Z" fill="#A79F91"/>
<path d="M5.21185 245.528C10.1929 243.352 14.2581 240.786 18.0677 238.217C18.8426 237.721 16.9697 237.406 16.1948 237.902C12.4314 240.362 8.47778 242.907 3.57555 245.018C2.76799 245.469 4.26022 245.955 5.21185 245.528Z" fill="#A79F91"/>
<path d="M4.3909 278.031C9.62104 275.855 13.8894 273.289 17.8895 270.72C18.7032 270.224 16.7367 269.909 15.923 270.405C11.9715 272.865 7.82012 275.41 2.67279 277.521C1.82485 277.972 3.39169 278.458 4.3909 278.031Z" fill="#A79F91"/>
<path d="M6.1049 126.605C11.1087 124.376 15.2162 121.764 19.0705 119.149C19.8537 118.644 18.0065 118.342 17.2233 118.847C13.4182 121.351 9.4218 123.942 4.49816 126.105C3.68394 126.566 5.14859 127.042 6.1049 126.605Z" fill="#A79F91"/>
<path d="M6.76947 153.103C11.7506 150.927 15.8157 148.362 19.6253 145.792C20.4003 145.296 18.5274 144.982 17.7524 145.478C13.9891 147.937 10.0354 150.482 5.13317 152.593C4.32561 153.045 5.81784 153.53 6.76947 153.103Z" fill="#A79F91"/>
<path d="M5.56308 186.09C10.3934 183.895 14.344 181.313 18.0482 178.727C18.8014 178.228 16.9976 177.918 16.2444 178.417C12.5861 180.892 8.74317 183.454 3.98971 185.584C3.20552 186.039 4.64014 186.521 5.56308 186.09Z" fill="#A79F91"/>
<path d="M6.03304 220.248C10.7651 218.071 14.627 215.506 18.2461 212.937C18.9823 212.441 17.203 212.126 16.4668 212.622C12.8917 215.081 9.13567 217.626 4.47856 219.738C3.71138 220.189 5.12899 220.675 6.03304 220.248Z" fill="#A79F91"/>
<path d="M5.21209 253.955C10.1932 251.778 14.2583 249.213 18.0679 246.644C18.8429 246.148 16.97 245.833 16.195 246.329C12.4317 248.789 8.47802 251.333 3.5758 253.445C2.76823 253.896 4.26046 254.382 5.21209 253.955Z" fill="#A79F91"/>
<path d="M4.01117 286.43C9.27999 284.151 13.6271 281.492 17.7107 278.833C18.5398 278.319 16.6264 278.03 15.7972 278.544C11.7679 281.091 7.53704 283.728 2.35346 285.94C1.49337 286.41 3.00389 286.877 4.01117 286.43Z" fill="#A79F91"/>
<path d="M6.09207 131.965C11.0481 129.745 15.1124 127.141 18.9254 124.535C19.7003 124.031 17.8651 123.727 17.0901 124.23C13.3254 126.726 9.37129 129.31 4.49451 131.463C3.68856 131.922 5.14495 132.4 6.09207 131.965Z" fill="#A79F91"/>
<path d="M6.29388 162.132C11.275 159.955 15.3401 157.39 19.1497 154.821C19.9247 154.325 18.0518 154.01 17.2768 154.506C13.5135 156.965 9.55981 159.51 4.65758 161.622C3.85002 162.073 5.34225 162.559 6.29388 162.132Z" fill="#A79F91"/>
<path d="M5.93937 195.237C10.5816 193.061 14.3703 190.495 17.9208 187.926C18.643 187.43 16.8975 187.115 16.1753 187.611C12.6679 190.071 8.98316 192.616 4.41438 194.727C3.66174 195.178 5.05247 195.664 5.93937 195.237Z" fill="#A79F91"/>
<path d="M6.03329 228.675C10.7653 226.498 14.6272 223.933 18.2463 221.364C18.9825 220.868 17.2033 220.553 16.4671 221.049C12.8919 223.508 9.13592 226.053 4.47881 228.165C3.71162 228.616 5.12924 229.102 6.03329 228.675Z" fill="#A79F91"/>
<path d="M4.95126 261.447C9.68329 259.271 13.5452 256.705 17.1643 254.136C17.9005 253.64 16.1213 253.325 15.385 253.821C11.8099 256.281 8.05389 258.826 3.39678 260.937C2.62959 261.388 4.04721 261.874 4.95126 261.447Z" fill="#A79F91"/>
<path d="M4.3909 294.552C9.62104 292.376 13.8894 289.811 17.8895 287.242C18.7032 286.746 16.7367 286.431 15.923 286.927C11.9715 289.386 7.82012 291.931 2.67279 294.042C1.82485 294.494 3.39169 294.98 4.3909 294.552Z" fill="#A79F91"/>
<path d="M4.3909 300.572C9.62104 298.396 13.8894 295.83 17.8895 293.261C18.7032 292.765 16.7367 292.45 15.923 292.946C11.9715 295.406 7.82012 297.951 2.67279 300.062C1.82485 300.513 3.39169 300.999 4.3909 300.572Z" fill="#A79F91"/>
<path d="M4.3909 310.803C9.62104 308.627 13.8894 306.062 17.8895 303.493C18.7032 302.997 16.7367 302.682 15.923 303.178C11.9715 305.637 7.82012 308.182 2.67279 310.293C1.82485 310.745 3.39169 311.231 4.3909 310.803Z" fill="#A79F91"/>
<path d="M4.3909 318.027C9.62104 315.851 13.8894 313.285 17.8895 310.716C18.7032 310.22 16.7367 309.905 15.923 310.401C11.9715 312.861 7.82012 315.406 2.67279 317.517C1.82485 317.968 3.39169 318.454 4.3909 318.027Z" fill="#A79F91"/>
<path d="M4.3909 326.454C9.62104 324.277 13.8894 321.712 17.8895 319.143C18.7032 318.647 16.7367 318.332 15.923 318.828C11.9715 321.288 7.82012 323.832 2.67279 325.944C1.82485 326.395 3.39169 326.881 4.3909 326.454Z" fill="#A79F91"/>
<path d="M4.3909 334.278C9.62104 332.102 13.8894 329.536 17.8895 326.967C18.7032 326.471 16.7367 326.156 15.923 326.652C11.9715 329.112 7.82012 331.657 2.67279 333.768C1.82485 334.219 3.39169 334.705 4.3909 334.278Z" fill="#A79F91"/>
<path d="M4.3909 342.103C9.62104 339.927 13.8894 337.362 17.8895 334.792C18.7032 334.296 16.7367 333.982 15.923 334.478C11.9715 336.937 7.82012 339.482 2.67279 341.593C1.82485 342.045 3.39169 342.53 4.3909 342.103Z" fill="#A79F91"/>
<path d="M4.3909 349.928C9.62104 347.752 13.8894 345.187 17.8895 342.618C18.7032 342.122 16.7367 341.807 15.923 342.303C11.9715 344.762 7.82012 347.307 2.67279 349.418C1.82485 349.87 3.39169 350.356 4.3909 349.928Z" fill="#A79F91"/>
<path d="M4.3909 357.151C9.62104 354.975 13.8894 352.409 17.8895 349.84C18.7032 349.344 16.7367 349.029 15.923 349.525C11.9715 351.985 7.82012 354.53 2.67279 356.641C1.82485 357.092 3.39169 357.578 4.3909 357.151Z" fill="#A79F91"/>
<path d="M4.3909 365.578C9.62104 363.401 13.8894 360.836 17.8895 358.267C18.7032 357.771 16.7367 357.456 15.923 357.952C11.9715 360.412 7.82012 362.956 2.67279 365.068C1.82485 365.519 3.39169 366.005 4.3909 365.578Z" fill="#A79F91"/>
<path d="M35.0871 368.697C31.118 371.829 26.4816 374.408 21.8443 376.831C20.9481 377.323 20.4339 376.18 21.3301 375.688C25.7721 373.297 30.3699 370.787 34.2221 367.706C35.04 367.195 35.8655 368.099 35.0871 368.697Z" fill="#A79F91"/>
<path d="M24.27 367.821C20.3009 370.953 15.6644 373.532 11.0271 375.955C10.131 376.447 9.61678 375.304 10.5129 374.812C14.955 372.421 19.5528 369.911 23.4049 366.83C24.2228 366.319 25.0483 367.223 24.27 367.821Z" fill="#A79F91"/>
<path d="M47.3951 369.551C43.4864 372.479 38.8793 374.868 34.2653 377.108C33.3746 377.563 32.809 376.462 33.6997 376.007C38.1168 373.795 42.6872 371.471 46.4792 368.589C47.2898 368.114 48.1622 368.992 47.3951 369.551Z" fill="#A79F91"/>
<path d="M60.3668 369.551C56.4581 372.479 51.851 374.868 47.237 377.108C46.3463 377.563 45.7807 376.462 46.6714 376.007C51.0885 373.795 55.6589 371.471 59.4509 368.589C60.2614 368.114 61.1338 368.992 60.3668 369.551Z" fill="#A79F91"/>
<path d="M77.6663 369.445C73.7576 372.373 69.1505 374.763 64.5365 377.002C63.6458 377.458 63.0802 376.357 63.971 375.901C68.388 373.689 72.9585 371.365 76.7504 368.484C77.561 368.009 78.4334 368.886 77.6663 369.445Z" fill="#A79F91"/>
<path d="M92.8004 368.843C88.8916 371.771 84.2845 374.16 79.6706 376.4C78.7798 376.855 78.2143 375.754 79.105 375.299C83.5221 373.087 88.0925 370.763 91.8844 367.881C92.695 367.406 93.5674 368.284 92.8004 368.843Z" fill="#A79F91"/>
<path d="M110.092 368.843C106.184 371.771 101.577 374.16 96.9626 376.4C96.0718 376.855 95.5063 375.754 96.397 375.299C100.814 373.087 105.385 370.763 109.176 367.881C109.987 367.406 110.859 368.284 110.092 368.843Z" fill="#A79F91"/>
<path d="M125.227 368.843C121.318 371.771 116.711 374.16 112.097 376.4C111.206 376.855 110.641 375.754 111.531 375.299C115.948 373.087 120.519 370.763 124.311 367.881C125.121 367.406 125.994 368.284 125.227 368.843Z" fill="#A79F91"/>
<path d="M137.117 368.843C133.209 371.771 128.601 374.16 123.987 376.4C123.097 376.855 122.531 375.754 123.422 375.299C127.839 373.087 132.409 370.763 136.201 367.881C137.012 367.406 137.884 368.284 137.117 368.843Z" fill="#A79F91"/>
<path d="M152.251 368.843C148.342 371.771 143.735 374.16 139.121 376.4C138.231 376.855 137.665 375.754 138.556 375.299C142.973 373.087 147.543 370.763 151.335 367.881C152.146 367.406 153.018 368.284 152.251 368.843Z" fill="#A79F91"/>
<path d="M167.385 368.843C163.477 371.771 158.87 374.16 154.256 376.4C153.365 376.855 152.799 375.754 153.69 375.299C158.107 373.087 162.677 370.763 166.469 367.881C167.28 367.406 168.152 368.284 167.385 368.843Z" fill="#A79F91"/>
<path d="M182.519 368.843C178.61 371.771 174.003 374.16 169.389 376.4C168.499 376.855 167.933 375.754 168.824 375.299C173.241 373.087 177.811 370.763 181.603 367.881C182.414 367.406 183.286 368.284 182.519 368.843Z" fill="#A79F91"/>
<path d="M195.491 368.843C191.583 371.771 186.975 374.16 182.362 376.4C181.471 376.855 180.905 375.754 181.796 375.299C186.213 373.087 190.783 370.763 194.575 367.881C195.386 367.406 196.258 368.284 195.491 368.843Z" fill="#A79F91"/>
<path d="M209.544 368.806C205.635 371.899 201.028 374.422 196.414 376.788C195.523 377.269 194.958 376.106 195.849 375.625C200.266 373.288 204.836 370.834 208.628 367.79C209.439 367.289 210.311 368.215 209.544 368.806Z" fill="#A79F91"/>
<path d="M277.965 368.31C273.944 371.615 269.235 374.331 264.524 376.88C263.613 377.398 263.076 376.182 263.986 375.664C268.498 373.148 273.168 370.505 277.071 367.254C277.901 366.715 278.754 367.679 277.965 368.31Z" fill="#A79F91"/>
<path d="M342.462 368.183C338.386 371.592 333.627 374.403 328.867 377.042C327.948 377.578 327.424 376.336 328.344 375.8C332.903 373.195 337.622 370.46 341.579 367.106C342.418 366.549 343.262 367.531 342.462 368.183Z" fill="#A79F91"/>
<path d="M411.69 367.562C407.782 370.818 403.174 373.474 398.56 375.964C397.67 376.47 397.104 375.246 397.995 374.74C402.412 372.281 406.982 369.697 410.774 366.493C411.585 365.965 412.457 366.94 411.69 367.562Z" fill="#A79F91"/>
<path d="M476.55 368.099C472.641 371.192 468.034 373.715 463.42 376.081C462.529 376.562 461.964 375.399 462.855 374.918C467.272 372.581 471.842 370.127 475.634 367.083C476.445 366.582 477.317 367.508 476.55 368.099Z" fill="#A79F91"/>
<path d="M547.896 367.733C543.987 371.151 539.38 373.94 534.766 376.554C533.875 377.086 533.309 375.801 534.2 375.269C538.617 372.687 543.188 369.974 546.98 366.61C547.79 366.056 548.663 367.08 547.896 367.733Z" fill="#A79F91"/>
<path d="M224.678 368.806C220.769 371.899 216.162 374.422 211.548 376.788C210.658 377.269 210.092 376.106 210.983 375.625C215.4 373.288 219.97 370.834 223.762 367.79C224.573 367.289 225.445 368.215 224.678 368.806Z" fill="#A79F91"/>
<path d="M293.297 368.537C289.304 371.789 284.621 374.457 279.934 376.96C279.028 377.469 278.484 376.266 279.389 375.757C283.878 373.286 288.523 370.69 292.398 367.49C293.223 366.961 294.081 367.915 293.297 368.537Z" fill="#A79F91"/>
<path d="M357.64 368.099C353.731 371.192 349.124 373.715 344.51 376.081C343.62 376.562 343.054 375.399 343.945 374.918C348.362 372.581 352.932 370.127 356.724 367.083C357.535 366.582 358.407 367.508 357.64 368.099Z" fill="#A79F91"/>
<path d="M426.824 367.562C422.915 370.818 418.308 373.474 413.694 375.964C412.804 376.47 412.238 375.246 413.129 374.74C417.546 372.281 422.116 369.697 425.908 366.493C426.719 365.965 427.591 366.94 426.824 367.562Z" fill="#A79F91"/>
<path d="M491.684 368.099C487.775 371.192 483.168 373.715 478.554 376.081C477.663 376.562 477.098 375.399 477.988 374.918C482.405 372.581 486.976 370.127 490.768 367.083C491.578 366.582 492.451 367.508 491.684 368.099Z" fill="#A79F91"/>
<path d="M563.055 367.679C559.243 370.896 554.723 373.503 550.193 375.942C549.319 376.439 548.729 375.205 549.603 374.708C553.938 372.296 558.423 369.761 562.121 366.595C562.914 366.076 563.804 367.065 563.055 367.679Z" fill="#A79F91"/>
<path d="M239.812 368.806C235.903 371.899 231.296 374.422 226.682 376.788C225.791 377.269 225.226 376.106 226.116 375.625C230.534 373.288 235.104 370.834 238.896 367.79C239.707 367.289 240.579 368.215 239.812 368.806Z" fill="#A79F91"/>
<path d="M307.915 368.374C304.006 371.629 299.399 374.286 294.785 376.775C293.894 377.282 293.329 376.058 294.219 375.551C298.636 373.092 303.207 370.508 306.999 367.304C307.809 366.777 308.682 367.752 307.915 368.374Z" fill="#A79F91"/>
<path d="M372.748 368.149C368.74 371.429 364.043 374.123 359.343 376.651C358.435 377.165 357.894 375.955 358.802 375.441C363.303 372.946 367.962 370.325 371.851 367.097C372.679 366.563 373.534 367.522 372.748 368.149Z" fill="#A79F91"/>
<path d="M384.669 368.043C380.661 371.324 375.964 374.018 371.264 376.545C370.356 377.059 369.815 375.849 370.723 375.336C375.224 372.84 379.883 370.219 383.772 366.991C384.6 366.457 385.455 367.416 384.669 368.043Z" fill="#A79F91"/>
<path d="M398.731 368.043C394.723 371.324 390.026 374.018 385.326 376.545C384.418 377.059 383.877 375.849 384.785 375.336C389.286 372.84 393.945 370.219 397.834 366.991C398.662 366.457 399.517 367.416 398.731 368.043Z" fill="#A79F91"/>
<path d="M441.958 367.562C438.049 370.818 433.442 373.474 428.828 375.964C427.938 376.47 427.372 375.246 428.263 374.74C432.68 372.281 437.25 369.697 441.042 366.493C441.853 365.965 442.725 366.94 441.958 367.562Z" fill="#A79F91"/>
<path d="M506.896 367.951C502.96 371.096 498.328 373.667 493.69 376.077C492.794 376.567 492.235 375.391 493.131 374.901C497.571 372.521 502.166 370.02 505.985 366.925C506.801 366.414 507.668 367.35 506.896 367.951Z" fill="#A79F91"/>
<path d="M578.125 367.465C574.07 370.833 569.331 373.607 564.59 376.211C563.674 376.74 563.145 375.508 564.061 374.979C568.602 372.409 573.302 369.71 577.237 366.396C578.073 365.847 578.92 366.821 578.125 367.465Z" fill="#A79F91"/>
<path d="M253.861 368.806C249.952 371.899 245.345 374.422 240.731 376.788C239.841 377.269 239.275 376.106 240.166 375.625C244.583 373.288 249.153 370.834 252.945 367.79C253.756 367.289 254.628 368.215 253.861 368.806Z" fill="#A79F91"/>
<path d="M266.482 368.596C262.573 371.689 257.966 374.212 253.352 376.578C252.461 377.059 251.895 375.896 252.786 375.415C257.203 373.078 261.774 370.624 265.566 367.58C266.376 367.079 267.249 368.005 266.482 368.596Z" fill="#A79F91"/>
<path d="M332.781 368.374C328.873 371.629 324.266 374.286 319.652 376.775C318.761 377.282 318.195 376.058 319.086 375.551C323.503 373.092 328.073 370.508 331.865 367.304C332.676 366.777 333.548 367.752 332.781 368.374Z" fill="#A79F91"/>
<path d="M318.403 368.164C314.495 371.419 309.888 374.076 305.274 376.566C304.383 377.072 303.817 375.848 304.708 375.342C309.125 372.882 313.696 370.298 317.487 367.095C318.298 366.567 319.17 367.542 318.403 368.164Z" fill="#A79F91"/>
<path d="M461.416 367.562C457.507 370.818 452.9 373.474 448.286 375.964C447.395 376.47 446.83 375.246 447.72 374.74C452.138 372.281 456.708 369.697 460.5 366.493C461.311 365.965 462.183 366.94 461.416 367.562Z" fill="#A79F91"/>
<path d="M526.563 367.557C522.552 370.841 517.854 373.538 513.152 376.069C512.244 376.584 511.703 375.373 512.612 374.859C517.115 372.36 521.775 369.736 525.666 366.504C526.494 365.969 527.349 366.929 526.563 367.557Z" fill="#A79F91"/>
<path d="M597.621 367.491C593.713 370.679 589.106 373.28 584.492 375.718C583.601 376.214 583.035 375.015 583.926 374.52C588.343 372.111 592.914 369.581 596.705 366.444C597.516 365.928 598.388 366.882 597.621 367.491Z" fill="#A79F91"/>
<path d="M627.889 367.491C623.981 370.679 619.373 373.28 614.759 375.718C613.869 376.214 613.303 375.015 614.194 374.52C618.611 372.111 623.181 369.581 626.973 366.444C627.784 365.928 628.656 366.882 627.889 367.491Z" fill="#A79F91"/>
<path d="M612.628 367.491C608.719 370.679 604.112 373.28 599.498 375.718C598.607 376.214 598.042 375.015 598.932 374.52C603.349 372.111 607.92 369.581 611.712 366.444C612.522 365.928 613.395 366.882 612.628 367.491Z" fill="#A79F91"/>
<path d="M642.916 367.491C639.007 370.679 634.4 373.28 629.786 375.718C628.896 376.214 628.33 375.015 629.221 374.52C633.638 372.111 638.208 369.581 642 366.444C642.811 365.928 643.683 366.882 642.916 367.491Z" fill="#A79F91"/>
<path d="M656.978 367.491C653.069 370.679 648.462 373.28 643.848 375.718C642.958 376.214 642.392 375.015 643.283 374.52C647.7 372.111 652.27 369.581 656.062 366.444C656.873 365.928 657.745 366.882 656.978 367.491Z" fill="#A79F91"/>
<path d="M668.877 366.889C664.968 370.076 660.361 372.678 655.747 375.116C654.857 375.611 654.291 374.413 655.182 373.917C659.599 371.509 664.169 368.979 667.961 365.842C668.772 365.325 669.644 366.28 668.877 366.889Z" fill="#A79F91"/>
<path d="M680.775 367.491C676.867 370.679 672.26 373.28 667.646 375.718C666.755 376.214 666.189 375.015 667.08 374.52C671.497 372.111 676.068 369.581 679.86 366.444C680.67 365.928 681.543 366.882 680.775 367.491Z" fill="#A79F91"/>
<path d="M698.083 367.491C694.174 370.679 689.567 373.28 684.953 375.718C684.063 376.214 683.497 375.015 684.388 374.52C688.805 372.111 693.375 369.581 697.167 366.444C697.978 365.928 698.85 366.882 698.083 367.491Z" fill="#A79F91"/>
<path d="M715.39 367.491C711.481 370.679 706.874 373.28 702.26 375.718C701.37 376.214 700.804 375.015 701.695 374.52C706.112 372.111 710.682 369.581 714.474 366.444C715.285 365.928 716.157 366.882 715.39 367.491Z" fill="#A79F91"/>
<path d="M732.697 367.491C728.789 370.679 724.182 373.28 719.568 375.718C718.677 376.214 718.111 375.015 719.002 374.52C723.419 372.111 727.989 369.581 731.781 366.444C732.592 365.928 733.464 366.882 732.697 367.491Z" fill="#A79F91"/>
<path d="M747.841 367.491C743.933 370.679 739.326 373.28 734.712 375.718C733.821 376.214 733.255 375.015 734.146 374.52C738.563 372.111 743.134 369.581 746.925 366.444C747.736 365.928 748.608 366.882 747.841 367.491Z" fill="#A79F91"/>
<path d="M775.966 367.491C772.057 370.679 767.45 373.28 762.836 375.718C761.945 376.214 761.38 375.015 762.271 374.52C766.688 372.111 771.258 369.581 775.05 366.444C775.861 365.928 776.733 366.882 775.966 367.491Z" fill="#A79F91"/>
<path d="M787.864 367.491C783.956 370.679 779.349 373.28 774.735 375.718C773.844 376.214 773.278 375.015 774.169 374.52C778.586 372.111 783.156 369.581 786.948 366.444C787.759 365.928 788.631 366.882 787.864 367.491Z" fill="#A79F91"/>
<path d="M762.985 366.287C759.077 369.475 754.47 372.076 749.856 374.514C748.965 375.01 748.399 373.811 749.29 373.315C753.707 370.907 758.278 368.377 762.07 365.24C762.88 364.723 763.752 365.678 762.985 366.287Z" fill="#A79F91"/>
<path d="M803.008 367.491C799.1 370.679 794.493 373.28 789.879 375.718C788.988 376.214 788.422 375.015 789.313 374.52C793.73 372.111 798.301 369.581 802.092 366.444C802.903 365.928 803.775 366.882 803.008 367.491Z" fill="#A79F91"/>
<path d="M822.479 366.889C818.571 370.076 813.963 372.678 809.35 375.116C808.459 375.611 807.893 374.413 808.784 373.917C813.201 371.509 817.771 368.979 821.563 365.842C822.374 365.325 823.246 366.28 822.479 366.889Z" fill="#A79F91"/>
<path d="M841.95 366.287C838.041 369.475 833.434 372.076 828.82 374.514C827.929 375.01 827.364 373.811 828.254 373.315C832.671 370.907 837.242 368.377 841.034 365.24C841.844 364.723 842.717 365.678 841.95 366.287Z" fill="#A79F91"/>
<path fill-rule="evenodd" clip-rule="evenodd" d="M884.316 358.095C884.304 361.912 881.238 364.804 877.422 364.862L864.284 365.059L204.443 367.768H48.136L24.9397 366.423C23.1764 366.321 21.5347 365.491 20.4071 364.131C19.4529 362.981 18.9337 361.531 18.9407 360.037L20.5445 15.8673C20.5497 14.736 20.8179 13.616 21.3897 12.6399C25.5065 5.61256 30.2975 2.97734 41.1191 1.28502C41.4663 1.23072 41.4138 1.20393 41.7652 1.20419C53.1061 1.21244 868.656 1.80588 875.101 1.80588C881.592 1.80588 885.378 3.31051 885.378 5.7183C885.378 7.93074 884.464 309.222 884.316 358.095Z" fill="#FFFEFB"/>
</svg>
