<svg preserveAspectRatio="none" viewBox="0 0 295 49" fill="none" xmlns="http://www.w3.org/2000/svg">
<path d="M137.492 39.1767C136.106 41.6151 131.946 43.4032 129.669 45.5707C129.074 46.1126 130.659 46.6003 131.154 46.0584C133.531 43.7826 137.69 41.9944 139.176 39.4476C139.473 38.8516 137.789 38.5806 137.492 39.1767Z" fill="#A79F91"/>
<path d="M29.534 39.4478C26.365 41.7236 23.295 43.9995 20.9183 46.5462C20.4231 47.0881 21.9086 47.5758 22.4037 47.0339C24.7805 44.4871 27.8505 42.2113 31.0195 39.9355C31.7127 39.3936 30.2272 38.9059 29.534 39.4478Z" fill="#A79F91"/>
<path d="M22.7156 39.2359C19.5466 41.5117 16.4767 43.7875 14.0999 46.3343C13.6047 46.8762 15.0902 47.3639 15.5854 46.822C17.9621 44.2752 21.0321 41.9994 24.2011 39.7236C24.8943 39.1817 23.4089 38.694 22.7156 39.2359Z" fill="#A79F91"/>
<path d="M38.0505 39.2362C35.0796 41.5662 31.9105 43.8962 29.1377 46.3346C28.5435 46.8765 30.029 47.3642 30.6231 46.8223C33.396 44.3839 36.565 42.1081 39.536 39.7239C40.2292 39.182 38.6447 38.6943 38.0505 39.2362Z" fill="#A79F91"/>
<path d="M45.351 39.202C42.3801 41.3695 39.6072 43.5911 37.1314 45.9211C36.5373 46.463 38.1218 46.9507 38.6169 46.4088C41.0927 44.0788 43.8656 41.8571 46.8365 39.6897C47.5297 39.202 45.9452 38.7143 45.351 39.202Z" fill="#A79F91"/>
<path d="M50.7288 39.1769C48.9462 41.7778 45.8763 43.9453 43.2024 46.3295C42.6082 46.8713 44.1927 47.359 44.6879 46.8171C47.3617 44.3788 50.4317 42.1029 52.3133 39.4478C52.9075 38.8517 51.1249 38.5808 50.7288 39.1769Z" fill="#A79F91"/>
<path d="M59.7881 39.2359C57.0153 41.4575 54.0443 43.5708 51.1724 45.7383C50.4792 46.2259 52.0637 46.7136 52.6579 46.2259C55.5298 44.0585 58.5007 41.9452 61.2736 39.7236C61.9668 39.1817 60.3823 38.694 59.7881 39.2359Z" fill="#A79F91"/>
<path d="M68.8763 39.1724C65.7073 41.2857 63.4296 43.9408 59.3693 45.6206C58.478 45.9999 59.3693 46.8127 60.2606 46.4334C64.4199 44.6995 66.7966 42.0443 70.0647 39.8227C70.8569 39.335 69.6685 38.6848 68.8763 39.1724Z" fill="#A79F91"/>
<path d="M77.0505 39.202C74.0796 41.532 70.9106 43.862 68.1377 46.3004C67.5435 46.8423 69.029 47.33 69.6231 46.7881C72.396 44.3497 75.565 42.0739 78.536 39.6897C79.2292 39.202 77.6447 38.7143 77.0505 39.202Z" fill="#A79F91"/>
<path d="M83.4209 39.7187C81.8364 41.9403 79.6578 44.2162 76.3897 45.8418C75.4984 46.2753 76.7858 46.9255 77.6771 46.5462C81.1432 44.8122 83.52 42.3738 85.1045 39.9896C85.5006 39.3936 83.8171 39.1226 83.4209 39.7187Z" fill="#A79F91"/>
<path d="M93.8195 39.2308C91.3437 41.2899 88.0757 43.078 86.2931 45.3538C85.798 45.8957 87.3825 46.4376 87.7786 45.8415C89.6602 43.5657 92.8292 41.7775 95.305 39.7184C95.9982 39.1766 94.4137 38.7431 93.8195 39.2308Z" fill="#A79F91"/>
<path d="M101.425 39.4481C98.7516 41.6156 95.9788 43.6746 93.2059 45.7879C92.5127 46.2756 94.0972 46.7633 94.6914 46.2756C97.4642 44.1623 100.336 42.1032 102.911 39.9358C103.604 39.3939 102.119 38.9062 101.425 39.4481Z" fill="#A79F91"/>
<path d="M110.427 39.4475C107.952 41.5608 105.872 43.8908 102.307 45.5164C101.415 45.8957 102.703 46.6001 103.594 46.2208C107.258 44.541 109.437 42.1568 112.012 39.9894C112.606 39.3933 111.021 38.9056 110.427 39.4475Z" fill="#A79F91"/>
<path d="M120.647 38.4178C118.469 41.3439 113.517 43.3488 111.734 46.4374C111.338 47.0335 113.121 47.3044 113.418 46.7084C115.3 43.6739 120.152 41.6148 122.331 38.6888C122.727 38.0927 121.043 37.876 120.647 38.4178Z" fill="#A79F91"/>
<path d="M128.569 39.0682C125.896 41.2357 123.123 43.4573 120.152 45.4622C119.459 45.9499 120.647 46.6543 121.439 46.1666C124.608 44.0534 127.381 41.8317 130.154 39.5559C130.748 39.014 129.263 38.5263 128.569 39.0682Z" fill="#A79F91"/>
<path d="M233.753 37.6595C229.395 40.423 224.939 43.62 218.799 45.1914C217.809 45.4624 218.7 46.2752 219.69 46.0042C226.028 44.3786 230.584 41.1274 235.04 38.3097C235.733 37.8762 234.446 37.1718 233.753 37.6595Z" fill="#A79F91"/>
<path d="M243.385 38.1654C239.028 40.9289 234.572 44.1259 228.432 45.6973C227.441 45.9682 228.333 46.781 229.323 46.5101C235.661 44.8845 240.216 41.6333 244.673 38.8156C245.366 38.3821 244.079 37.6777 243.385 38.1654Z" fill="#A79F91"/>
<path d="M253.385 38.1654C249.028 40.9289 244.572 44.1259 238.432 45.6973C237.441 45.9682 238.333 46.781 239.323 46.5101C245.661 44.8845 250.216 41.6333 254.673 38.8156C255.366 38.3821 254.079 37.6777 253.385 38.1654Z" fill="#A79F91"/>
<path d="M264.385 37.1654C260.028 39.9289 255.572 43.1259 249.432 44.6973C248.441 44.9682 249.333 45.781 250.323 45.5101C256.661 43.8845 261.216 40.6333 265.673 37.8156C266.366 37.3821 265.079 36.6777 264.385 37.1654Z" fill="#A79F91"/>
<path d="M277.385 37.1654C273.028 39.9289 268.572 43.1259 262.432 44.6973C261.441 44.9682 262.333 45.781 263.323 45.5101C269.661 43.8845 274.216 40.6333 278.673 37.8156C279.366 37.3821 278.079 36.6777 277.385 37.1654Z" fill="#A79F91"/>
<path d="M222.968 38.2013C218.71 40.5313 214.847 42.9697 210.589 45.2997C209.797 45.7332 210.985 46.4377 211.877 46.0042C216.135 43.6741 219.997 41.2358 224.255 38.9057C225.048 38.4722 223.76 37.7678 222.968 38.2013Z" fill="#A79F91"/>
<path d="M211.876 37.9305C209.104 40.4773 205.241 42.5906 202.567 45.1915C201.973 45.7334 203.558 46.2211 204.053 45.6792C206.727 43.0782 210.589 40.965 213.362 38.4182C213.956 37.8763 212.471 37.3887 211.876 37.9305Z" fill="#A79F91"/>
<path d="M202.676 38.4185C198.814 40.586 196.239 43.3495 191.981 45.3002C191.089 45.7337 192.377 46.3839 193.268 46.0046C197.526 43.9997 200.101 41.2904 203.963 39.123C204.756 38.6353 203.468 37.9308 202.676 38.4185Z" fill="#A79F91"/>
<path d="M193.367 38.4184C190 40.8026 186.633 43.1868 182.672 45.3001C181.879 45.7336 183.167 46.438 183.959 46.0045C187.821 43.8912 191.287 41.507 194.654 39.1228C195.348 38.581 194.06 37.8765 193.367 38.4184Z" fill="#A79F91"/>
<path d="M183.177 38.6891C180.998 41.4526 176.839 43.4575 172.481 45.1915C171.59 45.5708 172.482 46.3836 173.373 46.0043C177.928 44.1619 182.385 42.0487 184.662 39.1226C185.158 38.5807 183.672 38.093 183.177 38.6891Z" fill="#A79F91"/>
<path d="M175.689 38.4184C172.124 40.911 168.856 43.5119 164.3 45.5168C163.409 45.8961 164.696 46.6006 165.588 46.2213C170.143 44.2706 173.411 41.6154 176.976 39.1228C177.571 38.581 176.382 37.8765 175.689 38.4184Z" fill="#A79F91"/>
<path d="M164.885 39.0681C162.904 41.344 160.329 43.5114 157.061 45.2996C156.269 45.7331 157.556 46.4375 158.349 46.004C161.716 44.1617 164.39 41.94 166.37 39.5558C166.865 38.9598 165.38 38.4721 164.885 39.0681Z" fill="#A79F91"/>
<path d="M157.18 39.0687C154.11 41.2903 150.941 43.512 147.871 45.7878C147.178 46.2755 148.762 46.7631 149.356 46.2755C152.426 44.0538 155.595 41.8322 158.665 39.5563C159.458 39.0145 157.873 38.581 157.18 39.0687Z" fill="#A79F91"/>
<path d="M147.386 39.1231C143.524 40.9112 141.048 43.4038 137.384 45.2462C136.591 45.6797 137.78 46.3841 138.671 45.9506C142.335 44.0541 144.811 41.6157 148.673 39.8275C149.465 39.394 148.178 38.7438 147.386 39.1231Z" fill="#A79F91"/>
<path d="M4.1222 16.693C8.74854 14.661 13.2483 12.4271 16.9059 9.8672C17.6346 9.33373 16.3643 8.79093 15.5374 9.33737C11.9709 11.8306 7.56217 13.9978 3.02692 15.9631C2.18587 16.4021 3.18297 17.145 4.1222 16.693Z" fill="#A79F91"/>
<path d="M4.32271 20.2857C9.17524 18.5517 13.2355 16.2759 18.4842 14.8671C19.4745 14.5961 18.5832 13.7833 17.5929 14.0543C12.3443 15.4631 8.28397 17.7389 3.43143 19.4729C2.44112 19.798 3.3324 20.665 4.32271 20.2857Z" fill="#A79F91"/>
<path d="M4.279 24.8274C9.13153 22.8767 13.1918 20.2757 18.7376 18.8669C19.7279 18.596 18.8366 17.7832 17.8463 18.0541C12.3005 19.463 8.24025 22.0639 3.38772 24.0146C2.49644 24.3397 3.28868 25.2067 4.279 24.8274Z" fill="#A79F91"/>
<path d="M4.58813 28.9756C9.44067 26.8623 14.3922 24.8032 19.5419 22.9067C20.5322 22.5816 19.6409 21.7146 18.6506 22.0939C13.3029 24.0446 8.35133 26.1579 3.30074 28.3253C2.40946 28.7046 3.69685 29.3549 4.58813 28.9756Z" fill="#A79F91"/>
<path d="M4.32298 33.7931C10.562 32.005 15.3155 29.1873 20.8612 26.9114C21.7525 26.5321 20.8612 25.7193 19.9699 26.0986C14.4242 28.3745 9.67068 31.2463 3.43171 32.9803C2.4414 33.2512 3.33267 34.064 4.32298 33.7931Z" fill="#A79F91"/>
<path d="M4.32298 38.7931C10.562 37.005 15.3155 34.1873 20.8612 31.9114C21.7525 31.5321 20.8612 30.7193 19.9699 31.0986C14.4242 33.3745 9.67068 36.2463 3.43171 37.9803C2.4414 38.2512 3.33267 39.064 4.32298 38.7931Z" fill="#A79F91"/>
<path d="M5.32298 43.7931C11.562 42.005 16.3155 39.1873 21.8612 36.9114C22.7525 36.5321 21.8612 35.7193 20.9699 36.0986C15.4242 38.3745 10.6707 41.2463 4.43171 42.9803C3.4414 43.2512 4.33267 44.064 5.32298 43.7931Z" fill="#A79F91"/>
<path opacity="0.2" fill-rule="evenodd" clip-rule="evenodd" d="M254.208 47.2453C243.842 47.4009 233.476 47.6084 223.111 47.7121C216.232 47.764 209.451 47.4528 202.573 47.5046C190.464 47.5565 178.354 47.8159 166.245 47.9715C158.398 48.0752 150.454 48.0233 142.607 48.0752C135.341 48.1271 128.076 48.2827 120.713 48.3346C111.704 48.3864 102.598 48.4383 93.5881 48.4902C82.6412 48.542 71.6943 48.6977 60.7473 48.7495C54.6442 48.8014 48.541 48.6458 42.4379 48.6976C34.0097 48.6976 25.4847 48.8014 17.0565 48.8533C15.2159 48.8533 13.1815 48.6976 11.4377 48.9051C7.95018 49.3201 5.72204 48.2827 3.20328 47.5565C2.3314 47.2971 1.84702 46.5191 1.75014 45.9485C1.36264 42.9401 1.26578 39.8797 0.975153 36.8712C0.781402 35.0039 0.297018 33.1885 0.393894 31.3211C0.490769 26.2378 0.878289 21.1546 1.16892 16.0713C1.26579 14.982 2.04079 13.9965 3.9783 13.374C8.7252 11.8698 11.4377 9.53564 14.8283 7.51271C16.8627 6.26782 19.2846 5.90473 22.2878 5.85286C26.0659 5.80099 29.8441 5.74912 33.6222 5.69725C36.2378 5.64538 38.8535 5.4379 41.4691 5.59351C50.091 6.06034 58.6161 5.4379 67.1411 5.23042C76.4412 5.02294 85.8381 4.9192 95.1381 4.76359C104.148 4.60798 113.157 4.45236 122.166 4.34862C124.782 4.29675 127.398 4.24489 130.013 4.24489C142.898 4.19302 155.685 4.14114 168.57 4.0374C176.029 3.93366 183.392 3.62244 190.851 3.5187C198.698 3.41496 206.545 3.46683 214.392 3.36309C220.786 3.25935 227.179 3 233.573 3.15561C238.126 3.31122 242.873 3 247.426 3C255.176 3 262.927 3 270.677 3.05187C274.552 3.10374 278.523 3.20748 282.398 3.41496C285.402 3.57057 286.08 4.0374 285.983 5.4379C285.595 10.988 284.917 16.59 285.014 22.1401C285.014 25.9785 286.177 29.8169 286.661 33.6553C286.855 35.3151 287.048 36.975 286.758 38.583C286.661 39.3091 285.402 40.1391 284.239 40.6578C281.333 41.9026 278.136 42.9919 275.133 44.1849C273.873 44.6518 272.13 45.0149 271.548 45.6373C269.998 47.2971 267.092 47.1415 264.186 47.1934C260.892 47.2453 257.501 47.1934 254.208 47.1934C254.208 47.1415 254.208 47.1934 254.208 47.2453Z" fill="#A79F91"/>
<path fill-rule="evenodd" clip-rule="evenodd" d="M17.4998 41.5C17.1955 41.1456 14.2027 41.7953 13.9998 41.5C13.797 41.2047 12.9998 39.8544 12.9998 39.5C13.3042 28.1605 11.8555 18.0167 15 6.5C19.5 5.5 26.6046 4.24829 31.8793 4.13017C37.1541 4.01205 42.5303 4.24829 47.9065 4.13017C53.5001 4.5 58.8196 4.17718 64.5001 4C74.7453 3.76376 85.052 3.64564 95.5001 4C101.586 4.17718 107.958 3.06709 114.044 2.88991C128.346 2.59461 142.596 2.7953 157 2.5C162.478 2.38188 167.921 2.05906 173.5 2C178.572 1.94094 183.428 2.05906 188.5 2C197.224 1.82282 206.149 1.2953 214.873 1.23624C220.046 1.17718 225.118 1.05906 230.291 1.05906C235.16 1.05906 240.029 1.11812 244.898 1.11812C254.332 1.11812 263.766 1 273.199 1C278.778 1 281.117 1.82282 287 2C288.5 6 288.5 27 289.5 38.5C287.37 38.5 288.009 39.0936 286.386 39.0936C270.663 39.3298 255.042 39.6251 239.319 39.8613C229.581 39.9795 219.742 39.9795 210.004 40.0976C196.513 40.2157 183.123 40.511 169.632 40.57C157.865 40.6291 146.098 40.4519 134.331 40.4519C127.636 40.4519 120.942 40.6882 114.145 40.6882C111.102 40.6882 108.059 40.4519 105.016 40.511C97.2052 40.6291 89.3944 40.8654 81.6852 40.9244C77.932 40.9244 74.0774 40.57 70.3242 40.57C62.2092 40.6291 54.1956 40.8653 46.0806 40.9835C42.226 41.0425 38.4728 40.9244 34.6182 40.9244C29.7492 40.9244 24.8802 40.9244 20.0112 40.9244C19.0982 40.9835 18.4128 41.5591 17.4998 41.5Z" fill="#FFFEFB"/>
<path fill-rule="evenodd" clip-rule="evenodd" d="M261.475 46.1669C250.879 46.3295 240.282 46.5462 229.686 46.6546C222.655 46.7088 215.722 46.3837 208.691 46.4379C196.312 46.492 183.933 46.763 171.555 46.9255C163.533 47.0339 155.412 46.9797 147.391 47.0339C139.964 47.0881 132.536 47.2507 125.01 47.3048C115.8 47.359 106.491 47.4132 97.2811 47.4674C86.0905 47.5216 74.9 47.6841 63.7094 47.7383C57.4705 47.7925 51.2315 47.63 44.9925 47.6841C36.3768 47.6841 27.662 47.7925 19.0463 47.8467C17.1647 47.8467 15.0851 47.6841 13.3025 47.9009C11.0001 47.9009 7.45966 47.2507 4.88485 46.492C3.99357 46.2211 3.49841 45.4083 3.39938 44.8123C3.00325 41.6694 2.90421 38.4724 2.60711 35.3296C2.40905 33.3789 2.50818 28.4506 2.60721 26.4999C2.70624 21.1896 2.50809 18.9111 2.80519 13.6008C2.90422 12.4629 3.69646 11.4334 5.67709 10.7831C10.5296 9.21171 12.534 7.61315 16.0001 5.49988C19.5001 4.49988 24.9302 4.05406 28.0001 3.99988C31.8623 3.94569 35.1379 4.05406 39.0001 3.99988C41.674 3.94569 47.8263 3.83732 50.5001 3.99988C59.3139 4.48756 62.7854 3.71662 71.5001 3.49988C81.0071 3.28313 89.9931 3.66244 99.5001 3.49988C108.71 3.33732 117.437 2.60839 126.646 2.50002C129.32 2.44583 137.326 2.50002 140 2.50002C153.171 2.44583 161.229 2.10839 174.401 2.00002C182.026 1.89164 190.247 1.60839 197.873 1.50002C205.894 1.39164 213.225 1.10839 221.345 1.00002C227.881 0.891643 234.235 0.78327 240.771 1.00002C245.425 1.16258 250.685 1.00002 255.34 1.00002C263.262 1.00002 270.08 0.94583 278.003 1.00002C281.964 1.0542 282.135 0.783254 286.097 1C287.715 1.08854 288.358 1.79744 288.5 3.49988C289 9.49988 288.901 8.20192 289 13.9999C289 18.0097 289.5 24.9999 289.5 29.9999C289.698 31.7338 290.297 35.3201 290 36.9999C289.901 37.7585 290.189 39.458 289 39.9999C286.029 41.3004 286.035 41.7778 282.965 43.0241C281.677 43.5118 279.5 44.4905 279.301 44.5413C277.5 44.9999 274.745 46.1127 271.774 46.1669C268.407 46.2211 264.941 46.1669 261.574 46.1669C261.475 46.0585 261.475 46.1127 261.475 46.1669ZM23.8536 40.5C24.7449 40.5542 29.4374 40.5 30.3287 40.5C35.0822 40.5 37.7161 40.5 42.4696 40.5C46.2328 40.5 49.2285 40.5542 52.9917 40.5C60.9142 40.3916 66.9228 40.0542 74.8453 40C78.5095 40 88.9878 40 92.6519 40C100.277 39.9458 102.123 39.6084 109.649 39.5C112.62 39.4458 116.391 39.7187 119.362 39.7187C125.898 39.6645 131.442 39.5 137.978 39.5C149.466 39.5 161.294 40.0542 172.782 40C185.953 39.9458 199.271 39.6084 212.442 39.5C221.949 39.3916 230.454 39.6084 239.961 39.5C255.311 39.2833 269.937 38.7168 285.287 38.5C286.872 38.5 289 37.9999 288.525 35.5C288.525 33.5 288.333 4.99988 287 2.99988C286 1.49988 279.403 2.5542 273.956 2.50002C264.746 2.44583 254.837 2.49259 245.627 2.54677C240.874 2.54677 235.812 2.54677 231.058 2.54677C226.007 2.54677 220.73 2.49259 215.68 2.54677C207.163 2.65515 199.105 2.89164 190.588 3.00002C185.637 3.0542 180.161 3.50002 175.21 3.50002C169.862 3.5542 163.929 3.30538 158.581 3.41376C144.618 3.68469 131.806 3.6749 117.743 4.00002C111.801 4.10839 102.542 4.71424 96.6989 4.55168C86.5977 4.22656 80.3467 4.33493 70.2455 4.55168C64.6998 4.66005 58.5375 4.89164 52.9917 5.00002C47.8421 5.10839 40.4337 4.89164 35.1851 5.00002C30.0354 5.10839 13.5001 4.49988 14.5001 9.99988C14.0001 15.4999 13.7972 26.5961 13.5001 36.9999C13.5001 37.2708 13.531 40.3477 14.0001 40.9999C14.61 41.8477 22.2348 40.5 23.8536 40.5ZM282.965 40.2918C276.528 40.1834 273.918 41.0542 267.481 41C264.51 41 260.739 40.9458 257.768 41C243.408 41.1626 229.23 40.8374 214.87 41C207.542 41.0542 201.055 40.8916 193.826 41C186.002 41.1084 180.071 41.3916 172.248 41.5C167.692 41.5542 160.34 41.5 155.785 41.5C145.188 41.5542 134.815 41.4458 124.218 41.5C114.216 41.5542 106.701 42 96.6989 42C93.1338 42 86.5043 42.0542 82.9392 42C77.6906 41.9458 73.6188 42 68.3702 42C62.2302 42.0542 55.0847 42.2655 48.9447 42.2655C39.7348 42.2655 23.5001 40.9999 17.0001 42.4999C15.0127 42.9585 13.3719 43.5492 10.5 45.4999C9.04415 46.9999 27.662 46.0585 34.7923 46.0585C43.6061 46.0585 52.4199 45.8418 61.1346 45.7876C76.1874 45.6792 91.2401 45.6792 106.392 45.5709C117.384 45.5167 128.476 45.4083 139.468 45.2999C148.183 45.1916 156.997 44.9748 165.811 45.1374C173.436 45.2999 180.962 44.8664 188.588 44.8664C200.967 44.8664 213.346 44.2704 225.725 44.7039C229.983 44.8664 234.34 44.8123 238.599 44.7039C249.195 44.4871 259.791 44.2162 270.388 43.9453C271.378 43.9453 272.467 43.7827 273.26 43.566C275.042 43.0783 276.726 42.4281 278.409 41.8862C280.786 41.0734 280.39 41.2129 282.965 40.2918ZM6.5001 44.9999C7.49041 44.8915 8.84608 44.3788 9.04415 44.3246C12.0001 42.4999 11.5001 41.9998 11.5001 36.9999C11.5001 35.4998 11.8962 32.5713 11.5001 30.9999C11.5001 21.9999 11.8069 18.852 12.5001 12.9999C12.5992 11.6994 13.4005 8.03187 11.5001 9.49988C12.5895 8.68708 9.81659 10.8004 11.5001 9.49988C10.9059 9.87918 9.19334 10.5122 8.50012 10.7831C4.935 11.9752 5.09903 12.9408 5 14.9999C4.80193 16.788 4.59903 19.7117 4.5 21.4999C4.40097 25.3471 4.30193 29.6526 4.5 33.4999C4.59903 36.5885 4.50484 39.4112 5 42.4999C5 43.2043 5.5001 44.8123 6.5001 44.9999Z" fill="#A79F91"/>
</svg>
