<svg preserveAspectRatio="none" viewBox="0 0 182 49" fill="none" xmlns="http://www.w3.org/2000/svg">
<path d="M97.0548 39.1769C96.1984 41.6152 93.6289 43.4034 92.2219 45.5709C91.8548 46.1127 92.8336 46.6004 93.1395 46.0585C94.6078 43.7827 97.1772 41.9945 98.0948 39.4478C98.2784 38.8517 97.2384 38.5808 97.0548 39.1769Z" fill="#D7D4CE"/>
<path d="M18.6268 39.4478C16.6691 41.7236 14.7727 43.9995 13.3044 46.5462C12.9985 47.0881 13.9162 47.5758 14.2221 47.0339C15.6903 44.4871 17.5868 42.2113 19.5444 39.9355C19.9727 39.3936 19.055 38.9059 18.6268 39.4478Z" fill="#D7D4CE"/>
<path d="M26.2738 39.4478C24.4385 41.7778 22.4809 44.1078 20.768 46.5462C20.4009 47.0881 21.3186 47.5758 21.6856 47.0339C23.3986 44.5955 25.3562 42.3197 27.1915 39.9355C27.6197 39.3936 26.6409 38.9059 26.2738 39.4478Z" fill="#D7D4CE"/>
<path d="M32.8809 39.6103C31.0456 41.7778 29.3327 43.9994 27.8033 46.3295C27.4362 46.8713 28.4151 47.359 28.7209 46.8171C30.2504 44.4871 31.9633 42.2655 33.7986 40.098C34.2268 39.6103 33.248 39.1226 32.8809 39.6103Z" fill="#D7D4CE"/>
<path d="M37.8973 39.1769C36.7961 41.7778 34.8996 43.9453 33.2479 46.3295C32.8808 46.8713 33.8596 47.359 34.1655 46.8171C35.8173 44.3788 37.7138 42.1029 38.8761 39.4478C39.2432 38.8517 38.142 38.5808 37.8973 39.1769Z" fill="#D7D4CE"/>
<path d="M45.4221 39.4478C43.7091 41.6694 41.8738 43.7827 40.0997 45.9502C39.6715 46.4379 40.6503 46.9255 41.0174 46.4379C42.7915 44.2704 44.6268 42.1571 46.3397 39.9355C46.7679 39.3936 45.7891 38.9059 45.4221 39.4478Z" fill="#D7D4CE"/>
<path d="M51.8455 39.3394C49.8878 41.4527 48.4808 44.1078 45.9726 45.7876C45.422 46.1669 45.9726 46.9797 46.5232 46.6004C49.0926 44.8664 50.5608 42.2113 52.5796 39.9897C53.069 39.502 52.3349 38.8517 51.8455 39.3394Z" fill="#D7D4CE"/>
<path d="M57.1067 39.2311C55.2714 41.5611 53.3138 43.8911 51.6009 46.3295C51.2338 46.8714 52.1514 47.359 52.5185 46.8172C54.2314 44.3788 56.1891 42.1029 58.0244 39.7187C58.4526 39.2311 57.4738 38.7434 57.1067 39.2311Z" fill="#D7D4CE"/>
<path d="M63.6525 39.7187C62.6737 41.9404 61.3278 44.2162 59.309 45.8418C58.7584 46.2753 59.5537 46.9255 60.1043 46.5462C62.2455 44.8122 63.7137 42.3738 64.6925 39.9896C64.9372 39.3936 63.8972 39.1227 63.6525 39.7187Z" fill="#D7D4CE"/>
<path d="M70.076 39.231C68.5466 41.2901 66.5278 43.0783 65.4267 45.3541C65.1208 45.896 66.0996 46.4378 66.3443 45.8418C67.5067 43.5659 69.4643 41.7778 70.9937 39.7187C71.4219 39.1768 70.4431 38.7433 70.076 39.231Z" fill="#D7D4CE"/>
<path d="M76.0102 39.4478C74.3584 41.6153 72.6455 43.6743 70.9325 45.7876C70.5043 46.2753 71.4831 46.763 71.8502 46.2753C73.5631 44.162 75.3372 42.1029 76.9278 39.9355C77.3561 39.3936 76.4384 38.9059 76.0102 39.4478Z" fill="#D7D4CE"/>
<path d="M82.189 39.4478C80.6595 41.561 79.3748 43.8911 77.1725 45.5167C76.6219 45.896 77.4172 46.6004 77.9678 46.2211C80.2313 44.5413 81.5772 42.1571 83.1678 39.9896C83.5348 39.3936 82.556 38.9059 82.189 39.4478Z" fill="#D7D4CE"/>
<path d="M87.2667 38.4182C85.9208 41.3443 82.862 43.3492 81.7608 46.4378C81.5161 47.0339 82.6173 47.3048 82.8008 46.7088C83.9632 43.6743 86.9608 41.6152 88.3067 38.6892C88.5514 38.0931 87.5114 37.8764 87.2667 38.4182Z" fill="#D7D4CE"/>
<path d="M92.1607 39.0685C90.5089 41.2359 88.796 43.4576 86.9607 45.4625C86.5325 45.9501 87.2666 46.6546 87.756 46.1669C89.7136 44.0536 91.4266 41.832 93.1395 39.5561C93.5066 39.0143 92.5889 38.5266 92.1607 39.0685Z" fill="#D7D4CE"/>
<path d="M171.506 37.768C167.836 40.0439 164.288 42.3739 160.678 44.6497C160.128 45.029 160.678 45.8418 161.229 45.4625C164.899 43.1867 168.448 40.8566 172.057 38.5808C172.608 38.2557 172.057 37.3887 171.506 37.768Z" fill="#D7D4CE"/>
<path d="M162.697 37.6596C160.005 40.4231 157.252 43.6202 153.459 45.1916C152.848 45.4625 153.398 46.2753 154.01 46.0044C157.925 44.3788 160.739 41.1276 163.492 38.3099C163.921 37.8764 163.125 37.172 162.697 37.6596Z" fill="#D7D4CE"/>
<path d="M155.417 38.2015C152.786 40.5315 150.401 42.9699 147.77 45.3C147.281 45.7334 148.015 46.4379 148.565 46.0044C151.196 43.6744 153.582 41.236 156.212 38.9059C156.702 38.4725 155.906 37.768 155.417 38.2015Z" fill="#D7D4CE"/>
<path d="M148.565 37.9306C146.852 40.4774 144.466 42.5906 142.815 45.1916C142.448 45.7335 143.426 46.2211 143.732 45.6793C145.384 43.0783 147.77 40.9651 149.483 38.4183C149.85 37.8764 148.932 37.3887 148.565 37.9306Z" fill="#D7D4CE"/>
<path d="M142.264 38.4182C139.878 40.5857 138.288 43.3492 135.657 45.2999C135.106 45.7334 135.902 46.3837 136.452 46.0043C139.083 43.9994 140.674 41.2901 143.059 39.1227C143.549 38.635 142.753 37.9306 142.264 38.4182Z" fill="#D7D4CE"/>
<path d="M136.514 38.4182C134.434 40.8024 132.354 43.1866 129.907 45.2999C129.417 45.7334 130.212 46.4378 130.702 46.0043C133.088 43.8911 135.229 41.5069 137.309 39.1226C137.737 38.5808 136.942 37.8764 136.514 38.4182Z" fill="#D7D4CE"/>
<path d="M129.601 38.6892C128.255 41.4527 125.685 43.4576 122.994 45.1915C122.443 45.5709 122.994 46.3836 123.544 46.0043C126.358 44.162 129.111 42.0487 130.518 39.1227C130.824 38.5808 129.907 38.0931 129.601 38.6892Z" fill="#D7D4CE"/>
<path d="M122.504 38.4182C120.302 40.9108 118.283 43.5118 115.469 45.5167C114.918 45.896 115.714 46.6004 116.264 46.2211C119.078 44.2704 121.097 41.6152 123.299 39.1226C123.666 38.5808 122.932 37.8764 122.504 38.4182Z" fill="#D7D4CE"/>
<path d="M116.448 39.0685C115.224 41.3443 113.634 43.5118 111.615 45.2999C111.125 45.7334 111.921 46.4378 112.41 46.0043C114.49 44.162 116.142 41.9404 117.365 39.5561C117.671 38.9601 116.754 38.4724 116.448 39.0685Z" fill="#D7D4CE"/>
<path d="M110.452 39.0685C108.556 41.2901 106.598 43.5118 104.702 45.7876C104.274 46.2753 105.252 46.763 105.62 46.2753C107.516 44.0536 109.474 41.832 111.37 39.5562C111.86 39.0143 110.881 38.5808 110.452 39.0685Z" fill="#D7D4CE"/>
<path d="M103.784 39.1226C101.398 40.9108 99.869 43.4034 97.6055 45.2457C97.116 45.6792 97.8502 46.3836 98.4008 45.9502C100.664 44.0536 102.194 41.6152 104.58 39.8271C105.069 39.3936 104.274 38.7433 103.784 39.1226Z" fill="#D7D4CE"/>
<path d="M3.21032 17.9357C6.20796 16.5269 9.14443 14.9013 11.5915 12.8422C12.0809 12.4087 11.3468 11.7043 10.7962 12.1377C8.41033 14.1426 5.53502 15.7141 2.59856 17.0687C2.04797 17.3938 2.59856 18.2608 3.21032 17.9357Z" fill="#D7D4CE"/>
<path d="M3.21036 22.7584C6.208 21.0244 8.71624 18.7486 11.9586 17.3397C12.5703 17.0688 12.0198 16.256 11.408 16.5269C8.16566 17.9358 5.65742 20.2116 2.65978 21.9456C2.04801 22.2707 2.5986 23.1377 3.21036 22.7584Z" fill="#D7D4CE"/>
<path d="M2.35383 28.177C5.35147 26.2263 7.85971 23.6254 11.2856 22.2165C11.8973 21.9456 11.3468 21.1328 10.735 21.4037C7.30912 22.8126 4.80089 25.4135 1.80325 27.3642C1.25266 27.6893 1.74207 28.5563 2.35383 28.177Z" fill="#D7D4CE"/>
<path d="M2.65973 33.4873C5.65737 31.374 8.71619 29.3149 11.8974 27.4184C12.5091 27.0933 11.9585 26.2263 11.3468 26.6056C8.04325 28.5563 4.98444 30.6696 1.86444 32.8371C1.31386 33.2164 2.10914 33.8666 2.65973 33.4873Z" fill="#D7D4CE"/>
<path d="M2.35385 38.9601C6.20796 37.1719 9.14443 34.3542 12.5703 32.0784C13.1209 31.6991 12.5703 30.8863 12.0197 31.2656C8.59385 33.5414 5.65738 36.4133 1.80327 38.1473C1.19151 38.4182 1.74209 39.231 2.35385 38.9601Z" fill="#D7D4CE"/>
<path d="M3.82208 42.3197C7.00325 40.965 9.87855 39.0143 12.6315 37.0094C13.1821 36.6301 12.3868 35.9257 11.8362 36.305C9.14442 38.2015 6.33031 40.1522 3.21031 41.4527C2.65973 41.7778 3.21031 42.5906 3.82208 42.3197Z" fill="#D7D4CE"/>
<path opacity="0.2" fill-rule="evenodd" clip-rule="evenodd" d="M156.801 47.2453C150.397 47.4009 143.994 47.6084 137.591 47.7121C133.342 47.764 129.152 47.4528 124.903 47.5046C117.423 47.5565 109.942 47.8159 102.462 47.9715C97.6143 48.0752 92.7071 48.0233 87.8597 48.0752C83.3714 48.1271 78.883 48.2827 74.3348 48.3346C68.7693 48.3864 63.1439 48.4383 57.5783 48.4902C50.8159 48.542 44.0535 48.6976 37.291 48.7495C33.5208 48.8014 29.7506 48.6458 25.9804 48.6976C20.7739 48.6976 15.5076 48.8014 10.3011 48.8533C9.16406 48.8533 7.90731 48.6976 6.83011 48.9051C4.6757 49.3201 3.29927 48.2827 1.74332 47.5565C1.20471 47.2971 0.905491 46.5191 0.845646 45.9485C0.606268 42.9401 0.546431 39.8797 0.366897 36.8712C0.247208 35.0039 -0.0520189 33.1885 0.00782569 31.3211C0.0676703 26.2378 0.30706 21.1546 0.486593 16.0713C0.546438 14.982 1.02519 13.9965 2.22208 13.374C5.15447 11.8698 6.83011 9.53564 8.92467 7.51271C10.1814 6.26782 11.6775 5.90473 13.5327 5.85286C15.8666 5.80099 18.2006 5.74912 20.5345 5.69725C22.1503 5.64538 23.7661 5.4379 25.3819 5.59351C30.7081 6.06034 35.9744 5.4379 41.2407 5.23042C46.9858 5.02294 52.7908 4.9192 58.5359 4.76359C64.1014 4.60798 69.6669 4.45236 75.2325 4.34862C76.8483 4.29675 78.4641 4.24489 80.0799 4.24489C88.0392 4.19302 95.9387 4.14114 103.898 4.0374C108.506 3.93366 113.054 3.62244 117.662 3.5187C122.51 3.41496 127.357 3.46683 132.205 3.36309C136.154 3.25935 140.104 3 144.054 3.15561C146.866 3.31122 149.799 3 152.612 3C157.399 3 162.187 3 166.974 3.05187C169.368 3.10374 171.822 3.20748 174.215 3.41496C176.071 3.57057 176.49 4.0374 176.43 5.4379C176.19 10.988 175.771 16.59 175.831 22.1401C175.831 25.9785 176.549 29.8169 176.849 33.6553C176.968 35.3151 177.088 36.975 176.908 38.583C176.849 39.3091 176.071 40.1391 175.352 40.6578C173.557 41.9027 171.582 42.9919 169.727 44.1849C168.949 44.6518 167.872 45.0149 167.513 45.6373C166.555 47.2971 164.76 47.1415 162.965 47.1934C160.93 47.2453 158.835 47.1934 156.801 47.1934C156.801 47.1415 156.801 47.1934 156.801 47.2453Z" fill="#D7D4CE"/>
<path fill-rule="evenodd" clip-rule="evenodd" d="M10.4345 40.8653C10.2465 40.511 9.99582 40.2747 9.87049 39.9795C9.74516 39.6842 9.68251 39.3888 9.68251 39.0345C9.8705 27.695 7.92794 16.3555 9.87049 4.83889C13.0036 4.60265 16.1994 4.24829 19.4579 4.13017C22.7164 4.01205 26.0375 4.24829 29.3586 4.13017C32.8677 4.01205 36.3142 3.71675 39.8233 3.53957C46.1522 3.30333 52.4812 2.71273 58.9355 3.06709C62.6952 3.24427 66.455 3.06709 70.2148 2.88991C79.0502 2.59461 87.8857 2.12214 96.7838 1.82684C100.168 1.70872 103.551 2.00402 106.998 1.94496C110.131 1.8859 113.201 1.5906 116.335 1.53154C121.724 1.35436 127.113 1.2953 132.502 1.23624C135.697 1.17718 138.831 1.05906 142.026 1.05906C145.034 1.05906 148.042 1.11812 151.05 1.11812C156.877 1.11812 162.705 1 168.533 1C171.979 1 175.426 1.2953 179.06 1.47248C179.06 14.0522 178.496 26.4548 180 39.0936C178.684 39.0936 177.681 39.0936 176.679 39.0936C166.966 39.3298 157.316 39.6251 147.603 39.8613C141.588 39.9795 135.509 39.9795 129.494 40.0976C121.16 40.2157 112.888 40.511 104.554 40.57C97.2851 40.6291 90.0162 40.4519 82.7473 40.4519C78.6116 40.4519 74.4759 40.6882 70.2775 40.6882C68.3976 40.6882 66.5177 40.4519 64.6378 40.511C59.8128 40.6291 54.9877 40.8654 50.2253 40.9244C47.9068 40.9244 45.5256 40.57 43.2071 40.57C38.1941 40.6291 33.2437 40.8653 28.2307 40.9835C25.8495 41.0425 23.531 40.9244 21.1498 40.9244C18.142 40.9244 15.1342 40.9244 12.1264 40.9244C11.5624 40.9835 10.9984 40.9244 10.4345 40.8653Z" fill="#FFFEFB"/>
<path fill-rule="evenodd" clip-rule="evenodd" d="M161.29 46.1669C154.744 46.3295 148.198 46.5462 141.652 46.6546C137.309 46.7088 133.027 46.3837 128.683 46.4379C121.036 46.492 113.389 46.763 105.742 46.9255C100.787 47.0339 95.7701 46.9797 90.8148 47.0339C86.2266 47.0881 81.6384 47.2507 76.989 47.3048C71.2996 47.359 65.549 47.4132 59.8596 47.4674C52.9467 47.5216 46.0338 47.6841 39.1208 47.7383C35.2667 47.7925 31.4126 47.63 27.5585 47.6841C22.2362 47.6841 16.8527 47.7925 11.5303 47.8467C10.368 47.8467 9.08327 47.6841 7.9821 47.9009C5.77975 48.3344 4.37269 47.2507 2.78211 46.492C2.23152 46.2211 1.92564 45.4083 1.86447 44.8123C1.61976 41.6694 1.55857 38.4724 1.37504 35.3296C1.25269 33.3789 0.946824 31.4824 1.008 29.5317C1.06918 24.2214 1.31387 18.9111 1.4974 13.6008C1.55858 12.4629 2.04799 11.4334 3.27151 10.7831C6.26915 9.21171 7.85883 7.61329 10 5.50002C11.2847 4.19954 13.1035 3.5542 15 3.50002C17.3859 3.44583 19.6141 3.5542 22 3.50002C23.6518 3.44583 26.3482 3.33746 28 3.50002C33.4447 3.98769 37.775 3.21676 43.1585 3.00002C49.0314 2.78327 55.1271 2.66258 61 2.50002C66.6894 2.33746 72.3106 2.60839 78 2.50002C79.6518 2.44583 83.3482 2.00002 85 2.00002C93.1365 1.94583 99.3635 2.10839 107.5 2.00002C112.211 1.89164 117.289 1.60839 122 1.50002C126.955 1.39164 131.484 1.10839 136.5 1.00002C140.538 0.891643 144.462 0.78327 148.5 1.00002C151.375 1.16258 154.625 1.00002 157.5 1.00002C162.394 1.00002 166.606 0.94583 171.5 1.00002C173.947 1.0542 174.053 0.783254 176.5 1C178.396 1.16256 179.215 2.03698 179.153 3.50002C178.909 9.29797 179.092 13.702 179.153 19.5C179.153 23.5098 179.694 28.4902 180 32.5C180.122 34.234 180.499 35.3202 180.316 37C180.255 37.7586 179.888 38.9581 179.153 39.5C177.318 40.8005 176.462 41.7778 174.565 43.0241C173.77 43.5118 172.669 43.8911 172.302 44.5413C171.323 46.2753 169.488 46.1127 167.652 46.1669C165.572 46.2211 163.431 46.1669 161.351 46.1669C161.29 46.0585 161.29 46.1127 161.29 46.1669ZM14.5 40.5C15.0506 40.5542 17.9494 40.5 18.5 40.5C21.4365 40.5 23.0635 40.5 26 40.5C28.3247 40.5 30.1753 40.5542 32.5 40.5C37.3941 40.3916 41.1059 40.0542 46 40C48.2635 40 54.7365 40 57 40C61.7106 39.9458 62.8506 39.6084 67.5 39.5C69.3353 39.4458 71.6647 39.7187 73.5 39.7187C77.5376 39.6645 80.9624 39.5 85 39.5C92.0965 39.5 99.4035 40.0542 106.5 40C114.636 39.9458 122.864 39.6084 131 39.5C136.873 39.3916 142.127 39.6084 148 39.5C157.482 39.2833 166.518 38.7167 176 38.5C176.979 38.5 177.174 36.3699 178 35.5C178 33.5 177.5 3.83256 177 3.00002C174.5 2.56652 172.365 2.5542 169 2.50002C163.311 2.44583 157.189 2.49259 151.5 2.54677C148.564 2.54677 145.436 2.54677 142.5 2.54677C139.38 2.54677 136.12 2.49259 133 2.54677C127.739 2.65515 122.761 2.89164 117.5 3.00002C114.441 3.0542 111.059 3.50002 108 3.50002C104.696 3.5542 101.031 3.30538 97.7277 3.41376C89.1019 3.68469 81.187 3.6749 72.5 4.00002C68.8294 4.10839 63.1094 4.71424 59.5 4.55168C53.26 4.22656 49.3985 4.33493 43.1585 4.55168C39.7326 4.66005 35.9259 4.89164 32.5 5.00002C29.3188 5.10839 24.7423 4.89164 21.5 5.00002C18.3188 5.10839 12.5 4.50982 11 7.00002C9.10353 17.5664 10.3068 26.0962 10.1233 36.5C10.1233 36.7709 9.83344 39.5 10.1233 40.1522C10.5 41 13.5 40.5 14.5 40.5ZM174.565 40.2918C170.589 40.1834 168.976 41.0542 165 41C163.165 41 160.835 40.9458 159 41C150.129 41.1626 141.371 40.8374 132.5 41C127.973 41.0542 123.966 40.8916 119.5 41C114.667 41.1084 111.003 41.3916 106.17 41.5C103.356 41.5542 98.8141 41.5 96 41.5C89.4541 41.5542 83.0459 41.4458 76.5 41.5C70.3212 41.5542 65.6788 42 59.5 42C57.2977 42 53.2023 42.0542 51 42C47.7577 41.9458 45.2423 42 42 42C38.2071 42.0542 33.7929 42.2655 30 42.2655C24.3106 42.2655 17.0362 42.3197 11.5303 42.2655C9.69503 44.2704 9.57267 43.7285 7.79856 45.6792C12.448 45.8418 16.8527 46.0585 21.2574 46.0585C26.702 46.0585 32.1467 45.8418 37.5303 45.7876C46.8291 45.6792 56.1279 45.6792 65.4878 45.5709C72.2784 45.5167 79.1302 45.4083 85.9207 45.2999C91.3043 45.1916 96.7489 44.9748 102.194 45.1374C106.904 45.2999 111.554 44.8664 116.264 44.8664C123.911 44.8664 131.558 44.2704 139.205 44.7039C141.836 44.8664 144.528 44.8123 147.158 44.7039C153.704 44.4871 160.25 44.2162 166.796 43.9453C167.408 43.9453 168.081 43.7827 168.57 43.566C169.671 43.0783 170.711 42.4281 171.751 41.8862C173.219 41.0734 172.975 41.2129 174.565 40.2918ZM4.3727 44.4871C4.98446 44.3788 5.22915 44.3788 5.3515 44.3246C9.14444 41.4527 8.30588 39.3891 8 35C7.87765 33.4286 8.41033 31.5714 8.16562 30C7.4315 24.1479 7.73739 18.8522 8.16562 13C8.2268 11.6995 8.28797 11.8669 8.16562 10.0787C8.83856 9.2659 7.12562 11.3792 8.16562 10.0787C7.79856 10.458 7.43151 10.8915 7.00327 11.1624C4.80093 12.3545 3.63857 13.9801 3.57739 16.0392C3.45504 17.8274 3.45505 19.6155 3.39387 21.4037C3.3327 25.2509 3.08798 29.1524 3.21033 32.9996C3.27151 36.0882 3.76093 39.1769 4.06682 42.2655C4.06682 42.9699 4.25035 43.6743 4.3727 44.4871Z" fill="#D7D4CE"/>
</svg>
