<svg  viewBox="0 0 70 7" preserveAspectRatio="none" fill="none" xmlns="http://www.w3.org/2000/svg">
<path d="M1.49265 3.33619C2.0407 3.33619 2.61486 3.30215 3.16292 3.26811C3.3978 3.26811 3.60659 3.23407 3.84147 3.23407C4.83319 3.16598 5.82492 3.09789 6.81665 3.02981C8.01716 2.96172 9.19157 2.8596 10.3921 2.79151C12.0885 2.65534 13.7848 2.55321 15.4812 2.41704C15.8727 2.38299 16.2641 2.383 16.6556 2.34895C17.6473 2.28087 18.6391 2.21278 19.6308 2.17874C20.6225 2.11065 21.6142 2.04257 22.606 2.00852C22.9974 1.97448 23.3889 1.94044 23.7804 1.94044C25.3463 1.87235 26.9382 1.80427 28.5041 1.73618C29.4697 1.70214 30.4354 1.6681 31.4271 1.60001C31.8186 1.60001 32.1839 1.56597 32.5754 1.56597C34.0891 1.53192 35.6289 1.49788 37.1426 1.46384C38.6563 1.42979 40.1438 1.39576 41.6575 1.36171C42.049 1.36171 42.4405 1.36171 42.858 1.36171C43.8498 1.36171 44.8154 1.36171 45.8071 1.36171C47.3469 1.36171 48.8606 1.36171 50.4004 1.32767C50.8962 1.32767 51.3921 1.32767 51.888 1.32767C52.9319 1.32767 53.9758 1.32767 55.0197 1.32767C55.098 1.32767 55.2024 1.32767 55.2807 1.32767C52.9319 1.36171 50.557 1.39575 48.2081 1.46384C47.2164 1.49788 46.2508 1.49788 45.2591 1.53193C44.8415 1.53193 44.3978 1.53192 43.9803 1.56597C42.5449 1.60001 41.1356 1.6681 39.7002 1.70214C38.056 1.77023 36.4118 1.80427 34.7676 1.87236C34.4806 1.87236 34.2196 1.90639 33.9325 1.90639C33.0452 1.97448 32.1839 2.00852 31.2966 2.07661C29.5219 2.17874 27.7473 2.28087 25.9726 2.383C25.7116 2.383 25.4506 2.41704 25.1897 2.45108C24.3284 2.51917 23.4411 2.62129 22.5799 2.68938C21.014 2.82555 19.4742 2.96172 17.9083 3.09789C17.4907 3.13194 17.0471 3.20003 16.6295 3.23407C15.6378 3.3362 14.6461 3.43832 13.6543 3.5745C12.4016 3.71067 11.1228 3.84684 9.87012 3.98301C8.12155 4.18727 6.34688 4.39152 4.59831 4.59578C4.18074 4.62982 3.76318 4.69791 3.31951 4.73195C2.56267 4.83408 1.80582 4.9362 1.04898 5.03833C0.970686 5.03833 0.892392 5.10642 0.892392 5.24259C0.892392 5.34472 0.970686 5.44685 1.04898 5.44685C1.33606 5.44685 1.59704 5.48089 1.88412 5.48089C1.85802 5.58302 1.83192 5.68515 1.83192 5.78728C1.83192 6.16175 2.0668 6.50218 2.37998 6.50218C4.54612 6.33196 6.68616 6.1277 8.85229 5.99153C10.7314 5.8894 12.6104 5.75323 14.4895 5.6511C16.5512 5.51493 18.6391 5.37877 20.7008 5.27664C21.3533 5.24259 22.0057 5.20855 22.6582 5.14046C22.8408 5.14046 23.0235 5.10642 23.2323 5.10642C26.5729 5.00429 29.9134 4.86812 33.254 4.766C35.0286 4.69791 36.8294 4.62982 38.6041 4.59578C39.2565 4.56174 39.8829 4.56173 40.5353 4.52769C43.9542 4.45961 47.373 4.39152 50.7918 4.32344C52.2533 4.28939 53.7148 4.25535 55.1763 4.22131C56.429 4.18726 57.6817 4.18726 58.9344 4.11918C59.9783 4.08514 60.9962 4.01705 62.0401 3.98301C62.5621 3.94897 63.084 3.94897 63.5799 3.91492C64.7543 3.8128 65.9287 3.71066 67.1031 3.60854C67.0248 3.74471 67.0248 3.94897 67.0509 4.08514C67.077 4.25535 67.1553 4.39152 67.2858 4.45961C67.3902 4.52769 67.5468 4.59578 67.6512 4.52769C67.9122 4.39152 68.1731 4.25535 68.408 4.11918C68.408 4.11918 68.408 4.11918 68.3819 4.11918C68.408 4.11918 68.408 4.08514 68.4341 4.08514C68.4602 4.08514 68.4863 4.05109 68.4863 4.05109H68.4602C68.5907 3.98301 68.7212 3.91492 68.8778 3.81279C69.0083 3.74471 69.1649 3.64258 69.2954 3.5745C69.4519 3.47237 69.5824 3.37024 69.739 3.26811C69.8956 3.16598 70 2.89364 70 2.65534C70 2.51916 69.9739 2.41704 69.9217 2.28087C69.8695 2.1447 69.739 1.97448 69.6085 1.94044C69.478 1.9064 69.3475 1.87236 69.2171 1.87236C69.191 1.87236 69.1649 1.87236 69.1388 1.87236C69.0605 1.87236 68.9561 1.87235 68.8778 1.90639C68.669 1.94044 68.4863 1.97448 68.2775 1.97448C68.1209 1.97448 67.9644 2.00852 67.7817 2.00852C67.338 2.04257 66.9204 2.07661 66.4768 2.14469C66.3724 2.14469 66.2419 2.17874 66.1375 2.17874C66.1897 2.11065 66.2158 2.04257 66.2158 1.97448C66.2419 1.90639 66.2419 1.83831 66.2419 1.77023C66.2419 1.73618 66.2419 1.66809 66.268 1.63405C66.268 1.56597 66.268 1.49788 66.2419 1.46384C66.2419 1.46384 66.268 1.46384 66.268 1.4298C66.3463 1.36171 66.4246 1.29363 66.4768 1.15745C66.529 1.05533 66.5551 0.919152 66.5551 0.782981C66.5551 0.646809 66.529 0.544684 66.4768 0.408513C66.4507 0.37447 66.4246 0.306381 66.3985 0.272338C66.3202 0.17021 66.2419 0.136167 66.1636 0.102124C66.007 0.0340387 65.8243 0 65.6416 0C65.485 0 65.3545 0 65.198 0C64.9892 0 64.7804 0 64.5716 0C64.2845 0 63.9714 0 63.6843 0C62.9013 0 62.1184 0 61.3354 0C60.6047 0 59.8479 0 59.1171 0C58.4386 0 57.7861 0 57.1076 0C54.4195 0 51.7575 0.0340418 49.0694 0.0680846C47.0598 0.102127 45.0503 0.136169 43.0407 0.136169C42.1534 0.136169 41.24 0.170211 40.3526 0.204254C38.3431 0.272339 36.3335 0.306382 34.324 0.374468C33.7498 0.374468 33.1757 0.408513 32.6015 0.408513C32.2622 0.408513 31.9491 0.442553 31.6098 0.442553C29.6263 0.544681 27.6429 0.646813 25.6594 0.748941C25.0592 0.782984 24.4589 0.817028 23.8326 0.851071C23.4933 0.851071 23.154 0.885112 22.8147 0.919155C20.8313 1.05533 18.8739 1.1915 16.8905 1.32767C15.8727 1.39575 14.8548 1.46384 13.837 1.56597C12.0885 1.70214 10.3399 1.83831 8.61741 2.00852C7.10373 2.1447 5.59004 2.24682 4.07635 2.34895C3.84147 2.383 3.60659 2.38299 3.34561 2.41704C2.95414 2.45108 2.56267 2.45108 2.1712 2.48512C1.83192 2.51916 1.49265 2.51917 1.12727 2.51917C1.10118 2.41704 0.996784 2.31491 0.91849 2.31491C0.683607 2.34895 0.474823 2.38299 0.239941 2.41704C0.135549 2.41704 0.0311562 2.48512 0.00505821 2.65534C-0.0210398 2.82555 0.0572539 2.99577 0.161646 3.02981C0.266038 3.06385 0.344333 3.0979 0.448725 3.13194C0.553117 3.16598 0.631412 3.16598 0.735804 3.16598C0.970686 3.30215 1.23167 3.33619 1.49265 3.33619ZM62.5621 2.24682C62.8752 2.24682 63.2145 2.24682 63.5277 2.24682C63.5538 2.34895 63.606 2.41704 63.6582 2.48512C63.5277 2.48512 63.3972 2.51917 63.2928 2.51917C63.0579 2.51917 62.823 2.55321 62.5882 2.55321C61.5442 2.58725 60.5264 2.65534 59.4825 2.68938C59.0127 2.72342 58.543 2.75747 58.0732 2.75747C57.3424 2.75747 56.5856 2.79151 55.8549 2.79151C54.1585 2.82555 52.4882 2.8596 50.7918 2.89364C47.5035 2.96173 44.2412 3.02981 40.9529 3.09789C38.6041 3.13194 36.2552 3.23406 33.9064 3.33619C30.3832 3.47236 26.8338 3.57449 23.3106 3.71067C22.606 3.74471 21.9013 3.77875 21.1967 3.84683C19.1871 3.98301 17.1776 4.08514 15.168 4.22131C13.2107 4.35748 11.2272 4.45961 9.26986 4.59578C9.08718 4.59578 8.90449 4.62982 8.7218 4.62982C9.24376 4.56173 9.79182 4.52769 10.3138 4.45961C12.1667 4.28939 14.0197 4.08514 15.8727 3.91492C16.5251 3.84684 17.1776 3.77875 17.8039 3.71067C18.1432 3.67662 18.4825 3.64258 18.7956 3.64258C20.7269 3.50641 22.6582 3.33619 24.5894 3.20002C24.9548 3.16598 25.3463 3.13194 25.7116 3.09789C26.2597 3.06385 26.8077 3.02981 27.3297 3.02981C29.3132 2.92768 31.2966 2.82555 33.2801 2.72343C33.7237 2.68938 34.1674 2.68938 34.585 2.65534C34.6894 2.65534 34.8198 2.65534 34.9242 2.65534C35.2374 2.65534 35.5506 2.65534 35.8377 2.6213C37.8211 2.55321 39.8307 2.51917 41.8141 2.45108C42.7275 2.41704 43.641 2.383 44.5544 2.383C47.5035 2.34895 50.4787 2.31491 53.4277 2.28087C56.5334 2.28087 59.5347 2.24682 62.5621 2.24682Z" fill="#666562"/>
<path d="M34.9998 3.50216C54.3297 3.50216 70 3.42699 70 3.33427C70 3.24155 54.3297 3.16638 34.9998 3.16638C15.6699 3.16638 0 3.24155 0 3.33427C0 3.42699 15.6699 3.50216 34.9998 3.50216Z" fill="#666562"/>
</svg>
