<svg viewBox="0 0 182 50" fill="none" preserveAspectRatio="none" xmlns="http://www.w3.org/2000/svg">
<path d="M97.0549 39.1769C96.1984 41.6152 93.629 43.4034 92.2219 45.5709C91.8549 46.1127 92.8337 46.6004 93.1396 46.0585C94.6078 43.7827 97.1772 41.9945 98.0949 39.4478C98.2784 38.8517 97.2384 38.5808 97.0549 39.1769Z" fill="#A79F91"/>
<path d="M18.6268 39.4478C16.6692 41.7236 14.7727 43.9995 13.3045 46.5462C12.9986 47.0881 13.9162 47.5758 14.2221 47.0339C15.6903 44.4871 17.5868 42.2113 19.5444 39.9355C19.9727 39.3936 19.055 38.9059 18.6268 39.4478Z" fill="#A79F91"/>
<path d="M26.2738 39.4478C24.4385 41.7778 22.4809 44.1078 20.768 46.5462C20.4009 47.0881 21.3186 47.5758 21.6856 47.0339C23.3986 44.5955 25.3562 42.3197 27.1915 39.9355C27.6197 39.3936 26.6409 38.9059 26.2738 39.4478Z" fill="#A79F91"/>
<path d="M32.8809 39.6103C31.0456 41.7778 29.3327 43.9994 27.8033 46.3295C27.4362 46.8713 28.415 47.359 28.7209 46.8171C30.2503 44.4871 31.9633 42.2655 33.7985 40.098C34.2268 39.6103 33.248 39.1226 32.8809 39.6103Z" fill="#A79F91"/>
<path d="M37.8973 39.1769C36.7961 41.7778 34.8997 43.9453 33.2479 46.3295C32.8809 46.8713 33.8597 47.359 34.1656 46.8171C35.8173 44.3788 37.7138 42.1029 38.8761 39.4478C39.2432 38.8517 38.142 38.5808 37.8973 39.1769Z" fill="#A79F91"/>
<path d="M45.4221 39.4478C43.7091 41.6694 41.8738 43.7827 40.0997 45.9502C39.6715 46.4379 40.6503 46.9255 41.0174 46.4379C42.7915 44.2704 44.6268 42.1571 46.3397 39.9355C46.7679 39.3936 45.7891 38.9059 45.4221 39.4478Z" fill="#A79F91"/>
<path d="M51.8455 39.3394C49.8879 41.4527 48.4808 44.1078 45.9726 45.7876C45.422 46.1669 45.9726 46.9797 46.5232 46.6004C49.0926 44.8664 50.5608 42.2113 52.5796 39.9896C53.069 39.502 52.3349 38.8517 51.8455 39.3394Z" fill="#A79F91"/>
<path d="M57.1067 39.2311C55.2714 41.5611 53.3138 43.8911 51.6009 46.3295C51.2338 46.8714 52.1514 47.359 52.5185 46.8172C54.2314 44.3788 56.1891 42.1029 58.0244 39.7187C58.4526 39.2311 57.4738 38.7434 57.1067 39.2311Z" fill="#A79F91"/>
<path d="M63.6526 39.7187C62.6737 41.9403 61.3279 44.2162 59.3091 45.8418C58.7585 46.2753 59.5538 46.9255 60.1043 46.5462C62.2455 44.8122 63.7137 42.3738 64.6926 39.9896C64.9373 39.3936 63.8973 39.1226 63.6526 39.7187Z" fill="#A79F91"/>
<path d="M70.0761 39.231C68.5467 41.2901 66.5279 43.0783 65.4267 45.3541C65.1208 45.896 66.0996 46.4378 66.3443 45.8418C67.5067 43.5659 69.4643 41.7778 70.9937 39.7187C71.422 39.1768 70.4431 38.7433 70.0761 39.231Z" fill="#A79F91"/>
<path d="M76.0101 39.4478C74.3584 41.6153 72.6455 43.6743 70.9325 45.7876C70.5043 46.2753 71.4831 46.763 71.8502 46.2753C73.5631 44.162 75.3372 42.1029 76.9278 39.9355C77.356 39.3936 76.4384 38.9059 76.0101 39.4478Z" fill="#A79F91"/>
<path d="M82.189 39.4478C80.6595 41.561 79.3748 43.8911 77.1725 45.5167C76.6219 45.896 77.4172 46.6004 77.9678 46.2211C80.2313 44.5413 81.5772 42.1571 83.1678 39.9896C83.5348 39.3936 82.556 38.9059 82.189 39.4478Z" fill="#A79F91"/>
<path d="M87.2667 38.4183C85.9208 41.3443 82.862 43.3492 81.7608 46.4379C81.5161 47.0339 82.6173 47.3048 82.8008 46.7088C83.9632 43.6743 86.9608 41.6153 88.3067 38.6892C88.5514 38.0931 87.5114 37.8764 87.2667 38.4183Z" fill="#A79F91"/>
<path d="M92.1607 39.0685C90.509 41.2359 88.796 43.4576 86.9607 45.4625C86.5325 45.9501 87.2666 46.6546 87.756 46.1669C89.7137 44.0536 91.4266 41.832 93.1395 39.5561C93.5066 39.0143 92.589 38.5266 92.1607 39.0685Z" fill="#A79F91"/>
<path d="M171.506 37.768C167.836 40.0439 164.288 42.3739 160.678 44.6497C160.128 45.029 160.678 45.8418 161.229 45.4625C164.899 43.1867 168.448 40.8566 172.057 38.5808C172.608 38.2557 172.057 37.3887 171.506 37.768Z" fill="#A79F91"/>
<path d="M162.697 37.6596C160.005 40.4231 157.252 43.6201 153.459 45.1915C152.848 45.4625 153.398 46.2753 154.01 46.0043C157.925 44.3787 160.739 41.1276 163.492 38.3099C163.921 37.8764 163.125 37.1719 162.697 37.6596Z" fill="#A79F91"/>
<path d="M155.417 38.2015C152.787 40.5315 150.401 42.9699 147.77 45.3C147.281 45.7334 148.015 46.4379 148.565 46.0044C151.196 43.6744 153.582 41.236 156.212 38.9059C156.702 38.4725 155.906 37.768 155.417 38.2015Z" fill="#A79F91"/>
<path d="M148.565 37.9306C146.852 40.4774 144.466 42.5906 142.815 45.1916C142.448 45.7335 143.426 46.2211 143.732 45.6793C145.384 43.0783 147.77 40.9651 149.483 38.4183C149.85 37.8764 148.932 37.3887 148.565 37.9306Z" fill="#A79F91"/>
<path d="M142.264 38.4183C139.878 40.5857 138.288 43.3492 135.657 45.2999C135.106 45.7334 135.902 46.3837 136.452 46.0044C139.083 43.9995 140.674 41.2901 143.059 39.1227C143.549 38.635 142.754 37.9306 142.264 38.4183Z" fill="#A79F91"/>
<path d="M136.514 38.4182C134.434 40.8024 132.354 43.1866 129.907 45.2999C129.417 45.7334 130.212 46.4378 130.702 46.0043C133.088 43.8911 135.229 41.5069 137.309 39.1226C137.737 38.5808 136.942 37.8764 136.514 38.4182Z" fill="#A79F91"/>
<path d="M129.601 38.6892C128.255 41.4527 125.685 43.4576 122.994 45.1915C122.443 45.5709 122.994 46.3836 123.544 46.0043C126.358 44.162 129.111 42.0487 130.518 39.1227C130.824 38.5808 129.907 38.0931 129.601 38.6892Z" fill="#A79F91"/>
<path d="M122.504 38.4182C120.302 40.9108 118.283 43.5118 115.469 45.5167C114.918 45.896 115.714 46.6004 116.264 46.2211C119.078 44.2704 121.097 41.6152 123.299 39.1226C123.666 38.5808 122.932 37.8764 122.504 38.4182Z" fill="#A79F91"/>
<path d="M116.448 39.0685C115.224 41.3443 113.634 43.5118 111.615 45.2999C111.125 45.7334 111.921 46.4378 112.41 46.0043C114.49 44.162 116.142 41.9404 117.365 39.5561C117.671 38.9601 116.754 38.4724 116.448 39.0685Z" fill="#A79F91"/>
<path d="M110.452 39.0685C108.556 41.2901 106.598 43.5118 104.702 45.7876C104.274 46.2753 105.252 46.763 105.62 46.2753C107.516 44.0536 109.474 41.832 111.37 39.5562C111.86 39.0143 110.881 38.5808 110.452 39.0685Z" fill="#A79F91"/>
<path d="M103.784 39.1227C101.398 40.9108 99.869 43.4034 97.6054 45.2457C97.116 45.6792 97.8502 46.3837 98.4008 45.9502C100.664 44.0536 102.194 41.6152 104.58 39.8271C105.069 39.3936 104.274 38.7434 103.784 39.1227Z" fill="#A79F91"/>
<path d="M3.21029 17.9357C6.20793 16.5269 9.1444 14.9013 11.5915 12.8422C12.0809 12.4087 11.3468 11.7043 10.7962 12.1377C8.41029 14.1426 5.53499 15.7141 2.59853 17.0687C2.04794 17.3938 2.59853 18.2608 3.21029 17.9357Z" fill="#A79F91"/>
<path d="M3.21036 22.7584C6.208 21.0244 8.71624 18.7486 11.9586 17.3397C12.5703 17.0688 12.0198 16.256 11.408 16.5269C8.16566 17.9358 5.65742 20.2116 2.65978 21.9456C2.04801 22.2707 2.5986 23.1377 3.21036 22.7584Z" fill="#A79F91"/>
<path d="M2.35383 28.177C5.35147 26.2263 7.85971 23.6254 11.2856 22.2165C11.8973 21.9456 11.3468 21.1328 10.735 21.4037C7.30912 22.8126 4.80089 25.4135 1.80325 27.3642C1.25266 27.6893 1.74207 28.5563 2.35383 28.177Z" fill="#A79F91"/>
<path d="M2.65973 33.4873C5.65737 31.374 8.71619 29.3149 11.8974 27.4184C12.5091 27.0933 11.9585 26.2263 11.3468 26.6056C8.04325 28.5563 4.98444 30.6696 1.86444 32.8371C1.31386 33.2164 2.10914 33.8666 2.65973 33.4873Z" fill="#A79F91"/>
<path d="M2.35388 38.9601C6.20799 37.1719 9.14446 34.3542 12.5703 32.0784C13.1209 31.6991 12.5703 30.8863 12.0198 31.2656C8.59388 33.5414 5.65741 36.4133 1.8033 38.1473C1.19154 38.4182 1.74212 39.231 2.35388 38.9601Z" fill="#A79F91"/>
<path d="M3.82208 42.3197C7.00325 40.965 9.87855 39.0143 12.6315 37.0094C13.1821 36.6301 12.3868 35.9257 11.8362 36.305C9.14442 38.2015 6.33031 40.1522 3.21031 41.4527C2.65973 41.7778 3.21031 42.5906 3.82208 42.3197Z" fill="#A79F91"/>
<path opacity="0.2" fill-rule="evenodd" clip-rule="evenodd" d="M160.619 47.4723C154.074 47.6349 147.528 47.8516 140.982 47.96C136.638 48.0142 132.356 47.689 128.012 47.7432C120.365 47.7974 112.718 48.0684 105.071 48.2309C100.116 48.3393 95.0996 48.2851 90.1443 48.3393C85.556 48.3935 80.9678 48.556 76.3184 48.6102C70.629 48.6644 64.8784 48.7186 59.189 48.7728C52.2761 48.827 45.3632 48.9895 38.4503 49.0437C34.5962 49.0979 30.742 48.9353 26.8879 48.9895C21.5656 48.9895 16.1821 49.0979 10.8597 49.1521C9.69739 49.1521 8.41268 48.9895 7.3115 49.2063C5.10916 49.6398 3.7021 48.556 2.11152 47.7974C1.56093 47.5265 1.25505 46.7137 1.19387 46.1176C0.949166 42.9748 0.887997 39.7778 0.704468 36.635C0.582116 34.6843 0.27623 32.7877 0.337407 30.837C0.398583 25.5268 0.643299 20.2165 0.826828 14.9062C0.888005 13.7683 1.37741 12.7387 2.60094 12.0885C5.59858 10.5171 7.3115 8.07869 9.45268 5.96542C10.7374 4.66494 12.2668 4.28564 14.1633 4.23145C16.5491 4.17726 18.935 4.12307 21.3209 4.06889C22.9727 4.0147 24.6244 3.79796 26.2762 3.96052C31.7209 4.4482 37.1044 3.79795 42.4879 3.58121C48.3608 3.36446 54.2949 3.25609 60.1679 3.09353C65.8573 2.93097 71.5466 2.76841 77.236 2.66004C78.8878 2.60585 80.5396 2.55167 82.1913 2.55167C90.3278 2.49748 98.4031 2.44329 106.54 2.33492C111.25 2.22655 115.899 1.90143 120.61 1.79306C125.565 1.68468 130.521 1.73887 135.476 1.63049C139.514 1.52212 143.551 1.25119 147.589 1.41375C150.464 1.57631 153.462 1.25119 156.337 1.25119C161.231 1.25119 166.125 1.25119 171.019 1.30538C173.466 1.35956 175.975 1.46794 178.422 1.68468C180.318 1.84724 180.746 2.33492 180.685 3.79796C180.441 9.59591 180.012 15.4481 180.073 21.246C180.073 25.2558 180.808 29.2656 181.113 33.2754C181.236 35.0094 181.358 36.7434 181.175 38.4231C181.113 39.1818 180.318 40.0487 179.584 40.5906C177.749 41.8911 175.73 43.029 173.833 44.2753C173.038 44.763 171.937 45.1423 171.57 45.7925C170.591 47.5265 168.756 47.3639 166.921 47.4181C164.841 47.4723 162.699 47.4181 160.619 47.4181C160.619 47.3639 160.619 47.4181 160.619 47.4723Z" fill="#A79F91"/>
<path fill-rule="evenodd" clip-rule="evenodd" d="M14.0239 38.2015C13.8404 37.8764 13.5957 37.6596 13.4733 37.3887C13.351 37.1178 13.2898 36.8468 13.2898 36.5217C13.4733 26.1179 11.5768 15.7141 13.4733 5.14773C16.5321 4.93099 19.6521 4.60587 22.8333 4.4975C26.0145 4.38912 29.2568 4.60587 32.4992 4.4975C35.925 4.38912 39.2897 4.11819 42.7156 3.95563C48.8944 3.73888 55.0732 3.19702 61.3744 3.52214C65.045 3.6847 68.7155 3.52214 72.3861 3.35958C81.012 3.08865 89.6378 2.65516 98.3249 2.38422C101.628 2.27585 104.932 2.54678 108.297 2.4926C111.355 2.43841 114.353 2.16748 117.412 2.11329C122.673 1.95073 127.934 1.89654 133.195 1.84236C136.315 1.78817 139.374 1.6798 142.494 1.6798C145.431 1.6798 148.367 1.73398 151.304 1.73398C156.993 1.73398 162.682 1.62561 168.372 1.62561C171.736 1.62561 175.101 1.89654 178.649 2.0591C178.649 13.6008 178.099 24.98 179.567 36.5759C178.282 36.5759 177.304 36.5759 176.325 36.5759C166.842 36.7927 157.421 37.0636 147.939 37.2803C142.066 37.3887 136.132 37.3887 130.259 37.4971C122.122 37.6055 114.047 37.8764 105.911 37.9306C98.8143 37.9848 91.7178 37.8222 84.6214 37.8222C80.5837 37.8222 76.5461 38.039 72.4473 38.039C70.612 38.039 68.7767 37.8222 66.9414 37.8764C62.2309 37.9848 57.5203 38.2015 52.8709 38.2557C50.6073 38.2557 48.2827 37.9306 46.0191 37.9306C41.125 37.9848 36.2921 38.2015 31.398 38.3099C29.0733 38.3641 26.8098 38.2557 24.4851 38.2557C21.5486 38.2557 18.6121 38.2557 15.6757 38.2557C15.1251 38.3099 14.5745 38.2557 14.0239 38.2015Z" fill="#FFFEFB"/>
<path fill-rule="evenodd" clip-rule="evenodd" d="M161.29 46.1669C154.744 46.3295 148.198 46.5462 141.652 46.6546C137.309 46.7088 133.027 46.3837 128.683 46.4378C121.036 46.492 113.389 46.763 105.742 46.9255C100.787 47.0339 95.7701 46.9797 90.8148 47.0339C86.2266 47.0881 81.6384 47.2506 76.989 47.3048C71.2996 47.359 65.549 47.4132 59.8596 47.4674C52.9467 47.5216 46.0338 47.6841 39.1208 47.7383C35.2667 47.7925 31.4126 47.63 27.5585 47.6841C22.2362 47.6841 16.8527 47.7925 11.5303 47.8467C10.368 47.8467 9.08327 47.6841 7.9821 47.9009C5.77975 48.3344 4.37269 47.2506 2.78211 46.492C2.23152 46.2211 1.92564 45.4083 1.86447 44.8123C1.61976 41.6694 1.55857 38.4724 1.37504 35.3296C1.25269 33.3789 0.946824 31.4824 1.008 29.5317C1.06918 24.2214 1.31387 18.9111 1.4974 13.6008C1.55858 12.4629 2.04799 11.4334 3.27151 10.7831C6.26915 9.21171 7.9821 6.77332 10.1233 4.66004C11.408 3.35957 12.9374 2.98026 14.8338 2.92607C17.2197 2.87189 19.6056 2.8177 21.9915 2.76351C23.6432 2.70933 25.295 2.49258 26.9468 2.65514C32.3915 3.14282 37.775 2.49258 43.1585 2.27583C49.0314 2.05909 54.9655 1.95071 60.8384 1.78815C66.5278 1.6256 72.2173 1.46304 77.9067 1.35466C79.5584 1.30048 81.2102 1.24629 82.8619 1.24629C90.9984 1.1921 99.0736 1.13792 107.21 1.02954C111.921 0.921172 116.57 0.596053 121.281 0.48768C126.236 0.379306 131.191 0.433493 136.208 0.32512C140.245 0.216747 144.283 -0.0541869 148.321 0.162559C151.196 0.325119 154.194 0 157.069 0C161.963 0 166.857 1.24052e-06 171.751 0.0541878C174.198 0.108374 176.706 0.216746 179.153 0.433492C181.05 0.596051 181.478 1.08373 181.417 2.54677C181.172 8.34472 180.744 14.1969 180.805 19.9948C180.805 24.0046 181.539 28.0144 181.845 32.0242C181.968 33.7582 182.09 35.4922 181.906 37.172C181.845 37.9306 181.05 38.7976 180.316 39.3394C178.481 40.6399 176.462 41.7778 174.565 43.0241C173.77 43.5118 172.669 43.8911 172.302 44.5413C171.323 46.2753 169.488 46.1127 167.652 46.1669C165.572 46.2211 163.431 46.1669 161.351 46.1669C161.29 46.0585 161.29 46.1127 161.29 46.1669ZM14.2833 38.2015C14.8338 38.2557 15.3844 38.3099 15.935 38.3099C18.8715 38.3099 21.8079 38.3099 24.7444 38.3099C27.0691 38.3099 29.3326 38.4182 31.6573 38.3641C36.5514 38.2557 41.3844 38.0389 46.2785 37.9848C48.542 37.9848 50.8667 38.3099 53.1302 38.3099C57.8408 38.2557 62.5514 38.0389 67.2008 37.9306C69.0361 37.8764 70.8714 38.0931 72.7067 38.0931C76.7443 38.0389 80.8431 37.8764 84.8807 37.8764C91.9772 37.8764 99.0736 38.0389 106.17 37.9848C114.307 37.9306 122.382 37.6596 130.518 37.5513C136.391 37.4429 142.325 37.4429 148.198 37.3345C157.681 37.1178 167.102 36.8468 176.584 36.6301C177.563 36.6301 178.542 36.6301 179.826 36.6301C178.358 24.98 178.848 13.6008 178.909 2.11328C175.361 1.95072 171.996 1.73397 168.631 1.67978C162.942 1.6256 157.252 1.73397 151.563 1.78815C148.626 1.78815 145.69 1.73397 142.754 1.73397C139.634 1.73397 136.575 1.84234 133.455 1.89653C128.194 2.0049 122.932 2.05909 117.671 2.16746C114.612 2.22165 111.615 2.54677 108.556 2.54677C105.252 2.60095 101.888 2.33002 98.5842 2.43839C89.9584 2.70933 81.3325 3.08863 72.6455 3.41375C68.9749 3.52212 65.2431 3.73887 61.6337 3.57631C55.3937 3.25119 49.2149 3.79306 42.9749 4.0098C39.5491 4.11818 36.1844 4.4433 32.7585 4.55167C29.5773 4.66004 26.335 4.4433 23.0926 4.55167C19.9115 4.66004 16.7303 4.98516 13.7327 5.20191C11.8362 15.7683 13.7327 26.1721 13.5491 36.5759C13.5491 36.8468 13.6103 37.172 13.7327 37.4429C13.855 37.6596 14.0385 37.8764 14.2833 38.2015ZM176.401 39.231C176.339 39.0685 176.278 38.9059 176.217 38.7434C172.241 38.635 168.203 38.5266 164.226 38.4724C162.391 38.4724 160.556 38.635 158.721 38.6892C149.85 38.8517 141.041 38.9601 132.17 39.1227C127.643 39.1769 123.116 39.2852 118.65 39.3936C113.817 39.502 108.923 39.7187 104.09 39.8271C101.276 39.8813 98.4007 39.7187 95.5866 39.7187C89.0407 39.7729 82.4949 39.9355 75.949 39.9897C69.7702 40.0438 63.6526 39.9897 57.4737 39.9897C55.2714 39.9897 53.0691 40.098 50.8667 40.0438C47.6244 39.9897 44.4432 39.8271 41.2008 39.8271C37.4079 39.8813 33.6761 40.1522 29.8832 40.1522C24.1938 40.1522 18.5044 39.9897 12.9985 39.9355C11.1633 41.9404 9.57267 43.7285 7.79856 45.6792C12.448 45.8418 16.8527 46.0585 21.2574 46.0585C26.702 46.0585 32.1467 45.8418 37.5303 45.7876C46.8291 45.6792 56.1279 45.6792 65.4878 45.5709C72.2784 45.5167 79.1302 45.4083 85.9207 45.2999C91.3043 45.1916 96.7489 44.9748 102.194 45.1374C106.904 45.2999 111.554 44.8664 116.264 44.8664C123.911 44.8664 131.558 44.2704 139.205 44.7039C141.836 44.8664 144.528 44.8123 147.158 44.7039C153.704 44.4871 160.25 44.2162 166.796 43.9453C167.408 43.9453 168.081 43.7827 168.57 43.566C169.671 43.0783 170.711 42.4281 171.751 41.8862C173.219 41.0734 174.81 40.1522 176.401 39.231ZM4.3727 44.4871C4.98446 44.3788 5.22915 44.3788 5.3515 44.3246C9.14444 41.4527 11.9586 38.2557 11.6527 33.8666C11.5303 32.2952 11.4691 30.7238 11.2244 29.1523C10.4903 23.3002 10.4291 17.3939 10.8574 11.5417C10.9186 10.2413 10.735 8.94078 10.6127 7.15262C9.57268 8.4531 8.83856 9.2659 8.16562 10.0787C7.79856 10.458 7.43151 10.8915 7.00327 11.1624C4.80093 12.3545 3.63857 13.9801 3.57739 16.0392C3.45504 17.8274 3.45505 19.6155 3.39387 21.4037C3.3327 25.2509 3.08798 29.1523 3.21033 32.9996C3.27151 36.0882 3.76093 39.1769 4.06682 42.2655C4.06682 42.9699 4.25035 43.6743 4.3727 44.4871Z" fill="#A79F91"/>
</svg>
