
<svg preserveAspectRatio="none" viewBox="0 0 272 44" fill="none" xmlns="http://www.w3.org/2000/svg">
<mask id="path-1-inside-1_27_2" fill="white">
<path fill-rule="evenodd" clip-rule="evenodd" d="M268.394 43.9323C269.237 43.9008 270.174 43.5969 270.615 42.8774V42.8774C270.815 42.5526 270.914 42.2277 270.914 41.8379C270.638 30.3221 273.251 18.8063 271.222 7.13714C270.919 5.39663 269.407 4.16011 267.644 4.05618C263.615 3.81875 259.522 3.54739 255.365 3.44318C250.182 3.31325 244.899 3.57312 239.617 3.44318C234.035 3.31325 228.553 2.98842 222.971 2.79353C212.904 2.53366 202.837 1.88401 192.57 2.2738C186.59 2.4687 180.61 2.2738 174.629 2.0789C160.575 1.75408 146.521 1.23435 132.367 0.909521C126.985 0.77959 121.602 1.10442 116.12 1.03945C111.137 0.974488 106.253 0.649658 101.269 0.584693C92.697 0.389795 84.125 0.32483 75.553 0.259864C70.4696 0.194898 65.4859 0.0649672 60.4025 0.0649672C55.6182 0.0649672 50.8339 0.129932 46.0495 0.129932C36.7798 0.129932 27.5101 0 18.2404 0C13.9932 0 9.74607 0.194966 5.35988 0.373433C3.20498 0.461111 1.49468 2.23051 1.51514 4.38709C1.61908 15.3471 2.04231 26.211 0.690121 37.2063C0.387382 39.668 2.26683 41.9029 4.74709 41.9029C4.92611 41.9029 5.10442 41.9029 5.28274 41.9029C20.7322 42.1628 36.0821 42.4876 51.5316 42.7475C61.1003 42.8774 70.7686 42.8774 80.3374 43.0073C93.594 43.1373 106.751 43.4621 120.008 43.527C131.57 43.592 143.132 43.3971 154.694 43.3971C161.273 43.3971 167.851 43.657 174.529 43.657C177.52 43.657 180.51 43.3971 183.5 43.4621C191.175 43.592 198.85 43.8519 206.425 43.9168C210.113 43.9168 213.901 43.527 217.589 43.527C225.563 43.592 233.437 43.8519 241.411 43.9818C245.198 44.0468 248.886 43.9168 252.674 43.9168C257.458 43.9168 262.243 43.9168 267.027 43.9168C267.483 43.9498 267.938 43.9493 268.394 43.9323Z"/>
</mask>
<path fill-rule="evenodd" clip-rule="evenodd" d="M268.394 43.9323C269.237 43.9008 270.174 43.5969 270.615 42.8774V42.8774C270.815 42.5526 270.914 42.2277 270.914 41.8379C270.638 30.3221 273.251 18.8063 271.222 7.13714C270.919 5.39663 269.407 4.16011 267.644 4.05618C263.615 3.81875 259.522 3.54739 255.365 3.44318C250.182 3.31325 244.899 3.57312 239.617 3.44318C234.035 3.31325 228.553 2.98842 222.971 2.79353C212.904 2.53366 202.837 1.88401 192.57 2.2738C186.59 2.4687 180.61 2.2738 174.629 2.0789C160.575 1.75408 146.521 1.23435 132.367 0.909521C126.985 0.77959 121.602 1.10442 116.12 1.03945C111.137 0.974488 106.253 0.649658 101.269 0.584693C92.697 0.389795 84.125 0.32483 75.553 0.259864C70.4696 0.194898 65.4859 0.0649672 60.4025 0.0649672C55.6182 0.0649672 50.8339 0.129932 46.0495 0.129932C36.7798 0.129932 27.5101 0 18.2404 0C13.9932 0 9.74607 0.194966 5.35988 0.373433C3.20498 0.461111 1.49468 2.23051 1.51514 4.38709C1.61908 15.3471 2.04231 26.211 0.690121 37.2063C0.387382 39.668 2.26683 41.9029 4.74709 41.9029C4.92611 41.9029 5.10442 41.9029 5.28274 41.9029C20.7322 42.1628 36.0821 42.4876 51.5316 42.7475C61.1003 42.8774 70.7686 42.8774 80.3374 43.0073C93.594 43.1373 106.751 43.4621 120.008 43.527C131.57 43.592 143.132 43.3971 154.694 43.3971C161.273 43.3971 167.851 43.657 174.529 43.657C177.52 43.657 180.51 43.3971 183.5 43.4621C191.175 43.592 198.85 43.8519 206.425 43.9168C210.113 43.9168 213.901 43.527 217.589 43.527C225.563 43.592 233.437 43.8519 241.411 43.9818C245.198 44.0468 248.886 43.9168 252.674 43.9168C257.458 43.9168 262.243 43.9168 267.027 43.9168C267.483 43.9498 267.938 43.9493 268.394 43.9323Z" fill="#FFFEFB" stroke="#A7A7A7" stroke-width="2" mask="url(#path-1-inside-1_27_2)"/>
</svg>
