<svg preserveAspectRatio="none" viewBox="0 0 295 49" fill="none" xmlns="http://www.w3.org/2000/svg">
<path d="M137.492 39.1767C136.106 41.6151 131.946 43.4032 129.669 45.5707C129.074 46.1126 130.659 46.6003 131.154 46.0584C133.531 43.7826 137.69 41.9944 139.176 39.4476C139.473 38.8516 137.789 38.5806 137.492 39.1767Z" fill="#A7A7A7"/>
<path d="M29.534 39.4478C26.365 41.7236 23.295 43.9995 20.9182 46.5462C20.4231 47.0881 21.9086 47.5758 22.4037 47.0339C24.7805 44.4871 27.8504 42.2113 31.0195 39.9355C31.7127 39.3936 30.2272 38.9059 29.534 39.4478Z" fill="#A7A7A7"/>
<path d="M22.7156 39.2359C19.5466 41.5117 16.4766 43.7875 14.0999 46.3343C13.6047 46.8762 15.0902 47.3639 15.5854 46.822C17.9621 44.2752 21.0321 41.9994 24.2011 39.7236C24.8943 39.1817 23.4088 38.694 22.7156 39.2359Z" fill="#A7A7A7"/>
<path d="M38.0505 39.2362C35.0796 41.5662 31.9105 43.8962 29.1377 46.3346C28.5435 46.8765 30.029 47.3642 30.6231 46.8223C33.396 44.3839 36.565 42.1081 39.536 39.7239C40.2292 39.182 38.6447 38.6943 38.0505 39.2362Z" fill="#A7A7A7"/>
<path d="M45.351 39.202C42.3801 41.3695 39.6072 43.5911 37.1314 45.9211C36.5373 46.463 38.1218 46.9507 38.6169 46.4088C41.0927 44.0788 43.8656 41.8571 46.8365 39.6897C47.5297 39.202 45.9452 38.7143 45.351 39.202Z" fill="#A7A7A7"/>
<path d="M50.7291 39.1767C48.9466 41.7777 45.8766 43.9451 43.2027 46.3293C42.6085 46.8712 44.193 47.3589 44.6882 46.817C47.362 44.3786 50.432 42.1028 52.3136 39.4476C52.9078 38.8516 51.1252 38.5806 50.7291 39.1767Z" fill="#A7A7A7"/>
<path d="M59.7881 39.2359C57.0153 41.4575 54.0443 43.5708 51.1724 45.7383C50.4792 46.2259 52.0637 46.7136 52.6579 46.2259C55.5298 44.0585 58.5007 41.9452 61.2736 39.7236C61.9668 39.1817 60.3823 38.694 59.7881 39.2359Z" fill="#A7A7A7"/>
<path d="M68.8763 39.1724C65.7073 41.2857 63.4296 43.9408 59.3693 45.6206C58.478 45.9999 59.3693 46.8127 60.2606 46.4334C64.4199 44.6995 66.7966 42.0443 70.0647 39.8227C70.8569 39.335 69.6685 38.6847 68.8763 39.1724Z" fill="#A7A7A7"/>
<path d="M77.0505 39.202C74.0796 41.532 70.9106 43.862 68.1377 46.3004C67.5435 46.8423 69.029 47.33 69.6231 46.7881C72.396 44.3497 75.565 42.0739 78.536 39.6897C79.2292 39.202 77.6447 38.7143 77.0505 39.202Z" fill="#A7A7A7"/>
<path d="M83.4209 39.7187C81.8364 41.9403 79.6578 44.2162 76.3897 45.8418C75.4984 46.2753 76.7858 46.9255 77.6771 46.5462C81.1432 44.8122 83.52 42.3738 85.1045 39.9896C85.5006 39.3936 83.8171 39.1226 83.4209 39.7187Z" fill="#A7A7A7"/>
<path d="M93.8195 39.2308C91.3437 41.2899 88.0757 43.078 86.2931 45.3538C85.798 45.8957 87.3825 46.4376 87.7786 45.8415C89.6602 43.5657 92.8292 41.7775 95.305 39.7184C95.9982 39.1766 94.4137 38.7431 93.8195 39.2308Z" fill="#A7A7A7"/>
<path d="M101.425 39.4481C98.7511 41.6156 95.9783 43.6746 93.2054 45.7879C92.5122 46.2756 94.0967 46.7633 94.6909 46.2756C97.4637 44.1623 100.336 42.1032 102.91 39.9358C103.604 39.3939 102.118 38.9062 101.425 39.4481Z" fill="#A7A7A7"/>
<path d="M110.427 39.4475C107.952 41.5608 105.872 43.8908 102.307 45.5164C101.415 45.8957 102.703 46.6001 103.594 46.2208C107.258 44.541 109.437 42.1568 112.012 39.9894C112.606 39.3933 111.021 38.9056 110.427 39.4475Z" fill="#A7A7A7"/>
<path d="M120.648 38.4178C118.469 41.3439 113.517 43.3488 111.735 46.4374C111.339 47.0335 113.121 47.3044 113.418 46.7084C115.3 43.6739 120.153 41.6148 122.331 38.6888C122.727 38.0927 121.044 37.876 120.648 38.4178Z" fill="#A7A7A7"/>
<path d="M128.57 39.0682C125.896 41.2357 123.123 43.4573 120.152 45.4622C119.459 45.9499 120.647 46.6543 121.44 46.1666C124.609 44.0534 127.382 41.8317 130.154 39.5559C130.749 39.014 129.263 38.5263 128.57 39.0682Z" fill="#A7A7A7"/>
<path d="M233.753 37.6595C229.395 40.423 224.939 43.62 218.799 45.1914C217.809 45.4624 218.7 46.2752 219.69 46.0042C226.028 44.3786 230.584 41.1274 235.04 38.3097C235.733 37.8762 234.446 37.1718 233.753 37.6595Z" fill="#A7A7A7"/>
<path d="M243.385 38.1654C239.028 40.9289 234.572 44.1259 228.432 45.6973C227.441 45.9682 228.333 46.781 229.323 46.5101C235.661 44.8845 240.216 41.6333 244.673 38.8156C245.366 38.3821 244.079 37.6777 243.385 38.1654Z" fill="#A7A7A7"/>
<path d="M253.385 38.1654C249.028 40.9289 244.572 44.1259 238.432 45.6973C237.441 45.9682 238.333 46.781 239.323 46.5101C245.661 44.8845 250.216 41.6333 254.673 38.8156C255.366 38.3821 254.079 37.6777 253.385 38.1654Z" fill="#A7A7A7"/>
<path d="M264.385 37.1654C260.028 39.9289 255.572 43.1259 249.432 44.6973C248.441 44.9682 249.333 45.781 250.323 45.5101C256.661 43.8845 261.216 40.6333 265.673 37.8156C266.366 37.3821 265.079 36.6777 264.385 37.1654Z" fill="#A7A7A7"/>
<path d="M277.385 37.1654C273.028 39.9289 268.572 43.1259 262.432 44.6973C261.441 44.9682 262.333 45.781 263.323 45.5101C269.661 43.8845 274.216 40.6333 278.673 37.8156C279.366 37.3821 278.079 36.6777 277.385 37.1654Z" fill="#A7A7A7"/>
<path d="M222.968 38.2013C218.71 40.5313 214.847 42.9697 210.589 45.2997C209.797 45.7332 210.985 46.4377 211.877 46.0042C216.135 43.6741 219.997 41.2358 224.255 38.9057C225.048 38.4722 223.76 37.7678 222.968 38.2013Z" fill="#A7A7A7"/>
<path d="M211.876 37.9305C209.103 40.4773 205.241 42.5906 202.567 45.1915C201.973 45.7334 203.557 46.2211 204.052 45.6792C206.726 43.0782 210.589 40.965 213.361 38.4182C213.956 37.8763 212.47 37.3887 211.876 37.9305Z" fill="#A7A7A7"/>
<path d="M202.676 38.4185C198.814 40.586 196.239 43.3495 191.981 45.3002C191.089 45.7337 192.377 46.3839 193.268 46.0046C197.526 43.9997 200.101 41.2904 203.963 39.123C204.756 38.6353 203.468 37.9308 202.676 38.4185Z" fill="#A7A7A7"/>
<path d="M193.368 38.4184C190 40.8026 186.633 43.1868 182.672 45.3001C181.88 45.7336 183.167 46.438 183.96 46.0045C187.822 43.8912 191.288 41.507 194.655 39.1228C195.348 38.581 194.061 37.8765 193.368 38.4184Z" fill="#A7A7A7"/>
<path d="M183.177 38.6891C180.998 41.4526 176.839 43.4575 172.481 45.1915C171.59 45.5708 172.482 46.3836 173.373 46.0043C177.928 44.1619 182.385 42.0487 184.662 39.1226C185.158 38.5807 183.672 38.093 183.177 38.6891Z" fill="#A7A7A7"/>
<path d="M175.689 38.4184C172.124 40.911 168.856 43.5119 164.301 45.5168C163.41 45.8961 164.697 46.6006 165.588 46.2213C170.144 44.2706 173.412 41.6154 176.977 39.1228C177.571 38.581 176.383 37.8765 175.689 38.4184Z" fill="#A7A7A7"/>
<path d="M164.884 39.0681C162.904 41.344 160.329 43.5114 157.061 45.2996C156.269 45.7331 157.556 46.4375 158.348 46.004C161.715 44.1617 164.389 41.94 166.37 39.5558C166.865 38.9598 165.379 38.4721 164.884 39.0681Z" fill="#A7A7A7"/>
<path d="M157.18 39.0687C154.11 41.2903 150.941 43.512 147.871 45.7878C147.178 46.2755 148.763 46.7631 149.357 46.2755C152.427 44.0538 155.596 41.8322 158.666 39.5563C159.458 39.0145 157.874 38.581 157.18 39.0687Z" fill="#A7A7A7"/>
<path d="M147.385 39.1231C143.523 40.9112 141.047 43.4038 137.383 45.2462C136.591 45.6797 137.779 46.3841 138.671 45.9506C142.335 44.0541 144.81 41.6157 148.673 39.8275C149.465 39.394 148.178 38.7438 147.385 39.1231Z" fill="#A7A7A7"/>
<path d="M4.1222 16.693C8.74854 14.661 13.2483 12.4271 16.9059 9.86721C17.6346 9.33373 16.3643 8.79094 15.5374 9.33738C11.9709 11.8306 7.56217 13.9978 3.02691 15.9631C2.18586 16.4021 3.18297 17.145 4.1222 16.693Z" fill="#A7A7A7"/>
<path d="M4.32271 20.2857C9.17525 18.5517 13.2355 16.2759 18.4842 14.8671C19.4745 14.5961 18.5832 13.7833 17.5929 14.0543C12.3443 15.4631 8.28397 17.7389 3.43144 19.4729C2.44112 19.798 3.3324 20.665 4.32271 20.2857Z" fill="#A7A7A7"/>
<path d="M4.27898 24.8274C9.13152 22.8767 13.1918 20.2757 18.7376 18.8669C19.7279 18.596 18.8366 17.7832 17.8463 18.0541C12.3005 19.4629 8.24024 22.0639 3.38771 24.0146C2.49642 24.3397 3.28867 25.2067 4.27898 24.8274Z" fill="#A7A7A7"/>
<path d="M4.58813 28.9756C9.44066 26.8623 14.3922 24.8032 19.5419 22.9067C20.5322 22.5816 19.6409 21.7146 18.6506 22.0939C13.3029 24.0446 8.35133 26.1579 3.30073 28.3253C2.40945 28.7046 3.69685 29.3549 4.58813 28.9756Z" fill="#A7A7A7"/>
<path d="M4.32297 33.7931C10.5619 32.005 15.3155 29.1873 20.8612 26.9114C21.7525 26.5321 20.8612 25.7193 19.9699 26.0986C14.4242 28.3745 9.67066 31.2463 3.43169 32.9803C2.44138 33.2512 3.33266 34.064 4.32297 33.7931Z" fill="#A7A7A7"/>
<path d="M4.32297 38.7931C10.5619 37.005 15.3155 34.1873 20.8612 31.9114C21.7525 31.5321 20.8612 30.7193 19.9699 31.0986C14.4242 33.3745 9.67066 36.2463 3.43169 37.9803C2.44138 38.2512 3.33266 39.064 4.32297 38.7931Z" fill="#A7A7A7"/>
<path d="M5.32297 43.7931C11.5619 42.005 16.3155 39.1873 21.8612 36.9114C22.7525 36.5321 21.8612 35.7193 20.9699 36.0986C15.4242 38.3745 10.6707 41.2463 4.43169 42.9803C3.44138 43.2512 4.33266 44.064 5.32297 43.7931Z" fill="#A7A7A7"/>
<path opacity="0.2" fill-rule="evenodd" clip-rule="evenodd" d="M254.207 47.2453C243.842 47.4009 233.476 47.6084 223.11 47.7121C216.232 47.764 209.451 47.4528 202.573 47.5046C190.463 47.5565 178.354 47.8159 166.244 47.9715C158.397 48.0752 150.454 48.0233 142.607 48.0752C135.341 48.1271 128.075 48.2827 120.713 48.3346C111.703 48.3864 102.597 48.4383 93.5878 48.4902C82.6408 48.542 71.6939 48.6977 60.747 48.7495C54.6438 48.8014 48.5406 48.6458 42.4375 48.6976C34.0093 48.6976 25.4843 48.8014 17.0561 48.8533C15.2155 48.8533 13.1811 48.6976 11.4373 48.9051C7.94981 49.3201 5.72167 48.2827 3.20291 47.5565C2.33103 47.2971 1.84665 46.5191 1.74978 45.9485C1.36228 42.9401 1.26541 39.8797 0.974786 36.8712C0.781035 35.0039 0.296652 33.1885 0.393527 31.3211C0.490403 26.2378 0.877923 21.1546 1.16855 16.0713C1.26542 14.982 2.04042 13.9965 3.97793 13.374C8.72483 11.8698 11.4373 9.53564 14.828 7.51271C16.8624 6.26782 19.2843 5.90473 22.2874 5.85286C26.0655 5.80099 29.8437 5.74912 33.6218 5.69725C36.2375 5.64538 38.8531 5.4379 41.4687 5.59351C50.0906 6.06034 58.6157 5.4379 67.1407 5.23042C76.4408 5.02294 85.8377 4.9192 95.1378 4.76359C104.147 4.60798 113.157 4.45236 122.166 4.34862C124.782 4.29675 127.397 4.24489 130.013 4.24489C142.897 4.19302 155.685 4.14114 168.569 4.0374C176.029 3.93366 183.391 3.62244 190.851 3.5187C198.698 3.41496 206.545 3.46683 214.391 3.36309C220.785 3.25935 227.179 3 233.573 3.15561C238.126 3.31122 242.873 3 247.426 3C255.176 3 262.926 3 270.676 3.05187C274.551 3.10374 278.523 3.20748 282.398 3.41496C285.401 3.57057 286.079 4.0374 285.982 5.4379C285.595 10.988 284.917 16.59 285.014 22.1401C285.014 25.9785 286.176 29.8169 286.661 33.6553C286.854 35.3151 287.048 36.975 286.758 38.583C286.661 39.3091 285.401 40.1391 284.239 40.6578C281.332 41.9026 278.136 42.9919 275.132 44.1849C273.873 44.6518 272.129 45.0149 271.548 45.6373C269.998 47.2971 267.092 47.1415 264.185 47.1934C260.892 47.2453 257.501 47.1934 254.207 47.1934C254.207 47.1415 254.207 47.1934 254.207 47.2453Z" fill="#A7A7A7"/>
<path fill-rule="evenodd" clip-rule="evenodd" d="M15.5999 41.9198C15.294 41.5617 12.2039 42.7984 12 42.5C11.7961 42.2016 10.0008 42.858 10.0008 42.5C10.3066 31.043 8.00083 9 15.5006 6.5C20.0237 5.48964 24.7515 4.28195 30.0534 4.16261C35.3553 4.04327 40.7592 4.28195 46.1631 4.16261C51.8728 4.04327 57.5 4.5 63.5 4C73.7979 3.76131 85.5 4 94 4C100.118 4.17902 107.382 3.67902 113.5 3.5C127.876 3.20164 142.022 2.79836 156.5 2.5C162.006 2.38066 166.892 2.55967 172.5 2.5C177.598 2.44033 182.902 2.01442 188 1.95475C196.769 1.77574 205.22 1.29836 213.989 1.23869C219.189 1.17902 224.287 1.05967 229.487 1.05967C234.381 1.05967 239.275 1.11934 244.169 1.11934C253.651 1.11934 263.134 1 272.616 1C278.224 1 280.574 1.83135 286.488 2.01036C287.995 6.05182 287.995 27.2695 289.001 38.8887C286.859 38.8887 287.502 39.4884 285.871 39.4884C270.067 39.7271 254.365 40.0254 238.561 40.2641C228.773 40.3835 218.883 40.3835 209.095 40.5028C195.534 40.6221 182.075 40.9205 168.515 40.9802C156.687 41.0398 144.86 40.8608 133.033 40.8608C126.303 40.8608 119.574 41.0995 112.743 41.0995C109.684 41.0995 106.625 40.8608 103.566 40.9205C95.7156 41.0398 87.8646 41.2785 80.1157 41.3382C76.3432 41.3382 72.4687 40.9802 68.6962 40.9802C60.5394 41.0398 52.4846 41.2785 44.3278 41.3979C40.4533 41.4576 36.6808 41.3382 32.8064 41.3382C27.9123 41.3382 22.8941 41.5 18 41.5C17.0824 41.5597 16.5176 41.9794 15.5999 41.9198Z" fill="#FCF9F2"/>
<path fill-rule="evenodd" clip-rule="evenodd" d="M261.475 46.167C250.879 46.3296 240.283 46.5463 229.686 46.6547C222.655 46.7089 215.723 46.3838 208.692 46.438C196.313 46.4922 183.934 46.7631 171.555 46.9257C163.533 47.034 155.413 46.9798 147.391 47.034C139.964 47.0882 132.537 47.2508 125.01 47.305C115.8 47.3591 106.491 47.4133 97.2814 47.4675C86.0909 47.5217 74.9003 47.6843 63.7098 47.7384C57.4708 47.7926 51.2319 47.6301 44.9929 47.6843C36.3772 47.6843 27.6624 47.7926 19.0467 47.8468C17.1651 47.8468 15.0854 47.6843 13.3029 47.901C11.0005 47.901 7.46003 47.2508 4.88522 46.4922C3.99393 46.2212 3.49878 45.4084 3.39975 44.8124C3.00362 41.6696 2.90457 38.4726 2.60748 35.3297C2.40942 33.379 2.50854 28.4507 2.60758 26.5C2.70661 21.1897 2.50846 18.9112 2.80555 13.6009C2.90458 12.463 3.69683 11.4335 5.67745 10.7832C10.53 9.21184 12.5344 7.61327 16.0005 5.5C19.5005 4.5 24.9305 4.05419 28.0005 4C31.8627 3.94581 35.1383 4.05419 39.0005 4C41.6743 3.94581 47.8266 3.83744 50.5005 4C59.3143 4.48768 62.7857 3.71675 71.5005 3.5C81.0075 3.28325 89.9935 3.66256 99.5005 3.5C108.71 3.33744 117.437 2.60851 126.647 2.50014C129.321 2.44595 137.327 2.50014 140 2.50014C153.172 2.44595 161.23 2.10851 174.401 2.00014C182.026 1.89177 190.248 1.60851 197.873 1.50014C205.895 1.39177 213.225 1.10851 221.346 1.00014C227.882 0.891765 234.235 0.783392 240.771 1.00014C245.426 1.1627 250.686 1.00014 255.34 1.00014C263.263 1.00014 270.081 0.945952 278.003 1.00014C281.964 1.05432 282.136 0.783376 286.097 1.00012C287.715 1.08866 288.359 1.79756 288.5 3.5C289 9.5 288.901 8.20204 289 14C289 18.0098 289.5 25 289.5 30C289.699 31.734 290.298 35.3202 290 37C289.901 37.7586 290.189 39.4581 289 40C286.03 41.3005 286.035 41.7779 282.965 43.0242C281.678 43.5119 279.5 44.4906 279.301 44.5414C277.5 45 274.746 46.1129 271.775 46.167C268.408 46.2212 264.941 46.167 261.574 46.167C261.475 46.0587 261.475 46.1129 261.475 46.167ZM23.854 40.5001C24.7452 40.5543 29.4378 40.5001 30.3291 40.5001C35.0826 40.5001 37.7165 40.5001 42.47 40.5001C46.2332 40.5001 49.2289 40.5543 52.9921 40.5001C60.9146 40.3918 66.9232 40.0543 74.8457 40.0001C78.5098 40.0001 88.9881 40.0001 92.6523 40.0001C100.278 39.9459 102.123 39.6085 109.65 39.5001C112.62 39.4459 116.391 39.7188 119.362 39.7188C125.898 39.6647 131.442 39.5001 137.978 39.5001C149.466 39.5001 161.294 40.0543 172.782 40.0001C185.953 39.9459 199.271 39.6085 212.442 39.5001C221.949 39.3918 230.455 39.6085 239.962 39.5001C255.312 39.2834 269.938 38.7169 285.288 38.5001C286.872 38.5001 289 38 288.525 35.5001C288.525 33.5001 288.334 5 287 3C286 1.5 279.403 2.55432 273.956 2.50014C264.746 2.44595 254.837 2.49271 245.627 2.5469C240.874 2.5469 235.812 2.5469 231.058 2.5469C226.008 2.5469 220.731 2.49271 215.68 2.5469C207.163 2.65527 199.105 2.89177 190.589 3.00014C185.637 3.05432 180.162 3.50014 175.21 3.50014C169.863 3.55432 163.929 3.30551 158.582 3.41388C144.618 3.68481 131.806 3.67502 117.743 4.00014C111.802 4.10851 102.542 4.71436 96.6993 4.5518C86.5981 4.22668 80.3471 4.33505 70.2459 4.5518C64.7001 4.66017 58.5378 4.89177 52.9921 5.00014C47.8424 5.10851 40.4341 4.89177 35.1854 5.00014C30.0358 5.10851 11 6 12 11.5C11.5 17 9.5 29 10.5 38C10.5 38.2709 10.5004 41.5 11 42C11.8738 42.8744 22.2352 40.5001 23.854 40.5001ZM282.965 40.2919C276.528 40.1835 273.918 41.0543 267.481 41.0001C264.51 41.0001 260.739 40.9459 257.768 41.0001C243.409 41.1627 229.23 40.8376 214.871 41.0001C207.542 41.0543 201.056 40.8918 193.826 41.0001C186.003 41.1085 180.072 41.3918 172.248 41.5001C167.693 41.5543 160.34 41.5001 155.785 41.5001C145.189 41.5543 134.815 41.4459 124.219 41.5001C114.216 41.5543 106.701 42.0001 96.6993 42.0001C93.1341 42.0001 86.5047 42.0543 82.9396 42.0001C77.6909 41.9459 73.6192 42.0001 68.3705 42.0001C62.2306 42.0543 55.0851 42.2656 48.9451 42.2656C39.7352 42.2656 23.5005 41 17.0005 42.5C15.013 42.9586 13.3723 43.5493 10.5004 45.5C9.04451 47 27.6624 46.0587 34.7926 46.0587C43.6064 46.0587 52.4202 45.8419 61.135 45.7877C76.1877 45.6794 91.2405 45.6794 106.392 45.571C117.385 45.5168 128.476 45.4084 139.469 45.3001C148.183 45.1917 156.997 44.9749 165.811 45.1375C173.436 45.3001 180.963 44.8666 188.588 44.8666C200.967 44.8666 213.346 44.2705 225.725 44.704C229.983 44.8666 234.341 44.8124 238.599 44.704C249.195 44.4873 259.792 44.2163 270.388 43.9454C271.378 43.9454 272.468 43.7828 273.26 43.5661C275.043 43.0784 276.726 42.4282 278.41 41.8863C280.786 41.0735 280.39 41.2131 282.965 40.2919ZM6.50046 45C7.49078 44.8916 8.5 44.3247 9.04451 44.3247C9.5 43.5 9.04451 42.4999 9.04451 37.5C9.04451 35.9999 9.44064 33.0714 9.04451 31.5C9.04451 22.5 9.80714 20.3521 10.5004 14.5C10.5994 13.1995 10.9449 9.31524 9.04451 10.7832C10.1339 9.97045 7.36098 12.0837 9.04451 10.7832C8.45033 11.1626 7.19368 11.7291 6.50046 12C4.88522 12.6313 5.09939 12.9409 5.00036 15C4.8023 16.7882 4.59939 19.7118 4.50036 21.5C4.40133 25.3472 4.3023 29.6528 4.50036 33.5C4.59939 36.5886 4.50521 39.4114 5.00036 42.5C5.00036 43.2044 5.50046 44.8124 6.50046 45Z" fill="#A7A7A7"/>
</svg>
