<svg preserveAspectRatio="none" viewBox="0 0 40 40" fill="none" xmlns="http://www.w3.org/2000/svg">
<path d="M10.179 31.2456C10.3568 31.4259 10.579 31.5611 10.8456 31.6513C11.5566 31.8767 12.2232 31.6513 12.1343 30.8399C12.1343 30.6596 11.9565 30.5244 11.7788 30.6596C11.3788 30.93 11.0678 30.7948 10.8456 30.4793C12.1787 30.5244 13.4674 30.4342 14.8006 30.5244C14.7561 30.5694 14.8006 30.6596 14.845 30.6596C15.6005 30.7047 16.3559 30.7497 17.1114 30.7948C18.2668 30.9301 19.2888 31.0202 20.5331 30.7948C20.5776 30.7948 20.622 30.7497 20.6664 30.7047C20.9775 30.6596 21.2886 30.6596 21.5552 30.6145C22.6662 30.4793 24.6214 30.299 25.7768 29.6228C25.8213 29.6228 25.9101 29.6228 25.9546 29.6228C27.0211 29.5778 28.3542 29.8482 29.3319 29.2172C29.9985 28.7664 30.0873 28.3156 30.2206 27.5493C30.4873 26.152 30.7983 24.8898 30.7983 23.4474C30.7983 21.5992 30.7095 19.7511 30.665 17.903C31.3316 17.2269 32.0426 16.5507 32.6203 15.8295C34.0868 14.0264 35.9976 12.584 37.5974 10.9613C38.4862 10.0597 39.9082 9.20328 39.9971 7.80591C40.0415 7.31007 39.5082 6.81423 38.975 6.90439C38.975 6.45362 38.6195 5.95778 38.1306 6.00286C36.5753 6.09301 35.5088 7.71576 34.3978 8.66236C33.0203 9.87942 31.776 11.2768 30.4873 12.6291C30.4873 12.4938 30.4873 12.4037 30.4873 12.2685C30.4873 10.24 31.0205 8.5722 28.6653 8.34682C25.8213 8.07636 22.9328 7.53544 20.0887 7.40022C18.5778 7.31006 16.8447 7.58052 15.3338 7.67068C14.0451 7.76083 12.312 8.07637 11.1567 8.61728C10.4456 8.93281 10.1346 9.29342 9.95682 10.1048C9.8235 10.7809 10.0013 11.4571 10.0013 12.1332C10.0013 12.4938 10.0013 12.8094 9.95682 13.17C9.91238 12.1783 9.91237 11.1416 9.86793 10.1499C9.86793 9.69911 9.15693 9.69911 9.15693 10.1499C8.8903 16.0098 8.66811 22.1402 9.33468 27.955C9.42356 28.8565 9.42356 30.2088 9.95682 31.0202L10.179 31.2456ZM20.3109 29.8933C19.7332 29.9384 19.2 29.9834 18.6223 30.0285C18.4445 29.9834 18.2223 29.9834 18.0446 29.9384C18.8 29.8933 19.511 29.8933 20.2221 29.8933C20.3109 29.8933 20.3998 29.8933 20.4442 29.8933C20.4442 29.8933 20.3998 29.8933 20.3109 29.8933ZM11.1567 15.7393C11.4677 14.7927 11.8232 13.8011 11.9121 12.7643C11.9565 12.3135 11.7343 11.412 11.8677 10.9613C12.1343 10.24 12.0454 10.7359 12.712 10.3753C14.0007 9.69911 15.4227 9.69912 16.8447 9.60896C18.0001 9.56389 19.2 9.29343 20.3998 9.38358C22.5773 9.51881 24.7992 9.74419 26.9766 10.0146C27.3322 10.0597 28.2654 10.0146 28.532 10.1499C28.6653 10.24 28.7097 10.24 28.7542 10.24C28.7542 10.24 28.7542 10.2851 28.7986 10.3302C29.1986 11.0514 28.7542 13.3052 28.7986 14.1617C28.7986 14.2067 28.7986 14.2518 28.7986 14.2969C26.5323 16.4155 24.3548 18.5791 22.3995 20.9682C22.2662 20.833 22.0885 20.6977 21.9996 20.5625C21.2441 19.706 20.5776 18.8045 19.7332 18.0833C19.2 17.6325 18.4445 17.0466 17.6891 16.5958C17.0669 15.7844 16.2671 14.973 15.3783 15.3336C15.1561 15.1533 14.7561 15.2435 14.7561 15.6041C14.8895 17.4522 16.4004 19.3004 17.4224 20.7879C18.6667 22.5909 19.7777 24.4841 21.3775 26.0618C21.6441 26.3323 22.1329 26.4224 22.444 26.197C24.3104 24.8447 25.7324 22.9065 27.2877 21.2386C27.8654 20.6076 28.4431 20.0667 29.0208 19.4807C29.0652 20.4723 29.0653 21.464 29.0653 22.4557C29.0653 23.808 28.9319 24.8898 28.6653 26.197C28.3987 27.4592 28.6209 27.955 27.0211 28.0452C24.3548 28.1804 21.6885 28.3156 18.9778 28.3156C16.667 28.3156 14.0451 28.7213 11.6899 28.4058C11.4233 25.3406 10.9345 22.3205 10.9789 19.2102C11.0233 17.9932 11.1122 16.8662 11.1567 15.7393ZM10.179 28.4058C10.0457 27.4141 9.95682 26.197 9.95682 25.0701C10.0457 26.152 10.1346 27.2789 10.179 28.4058ZM10.4012 29.4876C10.4901 29.6228 10.6234 29.713 10.8011 29.7581C10.9789 29.8031 11.1122 29.8031 11.29 29.8482C11.1566 29.8933 10.9789 29.8933 10.8456 29.9384C10.8456 29.8031 10.6678 29.7581 10.5789 29.8933C10.5789 29.8933 10.5789 29.9384 10.5345 29.9384C10.4901 29.8031 10.4456 29.6679 10.4012 29.4876Z" fill="#666562"/>
</svg>
