<svg preserveAspectRatio="none" viewBox="0 0 40 40" fill="none" xmlns="http://www.w3.org/2000/svg">
<path d="M10.1792 31.2455C10.3569 31.4258 10.5791 31.561 10.8457 31.6512C11.5567 31.8765 12.2233 31.6511 12.1344 30.8398C12.1344 30.6595 11.9567 30.5242 11.7789 30.6595C11.379 30.9299 11.0679 30.7947 10.8457 30.4792C12.1789 30.5242 13.4676 30.4341 14.8007 30.5242C14.7563 30.5693 14.8007 30.6595 14.8452 30.6595C15.6006 30.7045 16.3561 30.7496 17.1115 30.7947C18.2669 30.9299 19.289 31.0201 20.5333 30.7947C20.5777 30.7947 20.6221 30.7496 20.6666 30.7045C20.9777 30.6595 21.2887 30.6595 21.5554 30.6144C22.6663 30.4792 24.6216 30.2989 25.777 29.6227C25.8214 29.6227 25.9103 29.6227 25.9547 29.6227C27.0213 29.5776 28.3544 29.8481 29.3321 29.217C29.9986 28.7663 30.0875 28.3155 30.2208 27.5492C30.4874 26.1518 30.7985 24.8897 30.7985 23.4473C30.7985 21.5991 30.7096 19.751 30.6652 17.9029C30.7096 17.4071 30.4875 12.628 30.4875 12.628C30.4875 12.4928 30.4875 12.4036 30.4875 12.2684C30.4875 10.2399 31.0207 8.57209 28.6655 8.34671C25.8214 8.07625 22.9329 7.53533 20.0889 7.4001C18.578 7.30995 16.8449 7.58041 15.334 7.67056C14.0453 7.76072 12.3122 8.07625 11.1568 8.61717C10.4458 8.9327 10.1347 9.29331 9.95697 10.1047C9.82365 10.7808 10.0014 11.457 10.0014 12.1331C10.0014 12.4937 10.0014 12.8093 9.95697 13.1699C9.91253 12.1782 9.91253 11.1414 9.86809 10.1498C9.86809 9.699 9.15709 9.699 9.15709 10.1498C8.89046 16.0097 8.66826 22.1401 9.33484 27.9549C9.42371 28.8564 9.42371 30.2087 9.95697 31.0201L10.1792 31.2455ZM20.3111 29.8932C19.7334 29.9383 19.2001 29.9833 18.6224 30.0284C18.4447 29.9833 18.2225 29.9833 18.0447 29.9382C18.8002 29.8932 19.5112 29.8932 20.2222 29.8932C20.3111 29.8932 20.4 29.8932 20.4444 29.8932C20.4444 29.8932 20.4 29.8932 20.3111 29.8932ZM11.1568 15.7392C11.4679 14.7926 11.8234 13.8009 11.9122 12.7642C11.9567 12.3134 11.7345 11.4119 11.8678 10.9611C12.1344 10.2399 12.0456 10.7358 12.7121 10.3751C14.0009 9.699 15.4229 9.699 16.8449 9.60885C18.0003 9.56378 19.2001 9.29332 20.4 9.38347C22.5774 9.5187 24.7993 9.74408 26.9768 10.0145C27.3323 10.0596 28.2655 10.0145 28.5322 10.1498C28.6655 10.2399 28.7099 10.2399 28.7543 10.2399C28.7543 10.2399 28.7544 10.285 28.7988 10.3301C29.1987 11.0513 28.7988 14.1615 28.7988 14.1615C28.7988 14.2066 28.7988 14.2517 28.7988 14.2968L29.021 19.4806C29.0654 20.4722 29.0654 21.4639 29.0654 22.4556C29.0654 23.8079 28.9321 24.8897 28.6655 26.1969C28.3989 27.4591 28.621 27.9549 27.0213 28.045C24.355 28.1803 21.6887 28.3155 18.9779 28.3155C16.6671 28.3155 14.0453 28.7212 11.6901 28.4057C11.4234 25.3405 10.9346 22.3204 10.979 19.2101C11.0235 17.993 11.1124 16.8661 11.1568 15.7392ZM10.1792 28.4057C10.0458 27.414 9.95697 26.1969 9.95697 25.07C10.0458 26.1518 10.1347 27.2787 10.1792 28.4057ZM10.4014 29.4875C10.4902 29.6227 10.6235 29.7129 10.8013 29.7579C10.979 29.803 11.1124 29.803 11.2901 29.8481C11.1568 29.8932 10.979 29.8932 10.8457 29.9382C10.8457 29.803 10.668 29.758 10.5791 29.8932C10.5791 29.8932 10.5791 29.9382 10.5347 29.9382C10.4902 29.803 10.4458 29.6678 10.4014 29.4875Z" fill="#666562"/>
</svg>
