<svg preserveAspectRatio="none" viewBox="0 0 57 56" fill="none" xmlns="http://www.w3.org/2000/svg">
<path d="M56.4496 28.7082L56.3049 27.7854L56.2325 27.3753L56.1602 26.9652C56.0154 26.35 55.943 25.8374 55.7983 25.2222L55.7259 24.812L55.5811 24.402L55.2917 23.5817C55.0022 22.4539 54.4955 21.5312 54.1336 20.5059C53.9165 19.9932 53.627 19.5831 53.4099 19.0704L53.048 18.3527C52.9033 18.1477 52.7585 17.9426 52.6138 17.7376C52.3243 17.3274 52.0348 16.9173 51.7453 16.5072C51.4558 16.0971 51.1663 15.7895 50.8044 15.3794L50.3702 14.8668L49.8635 14.3541C49.574 14.0465 49.2122 13.7389 48.9227 13.4313C48.5608 13.1237 48.2713 12.9187 47.9094 12.6111L47.4028 12.201C47.258 12.0984 47.0409 11.9959 46.8962 11.8934C44.1459 9.94533 41.2509 8.8175 38.4283 8.20233C35.6057 7.58715 32.8555 7.38211 30.25 7.48464C24.9666 7.6897 20.2622 9.02257 16.2093 10.9706C15.9921 11.0732 15.7026 11.1757 15.4855 11.3807L15.1236 11.5858L14.9065 11.6883C14.8341 11.6883 14.8341 11.6884 14.7618 11.7909C14.6894 11.7909 14.617 11.8934 14.5446 11.8934C14.3999 11.9959 14.2551 12.0985 14.1104 12.0985C13.8932 12.201 13.6761 12.3035 13.5314 12.406C13.3866 12.5086 13.3143 12.5085 13.3143 12.5085C13.3143 12.5085 13.0248 12.7136 12.5181 13.1238C12.301 13.3288 12.0115 13.5338 11.722 13.7389C11.4325 13.944 11.143 14.2515 10.8535 14.5591C10.564 14.7642 10.2745 15.0718 9.98502 15.3794C9.69552 15.687 9.47839 15.892 9.26127 16.0971C8.82702 16.5072 8.60988 16.8148 8.68226 16.8148C8.46513 17.1224 8.24802 17.3274 8.10327 17.635C7.95852 17.9426 7.74139 18.1477 7.66902 18.3527C7.37952 18.8654 7.23476 19.173 7.23476 19.378C7.23476 19.5831 7.37952 19.5831 7.66902 19.378C8.03089 19.173 8.46515 18.7628 9.26127 18.1476C9.47839 17.9426 9.76789 17.7375 9.98502 17.635C10.2745 17.4299 10.4916 17.3274 10.7811 17.1224C11.2878 16.7122 11.8668 16.5072 12.301 16.1996C12.7352 15.892 13.1695 15.6869 13.459 15.5844C13.7485 15.3794 13.8933 15.3794 13.8933 15.3794C13.8933 15.3794 14.1828 15.1743 14.617 14.9693C14.8341 14.8667 15.1236 14.6617 15.4855 14.4566C15.5579 14.4566 15.6302 14.3541 15.7026 14.3541C16.2092 14.1491 16.7159 13.8415 17.2225 13.6364C18.2357 13.1238 19.3214 12.7136 20.4794 12.3035C22.723 11.5858 25.1837 10.9706 27.7168 10.663C30.25 10.3554 32.9278 10.3554 35.6781 10.7656C38.4283 11.1757 41.1786 11.8934 43.8564 13.3288C44.2183 13.5339 44.5078 13.7389 44.8697 13.8415C45.1592 14.0465 45.5211 14.2516 45.8829 14.4566L46.3895 14.7642C46.5343 14.8667 46.6791 14.9693 46.8962 15.1743C47.1857 15.4819 47.5475 15.687 47.837 15.9946C48.1265 16.3021 48.416 16.6098 48.7055 16.9173L49.1398 17.3274C49.2845 17.5325 49.4293 17.635 49.574 17.8401C49.8635 18.1477 50.1531 18.5578 50.3702 18.8654C50.5873 19.2755 50.8768 19.5831 51.0939 19.9932C52.0348 21.5312 52.9033 23.2741 53.4823 25.2222L53.6994 25.9399C53.7718 26.145 53.8442 26.4526 53.8442 26.6576C53.9889 27.1703 54.0613 27.6829 54.206 28.1956C54.2784 28.7082 54.3508 29.2209 54.4231 29.7335C54.4955 30.2462 54.5679 30.7588 54.5679 31.3739C54.7127 33.5271 54.6403 35.6802 54.2784 37.8333C53.9165 39.8839 53.1204 41.8319 52.1795 43.4724C51.1663 45.1129 49.9359 46.5483 48.5608 47.6761C47.1857 48.8039 45.6658 49.7267 44.0736 50.4444C40.8891 51.8798 37.5598 52.5975 34.1582 52.9051C30.7566 53.2127 27.2826 53.0076 23.9534 52.2899C20.5517 51.6748 17.2225 50.5469 14.1104 48.7014C13.3142 48.1888 12.5905 47.6761 11.8668 47.1635C11.2154 46.6508 10.4916 45.8306 9.84026 45.1129C8.53751 43.6775 7.30714 42.037 6.22152 40.1914C5.1359 38.4484 4.2674 36.5004 3.61602 34.4498C2.96465 32.3992 2.67516 30.1436 2.67516 27.9905C2.67516 23.5817 4.05029 19.378 6.07678 15.9946C8.10328 12.6111 10.6364 9.94534 13.3143 7.89475C15.9921 5.84417 18.8871 4.40874 21.7821 3.58851C24.6771 2.76828 27.4997 2.4607 30.25 2.76829C31.6251 2.97335 32.9278 3.28093 34.2306 3.69105C34.5201 3.79357 34.8819 3.8961 35.1714 4.10116L35.3162 4.20369L35.4609 4.30623C37.1256 5.02393 38.1388 5.74164 38.2112 5.84417C38.2836 5.84417 38.3559 5.84417 38.3559 5.84417C39.6587 5.33152 39.4416 4.10118 39.1521 3.38347C39.0797 3.28094 39.0797 3.28093 39.0797 3.28093C39.0073 3.28093 37.8493 2.46069 36.1123 1.64046L35.9676 1.53792H35.8952H35.8228C35.6781 1.4354 35.461 1.43541 35.3162 1.33289C33.9411 0.820239 32.566 0.410115 31.0461 0.205057C28.1511 -0.20506 25.1113 4.64453e-06 22.0716 0.820239C19.0319 1.64047 15.9921 2.97333 13.1695 5.02391C10.2745 7.0745 7.52427 9.7403 5.20828 13.3288C4.05028 15.0718 3.03703 17.1224 2.2409 19.2755C1.87903 20.4033 1.51716 21.5311 1.22766 22.7615C0.938162 23.9918 0.793404 25.2222 0.721029 26.4526C0.648654 27.6829 0.648654 29.0158 0.721029 30.2462C0.793404 30.8613 0.865792 31.4765 0.938167 32.1942C1.08292 32.8093 1.15529 33.4245 1.30004 34.0397C1.58954 35.27 1.95141 36.3979 2.38566 37.5257C2.81991 38.6535 3.32654 39.6788 3.83316 40.7041C4.91878 42.7547 6.14915 44.6002 7.4519 46.2407C8.10327 47.0609 8.82702 47.8811 9.55077 48.5989C9.91264 49.009 10.2745 49.3166 10.7088 49.7267C11.0706 50.0343 11.5049 50.3418 11.8668 50.6494C15.1236 52.9051 18.5253 54.1354 21.9992 54.9557C25.4732 55.7759 28.9472 56.0835 32.4936 55.981C35.9676 55.8784 39.4416 55.2632 42.8432 54.0329C44.5078 53.4177 46.1724 52.5975 47.7647 51.5722C48.5608 51.0596 49.3569 50.4444 50.0807 49.8292C50.8044 49.214 51.5282 48.3938 52.1795 47.5736C53.5547 45.9331 54.6403 43.8825 55.4364 41.6269C55.7983 40.4991 56.0878 39.2687 56.3049 38.0383C56.522 36.808 56.5944 35.5777 56.6667 34.3473C56.6667 33.117 56.6668 31.8866 56.522 30.7588C56.6668 29.836 56.522 29.3234 56.4496 28.7082Z" fill="#A7A7A7"/>
</svg>
