<svg preserveAspectRatio="none" viewBox="0 0 189 32" fill="none" xmlns="http://www.w3.org/2000/svg">
<mask id="path-1-inside-1_27_2" fill="white">
<path fill-rule="evenodd" clip-rule="evenodd" d="M2.52926 31.9517C1.92944 31.9294 1.26572 31.7013 0.96212 31.1836V31.1836C0.823603 30.9473 0.754352 30.7111 0.754352 30.4276C0.939919 22.3257 -0.752805 14.2238 0.412686 6.02095C0.662834 4.26037 2.18298 3.00334 3.95774 2.89193C6.45616 2.7351 8.98982 2.57154 11.5587 2.50413C15.1602 2.40964 18.8309 2.59863 22.5016 2.50413C26.3801 2.40964 30.1894 2.1734 34.0679 2.03166C41.063 1.84266 48.0582 1.37019 55.1918 1.65367C59.3474 1.79542 63.5029 1.65367 67.6584 1.51193C77.4239 1.27569 87.1894 0.897709 97.0242 0.66147C100.764 0.566974 104.504 0.803214 108.313 0.755966C111.776 0.708718 115.17 0.472479 118.633 0.425231C124.589 0.283488 130.546 0.23624 136.502 0.188992C140.034 0.141744 143.497 0.0472489 147.029 0.0472489C150.354 0.0472489 153.678 0.094496 157.002 0.094496C163.443 0.094496 169.885 0 176.326 0C178.897 0 181.468 0.107626 184.103 0.221177C186.255 0.313923 187.961 2.08515 187.937 4.23926C187.852 11.7819 187.627 19.2684 188.495 26.8392C188.714 28.7497 187.252 30.4748 185.329 30.4748V30.4748C174.594 30.6638 163.928 30.9001 153.193 31.0891C146.544 31.1836 139.826 31.1836 133.177 31.2781C123.966 31.3725 114.824 31.6088 105.612 31.656C97.5783 31.7033 89.5442 31.5615 81.5102 31.5615C76.9391 31.5615 72.3681 31.7505 67.7277 31.7505C65.6499 31.7505 63.5722 31.5615 61.4944 31.6088C56.1615 31.7033 50.8285 31.8923 45.5648 31.9395C43.0023 31.9395 40.3704 31.656 37.8079 31.656C32.2671 31.7033 26.7957 31.8923 21.255 31.9868C18.6231 32.034 16.0606 31.9395 13.4287 31.9395C10.1043 31.9395 6.77987 31.9395 3.45544 31.9395C3.14672 31.9629 2.83799 31.9631 2.52926 31.9517Z"/>
</mask>
<path fill-rule="evenodd" clip-rule="evenodd" d="M2.52926 31.9517C1.92944 31.9294 1.26572 31.7013 0.96212 31.1836V31.1836C0.823603 30.9473 0.754352 30.7111 0.754352 30.4276C0.939919 22.3257 -0.752805 14.2238 0.412686 6.02095C0.662834 4.26037 2.18298 3.00334 3.95774 2.89193C6.45616 2.7351 8.98982 2.57154 11.5587 2.50413C15.1602 2.40964 18.8309 2.59863 22.5016 2.50413C26.3801 2.40964 30.1894 2.1734 34.0679 2.03166C41.063 1.84266 48.0582 1.37019 55.1918 1.65367C59.3474 1.79542 63.5029 1.65367 67.6584 1.51193C77.4239 1.27569 87.1894 0.897709 97.0242 0.66147C100.764 0.566974 104.504 0.803214 108.313 0.755966C111.776 0.708718 115.17 0.472479 118.633 0.425231C124.589 0.283488 130.546 0.23624 136.502 0.188992C140.034 0.141744 143.497 0.0472489 147.029 0.0472489C150.354 0.0472489 153.678 0.094496 157.002 0.094496C163.443 0.094496 169.885 0 176.326 0C178.897 0 181.468 0.107626 184.103 0.221177C186.255 0.313923 187.961 2.08515 187.937 4.23926C187.852 11.7819 187.627 19.2684 188.495 26.8392C188.714 28.7497 187.252 30.4748 185.329 30.4748V30.4748C174.594 30.6638 163.928 30.9001 153.193 31.0891C146.544 31.1836 139.826 31.1836 133.177 31.2781C123.966 31.3725 114.824 31.6088 105.612 31.656C97.5783 31.7033 89.5442 31.5615 81.5102 31.5615C76.9391 31.5615 72.3681 31.7505 67.7277 31.7505C65.6499 31.7505 63.5722 31.5615 61.4944 31.6088C56.1615 31.7033 50.8285 31.8923 45.5648 31.9395C43.0023 31.9395 40.3704 31.656 37.8079 31.656C32.2671 31.7033 26.7957 31.8923 21.255 31.9868C18.6231 32.034 16.0606 31.9395 13.4287 31.9395C10.1043 31.9395 6.77987 31.9395 3.45544 31.9395C3.14672 31.9629 2.83799 31.9631 2.52926 31.9517Z" fill="#FFFEFB" stroke="#D7D4CE" stroke-width="2" mask="url(#path-1-inside-1_27_2)"/>
</svg>
