<svg preserveAspectRatio="none" viewBox="0 0 546 84" fill="none" xmlns="http://www.w3.org/2000/svg">
<mask id="path-5-inside-1_100_54089" fill="white">
<path fill-rule="evenodd" clip-rule="evenodd" d="M6.90171 0.354111C5.70693 0.426116 4.57525 1.02617 3.77083 1.91251C3.55474 2.1506 3.36221 2.38747 3.22021 2.64249C2.82111 3.35921 2.62158 4.07593 2.62158 4.93599C3.19888 31.4763 -3.09046 52.379 2.00752 78.9028C2.34548 80.6611 3.858 81.9505 5.64715 82.0203C11.5531 82.2506 8.62375 81.6183 17.7355 81.8701C28.1121 82.1567 33.0904 81.5834 43.6665 81.87C54.8414 82.1567 72.8289 81.4397 84.0037 81.8697C104.158 82.4431 103.787 83.6914 124.341 82.8313C136.314 82.4013 147.495 82.4012 159.468 82.8313C187.605 83.548 188.204 81.1532 216.54 81.87C227.316 82.1567 247.343 81.7265 258.318 81.8699C268.296 82.0132 294.764 81.7266 304.741 81.87C321.902 82.3 325.095 81.7267 342.257 81.87C352.434 82.0134 383.564 81.8698 393.741 81.8698C403.319 81.8698 428.816 79.9475 438.395 79.9475C456.953 79.9475 474.58 79.9473 493.138 79.9473C503.045 79.9473 527.896 80.2979 541.151 80.0498C543.302 80.0095 545.002 78.2373 544.983 76.086C544.742 49.3181 542.158 31.5156 545.767 4.79748C546.096 2.36444 544.227 0.165503 541.772 0.165503C534.678 0.165503 522.964 0.165503 520.489 0.165503C489.559 -0.407874 476.528 0.73888 445.598 0.165503C426.441 -0.121185 391.283 1.20904 372.126 0.922356C345.586 0.635668 331.281 1.35239 304.741 1.20904C281.593 1.0657 271.382 0.165503 248.234 0.165503C235.063 0.165503 208.957 0.922356 195.587 0.922356C189.601 0.922356 176.427 0.635665 170.441 0.492321C155.075 0.205632 146.897 0.492314 131.731 0.34897C124.347 0.34897 105.989 0.165503 98.6054 0.165503C82.6413 0.0221589 77.6526 0.492324 61.6885 0.205636C54.1056 0.0622915 46.7222 0.34897 39.1393 0.34897C29.5609 0.34897 19.9825 0.34897 10.404 0.34897C9.2366 0.255791 8.06915 0.283754 6.90171 0.354111Z"/>
</mask>
<path fill-rule="evenodd" clip-rule="evenodd" d="M6.90171 0.354111C5.70693 0.426116 4.57525 1.02617 3.77083 1.91251C3.55474 2.1506 3.36221 2.38747 3.22021 2.64249C2.82111 3.35921 2.62158 4.07593 2.62158 4.93599C3.19888 31.4763 -3.09046 52.379 2.00752 78.9028C2.34548 80.6611 3.858 81.9505 5.64715 82.0203C11.5531 82.2506 8.62375 81.6183 17.7355 81.8701C28.1121 82.1567 33.0904 81.5834 43.6665 81.87C54.8414 82.1567 72.8289 81.4397 84.0037 81.8697C104.158 82.4431 103.787 83.6914 124.341 82.8313C136.314 82.4013 147.495 82.4012 159.468 82.8313C187.605 83.548 188.204 81.1532 216.54 81.87C227.316 82.1567 247.343 81.7265 258.318 81.8699C268.296 82.0132 294.764 81.7266 304.741 81.87C321.902 82.3 325.095 81.7267 342.257 81.87C352.434 82.0134 383.564 81.8698 393.741 81.8698C403.319 81.8698 428.816 79.9475 438.395 79.9475C456.953 79.9475 474.58 79.9473 493.138 79.9473C503.045 79.9473 527.896 80.2979 541.151 80.0498C543.302 80.0095 545.002 78.2373 544.983 76.086C544.742 49.3181 542.158 31.5156 545.767 4.79748C546.096 2.36444 544.227 0.165503 541.772 0.165503C534.678 0.165503 522.964 0.165503 520.489 0.165503C489.559 -0.407874 476.528 0.73888 445.598 0.165503C426.441 -0.121185 391.283 1.20904 372.126 0.922356C345.586 0.635668 331.281 1.35239 304.741 1.20904C281.593 1.0657 271.382 0.165503 248.234 0.165503C235.063 0.165503 208.957 0.922356 195.587 0.922356C189.601 0.922356 176.427 0.635665 170.441 0.492321C155.075 0.205632 146.897 0.492314 131.731 0.34897C124.347 0.34897 105.989 0.165503 98.6054 0.165503C82.6413 0.0221589 77.6526 0.492324 61.6885 0.205636C54.1056 0.0622915 46.7222 0.34897 39.1393 0.34897C29.5609 0.34897 19.9825 0.34897 10.404 0.34897C9.2366 0.255791 8.06915 0.283754 6.90171 0.354111Z" fill="#FFFEFB" stroke="#D7D4CE" stroke-width="2" mask="url(#path-5-inside-1_100_54089)"/>
</svg>
