<svg preserveAspectRatio="none" viewBox="0 0 544 42" fill="none" xmlns="http://www.w3.org/2000/svg">
<mask id="path-2-inside-1_100_54089" fill="white">
<path fill-rule="evenodd" clip-rule="evenodd" d="M5.63793 41.8944C4.93934 41.8722 4.25588 41.6685 3.61932 41.3798C3.28668 41.229 2.97841 41.0868 2.77437 40.9284C2.37494 40.6184 2.17525 40.3083 2.17525 39.9362C2.73858 28.7415 -2.70091 17.5467 1.79278 6.19733C2.33235 4.83459 3.68639 4.00853 5.15155 3.96972C14.3753 3.72538 23.7683 3.40087 33.3307 3.28668C43.7159 3.16265 54.3008 3.4107 64.8857 3.28668C76.0697 3.16265 87.054 2.85259 98.238 2.66655C118.409 2.4185 138.58 1.79837 159.151 2.17045C171.134 2.35648 183.117 2.17045 195.1 1.98441C223.259 1.67434 251.419 1.17824 279.779 0.86818C290.563 0.744154 301.348 1.05422 312.332 0.992206C322.318 0.930193 332.104 0.620128 342.09 0.558116C359.265 0.372077 376.441 0.310065 393.616 0.248052C403.802 0.186039 413.787 0.0620142 423.973 0.0620142C433.559 0.0620142 443.145 0.124026 452.732 0.124026C471.305 0.124026 489.879 0 508.452 0C518.185 0 527.918 0.243447 538.068 0.428339C540.252 0.468118 542.005 2.24848 541.959 4.4321C541.75 14.4867 540.979 24.458 543.375 34.5391C544.016 37.2362 542.074 39.9982 539.302 39.9982C537.591 39.9982 536.003 39.9982 534.415 39.9982C503.459 40.2463 472.703 40.5563 441.747 40.8044C422.575 40.9284 403.203 40.9284 384.03 41.0524C357.468 41.1765 331.105 41.4865 304.543 41.5485C281.376 41.6106 258.21 41.4245 235.043 41.4245C221.861 41.4245 208.68 41.6726 195.299 41.6726C189.308 41.6726 183.317 41.4245 177.325 41.4865C161.947 41.6106 146.569 41.8586 131.391 41.9206C124.001 41.9206 116.412 41.5485 109.023 41.5485C93.0455 41.6106 77.268 41.8586 61.2908 41.9826C53.7016 42.0446 46.3122 41.9206 38.723 41.9206C29.1367 41.9206 19.5504 41.9206 9.96411 41.9206C8.52206 41.9704 7.07999 41.9403 5.63793 41.8944Z"/>
</mask>
<path fill-rule="evenodd" clip-rule="evenodd" d="M5.63793 41.8944C4.93934 41.8722 4.25588 41.6685 3.61932 41.3798C3.28668 41.229 2.97841 41.0868 2.77437 40.9284C2.37494 40.6184 2.17525 40.3083 2.17525 39.9362C2.73858 28.7415 -2.70091 17.5467 1.79278 6.19733C2.33235 4.83459 3.68639 4.00853 5.15155 3.96972C14.3753 3.72538 23.7683 3.40087 33.3307 3.28668C43.7159 3.16265 54.3008 3.4107 64.8857 3.28668C76.0697 3.16265 87.054 2.85259 98.238 2.66655C118.409 2.4185 138.58 1.79837 159.151 2.17045C171.134 2.35648 183.117 2.17045 195.1 1.98441C223.259 1.67434 251.419 1.17824 279.779 0.86818C290.563 0.744154 301.348 1.05422 312.332 0.992206C322.318 0.930193 332.104 0.620128 342.09 0.558116C359.265 0.372077 376.441 0.310065 393.616 0.248052C403.802 0.186039 413.787 0.0620142 423.973 0.0620142C433.559 0.0620142 443.145 0.124026 452.732 0.124026C471.305 0.124026 489.879 0 508.452 0C518.185 0 527.918 0.243447 538.068 0.428339C540.252 0.468118 542.005 2.24848 541.959 4.4321C541.75 14.4867 540.979 24.458 543.375 34.5391C544.016 37.2362 542.074 39.9982 539.302 39.9982C537.591 39.9982 536.003 39.9982 534.415 39.9982C503.459 40.2463 472.703 40.5563 441.747 40.8044C422.575 40.9284 403.203 40.9284 384.03 41.0524C357.468 41.1765 331.105 41.4865 304.543 41.5485C281.376 41.6106 258.21 41.4245 235.043 41.4245C221.861 41.4245 208.68 41.6726 195.299 41.6726C189.308 41.6726 183.317 41.4245 177.325 41.4865C161.947 41.6106 146.569 41.8586 131.391 41.9206C124.001 41.9206 116.412 41.5485 109.023 41.5485C93.0455 41.6106 77.268 41.8586 61.2908 41.9826C53.7016 42.0446 46.3122 41.9206 38.723 41.9206C29.1367 41.9206 19.5504 41.9206 9.96411 41.9206C8.52206 41.9704 7.07999 41.9403 5.63793 41.8944Z" fill="#FFFEFB" stroke="#D7D4CE" stroke-width="2" mask="url(#path-2-inside-1_100_54089)"/>
</svg>
