<svg preserveAspectRatio="none" viewBox="0 0 368 44" fill="none" xmlns="http://www.w3.org/2000/svg">
<mask id="path-1-inside-1_27_2" fill="white">
<path fill-rule="evenodd" clip-rule="evenodd" d="M4.57572 43.9227C3.615 43.8885 2.57538 43.6316 1.91906 42.9292C1.90308 42.9121 1.88782 42.8948 1.87333 42.8774C1.60363 42.5526 1.46879 42.2277 1.46879 41.8379C1.8449 30.2418 -1.74175 18.6457 1.11084 6.89294C1.50464 5.27046 2.97933 4.18075 4.64741 4.10986C10.4997 3.86115 16.4526 3.55535 22.5059 3.44318C29.5182 3.31325 36.6655 3.57312 43.8127 3.44318C51.3645 3.31325 58.7814 2.98842 66.3332 2.79353C79.9534 2.53366 93.5736 1.88401 107.463 2.2738C115.555 2.4687 123.646 2.2738 131.737 2.0789C150.751 1.75408 169.766 1.23435 188.915 0.909521C196.197 0.77959 203.479 1.10442 210.896 1.03945C217.639 0.974488 224.246 0.649658 230.989 0.584693C242.586 0.389795 254.184 0.32483 265.781 0.259864C272.659 0.194898 279.401 0.0649672 286.279 0.0649672C292.752 0.0649672 299.225 0.129932 305.698 0.129932C318.239 0.129932 330.781 0 343.322 0C349.496 0 355.67 0.225073 362.077 0.412927C364.246 0.476531 365.978 2.25104 365.95 4.42118C365.809 15.2879 365.247 26.0603 367.026 36.9604C367.441 39.5022 365.537 41.9029 362.962 41.9029C362.244 41.9029 361.548 41.9029 360.853 41.9029C339.951 42.1628 319.183 42.4876 298.281 42.7475C285.335 42.8774 272.254 42.8774 259.308 43.0073C241.373 43.1373 223.572 43.4621 205.637 43.527C189.994 43.592 174.351 43.3971 158.708 43.3971C149.807 43.3971 140.907 43.657 131.872 43.657C127.826 43.657 123.781 43.3971 119.735 43.4621C109.351 43.592 98.9677 43.8519 88.7188 43.9168C83.7293 43.9168 78.6049 43.527 73.6153 43.527C62.827 43.592 52.1736 43.8519 41.3853 43.9818C36.2609 44.0468 31.2714 43.9168 26.1469 43.9168C19.674 43.9168 13.201 43.9168 6.72806 43.9168C6.01062 43.9553 5.29316 43.9483 4.57572 43.9227Z"/>
</mask>
<path fill-rule="evenodd" clip-rule="evenodd" d="M4.57572 43.9227C3.615 43.8885 2.57538 43.6316 1.91906 42.9292C1.90308 42.9121 1.88782 42.8948 1.87333 42.8774C1.60363 42.5526 1.46879 42.2277 1.46879 41.8379C1.8449 30.2418 -1.74175 18.6457 1.11084 6.89294C1.50464 5.27046 2.97933 4.18075 4.64741 4.10986C10.4997 3.86115 16.4526 3.55535 22.5059 3.44318C29.5182 3.31325 36.6655 3.57312 43.8127 3.44318C51.3645 3.31325 58.7814 2.98842 66.3332 2.79353C79.9534 2.53366 93.5736 1.88401 107.463 2.2738C115.555 2.4687 123.646 2.2738 131.737 2.0789C150.751 1.75408 169.766 1.23435 188.915 0.909521C196.197 0.77959 203.479 1.10442 210.896 1.03945C217.639 0.974488 224.246 0.649658 230.989 0.584693C242.586 0.389795 254.184 0.32483 265.781 0.259864C272.659 0.194898 279.401 0.0649672 286.279 0.0649672C292.752 0.0649672 299.225 0.129932 305.698 0.129932C318.239 0.129932 330.781 0 343.322 0C349.496 0 355.67 0.225073 362.077 0.412927C364.246 0.476531 365.978 2.25104 365.95 4.42118C365.809 15.2879 365.247 26.0603 367.026 36.9604C367.441 39.5022 365.537 41.9029 362.962 41.9029C362.244 41.9029 361.548 41.9029 360.853 41.9029C339.951 42.1628 319.183 42.4876 298.281 42.7475C285.335 42.8774 272.254 42.8774 259.308 43.0073C241.373 43.1373 223.572 43.4621 205.637 43.527C189.994 43.592 174.351 43.3971 158.708 43.3971C149.807 43.3971 140.907 43.657 131.872 43.657C127.826 43.657 123.781 43.3971 119.735 43.4621C109.351 43.592 98.9677 43.8519 88.7188 43.9168C83.7293 43.9168 78.6049 43.527 73.6153 43.527C62.827 43.592 52.1736 43.8519 41.3853 43.9818C36.2609 44.0468 31.2714 43.9168 26.1469 43.9168C19.674 43.9168 13.201 43.9168 6.72806 43.9168C6.01062 43.9553 5.29316 43.9483 4.57572 43.9227Z" fill="#FFFEFB" stroke="#DA8787" stroke-width="2" mask="url(#path-1-inside-1_27_2)"/>
</svg>
