<svg preserveAspectRatio="none" viewBox="0 0 60 25" fill="none" xmlns="http://www.w3.org/2000/svg">
<mask id="path-1-inside-1_682_57227" fill="white">
<path fill-rule="evenodd" clip-rule="evenodd" d="M1.01893 24.9637C0.701267 24.9938 0.416046 24.7338 0.323426 24.4284C0.316851 24.4068 0.310814 24.3847 0.305435 24.3622C0.261461 24.1776 0.239477 23.993 0.239477 23.7716C0.295732 17.7272 -0.191756 11.6829 0.0863741 5.56992C0.170956 3.7109 0.966333 0.888173 2.79359 0.535647C2.8414 0.526423 2.89055 0.520042 2.94118 0.516774C4.0845 0.442949 6.48175 0.406036 7.64706 0.332212C8.87833 0.258387 11.1217 0.442949 12.3529 0.332212C14.5736 0.184562 15.9706 0.278526 18.2353 0.5C19.5545 0.610737 23.3867 0.442949 24.7059 0.332212C27.806 0.14765 27.6792 0.701335 30.8013 0.516774C31.9886 0.442949 33.1759 0.627511 34.3852 0.590599C35.4846 0.553686 36.5619 0.369124 37.6613 0.332212C39.5521 0.221475 41.443 0.184562 43.3339 0.14765C44.4552 0.110738 45.5546 0.0369132 46.6759 0.0369132C47.7313 0.0369132 48.7867 0.073825 49.842 0.073825C51.8868 0.073825 53.9316 0 55.9764 0C55.9896 0 56.0027 2.18542e-05 56.0159 6.52297e-05C58.0909 0.00690491 59.6697 1.888 59.6593 3.96299C59.6281 10.1917 59.5627 16.3758 59.9274 22.6453C59.964 23.2749 59.4653 23.8085 58.8347 23.8085V23.8085C55.4267 23.9561 52.0407 24.1407 48.6327 24.2883C46.522 24.3622 44.3893 24.3622 42.2785 24.436C39.3543 24.5098 36.452 24.6944 33.5277 24.7313C30.9772 24.7682 28.4267 24.6575 25.8763 24.6575C24.4251 24.6575 22.974 24.8051 21.5009 24.8051C20.8413 24.8051 20.1816 24.6575 19.522 24.6944C17.829 24.7682 16.136 24.9158 14.465 24.9528C13.6515 24.9528 12.816 24.7313 12.0025 24.7313C10.2435 24.7682 8.50657 24.9158 6.74761 24.9897C5.9121 25.0266 5.09859 24.9528 4.26309 24.9528C3.23393 24.9528 2.20478 24.9528 1.17563 24.9528C1.1233 24.9528 1.07103 24.9587 1.01893 24.9637V24.9637Z"/>
</mask>
<path fill-rule="evenodd" clip-rule="evenodd" d="M1.01893 24.9637C0.701267 24.9938 0.416046 24.7338 0.323426 24.4284C0.316851 24.4068 0.310814 24.3847 0.305435 24.3622C0.261461 24.1776 0.239477 23.993 0.239477 23.7716C0.295732 17.7272 -0.191756 11.6829 0.0863741 5.56992C0.170956 3.7109 0.966333 0.888173 2.79359 0.535647C2.8414 0.526423 2.89055 0.520042 2.94118 0.516774C4.0845 0.442949 6.48175 0.406036 7.64706 0.332212C8.87833 0.258387 11.1217 0.442949 12.3529 0.332212C14.5736 0.184562 15.9706 0.278526 18.2353 0.5C19.5545 0.610737 23.3867 0.442949 24.7059 0.332212C27.806 0.14765 27.6792 0.701335 30.8013 0.516774C31.9886 0.442949 33.1759 0.627511 34.3852 0.590599C35.4846 0.553686 36.5619 0.369124 37.6613 0.332212C39.5521 0.221475 41.443 0.184562 43.3339 0.14765C44.4552 0.110738 45.5546 0.0369132 46.6759 0.0369132C47.7313 0.0369132 48.7867 0.073825 49.842 0.073825C51.8868 0.073825 53.9316 0 55.9764 0C55.9896 0 56.0027 2.18542e-05 56.0159 6.52297e-05C58.0909 0.00690491 59.6697 1.888 59.6593 3.96299C59.6281 10.1917 59.5627 16.3758 59.9274 22.6453C59.964 23.2749 59.4653 23.8085 58.8347 23.8085V23.8085C55.4267 23.9561 52.0407 24.1407 48.6327 24.2883C46.522 24.3622 44.3893 24.3622 42.2785 24.436C39.3543 24.5098 36.452 24.6944 33.5277 24.7313C30.9772 24.7682 28.4267 24.6575 25.8763 24.6575C24.4251 24.6575 22.974 24.8051 21.5009 24.8051C20.8413 24.8051 20.1816 24.6575 19.522 24.6944C17.829 24.7682 16.136 24.9158 14.465 24.9528C13.6515 24.9528 12.816 24.7313 12.0025 24.7313C10.2435 24.7682 8.50657 24.9158 6.74761 24.9897C5.9121 25.0266 5.09859 24.9528 4.26309 24.9528C3.23393 24.9528 2.20478 24.9528 1.17563 24.9528C1.1233 24.9528 1.07103 24.9587 1.01893 24.9637V24.9637Z" fill="#FFFEFB" stroke="#A7A7A7" stroke-width="2" mask="url(#path-1-inside-1_682_57227)"/>
</svg>
