<svg preserveAspectRatio="none" viewBox="0 0 663 269" fill="none" xmlns="http://www.w3.org/2000/svg">
<g clip-path="url(#clip0_7_2)">
<path fill-rule="evenodd" clip-rule="evenodd" d="M659.012 253.994C659.005 257.208 656.81 259.978 653.689 260.748L643.5 263.263L617.997 267.015C617.666 267.064 617.332 267.089 616.997 267.09L148 268.364H28.5L8.08071 267.206C6.73471 267.13 5.45595 266.593 4.45925 265.685C3.21358 264.551 2.51536 262.936 2.54216 261.251L5.95464 46.7912C5.98372 44.9635 6.73616 43.2211 8.00637 41.9066C15.1663 34.4967 17.2379 30.7914 25.0541 29.6562C25.3476 29.6136 25.3184 29.5953 25.615 29.5948C35.1625 29.5799 636.209 28.6387 641 28.6387C645.829 28.6387 659.5 29.0158 659.5 30.5509C659.5 31.9445 659.088 219.43 659.012 253.994Z" fill="#E2E0DA"/>
<path fill-rule="evenodd" clip-rule="evenodd" d="M52.72 267.275C37.7888 267.512 5.23215 268.134 5.63459 266.124C13.2809 261.327 16.9029 262.286 20.1224 262.478C24.1468 263.054 41.4675 263.674 52.72 263.437V261.267C40.6019 261.345 28.9972 261.428 24.6693 260.245C22.9382 259.772 20.1224 259.664 20.1224 257.297C20.9273 183.808 23.7443 104.945 25.1021 31.1469C34.407 31.8569 43.4955 32.2514 52.8005 32.4092V29.7269C41.1152 28.8591 28.1316 25.9402 19.2595 30.4369C15.148 33.6714 11.9021 38.1682 7.79062 41.166C1.29881 44.4005 5.41029 51.1851 4.32832 55.8397C4.54472 55.9186 4.54472 55.9186 4.32832 55.9186C2.81357 122.66 1.51521 189.401 0.649633 256.143C0.866027 260.64 -1.5143 266.635 7.14144 268.134C16.5004 269.194 28.8058 268.618 39.8419 268.618C42.655 268.618 47.3101 268.81 52.72 268.81V267.275ZM3.21996 264.013C3.21996 215.851 4.42727 164.812 4.82971 116.266C6.03703 93.8165 5.63459 63.3077 6.43947 44.3117C9.65898 40.8579 9.65898 41.4335 13.17 38.1716C16.5047 35.0735 13.0111 38.0927 13.4439 38.1716C13.4439 110.83 10.1261 188.608 12.0736 261.267C4.42727 266.124 3.21996 264.013 3.21996 264.013Z" fill="#6D5F44"/>
<path fill-rule="evenodd" clip-rule="evenodd" d="M655.673 246.914C651.778 244.074 667.358 230.662 649.614 231.451C611.529 230.82 573.227 231.215 535.142 231.215C378.906 231.53 222.67 232.635 66.4337 233.266C61.2402 233.187 56.4796 233.187 52.5845 233.187V235.08C251.017 233.581 449.883 231.925 648.532 232.792C648.316 241.865 654.284 250.43 659.693 259.581C459.746 260.528 252.316 261.351 52.5845 261.272V263.438C249.513 262.842 435.131 261.688 631.428 262.219C637.867 262.219 643.098 262.671 641.891 262.863C629.557 264.125 621.905 265.847 608.489 266.321C545.951 267.189 478.847 266.769 416.525 267.084C295.129 267.321 173.765 267.504 52.5845 267.267V268.845C229.594 268.609 406.388 268.135 583.181 267.583C583.181 267.504 583.181 267.504 583.398 267.583C596.165 267.189 614.991 268.688 624.08 266.321C632.519 264.822 644.853 263.717 653.726 262.219C669.522 258.195 652.86 251.805 655.673 246.914Z" fill="#6D5F44"/>
<path fill-rule="evenodd" clip-rule="evenodd" d="M29.1628 260.909C28.514 260.641 27.4327 260.463 27.0002 260.195C26.5676 259.928 26.3514 259.749 26.3514 259.482C27.0002 250.472 19.8635 241.463 27.0002 232.365C38.6784 232.187 50.7891 231.919 62.8999 231.83C75.0106 231.741 87.5539 231.919 100.097 231.83C113.289 231.741 126.049 231.473 139.241 231.384C163.03 231.205 186.603 230.759 210.824 231.027C224.881 231.205 238.938 231.027 252.995 230.849C286.084 230.581 319.172 230.224 352.477 230.046C365.236 229.957 377.779 230.224 390.755 230.135C402.433 230.046 413.895 229.867 425.79 229.778C445.902 229.6 466.231 229.6 486.344 229.511C498.238 229.421 510.133 229.332 522.027 229.332C533.273 229.332 544.518 229.421 555.764 229.421C577.607 229.421 599.449 229.332 621.292 229.332C634.268 229.332 646.378 227.637 660.003 227.816C660.003 237.806 658.705 249.491 664.328 259.571C659.354 259.571 655.678 259.571 651.785 259.571C615.453 259.749 579.337 260.017 542.788 260.195C520.297 260.284 497.373 260.284 474.882 260.373C443.74 260.463 412.598 260.73 381.456 260.73C354.207 260.82 326.957 260.641 299.708 260.641C284.137 260.641 268.783 260.819 252.995 260.819C245.859 260.819 238.938 260.641 231.802 260.641C213.635 260.73 195.686 260.909 177.736 260.998C169.085 260.998 160.218 260.73 151.352 260.73C132.537 260.82 113.938 260.998 95.3394 261.087C86.4726 261.176 77.8221 260.998 68.739 260.998C57.4933 260.998 46.2476 260.998 35.0019 260.998C33.2718 260.998 31.1092 260.998 29.1628 260.909Z" fill="#FFFEFB"/>
<path fill-rule="evenodd" clip-rule="evenodd" d="M660 30.3018C656.313 29.5133 657.725 29.1172 657.725 29.1172C657.774 102.984 657.368 185.414 656.781 259.36L656.781 259.788C656.781 259.788 659.546 259.823 660.467 259.394C658.624 254.663 660.222 239.216 660.467 234.555C660.81 167.719 662.115 100.881 662.311 34.0456C662.262 29.5424 661.843 30.3018 660 30.3018Z" fill="#6D5F44"/>
<path fill-rule="evenodd" clip-rule="evenodd" d="M24.9512 28.5756C24.9512 28.8497 24.1464 29.535 24.1464 29.535C226.823 29.5204 457.107 30.1279 660 30.3025C660 30.3025 659.195 28.7675 656.378 28.5756C654.563 28.452 611.375 28.2372 598.586 28.1645C415.202 28.0626 231.812 27.6744 48.4283 27.6162C36.0726 27.6308 26.9634 28 24.9512 28.5756Z" fill="#6D5F44"/>
<path d="M6.41342 47.1483C9.74711 45.7607 12.4678 44.1252 15.0174 42.4872C15.5361 42.171 14.2826 41.9702 13.764 42.2864C11.2453 43.8545 8.59921 45.477 5.3183 46.8231C4.77782 47.1109 5.77653 47.4206 6.41342 47.1483Z" fill="#6D5F44"/>
<path d="M6.70786 50.7821C10.0415 49.3945 12.7622 47.7589 15.3119 46.121C15.8305 45.8047 14.5771 45.604 14.0584 45.9202C11.5397 47.4883 8.89364 49.1108 5.61274 50.4569C5.07226 50.7447 6.07096 51.0544 6.70786 50.7821Z" fill="#6D5F44"/>
<path d="M6.70786 54.619C10.0415 53.2314 12.7622 51.5959 15.3119 49.9579C15.8305 49.6417 14.5771 49.4409 14.0584 49.7571C11.5397 51.3252 8.89364 52.9477 5.61274 54.2939C5.07226 54.5816 6.07096 54.8913 6.70786 54.619Z" fill="#6D5F44"/>
<path d="M5.90317 58.8407C9.23686 57.4531 11.9575 55.8175 14.5072 54.1796C15.0258 53.8633 13.7724 53.6626 13.2537 53.9788C10.735 55.5468 8.08896 57.1694 4.80805 58.5155C4.26757 58.8033 5.26627 59.113 5.90317 58.8407Z" fill="#6D5F44"/>
<path d="M5.90317 63.4442C9.23686 62.0566 11.9575 60.4211 14.5072 58.7831C15.0258 58.4669 13.7724 58.2661 13.2537 58.5823C10.735 60.1504 8.08896 61.7729 4.80805 63.119C4.26757 63.4068 5.26627 63.7165 5.90317 63.4442Z" fill="#6D5F44"/>
<path d="M5.90317 66.8983C9.23686 65.5107 11.9575 63.8752 14.5072 62.2372C15.0258 61.921 13.7724 61.7202 13.2537 62.0364C10.735 63.6045 8.08896 65.227 4.80805 66.5731C4.26757 66.8609 5.26627 67.1706 5.90317 66.8983Z" fill="#6D5F44"/>
<path d="M5.90317 71.5028C9.23686 70.1152 11.9575 68.4796 14.5072 66.8417C15.0258 66.5255 13.7724 66.3247 13.2537 66.6409C10.735 68.209 8.08896 69.8315 4.80805 71.1776C4.26757 71.4654 5.26627 71.7751 5.90317 71.5028Z" fill="#6D5F44"/>
<path d="M5.90317 76.494C9.23686 75.1064 11.9575 73.4709 14.5072 71.8329C15.0258 71.5167 13.7724 71.3159 13.2537 71.6321C10.735 73.2002 8.08896 74.8227 4.80805 76.1689C4.26757 76.4566 5.26627 76.7663 5.90317 76.494Z" fill="#6D5F44"/>
<path d="M5.90317 80.7137C9.23686 79.3261 11.9575 77.6906 14.5072 76.0526C15.0258 75.7364 13.7724 75.5356 13.2537 75.8518C10.735 77.4199 8.08896 79.0424 4.80805 80.3886C4.26757 80.6763 5.26627 80.986 5.90317 80.7137Z" fill="#6D5F44"/>
<path d="M5.90317 84.5516C9.23686 83.164 11.9575 81.5285 14.5072 79.8905C15.0258 79.5743 13.7724 79.3735 13.2537 79.6897C10.735 81.2578 8.08896 82.8803 4.80805 84.2265C4.26757 84.5142 5.26627 84.8239 5.90317 84.5516Z" fill="#6D5F44"/>
<path d="M5.90317 88.3876C9.23686 86.9999 11.9575 85.3644 14.5072 83.7264C15.0258 83.4102 13.7724 83.2094 13.2537 83.5257C10.735 85.0937 8.08896 86.7163 4.80805 88.0624C4.26757 88.3502 5.26627 88.6599 5.90317 88.3876Z" fill="#6D5F44"/>
<path d="M5.90317 92.2264C9.23686 90.8388 11.9575 89.2033 14.5072 87.5653C15.0258 87.2491 13.7724 87.0483 13.2537 87.3645C10.735 88.9326 8.08896 90.5551 4.80805 91.9013C4.26757 92.189 5.26627 92.4987 5.90317 92.2264Z" fill="#6D5F44"/>
<path d="M5.90317 96.8319C9.23686 95.4443 11.9575 93.8087 14.5072 92.1708C15.0258 91.8546 13.7724 91.6538 13.2537 91.97C10.735 93.5381 8.08896 95.1606 4.80805 96.5067C4.26757 96.7945 5.26627 97.1042 5.90317 96.8319Z" fill="#6D5F44"/>
<path d="M5.16312 100.278C8.7091 98.8553 11.6206 97.1883 14.3528 95.5202C14.908 95.1979 13.6 95.0059 13.0448 95.3281C10.3475 96.9257 7.51473 98.579 4.02557 99.9593C3.44848 100.253 4.48541 100.557 5.16312 100.278Z" fill="#6D5F44"/>
<path d="M4.60993 115.748C8.37278 114.321 11.4649 112.649 14.3671 110.976C14.9568 110.653 13.5724 110.463 12.9827 110.786C10.1179 112.388 7.10921 114.045 3.40676 115.431C2.79406 115.725 3.89073 116.028 4.60993 115.748Z" fill="#6D5F44"/>
<path d="M4.51278 137.109C8.32122 135.662 11.4604 133.973 14.4088 132.283C15.0075 131.956 13.6202 131.771 13.0215 132.097C10.112 133.716 7.05688 135.391 3.30994 136.795C2.68861 137.094 3.78473 137.393 4.51278 137.109Z" fill="#6D5F44"/>
<path d="M4.48931 157.85C8.01033 156.463 10.8839 154.827 13.5768 153.189C14.1246 152.873 12.8007 152.672 12.2529 152.989C9.59268 154.557 6.79792 156.179 3.33265 157.525C2.7618 157.813 3.81663 158.123 4.48931 157.85Z" fill="#6D5F44"/>
<path d="M3.87804 179.168C7.58437 177.78 10.6092 176.145 13.4438 174.507C14.0205 174.19 12.6269 173.99 12.0502 174.306C9.25001 175.874 6.30816 177.497 2.6605 178.843C2.05961 179.13 3.16995 179.44 3.87804 179.168Z" fill="#6D5F44"/>
<path d="M3.26725 199.892C7.1589 198.505 10.3349 196.869 13.3113 195.231C13.9168 194.915 12.4535 194.714 11.8481 195.031C8.90782 196.599 5.81887 198.221 1.98884 199.567C1.3579 199.855 2.52376 200.165 3.26725 199.892Z" fill="#6D5F44"/>
<path d="M5.17879 103.729C8.78424 102.296 11.7495 100.62 14.5332 98.9429C15.0987 98.6189 13.7758 98.4294 13.2103 98.7535C10.4627 100.36 7.57729 102.022 4.02981 103.413C3.44242 103.708 4.48964 104.01 5.17879 103.729Z" fill="#6D5F44"/>
<path d="M4.58811 121.184C8.48405 119.734 11.6965 118.043 14.7139 116.351C15.3266 116.024 13.9089 115.839 13.2962 116.166C10.3188 117.786 7.19234 119.464 3.35935 120.87C2.72361 121.169 3.84333 121.468 4.58811 121.184Z" fill="#6D5F44"/>
<path d="M4.41943 141.348C7.87366 139.96 10.6927 138.324 13.3346 136.686C13.872 136.37 12.5732 136.169 12.0358 136.486C9.426 138.054 6.68425 139.676 3.28471 141.022C2.72469 141.31 3.75951 141.62 4.41943 141.348Z" fill="#6D5F44"/>
<path d="M4.48931 163.05C8.01033 161.662 10.8839 160.027 13.5768 158.389C14.1246 158.072 12.8007 157.872 12.2529 158.188C9.59268 159.756 6.79792 161.378 3.33265 162.725C2.7618 163.012 3.81663 163.322 4.48931 163.05Z" fill="#6D5F44"/>
<path d="M3.87804 184.542C7.58437 183.154 10.6092 181.519 13.4438 179.881C14.0205 179.565 12.6269 179.364 12.0502 179.68C9.25001 181.248 6.30816 182.871 2.6605 184.217C2.05961 184.504 3.16995 184.814 3.87804 184.542Z" fill="#6D5F44"/>
<path d="M3.26725 205.265C7.1589 203.877 10.3349 202.241 13.3113 200.603C13.9168 200.287 12.4535 200.086 11.8481 200.403C8.90782 201.971 5.81887 203.593 1.98884 204.939C1.3579 205.227 2.52376 205.537 3.26725 205.265Z" fill="#6D5F44"/>
<path d="M4.5426 108.72C8.26582 107.299 11.3222 105.633 14.1901 103.966C14.7729 103.644 13.3984 103.452 12.8156 103.774C9.98427 105.37 7.01064 107.022 3.34705 108.401C2.74121 108.694 3.83103 108.998 4.5426 108.72Z" fill="#6D5F44"/>
<path d="M5.03673 125.613C8.74306 124.226 11.7679 122.59 14.6025 120.952C15.1791 120.636 13.7856 120.435 13.2089 120.751C10.4087 122.319 7.46685 123.942 3.81919 125.288C3.2183 125.576 4.32864 125.885 5.03673 125.613Z" fill="#6D5F44"/>
<path d="M4.13992 146.647C7.73404 145.247 10.6737 143.601 13.4298 141.953C13.9903 141.634 12.6481 141.436 12.0877 141.755C9.36559 143.333 6.50617 144.966 2.96921 146.324C2.38571 146.614 3.45318 146.922 4.13992 146.647Z" fill="#6D5F44"/>
<path d="M4.48931 168.424C8.01033 167.036 10.8839 165.401 13.5768 163.763C14.1246 163.446 12.8007 163.246 12.2529 163.562C9.59268 165.13 6.79792 166.752 3.33265 168.099C2.7618 168.386 3.81663 168.696 4.48931 168.424Z" fill="#6D5F44"/>
<path d="M3.87828 189.914C7.58462 188.526 10.6094 186.891 13.4441 185.253C14.0207 184.937 12.6271 184.736 12.0505 185.052C9.25025 186.62 6.3084 188.243 2.66075 189.589C2.05985 189.877 3.17019 190.186 3.87828 189.914Z" fill="#6D5F44"/>
<path d="M2.9847 210.618C6.90513 209.165 10.1397 207.47 13.1783 205.775C13.7952 205.447 12.3714 205.263 11.7545 205.59C8.75632 207.214 5.60824 208.895 1.75123 210.306C1.11126 210.605 2.23521 210.903 2.9847 210.618Z" fill="#6D5F44"/>
<path d="M4.53323 112.139C8.2209 110.724 11.2451 109.064 14.0822 107.402C14.6589 107.081 13.2933 106.887 12.7167 107.208C9.91543 108.799 6.97324 110.446 3.34452 111.819C2.74483 112.112 3.82849 112.417 4.53323 112.139Z" fill="#6D5F44"/>
<path d="M4.68322 131.37C8.38955 129.982 11.4144 128.347 14.249 126.709C14.8256 126.393 13.432 126.192 12.8554 126.508C10.0552 128.076 7.11333 129.699 3.46568 131.045C2.86479 131.333 3.97512 131.642 4.68322 131.37Z" fill="#6D5F44"/>
<path d="M4.41943 152.476C7.87366 151.089 10.6927 149.453 13.3346 147.815C13.872 147.499 12.5732 147.298 12.0358 147.615C9.426 149.183 6.68425 150.805 3.28471 152.151C2.72469 152.439 3.75951 152.749 4.41943 152.476Z" fill="#6D5F44"/>
<path d="M4.48931 173.796C8.01033 172.408 10.8839 170.773 13.5768 169.135C14.1246 168.818 12.8007 168.618 12.2529 168.934C9.59268 170.502 6.79792 172.124 3.33265 173.471C2.7618 173.758 3.81663 174.068 4.48931 173.796Z" fill="#6D5F44"/>
<path d="M3.68414 194.69C7.20515 193.303 10.0787 191.667 12.7716 190.029C13.3194 189.713 11.9955 189.512 11.4477 189.828C8.78751 191.396 5.99275 193.019 2.52748 194.365C1.95663 194.653 3.01145 194.963 3.68414 194.69Z" fill="#6D5F44"/>
<path d="M3.26725 215.797C7.1589 214.409 10.3349 212.774 13.3113 211.136C13.9168 210.819 12.4535 210.619 11.8481 210.935C8.90782 212.503 5.81887 214.125 1.98884 215.472C1.3579 215.759 2.52376 216.069 3.26725 215.797Z" fill="#6D5F44"/>
<path d="M3.26725 219.636C7.1589 218.248 10.3349 216.612 13.3113 214.974C13.9168 214.658 12.4535 214.457 11.8481 214.774C8.90782 216.342 5.81887 217.964 1.98884 219.31C1.3579 219.598 2.52376 219.908 3.26725 219.636Z" fill="#6D5F44"/>
<path d="M3.26725 226.16C7.1589 224.772 10.3349 223.137 13.3113 221.499C13.9168 221.183 12.4535 220.982 11.8481 221.298C8.90782 222.866 5.81887 224.489 1.98884 225.835C1.3579 226.123 2.52376 226.432 3.26725 226.16Z" fill="#6D5F44"/>
<path d="M3.26725 230.765C7.1589 229.377 10.3349 227.741 13.3113 226.103C13.9168 225.787 12.4535 225.586 11.8481 225.903C8.90782 227.471 5.81887 229.093 1.98884 230.439C1.3579 230.727 2.52376 231.037 3.26725 230.765Z" fill="#6D5F44"/>
<path d="M3.26725 236.137C7.1589 234.749 10.3349 233.113 13.3113 231.475C13.9168 231.159 12.4535 230.958 11.8481 231.275C8.90782 232.843 5.81887 234.465 1.98884 235.811C1.3579 236.099 2.52376 236.409 3.26725 236.137Z" fill="#6D5F44"/>
<path d="M3.26725 241.126C7.1589 239.738 10.3349 238.103 13.3113 236.465C13.9168 236.148 12.4535 235.948 11.8481 236.264C8.90782 237.832 5.81887 239.455 1.98884 240.801C1.3579 241.088 2.52376 241.398 3.26725 241.126Z" fill="#6D5F44"/>
<path d="M3.26725 246.114C7.1589 244.727 10.3349 243.091 13.3113 241.453C13.9168 241.137 12.4535 240.936 11.8481 241.252C8.90782 242.82 5.81887 244.443 1.98884 245.789C1.3579 246.077 2.52376 246.386 3.26725 246.114Z" fill="#6D5F44"/>
<path d="M3.26725 251.103C7.1589 249.716 10.3349 248.08 13.3113 246.442C13.9168 246.126 12.4535 245.925 11.8481 246.241C8.90782 247.81 5.81887 249.432 1.98884 250.778C1.3579 251.066 2.52376 251.376 3.26725 251.103Z" fill="#6D5F44"/>
<path d="M3.26725 255.707C7.1589 254.319 10.3349 252.684 13.3113 251.046C13.9168 250.73 12.4535 250.529 11.8481 250.845C8.90782 252.413 5.81887 254.036 1.98884 255.382C1.3579 255.67 2.52376 255.979 3.26725 255.707Z" fill="#6D5F44"/>
<path d="M3.26725 261.079C7.1589 259.691 10.3349 258.056 13.3113 256.418C13.9168 256.102 12.4535 255.901 11.8481 256.217C8.90782 257.785 5.81887 259.408 1.98884 260.754C1.3579 261.042 2.52376 261.351 3.26725 261.079Z" fill="#6D5F44"/>
<path d="M26.107 263.068C23.1537 265.065 19.7038 266.71 16.2532 268.254C15.5864 268.568 15.2038 267.839 15.8707 267.525C19.1759 266.001 22.597 264.4 25.4633 262.436C26.0719 262.111 26.6862 262.687 26.107 263.068Z" fill="#6D5F44"/>
<path d="M18.0589 262.511C15.1056 264.507 11.6557 266.152 8.20515 267.696C7.53834 268.01 7.15575 267.281 7.82256 266.968C11.1278 265.443 14.5489 263.843 17.4152 261.879C18.0238 261.553 18.6381 262.129 18.0589 262.511Z" fill="#6D5F44"/>
<path d="M35.2663 263.614C32.3579 265.481 28.9299 267.005 25.4967 268.432C24.8339 268.723 24.4131 268.021 25.0759 267.731C28.3625 266.32 31.7633 264.838 34.5848 263.001C35.1879 262.699 35.8371 263.258 35.2663 263.614Z" fill="#6D5F44"/>
<path d="M44.9177 263.614C42.0093 265.481 38.5812 267.005 35.1481 268.432C34.4853 268.723 34.0645 268.021 34.7272 267.731C38.0139 266.32 41.4147 264.838 44.2362 263.001C44.8393 262.699 45.4884 263.258 44.9177 263.614Z" fill="#6D5F44"/>
<path d="M57.7902 263.544C54.8818 265.411 51.4538 266.934 48.0206 268.362C47.3578 268.653 46.937 267.951 47.5998 267.66C50.8864 266.25 54.2872 264.768 57.1087 262.931C57.7119 262.628 58.361 263.187 57.7902 263.544Z" fill="#6D5F44"/>
<path d="M69.0505 263.163C66.1421 265.03 62.714 266.554 59.2809 267.981C58.6181 268.272 58.1973 267.57 58.86 267.279C62.1467 265.869 65.5475 264.387 68.369 262.55C68.9721 262.247 69.6213 262.807 69.0505 263.163Z" fill="#6D5F44"/>
<path d="M81.9172 263.163C79.0088 265.03 75.5807 266.554 72.1476 267.981C71.4848 268.272 71.064 267.57 71.7267 267.279C75.0134 265.869 78.4142 264.387 81.2357 262.55C81.8388 262.247 82.488 262.807 81.9172 263.163Z" fill="#6D5F44"/>
<path d="M93.1787 263.163C90.2703 265.03 86.8422 266.554 83.409 267.981C82.7463 268.272 82.3254 267.57 82.9882 267.279C86.2749 265.869 89.6756 264.387 92.4971 262.55C93.1003 262.247 93.7494 262.807 93.1787 263.163Z" fill="#6D5F44"/>
<path d="M102.026 263.163C99.1174 265.03 95.6894 266.554 92.2562 267.981C91.5934 268.272 91.1726 267.57 91.8354 267.279C95.122 265.869 98.5228 264.387 101.344 262.55C101.947 262.247 102.597 262.807 102.026 263.163Z" fill="#6D5F44"/>
<path d="M113.287 263.163C110.379 265.03 106.951 266.554 103.518 267.981C102.855 268.272 102.434 267.57 103.097 267.279C106.383 265.869 109.784 264.387 112.606 262.55C113.209 262.247 113.858 262.807 113.287 263.163Z" fill="#6D5F44"/>
<path d="M124.548 263.163C121.639 265.03 118.211 266.554 114.778 267.981C114.115 268.272 113.695 267.57 114.357 267.279C117.644 265.869 121.045 264.387 123.866 262.55C124.469 262.247 125.119 262.807 124.548 263.163Z" fill="#6D5F44"/>
<path d="M135.809 263.163C132.901 265.03 129.473 266.554 126.039 267.981C125.377 268.272 124.956 267.57 125.619 267.279C128.905 265.869 132.306 264.387 135.128 262.55C135.731 262.247 136.38 262.807 135.809 263.163Z" fill="#6D5F44"/>
<path d="M145.461 263.163C142.553 265.03 139.125 266.554 135.692 267.981C135.029 268.272 134.608 267.57 135.271 267.279C138.558 265.869 141.958 264.387 144.78 262.55C145.383 262.247 146.032 262.807 145.461 263.163Z" fill="#6D5F44"/>
<path d="M155.918 263.137C153.009 265.109 149.581 266.718 146.148 268.226C145.485 268.533 145.064 267.791 145.727 267.485C149.014 265.995 152.415 264.43 155.236 262.49C155.839 262.17 156.488 262.761 155.918 263.137Z" fill="#6D5F44"/>
<path d="M206.828 262.821C203.836 264.928 200.332 266.66 196.826 268.285C196.149 268.615 195.749 267.84 196.427 267.51C199.784 265.906 203.259 264.221 206.162 262.148C206.78 261.805 207.415 262.419 206.828 262.821Z" fill="#6D5F44"/>
<path d="M254.82 262.741C251.786 264.915 248.245 266.707 244.704 268.39C244.02 268.732 243.63 267.94 244.314 267.598C247.707 265.937 251.218 264.193 254.162 262.055C254.787 261.7 255.414 262.326 254.82 262.741Z" fill="#6D5F44"/>
<path d="M306.331 262.345C303.422 264.421 299.994 266.115 296.561 267.702C295.898 268.025 295.477 267.245 296.14 266.922C299.427 265.354 302.828 263.706 305.649 261.664C306.252 261.327 306.901 261.949 306.331 262.345Z" fill="#6D5F44"/>
<path d="M354.591 262.688C351.683 264.66 348.255 266.269 344.822 267.777C344.159 268.084 343.738 267.342 344.401 267.035C347.688 265.546 351.088 263.981 353.91 262.04C354.513 261.721 355.162 262.311 354.591 262.688Z" fill="#6D5F44"/>
<path d="M407.679 262.454C404.77 264.633 401.342 266.412 397.909 268.078C397.246 268.417 396.825 267.598 397.488 267.259C400.775 265.613 404.176 263.883 406.997 261.738C407.6 261.385 408.249 262.038 407.679 262.454Z" fill="#6D5F44"/>
<path d="M167.178 263.137C164.27 265.109 160.842 266.718 157.409 268.226C156.746 268.533 156.325 267.791 156.988 267.485C160.275 265.995 163.675 264.43 166.497 262.49C167.1 262.17 167.749 262.761 167.178 263.137Z" fill="#6D5F44"/>
<path d="M218.237 262.966C215.266 265.039 211.781 266.74 208.293 268.336C207.62 268.661 207.215 267.894 207.888 267.569C211.228 265.994 214.684 264.339 217.568 262.299C218.182 261.961 218.82 262.57 218.237 262.966Z" fill="#6D5F44"/>
<path d="M266.113 262.688C263.205 264.66 259.777 266.269 256.343 267.777C255.681 268.084 255.26 267.342 255.923 267.035C259.209 265.546 262.61 263.981 265.431 262.04C266.035 261.721 266.684 262.311 266.113 262.688Z" fill="#6D5F44"/>
<path d="M317.591 262.345C314.683 264.421 311.255 266.115 307.822 267.702C307.159 268.025 306.738 267.245 307.401 266.922C310.688 265.354 314.088 263.706 316.91 261.664C317.513 261.327 318.162 261.949 317.591 262.345Z" fill="#6D5F44"/>
<path d="M365.852 262.688C362.944 264.66 359.516 266.269 356.082 267.777C355.42 268.084 354.999 267.342 355.662 267.035C358.948 265.546 362.349 263.981 365.17 262.04C365.774 261.721 366.423 262.311 365.852 262.688Z" fill="#6D5F44"/>
<path d="M418.958 262.42C416.122 264.471 412.759 266.133 409.388 267.688C408.738 268.005 408.299 267.218 408.949 266.901C412.175 265.363 415.512 263.748 418.263 261.729C418.854 261.398 419.515 262.029 418.958 262.42Z" fill="#6D5F44"/>
<path d="M178.44 263.137C175.531 265.109 172.103 266.718 168.67 268.226C168.007 268.533 167.586 267.791 168.249 267.485C171.536 265.995 174.937 264.43 177.758 262.49C178.361 262.17 179.01 262.761 178.44 263.137Z" fill="#6D5F44"/>
<path d="M229.113 262.862C226.205 264.937 222.777 266.631 219.344 268.219C218.681 268.542 218.26 267.761 218.923 267.438C222.209 265.87 225.61 264.223 228.432 262.18C229.035 261.844 229.684 262.466 229.113 262.862Z" fill="#6D5F44"/>
<path d="M277.355 262.72C274.372 264.811 270.877 266.529 267.38 268.14C266.704 268.468 266.302 267.697 266.978 267.369C270.327 265.778 273.793 264.107 276.687 262.049C277.303 261.708 277.94 262.32 277.355 262.72Z" fill="#6D5F44"/>
<path d="M286.225 262.652C283.242 264.744 279.747 266.461 276.25 268.073C275.574 268.401 275.172 267.629 275.848 267.302C279.197 265.711 282.663 264.04 285.558 261.981C286.174 261.641 286.81 262.252 286.225 262.652Z" fill="#6D5F44"/>
<path d="M296.688 262.652C293.705 264.744 290.21 266.461 286.713 268.073C286.037 268.401 285.635 267.629 286.311 267.302C289.66 265.711 293.126 264.04 296.02 261.981C296.636 261.641 297.273 262.252 296.688 262.652Z" fill="#6D5F44"/>
<path d="M328.852 262.345C325.944 264.421 322.516 266.115 319.083 267.702C318.42 268.025 317.999 267.245 318.662 266.922C321.949 265.354 325.349 263.706 328.171 261.664C328.774 261.327 329.423 261.949 328.852 262.345Z" fill="#6D5F44"/>
<path d="M377.172 262.593C374.243 264.598 370.796 266.238 367.345 267.774C366.679 268.087 366.263 267.337 366.929 267.025C370.233 265.507 373.652 263.912 376.494 261.939C377.101 261.614 377.746 262.21 377.172 262.593Z" fill="#6D5F44"/>
<path d="M430.172 262.283C427.154 264.431 423.628 266.199 420.101 267.859C419.419 268.197 419.026 267.411 419.707 267.074C423.086 265.435 426.583 263.715 429.511 261.602C430.133 261.252 430.763 261.873 430.172 262.283Z" fill="#6D5F44"/>
<path d="M188.893 263.137C185.985 265.109 182.557 266.718 179.124 268.226C178.461 268.533 178.04 267.791 178.703 267.485C181.989 265.995 185.39 264.43 188.212 262.49C188.815 262.17 189.464 262.761 188.893 263.137Z" fill="#6D5F44"/>
<path d="M198.284 263.005C195.375 264.977 191.947 266.586 188.514 268.094C187.851 268.401 187.431 267.66 188.093 267.353C191.38 265.863 194.781 264.298 197.602 262.358C198.206 262.038 198.855 262.629 198.284 263.005Z" fill="#6D5F44"/>
<path d="M247.616 262.862C244.707 264.937 241.279 266.631 237.846 268.219C237.183 268.542 236.762 267.761 237.425 267.438C240.712 265.87 244.113 264.223 246.934 262.18C247.537 261.844 248.186 262.466 247.616 262.862Z" fill="#6D5F44"/>
<path d="M236.918 262.729C234.01 264.805 230.582 266.498 227.149 268.086C226.486 268.409 226.065 267.628 226.728 267.305C230.014 265.737 233.415 264.09 236.237 262.047C236.84 261.711 237.489 262.333 236.918 262.729Z" fill="#6D5F44"/>
<path d="M343.331 262.345C340.422 264.421 336.994 266.115 333.561 267.702C332.898 268.025 332.477 267.245 333.14 266.922C336.427 265.354 339.828 263.706 342.649 261.664C343.252 261.327 343.901 261.949 343.331 262.345Z" fill="#6D5F44"/>
<path d="M391.805 262.342C388.821 264.436 385.325 266.156 381.826 267.77C381.151 268.097 380.749 267.326 381.425 266.998C384.775 265.405 388.243 263.731 391.138 261.671C391.754 261.33 392.391 261.942 391.805 262.342Z" fill="#6D5F44"/>
<path d="M444.679 262.3C441.77 264.332 438.342 265.991 434.909 267.545C434.246 267.861 433.825 267.097 434.488 266.781C437.775 265.246 441.176 263.633 443.997 261.633C444.6 261.303 445.249 261.912 444.679 262.3Z" fill="#6D5F44"/>
<path d="M467.2 262.3C464.292 264.332 460.864 265.991 457.431 267.545C456.768 267.861 456.347 267.097 457.01 266.781C460.296 265.246 463.697 263.633 466.519 261.633C467.122 261.303 467.771 261.912 467.2 262.3Z" fill="#6D5F44"/>
<path d="M455.844 262.3C452.936 264.332 449.508 265.991 446.075 267.545C445.412 267.861 444.991 267.097 445.654 266.781C448.941 265.246 452.341 263.633 455.163 261.633C455.766 261.303 456.415 261.912 455.844 262.3Z" fill="#6D5F44"/>
<path d="M478.382 262.3C475.474 264.332 472.045 265.991 468.612 267.545C467.95 267.861 467.529 267.097 468.191 266.781C471.478 265.246 474.879 263.633 477.7 261.633C478.304 261.303 478.953 261.912 478.382 262.3Z" fill="#6D5F44"/>
<path d="M488.845 262.3C485.937 264.332 482.509 265.991 479.075 267.545C478.413 267.861 477.992 267.097 478.655 266.781C481.941 265.246 485.342 263.633 488.164 261.633C488.767 261.303 489.416 261.912 488.845 262.3Z" fill="#6D5F44"/>
<path d="M497.699 261.915C494.791 263.948 491.362 265.606 487.929 267.16C487.267 267.477 486.846 266.713 487.508 266.396C490.795 264.861 494.196 263.248 497.017 261.248C497.621 260.918 498.27 261.527 497.699 261.915Z" fill="#6D5F44"/>
<path d="M506.552 262.3C503.644 264.332 500.216 265.991 496.783 267.545C496.12 267.861 495.699 267.097 496.362 266.781C499.649 265.246 503.049 263.633 505.871 261.633C506.474 261.303 507.123 261.912 506.552 262.3Z" fill="#6D5F44"/>
<path d="M519.43 262.3C516.522 264.332 513.094 265.991 509.661 267.545C508.998 267.861 508.577 267.097 509.24 266.781C512.527 265.246 515.927 263.633 518.749 261.633C519.352 261.303 520.001 261.912 519.43 262.3Z" fill="#6D5F44"/>
<path d="M532.308 262.3C529.4 264.332 525.972 265.991 522.539 267.545C521.876 267.861 521.455 267.097 522.118 266.781C525.404 265.246 528.805 263.633 531.627 261.633C532.23 261.303 532.879 261.912 532.308 262.3Z" fill="#6D5F44"/>
<path d="M545.186 262.3C542.278 264.332 538.85 265.991 535.416 267.545C534.754 267.861 534.333 267.097 534.996 266.781C538.282 265.246 541.683 263.633 544.504 261.633C545.108 261.303 545.757 261.912 545.186 262.3Z" fill="#6D5F44"/>
<path d="M556.455 262.3C553.546 264.332 550.118 265.991 546.685 267.545C546.022 267.861 545.602 267.097 546.264 266.781C549.551 265.246 552.952 263.633 555.773 261.633C556.376 261.303 557.026 261.912 556.455 262.3Z" fill="#6D5F44"/>
<path d="M577.382 262.3C574.473 264.332 571.045 265.991 567.612 267.545C566.949 267.861 566.529 267.097 567.191 266.781C570.478 265.246 573.879 263.633 576.7 261.633C577.303 261.303 577.953 261.912 577.382 262.3Z" fill="#6D5F44"/>
<path d="M586.235 262.3C583.327 264.332 579.899 265.991 576.466 267.545C575.803 267.861 575.382 267.097 576.045 266.781C579.331 265.246 582.732 263.633 585.554 261.633C586.157 261.303 586.806 261.912 586.235 262.3Z" fill="#6D5F44"/>
<path d="M567.723 261.533C564.814 263.565 561.386 265.223 557.953 266.778C557.29 267.094 556.87 266.33 557.532 266.014C560.819 264.478 564.22 262.865 567.041 260.865C567.644 260.536 568.294 261.144 567.723 261.533Z" fill="#6D5F44"/>
<path d="M597.503 262.3C594.595 264.332 591.167 265.991 587.734 267.545C587.071 267.861 586.65 267.097 587.313 266.781C590.599 265.246 594 263.633 596.822 261.633C597.425 261.303 598.074 261.912 597.503 262.3Z" fill="#6D5F44"/>
<path d="M611.991 261.915C609.083 263.948 605.654 265.606 602.221 267.16C601.559 267.477 601.138 266.713 601.8 266.396C605.087 264.861 608.488 263.248 611.309 261.248C611.913 260.918 612.562 261.527 611.991 261.915Z" fill="#6D5F44"/>
<path d="M626.479 261.533C623.57 263.565 620.142 265.223 616.709 266.778C616.046 267.094 615.625 266.33 616.288 266.014C619.575 264.478 622.976 262.865 625.797 260.865C626.4 260.536 627.049 261.144 626.479 261.533Z" fill="#6D5F44"/>
<path fill-rule="evenodd" clip-rule="evenodd" d="M658.012 253.783C657.998 257.604 654.923 260.598 651.102 260.647L643.098 260.75L152.122 262.477H35.8172L18.2055 261.602C17.1097 261.548 16.0756 261.079 15.3125 260.291C14.5259 259.478 14.0889 258.39 14.095 257.259L15.2821 38.9878C15.2891 37.7004 15.6262 36.4197 16.3951 35.3872C19.3514 31.4178 22.9407 29.8517 30.5351 28.8283C30.8341 28.788 30.8043 28.7684 31.106 28.7686C40.817 28.7747 646.356 29.1522 651.146 29.1522C655.976 29.1522 658.793 30.1115 658.793 31.6467C658.793 33.0233 658.146 216.006 658.012 253.783Z" fill="#FFFEFB"/>
<path d="M631.726 48.3918C631.333 48.2154 630.94 47.9508 631.071 47.598C631.202 47.1569 630.155 46.8923 630.025 47.4215C629.894 48.039 630.286 48.7446 631.202 49.0093C631.726 49.1857 632.38 48.5682 631.726 48.3918Z" fill="#231F20"/>
<path d="M49.8319 46.2245C50.0319 46.7983 49.8319 47.3083 49.1319 47.6909C48.7319 47.9459 49.3319 48.3285 49.7319 48.0734C50.6319 47.5634 50.9319 46.7983 50.6319 46.0332C50.5319 45.7144 49.7319 45.8419 49.8319 46.2245Z" fill="#231F20"/>
<path d="M46.4091 47.7589C46.1091 47.6951 45.9091 47.5039 45.8091 47.3126C45.7091 46.9938 44.9091 47.1213 45.0091 47.4401C45.2091 47.8226 45.6091 48.1414 46.2091 48.2689C46.7091 48.3964 47.0091 47.8864 46.4091 47.7589Z" fill="#231F20"/>
<path d="M634.582 47.9438C634.094 48.3708 633.607 48.7124 633.119 49.1395C632.631 49.5665 633.769 49.9081 634.257 49.4811C634.744 49.0541 635.232 48.7124 635.882 48.2854C636.369 47.9438 635.232 47.5167 634.582 47.9438Z" fill="#231F20"/>
</g>
<g clip-path="url(#clip1_7_2)">
<path d="M651.972 13.2583C651.165 15.7613 646.843 16.764 643.248 15.6047C639.653 14.4454 637.115 11.8558 637.922 9.35277C638.594 5.81683 642.901 4.8604 646.496 6.01971C650.091 7.17902 652.78 10.7553 651.972 13.2583Z" fill="#EFDAB2"/>
<path d="M636.485 31.248L641.296 32.7996L640.927 33.4621L633.145 50.8098L636.444 31.8602L636.485 31.248Z" fill="#FFFCF6"/>
<path d="M656.22 29.6389C655.033 33.3197 645.995 34.3157 638.018 31.7432C634.13 30.8021 624.02 24.6248 625.207 20.9439C625.877 15.6415 635.476 14.819 643.454 17.3916C651.431 19.9641 657.474 25.7483 656.22 29.6389Z" fill="#EFDAB2"/>
<path d="M640.176 13.9879L646.969 16.1783L646.589 20.7465L638.099 18.0086L640.176 13.9879Z" fill="#EFDAB2"/>
<path fill-rule="evenodd" clip-rule="evenodd" d="M635.868 43.9087L635.617 43.8277C635.983 42.6925 636.152 42.7445 636.219 42.5364C636.318 42.2289 636.104 41.9939 636.771 41.9383L635.868 43.9087ZM650.426 11.3892C650.359 11.7071 650.174 11.706 650.959 11.7475C651.059 11.4146 651.046 11.5584 651.012 11.2999C650.621 11.3118 650.786 11.4083 650.426 11.3892ZM653.298 24.5669C653.414 24.9181 653.212 24.6208 653.532 24.8669C653.658 24.9662 653.775 25.0448 653.867 25.1152C654.133 25.3159 654.338 25.4765 654.587 25.4446C654.451 24.9592 653.542 24.4106 653.298 24.5669ZM653.309 25.6834C653.494 26.3326 654.004 26.1728 654.348 26.6921C654.578 27.0368 654.389 27.0526 654.772 27.176C654.953 27.0097 654.914 27.0201 655.017 26.6987C654.71 26.3825 653.831 25.6524 653.309 25.6834ZM631.983 23.5382C632.335 23.6519 632.547 23.1051 633.832 23.0499C633.881 23.0478 634.164 23.0317 634.172 23.0293C634.395 22.9632 634.285 23.0657 634.432 22.8222C634.192 22.3748 633.699 22.5728 632.986 22.7641C632.873 22.7968 631.453 23.3673 631.983 23.5382ZM640.725 23.1109C640.813 23.6114 640.887 23.533 641.79 23.8244C642.042 23.9054 642.936 24.0048 643.128 23.9774C643.334 23.2832 642.901 23.5851 642.249 23.4846C641.675 23.394 641.293 23.1485 640.725 23.1109ZM628.026 23.1914C628.319 23.2781 628.169 23.2682 628.399 23.235C628.407 23.2349 628.734 23.1208 628.757 23.1106L630.022 22.5717C630.281 22.489 630.554 22.5237 630.636 22.2694C630.85 21.6082 629.85 22.1765 629.771 22.215C628.228 22.9758 628.24 22.5302 628.026 23.1914ZM645.739 29.6462C646.265 29.785 646.723 29.4429 647.298 29.406C647.448 29.5948 647.597 29.7399 647.744 29.948C647.907 30.1766 647.939 30.3276 648.254 30.4571C648.482 30.056 648.375 29.9704 648.055 29.6451C647.594 29.1747 647.872 29.2262 647.57 28.8455C647.38 28.8506 645.941 29.1625 645.739 29.6462ZM635.858 17.5492C636.614 17.793 636.768 18.1055 637.058 17.8443C637.084 17.3295 636.36 17.239 635.866 17.1536C635.085 17.0192 633.821 16.6219 633.744 17.059C633.661 17.5045 634.752 17.1925 635.858 17.5492ZM648.125 31.7149C648.367 32.0225 648.129 31.9176 648.445 31.9303L649.88 31.719C650.147 31.6647 650.474 31.5967 650.759 31.5176C650.773 31.5143 650.94 31.4688 650.943 31.4672C651.468 31.3763 651.448 31.62 651.634 31.1718C651.207 30.7102 650.525 31.1845 649.741 31.3043L648.503 31.4842C648.153 31.5909 648.429 31.4198 648.125 31.7149ZM640.026 13.2321C640.404 13.321 640.33 13.2204 640.548 13.2142C640.903 13.2035 640.659 13.4772 640.971 13.1666L641.105 12.4671C641.216 12.1226 641.25 12.2229 641.378 11.9043L640.958 11.769C640.698 12.3947 640.646 12.1456 640.579 12.9458C640.224 12.4535 640.715 11.9153 640.604 11.5194C640.446 10.9528 639.807 11.6224 640.026 13.2321ZM630.128 18.3942C630.541 18.5173 630.541 18.4305 630.907 18.4081C632.037 18.3437 634.601 18.4813 635.734 18.6757C636.247 18.7646 636.317 18.9428 636.536 18.6025C636.375 18.1143 635.658 18.2633 634.993 18.1868L631.627 18.0379C631.295 18.0484 631.079 18.0423 630.798 18.0591C630.319 18.0858 630.273 17.9204 630.128 18.3942ZM626.945 20.8008C627.048 21.3956 627.118 21.2751 627.982 20.9133C628.709 20.609 629.534 20.4412 630.34 20.3181C631.64 20.1198 633.35 20.268 634.659 20.6901C634.885 20.763 634.903 20.7252 635.106 20.7422C635.173 19.9497 634.209 20.0422 633.378 19.9628C631.507 19.7833 630.448 19.7762 628.642 20.2887L627.355 20.6497C627.141 20.6981 627.126 20.7036 626.945 20.8008ZM645.79 27.248C645.982 27.1976 646.18 27.1924 646.358 27.1528C646.6 27.4021 646.588 27.2909 646.661 27.6488C646.311 27.7147 645.942 27.8815 645.79 27.248ZM646.396 25.0313L646.341 25.2C646.684 25.4229 647.18 26.0473 647.407 26.1946C647.139 26.4095 646.847 26.5578 646.519 26.6511C646.185 26.4489 646.068 26.2351 645.865 25.9347C645.489 25.382 645.439 25.2666 645.128 25.4596C645.183 25.8476 645.098 25.4016 645.587 26.0084C646.209 26.7781 645.941 26.5898 645.715 27.1344C645.531 26.9244 645.382 26.7056 645.204 26.4871C644.979 26.2131 644.899 26.0365 644.451 25.8923C644.426 26.3565 644.413 25.8774 645.122 26.882C645.366 27.2288 645.72 27.5598 645.612 28.0302C646.065 28.2197 645.764 28.3089 646.284 28.5253C646.932 27.4377 647.117 28.4211 647.22 28.549C647.419 28.7995 648.051 28.7889 647.392 27.9535C647.762 27.4296 647.609 27.5487 647.582 27.3639C647.185 27.2714 647.332 27.3574 646.998 27.4539L646.746 27.0941C647.11 26.5864 647.946 26.8101 648.075 26.4101C648.196 26.051 646.908 25.1555 646.396 25.0313ZM646.459 9.92352C647.094 9.97506 647.067 9.6551 647.883 10.3114C647.01 10.4867 647.204 10.3655 646.405 10.09L646.459 9.92352ZM649.276 10.6481C649.471 10.4302 649.467 10.567 649.761 10.4678C649.829 10.5331 649.928 10.6288 650.001 10.6956C649.837 10.8241 649.834 10.8257 649.62 10.9125L649.446 10.9812C649.427 10.9852 649.401 10.9947 649.381 10.9987C649.21 11.0405 649.319 11.0194 649.153 11.0196L649.273 10.6474L649.276 10.6481ZM648.072 9.79557C648.273 9.81184 648.667 9.76536 648.757 9.77899C648.907 9.80195 649.094 9.98196 649.272 10.0906C649.143 10.1458 649.324 10.097 649.095 10.1586L648.59 10.2024C648.323 10.1316 648.145 10.0206 648.072 9.79557ZM646.786 9.19426C646.968 9.06405 647.293 9.03367 647.548 9.03169C647.831 9.02864 647.955 9.22162 648.208 9.37479C648.19 9.3842 648.163 9.39601 648.152 9.39997L647.772 9.47932C647.101 9.52571 647.243 9.35446 646.786 9.19426ZM649.738 9.65631C649.906 9.66449 649.843 9.69281 650.126 9.80957C649.728 10.0435 649.85 9.91699 649.378 9.75464L649.738 9.65631ZM648.399 9.06631C648.73 8.81315 648.975 8.93033 649.166 9.237C648.659 9.35688 648.841 9.24971 648.399 9.06631ZM650.522 9.65633C649.079 8.78789 649.783 9.05296 649.703 8.46324C648.46 8.17479 649.841 9.13298 647.287 7.45705C646.905 7.20619 646.772 7.14542 646.52 7.43689L648.174 8.621C647.584 8.57359 647.401 8.40737 646.853 8.10837C645.821 7.54579 645.856 7.37569 645.662 7.81092C646.129 8.00481 646.633 8.44558 647.146 8.6597C647.126 8.66837 647.097 8.67712 647.087 8.67877C647.073 8.68199 647.041 8.69463 647.027 8.69785C646.012 8.94991 646.037 8.69006 645.22 8.17893L644.255 7.55112C643.839 7.27912 643.616 7.03884 643.349 7.52707C643.534 7.70403 644.177 7.91906 644.504 8.12673C644.857 8.35026 645.197 8.65148 645.573 8.80334C645.315 8.99044 645.315 8.96509 645.372 9.29472C646.032 9.44889 645.552 8.92414 646.638 9.51686L646.369 9.59579C645.846 9.7028 645.676 9.5587 645.292 9.33782L642.792 7.81721C641.979 7.3406 641.861 7.13144 641.654 7.63132C641.85 7.81967 642.381 7.98061 642.62 8.11628L645.154 9.68643C644.458 10.0541 644.187 9.6784 643.905 10.1184C644.188 10.3857 644.725 10.1964 645.104 10.1324C645.831 10.0094 645.569 10.0091 646.221 10.4007C645.596 10.8552 644.495 10.2296 644.417 11.1182L645.051 11.126C645.612 11.0109 644.95 11.0526 646.189 10.8856L647.917 10.7027C648.643 10.615 648.44 10.6848 648.985 11.0138C648.716 11.2079 647.397 11.3211 647.029 11.3021C646.666 11.2845 646.639 11.2272 646.484 11.5982C646.84 11.8025 646.68 11.7075 647.439 11.674C647.947 11.6516 647.69 11.7089 648.409 11.9408C648.578 11.7554 648.521 11.796 648.544 11.52C648.924 11.5505 649.971 11.3395 650.355 11.2156C650.951 11.0249 650.684 10.911 650.682 10.9103C650.656 10.644 650.088 10.1725 650.277 9.90164C650.443 9.64873 650.267 10.2251 650.522 9.65633ZM650.855 28.4192C651.143 28.5121 650.918 28.4347 651.088 28.6502C651.416 29.0698 651.331 29.2136 651.645 29.4168C651.106 30.2513 650.723 29.1602 650.247 28.8743C650.369 28.5842 650.279 28.6981 650.504 28.5536C650.565 28.5122 650.804 28.4029 650.855 28.4192ZM650.658 27.4675C650.405 27.1692 650.425 27.3518 650.481 26.9994C650.693 26.8075 651.155 27.3063 651.256 27.6961L651.046 27.8327C650.785 27.6743 650.833 27.6745 650.658 27.4675ZM650.712 24.8458C651.786 25.2943 651.301 25.758 651.194 25.9304C650.701 25.7253 650.901 25.5857 650.463 25.3246C650.574 25.1384 650.622 25.1002 650.712 24.8458ZM650.43 24.5685C650.304 24.8725 650.292 24.8557 650.079 24.9786C649.183 24.105 649.066 24.4987 649.282 23.8283C649.725 24.0731 650.039 24.4068 650.43 24.5685ZM648.165 23.56L648.355 22.9704C648.448 22.6814 648.398 22.6243 648.462 22.3541C649.428 22.6885 649.064 22.8698 649.047 22.9307C648.814 23.6927 649.101 23.3487 648.805 23.871L648.165 23.56ZM648.592 21.3774L650.266 22.4099C650.501 22.5979 650.501 22.6363 650.831 22.7502C650.698 23.1618 650.72 23.1078 650.708 23.4458C650.701 23.6579 650.669 23.9462 650.648 24.1768C649.255 23.7226 649.501 23.22 649.467 22.9615C649.82 23.0345 649.599 23.0753 649.844 22.8968C649.774 22.5243 649.746 22.5231 649.364 22.3129C649.03 22.1314 648.797 22.0026 648.428 21.8837C648.488 21.6273 648.504 21.4436 648.23 21.3551C647.817 21.2221 648.296 21.3383 647.91 21.4154L647.719 21.4482C647.386 21.5094 647.501 21.3522 647.28 21.7202C647.696 22.0636 648.017 21.8658 647.991 22.5289C647.984 22.7332 647.934 23.054 647.87 23.1561C647.576 23.6277 647.742 22.9156 647.498 23.6255C648.197 24.045 648.431 23.8627 648.564 24.6201C649.086 24.7427 648.849 24.3344 649.529 25.0359C649.632 25.1431 649.722 25.2082 649.824 25.3046C649.799 25.3272 649.615 25.4927 649.584 25.5438C649.462 25.747 649.481 25.8144 649.521 25.9499C649.864 26.0223 649.841 26.0248 649.991 25.6369C650.503 25.8019 650.484 25.8774 650.706 26.2375C650.528 26.5527 650.383 26.4652 650.169 26.8069L649.596 26.6503C649.763 27.054 650.298 27.5252 650.654 27.89C650.492 28.1467 650.161 28.2823 649.935 28.4007C649.601 28.0557 649.568 27.7388 649.007 27.5452C648.887 28.058 649.077 27.8102 649.59 28.578L650.615 30.0139C649.902 29.9547 650.031 29.5217 649.141 28.6681C648.941 28.4759 648.733 28.3092 648.457 28.3913C648.439 28.7378 648.433 28.6081 648.691 28.8342C649.518 29.558 649.306 29.538 649.755 30.1091C649.525 30.4664 649.6 30.1408 649.424 30.5589C649.728 30.6286 650.022 30.6085 650.258 30.5468C650.432 30.5035 650.444 30.4665 650.619 30.4285C651.182 30.3088 650.855 30.5788 651.348 30.2118C651.75 29.9103 652.234 30.0356 652.2 29.6904C652.168 29.3559 652.023 29.6255 651.8 29.1963C651.581 28.7785 651.657 28.7877 651.186 28.2506L651.556 28.0124C652.108 28.5632 652.403 29.2581 652.755 29.4049C652.908 28.752 652.058 28.3656 651.879 27.823C652.012 27.6311 652.349 27.3925 652.542 27.2023C652.777 27.4516 652.988 27.6982 653.189 27.9902C653.477 28.4125 653.658 28.3277 653.447 28.9796C653.979 29.1052 653.934 29.0013 654.093 29.5579C653.679 30.2005 653.275 29.7994 653.016 30.6017C653.506 30.7469 653.476 30.579 653.844 30.3047C654.364 29.9159 654.358 30.0696 654.682 30.0262C654.876 29.4251 655.089 29.4658 654.952 28.9058C654.636 28.8908 654.679 28.8689 654.51 29.1333C654.23 28.9512 654.363 28.989 654.171 28.7461C654.397 28.5662 654.504 28.5443 654.64 28.1543C655.241 28.5702 654.775 29.0276 655.486 29.2618C655.737 28.508 655.511 28.5988 655.159 28.0972C654.89 27.7169 654.8 27.3715 654.213 27.182C654.09 27.704 654.541 27.6707 653.943 28.3023C653.446 27.9813 653.328 27.2261 652.79 27.0015C652.901 26.6263 652.96 26.7523 652.758 26.5264C652.422 26.5101 652.381 26.6779 652.129 26.9441C651.882 27.2063 651.837 27.2429 651.542 27.4235C651.248 27.1525 651.174 26.9728 650.948 26.6857C651.415 26.1623 652.514 25.2227 652.378 24.5483C651.982 24.4566 651.938 24.5953 651.768 25.0026C651.423 24.8581 651.236 24.6397 650.928 24.4534C651.136 23.8083 651.148 23.5978 651.193 23.0535C651.96 23.6351 651.843 23.7277 652.482 23.9336C652.575 23.5348 652.268 23.3108 651.841 23.002L649.673 21.5907C648.999 21.1464 648.761 20.8525 648.592 21.3774ZM638.243 36.6011C638.502 36.5392 638.475 36.584 638.756 36.6747L638.593 37.1787C638.575 37.1551 638.527 37.0911 638.516 37.0797C637.965 36.5066 638.298 36.92 638.243 36.6011ZM638.453 35.6711L639.028 35.8308L638.918 36.1707L638.331 35.9812C638.416 35.8835 638.453 35.87 638.453 35.6711ZM638.586 35.2289C638.77 34.7293 638.922 34.8013 639.298 34.9939L639.19 35.3291L638.586 35.2289ZM639.121 33.8216C639.558 33.9727 639.594 34.043 639.461 34.4876L638.959 34.3256L639.121 33.8216ZM639.782 35.1807C639.745 35.0206 639.697 35.3344 639.745 34.9008L640.014 34.1936C640.209 33.8022 639.989 34.0326 640.266 34.002C640.14 34.3927 639.958 34.6988 639.782 35.1807ZM639.457 32.5592C639.822 32.7381 639.998 32.7108 640.533 32.8832L640.206 33.6125C640.466 32.8056 640.123 33.1134 639.42 32.8944C639.424 32.8445 639.456 32.5615 639.457 32.5592ZM638.889 32.8203C638.341 32.6434 638.519 32.6906 638.333 32.827C638.432 33.127 638.347 33.0181 638.781 33.1578L638.726 33.3266C638.445 33.2436 638.176 33.1928 638.135 33.4958C638.092 33.8011 638.339 33.6664 638.759 33.8016C638.534 34.4999 638.593 34.1974 638.287 34.2468C637.759 34.3293 637.733 34.6398 638.044 34.7248C638.126 34.7462 638.117 34.6411 638.448 34.7327C638.317 34.9277 638.393 34.9675 638.278 35.0886C638.269 35.0987 638.248 35.1173 638.238 35.1243C638.211 35.1461 637.911 35.2692 637.804 35.3264C637.952 36.0045 637.951 35.3279 638.109 35.8177C637.633 36.0778 637.224 35.7519 637.335 36.4972C637.775 36.5194 637.478 36.3851 637.918 36.4072C637.737 36.9691 637.875 36.6919 637.577 36.8433C637.418 36.9249 637.126 36.9403 637.272 37.2275C637.395 37.4689 637.371 37.2694 637.823 37.326C638.202 37.3742 638.148 37.4869 638.515 37.4368C638.449 37.6403 638.38 37.8016 638.363 38.0106C638.31 38.7362 638.179 38.8167 637.82 39.5048L636.869 41.6178C636.748 41.5047 636.643 41.4582 636.518 41.3413C636.733 40.9818 636.769 40.8478 636.926 40.36L637.289 40.3722L637.423 39.9637C637.007 39.7301 637.169 39.8974 637.17 39.604C637.569 39.6358 637.443 39.6563 637.644 39.4353L637.445 39.0442C637.851 39.0783 637.797 39.0965 637.941 38.648C637.781 38.4969 637.766 38.4333 637.479 38.4633L637.568 38.063C637.89 38.2484 638.001 38.3355 638.186 37.8897C637.918 37.5992 637.048 37.4027 636.905 37.8466C636.813 38.131 636.848 38.0607 637.075 38.1796C636.623 39.3434 636.472 39.3611 636.809 39.5794C636.189 40.1836 636.361 39.9099 636.49 40.4975C635.882 40.789 636.117 41.1482 636.09 41.3359L635.741 42.2904C635.386 42.8088 635.642 42.6209 635.501 43.0579C634.786 45.2751 634.172 47.6701 633.319 49.756C633.677 47.9803 634.181 46.1417 634.448 44.3671C635.183 40.6222 636.063 36.858 636.615 33.0874C636.723 32.3413 636.64 32.5696 636.913 31.8409L639.11 32.4347C638.927 32.6156 639.006 32.4903 638.889 32.8203ZM642.504 22.7553C642.608 22.5822 642.65 22.5879 642.723 22.3613L642.806 22.3881C642.67 22.8165 642.789 22.6609 642.504 22.7553ZM643.701 22.4929C643.595 22.8212 643.675 22.8649 643.407 22.9061C643.177 22.9416 643.141 22.7923 643.2 22.6096C643.29 22.3299 643.429 22.4105 643.701 22.4929ZM637.338 21.2757C637.223 21.1518 637.121 21.341 637.331 20.4387C637.525 20.5602 637.43 20.4937 637.584 20.6326L637.338 21.2757ZM638.128 20.7266C638.127 20.7135 638.118 20.6798 638.118 20.6622L638.22 20.2609C638.494 20.546 638.468 20.8158 638.142 20.7871C638.138 20.7679 638.129 20.7396 638.128 20.7266ZM645.81 22.5094C645.542 23.5129 644.623 24.0028 643.882 23.9424C643.846 23.7393 643.831 23.7064 643.849 23.4674C644.183 23.4346 644.568 23.551 644.852 23.5127C644.954 23.1729 644.925 22.972 644.956 22.6168C645.253 22.7127 645.35 22.7746 645.606 22.6529L645.81 22.5094ZM644.509 22.4957L644.429 23.0979C643.897 22.9262 643.917 22.9659 644.087 22.4465L644.509 22.4957ZM642.936 21.131L643.104 21.1853C643.034 21.474 643.086 21.4243 643.008 21.6671C642.944 21.8659 642.991 21.8454 642.742 21.908L642.936 21.131ZM637.742 19.4559C637.848 19.5922 638.025 19.7539 637.942 19.9851L637.853 20.2242C637.657 19.9621 637.603 19.9012 637.742 19.4559ZM643.416 21.4415C643.491 21.2003 644.163 20.7661 643.751 22.0446C643.546 22.0268 643.536 22.0469 643.305 21.9926C643.374 21.7392 643.373 21.5756 643.416 21.4415ZM644.82 21.2766L644.645 22.1287L644.131 22.0728L644.298 21.2154L644.82 21.2766ZM639.051 19.6944C638.988 19.7404 638.679 19.8958 638.595 19.8714C638.387 19.8122 638.516 19.6341 638.603 19.3636C638.844 19.5077 638.811 19.548 639.051 19.6944ZM643.601 20.789C643.642 20.6619 643.742 20.2806 643.787 20.1903C643.935 19.8807 643.839 19.957 644.208 20.0583C644.015 20.6571 644.3 20.9965 643.601 20.789ZM643.144 20.1642C643.288 19.7794 643.179 19.9357 643.482 20.0077L643.238 20.7637L643.07 20.7095C643.145 20.4122 643.066 20.3739 643.144 20.1642ZM644.959 20.0195C644.982 20.1928 644.932 20.6157 644.883 20.8297L644.354 20.751L644.597 20.0049L644.959 20.0195ZM645.141 19.0906C645.15 19.6012 644.949 19.5749 644.65 19.5497C644.714 19.2795 644.663 19.2247 644.757 18.9334C644.88 18.5443 645.134 18.8203 645.141 19.0906ZM645.81 22.5094C645.563 22.1288 645.399 22.2035 645.008 22.1716C645.145 21.7462 645.072 21.6871 645.223 21.2201C645.556 21.2434 645.559 21.2671 645.693 20.9071L645.273 20.7718C645.327 20.5416 645.347 20.2288 645.322 20.0448C645.581 20.0005 646.095 20.1002 646.133 19.7549C646.178 19.3382 645.692 19.5362 645.402 19.5117L645.605 18.8828C646.494 18.904 646.373 18.9698 646.409 19.1983L645.81 22.5094ZM643.554 18.6399C643.875 18.787 643.7 18.613 643.617 19.5893L643.282 19.4815L643.554 18.6399ZM647.043 19.3005C647.909 19.5799 651.05 21.4454 651.867 22.1477C653.293 23.3758 654.834 24.5772 655.522 26.3661C656.64 29.2717 655.552 30.7049 652.723 31.8013C647.295 33.9049 641.804 32.6883 636.455 30.9173C634.143 30.1512 627.308 25.4355 626.217 23.2792C625.368 21.6042 625.34 20.2551 625.864 19.2219C627.404 16.1887 635.71 15.8298 638.441 16.7105C638.051 17.8352 636.723 19.7832 636.639 20.7925C636.597 21.2845 636.528 21.3896 636.742 21.7905C638.177 24.4485 642.535 25.8715 645.179 24.2917C646.988 23.2109 646.716 20.3131 647.043 19.3005ZM644.027 19.1678C644.124 18.8058 644.06 18.8234 644.196 18.6607C644.451 18.8246 644.411 18.8143 644.382 19.1341C644.355 19.4216 644.349 19.5752 644.103 19.6109C643.799 19.6533 643.967 19.3958 644.027 19.1678ZM643.85 17.4364L643.933 17.4631C643.853 17.7128 643.912 17.7421 643.883 17.9982C643.836 18.4042 643.963 18.2615 643.607 18.1924L643.85 17.4364ZM644.968 17.7024C645.878 17.572 645.951 17.9913 646.609 17.4889C646.575 17.9016 646.611 18.0587 646.452 18.5511C646.051 18.4218 646.086 18.4967 645.755 18.4181C645.495 18.0077 645.883 18.2017 645.334 18.0041C645.201 18.3772 645.245 18.3737 644.864 18.3171C644.823 18.0718 644.738 18.4145 644.968 17.7024ZM644.47 18.3789C643.901 18.124 644.371 18.0482 644.294 17.4877L644.616 17.6017C644.509 17.9984 644.544 18.071 644.47 18.3789ZM642.902 17.2223C643.508 17.4178 643.471 17.24 643.432 17.5745C643.415 17.7122 643.271 18.1123 643.216 18.2504C642.917 18.1537 642.723 18.0529 642.676 18.3391C642.62 18.6861 642.879 18.5474 643.191 18.6123L642.929 19.4569C642.452 19.303 642.464 19.1869 642.251 19.5164C642.353 19.8302 642.559 19.8633 642.895 19.8159C642.571 21.1741 642.99 20.5053 642.019 20.5188C641.926 21.0989 642.105 20.9779 642.598 21.0194C642.506 21.3061 642.429 21.575 642.437 21.8022C642.098 21.7744 642.083 21.7262 641.854 21.8922C641.946 22.4119 641.997 22.0074 642.22 22.475C641.967 22.8018 641.998 22.439 641.807 22.898C642.405 23.466 643.484 22.9821 643.42 23.6072C643.368 24.1161 643.264 23.7432 643.407 24.2486C642.153 24.9394 638.067 23.6625 637.59 21.6301C637.716 21.2394 637.672 21.2737 637.935 21.1034C638.141 21.6572 637.853 21.5236 637.936 21.8898C638.042 22.3579 638.255 21.9593 638.345 21.8762C638.615 22.1521 638.575 22.2362 638.933 22.0657C638.933 21.7977 638.982 21.8594 638.508 21.3722L638.698 20.7826C639.366 21.2892 639.141 21.1526 639.425 21.1089C639.352 20.8224 639.195 20.5676 638.917 20.3886C639.236 19.9812 638.967 19.6569 639.343 20.0131C639.612 20.2682 639.785 20.5667 640.171 20.5149C640.164 20.3137 640.127 20.2734 639.946 20.0696C639.607 19.6923 639.087 19.221 638.875 18.7978C639.191 18.1339 639.407 18.0786 639.419 17.3957C639.079 17.5084 638.886 17.903 638.732 18.3815L638.371 18.357C638.145 19.0322 638.409 18.6577 638.295 19.1673C637.885 18.9021 638.185 18.5932 638.396 18.1455L640.233 14.5954C640.737 15.0745 642.194 15.6924 643.031 15.9622L642.929 16.3965C643.374 16.5376 643.351 16.4434 643.519 16.7449C643.345 16.9772 643.565 16.9717 643.037 16.8016L642.902 17.2223ZM644.405 17.1509C644.38 17.0098 644.384 16.9883 644.431 16.7889C644.655 16.8817 644.61 16.8545 644.738 16.9799C644.43 17.2788 644.712 17.1399 644.405 17.1509ZM645.045 17.1709C645.236 16.7372 645.321 16.9406 645.774 16.9541C646.042 16.9612 646.315 16.9882 646.609 17.0242L646.545 17.3659C646.123 16.9696 646.011 17.4823 645.045 17.1709ZM644.735 16.2718C644.99 16.3313 644.808 16.2342 644.815 16.4484L644.481 16.3406C644.608 16.2309 644.436 16.2036 644.735 16.2718ZM645.262 16.4981C645.501 16.325 645.577 16.4056 645.931 16.4356C645.752 16.6049 645.948 16.5406 645.644 16.5523C645.518 16.5575 645.442 16.5407 645.262 16.4981ZM648.407 15.1003C648.617 15.012 649.13 14.8329 648.984 15.2861C648.913 15.5034 648.62 15.5542 648.532 15.5413C648.319 15.5083 648.384 15.4093 648.407 15.1003ZM646.862 14.6938C646.968 14.3631 646.954 14.4224 647.262 14.4475L647.198 14.8023L646.862 14.6938ZM647.946 14.4156C647.844 14.74 647.956 14.5975 647.697 14.6848C647.646 14.2652 647.607 14.4745 647.946 14.4156ZM649.641 14.1071C649.998 14.1355 649.978 14.0497 650.31 14.0446L650.133 14.932L649.457 15.2549C649.502 14.7283 649.425 14.7775 649.641 14.1071ZM647.355 13.74L647.247 14.0752L646.913 13.9675L647.021 13.6322L647.355 13.74ZM646.389 14.7226C646.098 14.4908 646.365 14.3013 646.379 13.6115C646.619 13.7986 646.487 13.5059 646.542 13.8785L646.528 14.5222C646.434 14.9157 646.491 14.6378 646.389 14.7226ZM648.392 14.5391C648.568 14.1847 648.712 14.2745 649.116 14.3078C648.932 14.5471 649.172 14.4101 648.779 14.4773C648.606 14.5083 648.572 14.5179 648.392 14.5391ZM648.022 13.6767L647.914 14.012L647.745 13.9577L647.854 13.6225L648.022 13.6767ZM639.437 10.1604C639.601 10.3997 639.503 10.3094 639.745 10.4512L639.241 12.7951L639.575 12.9029C639.805 12.1908 639.724 11.6925 640.058 10.8303C643.283 13.1901 644.147 13.0603 646.099 13.613C646.177 15.0091 645.654 14.5823 645.271 14.459L645.163 14.7942C645.391 14.9315 645.392 14.9599 645.724 15.067C645.613 15.4091 645.609 15.3285 645.644 15.5977C646.146 15.4533 645.843 15.4627 646.168 15.1159C646.461 15.3608 646.181 15.3293 646.452 15.672C647.064 15.4634 646.44 15.2981 646.977 15.1902C646.961 15.5068 646.939 15.464 647.203 15.6332C647.595 15.2849 647.367 15.209 647.859 15.1377C647.986 15.3421 647.996 15.5548 647.983 15.793C647.654 15.7174 647.088 15.831 646.758 15.8599L645.499 15.7245C642.811 15.46 640.546 14.6811 638.79 12.4559C639.155 12.0833 639.258 10.7843 639.437 10.1604ZM648.414 13.8952C648.512 13.5924 648.388 13.4478 649.096 13.4694L649.083 13.8327C648.843 13.8753 648.648 13.8635 648.414 13.8952ZM649.596 13.6713C649.73 13.2805 649.634 13.3468 649.963 13.2258C650.139 13.1625 650.292 13.074 650.352 13.1901C650.557 13.5857 649.812 13.649 649.596 13.6713ZM639.437 10.1604C638.777 10.0192 638.944 10.8438 638.564 12.0206C637.849 11.1136 638.154 9.63963 638.536 8.67017L639.437 10.1604ZM650.855 12.9213C651.053 12.8754 651.152 12.8536 651.412 12.9145C651.127 13.8 651.179 14.016 650.727 14.1791L650.944 13.5063C650.694 13.3439 650.697 13.4114 650.855 12.9213ZM639.022 7.579C639.855 6.07093 642.523 5.85945 643.894 5.99522C645.726 6.17518 649.064 7.45561 650.395 8.88048C650.985 9.58607 652.278 10.996 651.518 11.8129C648.751 14.7925 640.52 11.8959 639.252 8.65095C638.852 8.12917 638.821 7.94289 639.022 7.579ZM639.7 14.2424C639.541 14.5076 639.402 14.7794 639.234 15.1107C639.104 15.3647 638.918 15.8459 638.766 16.0749C635.162 15.7627 628.754 15.3401 625.939 18.0592C624.645 19.3088 624.232 21.1203 625.58 23.3598C627.135 25.9389 632.029 29.8014 634.806 30.8552C635.282 31.0367 636.19 31.5798 636.15 32.1386C636.07 33.2231 635.921 34.3314 635.709 35.4395C634.945 39.1495 634.285 43.0741 633.383 46.7317C632.882 48.7676 632.3 52.59 632 54.193C632.656 52.4341 634.864 48.1842 635.095 47.4674L635.693 45.8966C636.027 44.8455 637.167 42.1376 637.638 41.0643C638.037 40.1568 638.565 38.9869 638.997 38.1052C639.729 36.6082 640.201 35.0426 641.013 33.5485C641.462 32.7235 643.037 33.3409 643.863 33.3673C648.038 33.731 658.903 33.3169 656.126 26.3443C655.209 24.0448 653.963 23.2779 652.211 21.7685C651.381 21.1054 647.985 18.8641 647.095 18.5773C647.125 18.2321 647.167 17.8884 647.255 17.5134C647.333 17.1862 647.472 16.621 647.437 16.3672C647.763 16.4443 649.562 15.9219 649.98 15.73C650.336 15.5664 650.782 15.2099 651.039 14.9176C652.15 13.6477 652.727 11.4166 651.973 9.8281C650.596 6.93379 644.96 5.07292 641.985 5.41289C640.733 5.55538 639.42 5.98191 638.723 7.10991C638.324 7.7547 637.898 8.28843 637.679 9.05262C637.405 10.0132 637.409 11.1529 637.856 12.0397C638.292 12.9128 638.986 13.5781 639.7 14.2424Z" fill="black"/>
</g>
<g clip-path="url(#clip2_7_2)">
<path d="M29.3719 12.2583C30.179 14.7613 34.5009 15.764 38.0959 14.6047C41.6909 13.4454 44.2294 10.8558 43.4222 8.35277C42.7506 4.81683 38.4437 3.8604 34.8487 5.01971C31.2537 6.17902 28.5647 9.7553 29.3719 12.2583Z" fill="#EFDAB2"/>
<path d="M44.8591 30.248L40.0479 31.7996L40.4178 32.4621L48.1991 49.8098L44.9003 30.8602L44.8591 30.248Z" fill="#FFFCF6"/>
<path d="M25.1244 28.6389C26.3114 32.3197 35.3491 33.3157 43.3266 30.7432C47.2145 29.8021 57.3244 23.6248 56.1374 19.9439C55.4675 14.6415 45.8682 13.819 37.8907 16.3916C29.9132 18.9641 23.8698 24.7483 25.1244 28.6389Z" fill="#EFDAB2"/>
<path d="M41.168 12.9879L34.3756 15.1783L34.7552 19.7465L43.2456 17.0086L41.168 12.9879Z" fill="#EFDAB2"/>
<path fill-rule="evenodd" clip-rule="evenodd" d="M45.476 42.9087L45.7272 42.8277C45.3611 41.6925 45.1921 41.7445 45.125 41.5364C45.0258 41.2289 45.2401 40.9939 44.5734 40.9383L45.476 42.9087ZM30.9183 10.3892C30.9852 10.7071 31.1705 10.706 30.385 10.7475C30.2853 10.4146 30.2986 10.5584 30.3323 10.2999C30.7228 10.3118 30.5581 10.4083 30.9183 10.3892ZM28.0463 23.5669C27.9306 23.9181 28.1324 23.6208 27.8123 23.8669C27.6866 23.9662 27.5695 24.0448 27.4777 24.1152C27.2116 24.3159 27.0064 24.4765 26.757 24.4446C26.8931 23.9592 27.8026 23.4106 28.0463 23.5669ZM28.0349 24.6834C27.8499 25.3326 27.3404 25.1728 26.9964 25.6921C26.7667 26.0368 26.955 26.0526 26.5724 26.176C26.3915 26.0097 26.4305 26.0201 26.3269 25.6987C26.6346 25.3825 27.5135 24.6524 28.0349 24.6834ZM49.3614 22.5382C49.0088 22.6519 48.7969 22.1051 47.512 22.0499C47.463 22.0478 47.1805 22.0317 47.172 22.0293C46.9497 21.9632 47.0591 22.0657 46.9119 21.8222C47.1518 21.3748 47.6457 21.5728 48.3587 21.7641C48.471 21.7968 49.8915 22.3673 49.3614 22.5382ZM40.6188 22.1109C40.5309 22.6114 40.4573 22.533 39.5539 22.8244C39.3027 22.9054 38.4086 23.0048 38.2166 22.9774C38.0105 22.2832 38.4437 22.5851 39.0957 22.4846C39.6695 22.394 40.0509 22.1485 40.6188 22.1109ZM53.3179 22.1914C53.0253 22.2781 53.1747 22.2682 52.9452 22.235C52.9376 22.2349 52.6107 22.1208 52.5871 22.1106L51.3218 21.5717C51.0636 21.489 50.7898 21.5237 50.7078 21.2694C50.4946 20.6082 51.4946 21.1765 51.5731 21.215C53.116 21.9758 53.1047 21.5302 53.3179 22.1914ZM35.6049 28.6462C35.0797 28.785 34.6208 28.4429 34.0466 28.406C33.8963 28.5948 33.7472 28.7399 33.6006 28.948C33.4377 29.1766 33.405 29.3276 33.0905 29.4571C32.862 29.056 32.9692 28.9704 33.2892 28.6451C33.7507 28.1747 33.4722 28.2262 33.7743 27.8455C33.9642 27.8506 35.4031 28.1625 35.6049 28.6462ZM45.4863 16.5492C44.7304 16.793 44.5767 17.1055 44.2864 16.8443C44.2603 16.3295 44.9842 16.239 45.4783 16.1536C46.2593 16.0192 47.5229 15.6219 47.6002 16.059C47.6828 16.5045 46.5925 16.1925 45.4863 16.5492ZM33.2188 30.7149C32.9771 31.0225 33.2155 30.9176 32.899 30.9303L31.4646 30.719C31.1977 30.6647 30.8705 30.5967 30.5854 30.5176C30.5717 30.5143 30.4043 30.4688 30.4013 30.4672C29.8758 30.3763 29.8959 30.62 29.7106 30.1718C30.1368 29.7102 30.819 30.1845 31.6031 30.3043L32.8417 30.4842C33.1915 30.5909 32.915 30.4198 33.2188 30.7149ZM41.3183 12.2321C40.9398 12.321 41.0143 12.2204 40.796 12.2142C40.4414 12.2035 40.6849 12.4772 40.3736 12.1666L40.2396 11.4671C40.1285 11.1226 40.0947 11.2229 39.9665 10.9043L40.3859 10.769C40.6462 11.3947 40.6982 11.1456 40.7654 11.9458C41.1206 11.4535 40.629 10.9153 40.7405 10.5194C40.8987 9.95281 41.537 10.6224 41.3183 12.2321ZM51.2163 17.3942C50.8031 17.5173 50.8031 17.4305 50.4371 17.4081C49.307 17.3437 46.7435 17.4813 45.6104 17.6757C45.0971 17.7646 45.0274 17.9428 44.8082 17.6025C44.9688 17.1143 45.686 17.2633 46.3508 17.1868L49.7173 17.0379C50.0488 17.0484 50.2657 17.0423 50.5459 17.0591C51.0252 17.0858 51.0711 16.9204 51.2163 17.3942ZM54.3992 19.8008C54.2959 20.3956 54.2265 20.2751 53.3618 19.9133C52.6352 19.609 51.8102 19.4412 51.0047 19.3181C49.7042 19.1198 47.9939 19.268 46.6849 19.6901C46.459 19.763 46.4417 19.7252 46.2386 19.7422C46.1713 18.9497 47.1349 19.0422 47.9667 18.9628C49.8374 18.7833 50.8961 18.7762 52.7024 19.2887L53.9892 19.6497C54.2033 19.6981 54.2178 19.7036 54.3992 19.8008ZM35.5541 26.248C35.3622 26.1976 35.1647 26.1924 34.9865 26.1528C34.7438 26.4021 34.7563 26.2909 34.6834 26.6488C35.0329 26.7147 35.4022 26.8815 35.5541 26.248ZM34.9486 24.0313L35.003 24.2C34.6602 24.4229 34.1644 25.0473 33.9371 25.1946C34.2049 25.4095 34.4969 25.5578 34.8247 25.6511C35.159 25.4489 35.2758 25.2351 35.4791 24.9347C35.8555 24.382 35.9048 24.2666 36.2164 24.4596C36.1609 24.8476 36.246 24.4016 35.7573 25.0084C35.1354 25.7781 35.4029 25.5898 35.6294 26.1344C35.8135 25.9244 35.9618 25.7056 36.1407 25.4871C36.3652 25.2131 36.4457 25.0365 36.8928 24.8923C36.9178 25.3565 36.9312 24.8774 36.2222 25.882C35.9778 26.2288 35.6241 26.5598 35.7325 27.0302C35.2797 27.2197 35.5807 27.3089 35.0602 27.5253C34.4118 26.4377 34.2277 27.4211 34.1239 27.549C33.9248 27.7995 33.2929 27.7889 33.9522 26.9535C33.5823 26.4296 33.7352 26.5487 33.7621 26.3639C34.1597 26.2714 34.0119 26.3574 34.3458 26.4539L34.5987 26.0941C34.2339 25.5864 33.3978 25.8101 33.2688 25.4101C33.1479 25.051 34.4366 24.1555 34.9486 24.0313ZM34.8854 8.92352C34.2507 8.97506 34.2773 8.6551 33.461 9.31139C34.3343 9.48667 34.14 9.36554 34.9391 9.08998L34.8854 8.92352ZM32.0685 9.64815C31.8735 9.43024 31.8769 9.56698 31.5829 9.46782C31.5149 9.53313 31.416 9.62884 31.3434 9.69564C31.507 9.82412 31.51 9.82568 31.7237 9.91246L31.8985 9.98116C31.9177 9.9852 31.9436 9.9947 31.9627 9.99874C32.134 10.0405 32.0254 10.0194 32.1908 10.0196L32.0708 9.6474L32.0685 9.64815ZM33.2718 8.79557C33.0709 8.81184 32.6769 8.76536 32.5871 8.77899C32.4368 8.80195 32.2506 8.98196 32.0719 9.09062C32.2016 9.14578 32.0205 9.09698 32.249 9.15858L32.7542 9.20241C33.0214 9.13156 33.1993 9.02058 33.2718 8.79557ZM34.5586 8.19426C34.3767 8.06405 34.0514 8.03367 33.7964 8.03169C33.513 8.02864 33.3895 8.22162 33.1361 8.37479C33.1544 8.3842 33.1811 8.39601 33.1926 8.39997L33.5718 8.47932C34.2432 8.52571 34.1015 8.35446 34.5586 8.19426ZM31.6062 8.65631C31.4383 8.66449 31.5009 8.69281 31.218 8.80957C31.6165 9.04349 31.4943 8.91699 31.9661 8.75464L31.6062 8.65631ZM32.945 8.06631C32.614 7.81315 32.3694 7.93033 32.1783 8.237C32.6851 8.35688 32.5029 8.24971 32.945 8.06631ZM30.8225 8.65633C32.265 7.78789 31.5617 8.05296 31.6412 7.46324C32.884 7.17479 31.5036 8.13298 34.057 6.45705C34.4391 6.20619 34.5722 6.14542 34.8239 6.43689L33.1703 7.621C33.7606 7.57359 33.9436 7.40737 34.4909 7.10837C35.5231 6.54579 35.4886 6.37569 35.6824 6.81092C35.2157 7.00481 34.7116 7.44558 34.198 7.6597C34.2186 7.66837 34.2469 7.67712 34.2576 7.67877C34.2713 7.68199 34.3034 7.69463 34.3172 7.69785C35.3322 7.94991 35.3069 7.69006 36.1242 7.17893L37.0896 6.55112C37.5056 6.27912 37.7283 6.03884 37.9952 6.52707C37.8106 6.70403 37.1675 6.91906 36.8401 7.12673C36.4873 7.35026 36.1468 7.65148 35.7709 7.80334C36.0297 7.99044 36.0291 7.96509 35.9726 8.29472C35.3125 8.44889 35.792 7.92414 34.7059 8.51686L34.9756 8.59579C35.4987 8.7028 35.6685 8.5587 36.0526 8.33782L38.5518 6.81721C39.365 6.3406 39.4832 6.13144 39.6902 6.63132C39.494 6.81967 38.9633 6.98061 38.7246 7.11628L36.1905 8.68643C36.8866 9.05411 37.1573 8.6784 37.4391 9.11842C37.1564 9.38571 36.6196 9.19638 36.2402 9.1324C35.5136 9.00938 35.7755 9.00913 35.1233 9.4007C35.7481 9.85515 36.8491 9.22957 36.927 10.1182L36.2934 10.126C35.7322 10.0109 36.3944 10.0526 35.155 9.88564L33.4269 9.70269C32.7015 9.61502 32.9047 9.68479 32.3594 10.0138C32.6281 10.2079 33.9469 10.3211 34.3148 10.3021C34.678 10.2845 34.7054 10.2272 34.8606 10.5982C34.5042 10.8025 34.6643 10.7075 33.9055 10.674C33.3971 10.6516 33.6547 10.7089 32.9357 10.9408C32.7665 10.7554 32.8228 10.796 32.8 10.52C32.4205 10.5505 31.373 10.3395 30.9895 10.2156C30.3937 10.0249 30.6598 9.911 30.6621 9.91026C30.6882 9.64405 31.2561 9.17247 31.067 8.90164C30.9015 8.64873 31.0772 9.22507 30.8225 8.65633ZM30.4895 27.4192C30.2015 27.5121 30.4258 27.4347 30.2561 27.6502C29.9284 28.0698 30.0129 28.2136 29.6994 28.4168C30.2381 29.2513 30.6216 28.1602 31.0968 27.8743C30.9753 27.5842 31.0654 27.6981 30.8407 27.5536C30.779 27.5122 30.5402 27.4029 30.4895 27.4192ZM30.6864 26.4675C30.9387 26.1692 30.9188 26.3518 30.8637 25.9994C30.6516 25.8075 30.1891 26.3063 30.0884 26.6961L30.2978 26.8327C30.5597 26.6743 30.5114 26.6745 30.6864 26.4675ZM30.6322 23.8458C29.5581 24.2943 30.0435 24.758 30.15 24.9304C30.6436 24.7253 30.4434 24.5857 30.8808 24.3246C30.7698 24.1384 30.7219 24.1002 30.6322 23.8458ZM30.9143 23.5685C31.0403 23.8725 31.0527 23.8557 31.2653 23.9786C32.1616 23.105 32.2784 23.4987 32.0622 22.8283C31.6196 23.0731 31.3048 23.4068 30.9143 23.5685ZM33.1791 22.56L32.989 21.9704C32.8958 21.6814 32.9461 21.6243 32.8818 21.3541C31.916 21.6885 32.2798 21.8698 32.2969 21.9307C32.5299 22.6927 32.2434 22.3487 32.539 22.871L33.1791 22.56ZM32.7526 20.3774L31.0781 21.4099C30.8436 21.5979 30.8433 21.6363 30.5136 21.7502C30.6463 22.1618 30.6238 22.1078 30.6362 22.4458C30.6435 22.6579 30.6754 22.9462 30.6964 23.1768C32.0892 22.7226 31.8431 22.22 31.8768 21.9615C31.5238 22.0345 31.7456 22.0753 31.4997 21.8968C31.5704 21.5243 31.598 21.5231 31.9806 21.3129C32.3139 21.1314 32.5471 21.0026 32.9159 20.8837C32.8561 20.6273 32.8401 20.4436 33.1144 20.3551C33.5269 20.2221 33.0479 20.3383 33.434 20.4154L33.6252 20.4482C33.9579 20.5094 33.8436 20.3522 34.0641 20.7202C33.6481 21.0636 33.3274 20.8658 33.3529 21.5289C33.3603 21.7332 33.4103 22.054 33.4738 22.1561C33.7683 22.6277 33.6023 21.9156 33.8465 22.6255C33.1472 23.045 32.9129 22.8627 32.7806 23.6201C32.2579 23.7427 32.4951 23.3344 31.8156 24.0359C31.7127 24.1431 31.6218 24.2082 31.5206 24.3046C31.5456 24.3272 31.7288 24.4927 31.7605 24.5438C31.882 24.747 31.8631 24.8144 31.8228 24.9499C31.4797 25.0223 31.5035 25.0248 31.3529 24.6369C30.8413 24.8019 30.8606 24.8774 30.6383 25.2375C30.8163 25.5527 30.9611 25.4652 31.1756 25.8069L31.7484 25.6503C31.5809 26.054 31.0459 26.5252 30.6903 26.89C30.852 27.1467 31.1832 27.2823 31.4097 27.4007C31.7437 27.0557 31.7763 26.7388 32.3372 26.5452C32.4568 27.058 32.2675 26.8102 31.7544 27.578L30.729 29.0139C31.4427 28.9547 31.3132 28.5217 32.2032 27.6681C32.4033 27.4759 32.6116 27.3092 32.8874 27.3913C32.905 27.7378 32.9115 27.6081 32.6537 27.8342C31.8261 28.558 32.0385 28.538 31.5891 29.1091C31.8188 29.4664 31.7444 29.1408 31.9199 29.5589C31.6167 29.6286 31.3227 29.6085 31.0866 29.5468C30.9123 29.5035 30.9004 29.4665 30.7253 29.4285C30.1626 29.3088 30.4888 29.5788 29.9964 29.2118C29.5939 28.9103 29.1102 29.0356 29.1439 28.6904C29.176 28.3559 29.3214 28.6255 29.5443 28.1963C29.7632 27.7785 29.6873 27.7877 30.1578 27.2506L29.7884 27.0124C29.2358 27.5632 28.9409 28.2581 28.5887 28.4049C28.4367 27.752 29.2866 27.3656 29.4653 26.823C29.3322 26.6311 28.9957 26.3925 28.802 26.2023C28.567 26.4516 28.3564 26.6982 28.1554 26.9902C27.8667 27.4125 27.6867 27.3277 27.897 27.9796C27.365 28.1052 27.4103 28.0013 27.2515 28.5579C27.6648 29.2005 28.0697 28.7994 28.3284 29.6017C27.8384 29.7469 27.8683 29.579 27.4999 29.3047C26.9802 28.9159 26.9865 29.0696 26.6621 29.0262C26.4682 28.4251 26.2549 28.4658 26.3924 27.9058C26.7081 27.8908 26.6654 27.8689 26.8347 28.1333C27.1143 27.9512 26.9815 27.989 27.1728 27.7461C26.9469 27.5662 26.8406 27.5443 26.7047 27.1543C26.1035 27.5702 26.569 28.0276 25.8584 28.2618C25.6077 27.508 25.8329 27.5988 26.1851 27.0972C26.4542 26.7169 26.5439 26.3715 27.1315 26.182C27.2541 26.704 26.8032 26.6707 27.4012 27.3023C27.8981 26.9813 28.0159 26.2261 28.5541 26.0015C28.4433 25.6263 28.3847 25.7523 28.5866 25.5264C28.9223 25.5101 28.9637 25.6779 29.2149 25.9441C29.4623 26.2063 29.5072 26.2429 29.802 26.4235C30.0963 26.1525 30.1706 25.9728 30.3961 25.6857C29.9296 25.1623 28.8303 24.2227 28.9665 23.5483C29.3618 23.4566 29.4065 23.5953 29.576 24.0026C29.9212 23.8581 30.1078 23.6397 30.4166 23.4534C30.2086 22.8083 30.1967 22.5978 30.1509 22.0535C29.3844 22.6351 29.5007 22.7277 28.8624 22.9336C28.7694 22.5348 29.0762 22.3108 29.5033 22.002L31.6714 20.5907C32.3448 20.1464 32.5834 19.8525 32.7526 20.3774ZM43.1016 35.6011C42.8425 35.5392 42.8697 35.584 42.5885 35.6747L42.751 36.1787C42.7689 36.1551 42.8169 36.0911 42.8285 36.0797C43.379 35.5066 43.0467 35.92 43.1016 35.6011ZM42.8908 34.6711L42.3164 34.8308L42.426 35.1707L43.0136 34.9812C42.9287 34.8835 42.8913 34.87 42.8908 34.6711ZM42.7583 34.2289C42.5743 33.7293 42.422 33.8013 42.0465 33.9939L42.1546 34.3291L42.7583 34.2289ZM42.2231 32.8216C41.7859 32.9727 41.75 33.043 41.8832 33.4876L42.3856 33.3256L42.2231 32.8216ZM41.5622 34.1807C41.5997 34.0206 41.6474 34.3344 41.5992 33.9008L41.3304 33.1936C41.1355 32.8022 41.3548 33.0326 41.0778 33.002C41.2038 33.3927 41.3865 33.6988 41.5622 34.1807ZM41.8872 31.5592C41.5226 31.7381 41.3459 31.7108 40.8112 31.8832L41.1379 32.6125C40.8777 31.8056 41.2213 32.1134 41.9241 31.8944C41.9207 31.8445 41.888 31.5615 41.8872 31.5592ZM42.4548 31.8203C43.0033 31.6434 42.8252 31.6906 43.0117 31.827C42.9125 32.127 42.997 32.0181 42.5637 32.1578L42.6181 32.3266C42.8992 32.2436 43.1678 32.1928 43.2095 32.4958C43.252 32.8011 43.005 32.6664 42.5856 32.8016C42.8107 33.4999 42.7514 33.1974 43.0573 33.2468C43.5852 33.3293 43.6115 33.6398 43.3005 33.7248C43.2184 33.7462 43.2277 33.6411 42.896 33.7327C43.0276 33.9277 42.9514 33.9675 43.0667 34.0886C43.0751 34.0987 43.0964 34.1173 43.1063 34.1243C43.1336 34.1461 43.4328 34.2692 43.5403 34.3264C43.3926 35.0045 43.3932 34.3279 43.2357 34.8177C43.7114 35.0778 44.1203 34.7519 44.0095 35.4972C43.5688 35.5194 43.8665 35.3851 43.4258 35.4072C43.607 35.9691 43.4693 35.6919 43.7674 35.8433C43.926 35.9249 44.2185 35.9403 44.072 36.2275C43.9488 36.4689 43.9736 36.2694 43.5211 36.326C43.1423 36.3742 43.1964 36.4869 42.8292 36.4368C42.8948 36.6403 42.9646 36.8016 42.9811 37.0106C43.0345 37.7362 43.1647 37.8167 43.524 38.5048L44.4751 40.6178C44.5964 40.5047 44.701 40.4582 44.8261 40.3413C44.611 39.9818 44.5754 39.8478 44.4181 39.36L44.0556 39.3722L43.9214 38.9637C44.3371 38.7301 44.1747 38.8974 44.1743 38.604C43.7749 38.6358 43.9011 38.6563 43.7001 38.4353L43.8996 38.0442C43.4933 38.0783 43.5476 38.0965 43.4029 37.648C43.5628 37.4969 43.578 37.4333 43.8649 37.4633L43.7766 37.063C43.4547 37.2484 43.3429 37.3355 43.1584 36.8897C43.426 36.5992 44.2964 36.4027 44.4396 36.8466C44.5313 37.131 44.4959 37.0607 44.2696 37.1796C44.7212 38.3434 44.872 38.3611 44.5353 38.5794C45.155 39.1836 44.9828 38.9099 44.8543 39.4975C45.4622 39.789 45.2269 40.1482 45.2544 40.3359L45.6029 41.2904C45.9583 41.8088 45.7018 41.6209 45.8427 42.0579C46.5577 44.2751 47.1723 46.6701 48.0256 48.756C47.6667 46.9803 47.1629 45.1417 46.8959 43.3671C46.1615 39.6222 45.281 35.858 44.7291 32.0874C44.6208 31.3413 44.7046 31.5696 44.4314 30.8409L42.2338 31.4347C42.4168 31.6156 42.3383 31.4903 42.4548 31.8203ZM38.8402 21.7553C38.736 21.5822 38.6946 21.5879 38.6215 21.3613L38.5386 21.3881C38.6742 21.8165 38.5553 21.6609 38.8402 21.7553ZM37.6437 21.4929C37.7496 21.8212 37.6695 21.8649 37.9373 21.9061C38.1675 21.9416 38.2033 21.7923 38.1444 21.6096C38.0542 21.3299 37.9148 21.4105 37.6437 21.4929ZM44.0063 20.2757C44.1215 20.1518 44.2233 20.341 44.0137 19.4387C43.8188 19.5602 43.9144 19.4937 43.7607 19.6326L44.0063 20.2757ZM43.216 19.7266C43.2169 19.7135 43.2264 19.6798 43.2258 19.6622L43.1244 19.2609C42.8499 19.546 42.8759 19.8158 43.2025 19.7871C43.2065 19.7679 43.2151 19.7396 43.216 19.7266ZM35.5347 21.5094C35.8024 22.5129 36.7211 23.0028 37.4624 22.9424C37.4986 22.7393 37.5135 22.7064 37.4949 22.4674C37.1612 22.4346 36.7764 22.551 36.4918 22.5127C36.3898 22.1729 36.4192 21.972 36.3886 21.6168C36.0913 21.7127 35.9943 21.7746 35.7387 21.6529L35.5347 21.5094ZM36.8355 21.4957L36.9152 22.0979C37.4476 21.9262 37.4273 21.9659 37.2573 21.4465L36.8355 21.4957ZM38.408 20.131L38.2397 20.1853C38.31 20.474 38.2583 20.4243 38.3366 20.6671C38.4007 20.8659 38.3534 20.8454 38.6026 20.908L38.408 20.131ZM43.6026 18.4559C43.4965 18.5922 43.3196 18.7539 43.4018 18.9851L43.4916 19.2242C43.687 18.9621 43.7412 18.9012 43.6026 18.4559ZM37.928 20.4415C37.8528 20.2003 37.181 19.7661 37.5933 21.0446C37.7987 21.0268 37.8078 21.0469 38.0396 20.9926C37.9706 20.7392 37.9713 20.5756 37.928 20.4415ZM36.5238 20.2766L36.6994 21.1287L37.2131 21.0728L37.046 20.2154L36.5238 20.2766ZM42.2929 18.6944C42.3561 18.7404 42.6657 18.8958 42.7494 18.8714C42.9568 18.8122 42.8281 18.6341 42.7409 18.3636C42.4999 18.5077 42.5332 18.548 42.2929 18.6944ZM37.743 19.789C37.702 19.6619 37.602 19.2806 37.5576 19.1903C37.4094 18.8807 37.5053 18.957 37.1359 19.0583C37.329 19.6571 37.0441 19.9965 37.743 19.789ZM38.2005 19.1642C38.0561 18.7794 38.165 18.9357 37.8626 19.0077L38.1064 19.7637L38.2746 19.7095C38.1991 19.4122 38.2783 19.3739 38.2005 19.1642ZM36.3856 19.0195C36.3626 19.1928 36.4125 19.6157 36.4611 19.8297L36.9904 19.751L36.7473 19.0049L36.3856 19.0195ZM36.2031 18.0906C36.1947 18.6012 36.3949 18.5749 36.6946 18.5497C36.6304 18.2795 36.6814 18.2247 36.5875 17.9334C36.4645 17.5443 36.21 17.8203 36.2031 18.0906ZM35.5347 21.5094C35.7809 21.1288 35.9449 21.2035 36.3367 21.1716C36.1995 20.7462 36.272 20.6871 36.1214 20.2201C35.788 20.2434 35.7855 20.2671 35.6515 19.9071L36.071 19.7718C36.0171 19.5416 35.9977 19.2288 36.0223 19.0448C35.7637 19.0005 35.2489 19.1002 35.2113 18.7549C35.166 18.3382 35.6522 18.5362 35.9419 18.5117L35.7392 17.8828C34.8504 17.904 34.9708 17.9698 34.9351 18.1983L35.5347 21.5094ZM37.7904 17.6399C37.4689 17.787 37.6443 17.613 37.7276 18.5893L38.0618 18.4815L37.7904 17.6399ZM34.3015 18.3005C33.4349 18.5799 30.2938 20.4454 29.4772 21.1477C28.0515 22.3758 26.5104 23.5772 25.8227 25.3661C24.7039 28.2717 25.792 29.7049 28.6212 30.8013C34.0497 32.9049 39.5398 31.6883 44.8892 29.9173C47.2017 29.1512 54.0365 24.4355 55.1272 22.2792C55.9762 20.6042 56.0043 19.2551 55.4803 18.2219C53.9398 15.1887 45.634 14.8298 42.903 15.7105C43.2937 16.8352 44.6216 18.7832 44.7053 19.7925C44.747 20.2845 44.8165 20.3896 44.6023 20.7905C43.167 23.4485 38.8096 24.8715 36.1655 23.2917C34.3565 22.2109 34.628 19.3131 34.3015 18.3005ZM37.3169 18.1678C37.2205 17.8058 37.2847 17.8234 37.1483 17.6607C36.8933 17.8246 36.9332 17.8143 36.9626 18.1341C36.9891 18.4216 36.9954 18.5752 37.241 18.6109C37.5447 18.6533 37.3777 18.3958 37.3169 18.1678ZM37.4939 16.4364L37.4109 16.4631C37.4914 16.7128 37.4322 16.7421 37.4613 16.9982C37.5083 17.4042 37.3809 17.2615 37.7377 17.1924L37.4939 16.4364ZM36.3762 16.7024C35.4666 16.572 35.3931 16.9913 34.735 16.4889C34.7689 16.9016 34.733 17.0587 34.8918 17.5511C35.2928 17.4218 35.2584 17.4967 35.5893 17.4181C35.8488 17.0077 35.461 17.2017 36.0104 17.0041C36.1435 17.3772 36.0991 17.3737 36.4803 17.3171C36.5208 17.0718 36.6058 17.4145 36.3762 16.7024ZM36.8743 17.3789C37.4434 17.124 36.9737 17.0482 37.0499 16.4877L36.7279 16.6017C36.8355 16.9984 36.8004 17.071 36.8743 17.3789ZM38.4426 16.2223C37.8365 16.4178 37.8733 16.24 37.9124 16.5745C37.9288 16.7122 38.0731 17.1123 38.1278 17.2504C38.4274 17.1537 38.6214 17.0529 38.6679 17.3391C38.7238 17.6861 38.4653 17.5474 38.153 17.6123L38.4151 18.4569C38.8922 18.303 38.8802 18.1869 39.0933 18.5164C38.9909 18.8302 38.7854 18.8633 38.4495 18.8159C38.773 20.1741 38.3538 19.5053 39.325 19.5188C39.4179 20.0989 39.2389 19.9779 38.746 20.0194C38.8385 20.3061 38.915 20.575 38.9069 20.8022C39.2464 20.7744 39.2614 20.7262 39.4905 20.8922C39.3986 21.4119 39.347 21.0074 39.1238 21.475C39.3768 21.8018 39.3463 21.439 39.5375 21.898C38.9396 22.466 37.86 21.9821 37.9242 22.6072C37.9764 23.1161 38.08 22.7432 37.9376 23.2486C39.1909 23.9394 43.2774 22.6625 43.7542 20.6301C43.6282 20.2394 43.6723 20.2737 43.4088 20.1034C43.2032 20.6572 43.4909 20.5236 43.408 20.8898C43.3019 21.3579 43.0894 20.9593 42.999 20.8762C42.7292 21.1521 42.7691 21.2362 42.4113 21.0657C42.4114 20.7977 42.3626 20.8594 42.8365 20.3722L42.6464 19.7826C41.9778 20.2892 42.2034 20.1526 41.9196 20.1089C41.9926 19.8224 42.1496 19.5676 42.4277 19.3886C42.1081 18.9812 42.3775 18.6569 42.0013 19.0131C41.7325 19.2682 41.559 19.5667 41.1734 19.5149C41.1798 19.3137 41.2177 19.2734 41.3987 19.0696C41.7376 18.6923 42.2573 18.221 42.4694 17.7978C42.1535 17.1339 41.9372 17.0786 41.9256 16.3957C42.2648 16.5084 42.4581 16.903 42.6125 17.3815L42.9735 17.357C43.1988 18.0322 42.9356 17.6577 43.049 18.1673C43.4597 17.9021 43.1591 17.5932 42.9485 17.1455L41.1116 13.5954C40.6072 14.0745 39.1501 14.6924 38.3135 14.9622L38.4154 15.3965C37.9699 15.5376 37.9929 15.4434 37.8255 15.7449C37.9997 15.9772 37.7791 15.9717 38.3069 15.8016L38.4426 16.2223ZM36.9387 16.1509C36.9645 16.0098 36.9601 15.9883 36.9136 15.7889C36.6891 15.8817 36.7338 15.8545 36.6063 15.9799C36.9139 16.2788 36.6324 16.1399 36.9387 16.1509ZM36.2989 16.1709C36.1082 15.7372 36.0237 15.9406 35.5701 15.9541C35.3027 15.9612 35.029 15.9882 34.7353 16.0242L34.7997 16.3659C35.2214 15.9696 35.3333 16.4823 36.2989 16.1709ZM36.6095 15.2718C36.3539 15.3313 36.5363 15.2342 36.529 15.4484L36.8632 15.3406C36.7362 15.2309 36.9081 15.2036 36.6095 15.2718ZM36.082 15.4981C35.843 15.325 35.7672 15.4056 35.413 15.4356C35.5923 15.6049 35.396 15.5406 35.7 15.5523C35.8264 15.5575 35.9024 15.5407 36.082 15.4981ZM32.9368 14.1003C32.7277 14.012 32.2145 13.8329 32.3607 14.2861C32.4308 14.5034 32.7245 14.5542 32.8119 14.5413C33.0251 14.5083 32.9601 14.4093 32.9368 14.1003ZM34.4824 13.6938C34.3758 13.3631 34.3898 13.4224 34.0824 13.4475L34.1459 13.8023L34.4824 13.6938ZM33.3979 13.4156C33.5 13.74 33.3879 13.5975 33.6475 13.6848C33.698 13.2652 33.7375 13.4745 33.3979 13.4156ZM31.7031 13.1071C31.3459 13.1355 31.3666 13.0497 31.0342 13.0446L31.2109 13.932L31.8875 14.2549C31.8424 13.7283 31.9193 13.7775 31.7031 13.1071ZM33.9891 12.74L34.0972 13.0752L34.4314 12.9675L34.3233 12.6322L33.9891 12.74ZM34.9548 13.7226C35.2464 13.4908 34.9792 13.3013 34.9654 12.6115C34.7255 12.7986 34.8575 12.5059 34.8022 12.8785L34.8164 13.5222C34.9102 13.9157 34.8537 13.6378 34.9548 13.7226ZM32.9518 13.5391C32.7764 13.1847 32.6324 13.2745 32.2284 13.3078C32.4124 13.5471 32.1723 13.4101 32.5655 13.4773C32.7383 13.5083 32.7719 13.5179 32.9518 13.5391ZM33.3225 12.6767L33.4306 13.012L33.5988 12.9577L33.4907 12.6225L33.3225 12.6767ZM41.9077 9.16035C41.7432 9.39973 41.8413 9.30939 41.5995 9.45117L42.1035 11.7951L41.7693 11.9029C41.5397 11.1908 41.6207 10.6925 41.2867 9.83027C38.0608 12.1901 37.1971 12.0603 35.2457 12.613C35.1667 14.0091 35.6906 13.5823 36.0732 13.459L36.1813 13.7942C35.9534 13.9315 35.9523 13.9599 35.6205 14.067C35.7308 14.4091 35.7354 14.3285 35.7 14.5977C35.198 14.4533 35.5013 14.4627 35.1758 14.1159C34.8833 14.3608 35.1631 14.3293 34.892 14.672C34.2803 14.4634 34.9037 14.2981 34.3677 14.1902C34.3833 14.5068 34.4051 14.464 34.1417 14.6332C33.7495 14.2849 33.9769 14.209 33.4857 14.1377C33.3583 14.3421 33.348 14.5548 33.3612 14.793C33.6905 14.7174 34.2563 14.831 34.5862 14.8599L35.8452 14.7245C38.5332 14.46 40.7983 13.6811 42.5538 11.4559C42.1894 11.0833 42.086 9.78434 41.9077 9.16035ZM32.9299 12.8952C32.8322 12.5924 32.956 12.4478 32.2481 12.4694L32.2609 12.8327C32.5011 12.8753 32.6958 12.8635 32.9299 12.8952ZM31.7484 12.6713C31.6147 12.2805 31.7099 12.3468 31.3808 12.2258C31.2052 12.1625 31.052 12.074 30.9927 12.1901C30.787 12.5857 31.5325 12.649 31.7484 12.6713ZM41.9077 9.16035C42.567 9.01922 42.4003 9.84378 42.7798 11.0206C43.4949 10.1136 43.19 8.63963 42.8087 7.67017L41.9077 9.16035ZM30.4888 11.9213C30.2908 11.8754 30.1921 11.8536 29.9319 11.9145C30.2175 12.8 30.165 13.016 30.6171 13.1791L30.4001 12.5063C30.6505 12.3439 30.6468 12.4114 30.4888 11.9213ZM42.322 6.579C41.4896 5.07093 38.8212 4.85945 37.4503 4.99522C35.618 5.17518 32.2806 6.45561 30.9489 7.88048C30.3597 8.58607 29.0665 9.996 29.826 10.8129C32.5933 13.7925 40.8237 10.8959 42.0926 7.65095C42.4918 7.12917 42.5233 6.94289 42.322 6.579ZM41.6441 13.2424C41.8034 13.5076 41.9419 13.7794 42.1098 14.1107C42.2401 14.3647 42.4258 14.8459 42.5785 15.0749C46.1823 14.7627 52.5899 14.3401 55.4055 17.0592C56.699 18.3088 57.1127 20.1203 55.7638 22.3598C54.209 24.9389 49.3152 28.8014 46.5383 29.8552C46.0625 30.0367 45.1538 30.5798 45.194 31.1386C45.2741 32.2231 45.4228 33.3314 45.6352 34.4395C46.399 38.1495 47.059 42.0741 47.9612 45.7317C48.4626 47.7676 49.0439 51.59 49.3445 53.193C48.6883 51.4341 46.4807 47.1842 46.2496 46.4674L45.6514 44.8966C45.3175 43.8455 44.1771 41.1376 43.7063 40.0643C43.3069 39.1568 42.7795 37.9869 42.3476 37.1052C41.6155 35.6082 41.1437 34.0426 40.3311 32.5485C39.8819 31.7235 38.3076 32.3409 37.4816 32.3673C33.3067 32.731 22.4413 32.3169 25.2178 25.3443C26.1351 23.0448 27.3813 22.2779 29.1335 20.7685C29.9629 20.1054 33.3593 17.8641 34.2489 17.5773C34.219 17.2321 34.1769 16.8884 34.089 16.5134C34.0115 16.1862 33.8725 15.621 33.9077 15.3672C33.5814 15.4443 31.7821 14.9219 31.364 14.73C31.0085 14.5664 30.5627 14.2099 30.3056 13.9176C29.1939 12.6477 28.6169 10.4166 29.3717 8.8281C30.7486 5.93379 36.3845 4.07292 39.359 4.41289C40.611 4.55538 41.924 4.98191 42.621 6.10991C43.0198 6.7547 43.4463 7.28843 43.6648 8.05262C43.9389 9.01325 43.935 10.1529 43.4882 11.0397C43.0523 11.9128 42.3585 12.5781 41.6441 13.2424Z" fill="black"/>
</g>
<defs>
<clipPath id="clip0_7_2">
<rect width="660" height="241" fill="white" transform="translate(0 28)"/>
</clipPath>
<clipPath id="clip1_7_2">
<rect width="33.0076" height="45.3865" fill="white" transform="translate(630.93 1) rotate(17.8733)"/>
</clipPath>
<clipPath id="clip2_7_2">
<rect width="33.0076" height="45.3865" fill="white" transform="matrix(-0.951737 0.306914 0.306914 0.951737 50.4146 0)"/>
</clipPath>
</defs>
</svg>
