<svg preserveAspectRatio="none" viewBox="0 0 660 418" fill="none" xmlns="http://www.w3.org/2000/svg">
<path fill-rule="evenodd" clip-rule="evenodd" d="M659.006 396.835C659.002 399.633 657.333 402.128 654.761 403.229L643.999 407.836C643.667 407.978 643.324 408.094 642.975 408.183L618.336 414.471C617.781 414.613 617.21 414.686 616.638 414.688L148 416.896H28.5L9.40165 415.019C7.255 414.808 5.32551 413.619 4.17183 411.796L3.60406 410.899C2.88336 409.761 2.50658 408.438 2.51894 407.091L5.98301 29.4995C5.99414 28.2855 6.32465 27.0935 6.92561 26.0386C14.8798 12.0761 16.8112 5.10888 24.7554 2.95044C25.2466 2.81696 25.3297 2.76661 25.8388 2.76523C42.0715 2.72114 636.237 1.10742 641 1.10742C645.829 1.10742 659.5 1.76149 659.5 4.42408C659.5 6.91739 659.062 352.861 659.006 396.835Z" fill="#E2E0DA"/>
<path fill-rule="evenodd" clip-rule="evenodd" d="M52.72 415.008C37.7888 415.419 5.23215 416.498 5.63459 413.012C13.2809 404.691 16.9029 406.355 20.1224 406.688C24.1468 407.687 41.4675 408.763 52.72 408.352V404.587C40.6019 404.724 28.9972 404.868 24.6693 402.815C22.9382 401.994 20.1224 401.808 20.1224 397.703C20.9273 270.239 23.7443 133.457 25.1021 5.4583C34.407 6.68978 43.4955 7.37393 52.8005 7.64759V2.99534C41.1152 1.4902 28.1316 -3.57254 19.2595 4.22682C15.148 9.83689 11.9021 17.6363 7.79062 22.8358C1.29881 28.4459 5.41029 40.2134 4.32832 48.2864C4.54472 48.4232 4.54472 48.4232 4.32832 48.4232C2.81357 164.182 1.51521 279.941 0.649633 395.7C0.866027 403.5 -1.5143 413.899 7.14144 416.498C16.5004 418.336 28.8058 417.338 39.8419 417.338C42.655 417.338 47.3101 417.671 52.72 417.671V415.008ZM3.21996 409.351C3.21996 325.817 4.42727 237.292 4.82971 153.093C6.03703 114.155 5.63459 61.2392 6.43947 28.2918C9.65898 22.3013 9.65898 23.2997 13.17 17.6421C16.5047 12.2687 13.0111 17.5053 13.4439 17.6421C13.4439 143.663 10.1261 278.566 12.0736 404.587C4.42727 413.012 3.21996 409.351 3.21996 409.351Z" fill="#6D5F44"/>
<path fill-rule="evenodd" clip-rule="evenodd" d="M655.673 379.692C651.778 374.767 667.358 351.505 649.614 352.874C611.529 351.779 573.227 352.463 535.142 352.463C378.906 353.01 222.67 354.926 66.4337 356.021C61.2402 355.884 56.4796 355.884 52.5845 355.884V359.168C251.017 356.568 449.883 353.695 648.532 355.2C648.316 370.935 654.284 385.791 659.693 401.663C459.746 403.305 252.316 404.733 52.5845 404.596V408.354C249.513 407.319 435.131 405.318 631.428 406.238C637.867 406.238 643.098 407.022 641.891 407.355C629.557 409.544 621.905 412.532 608.489 413.353C545.951 414.858 478.847 414.129 416.525 414.677C295.129 415.087 173.765 415.405 52.5845 414.995V417.731C229.594 417.321 406.388 416.5 583.181 415.542C583.181 415.405 583.181 415.405 583.398 415.542C596.165 414.858 614.991 417.458 624.08 413.353C632.519 410.753 644.853 408.837 653.726 406.238C669.522 399.259 652.86 388.176 655.673 379.692Z" fill="#6D5F44"/>
<path fill-rule="evenodd" clip-rule="evenodd" d="M29.1628 403.965C28.514 403.501 27.4327 403.192 27.0002 402.728C26.5676 402.263 26.3514 401.954 26.3514 401.49C27.0002 385.864 19.8635 370.238 27.0002 354.458C38.6784 354.149 50.7891 353.684 62.8999 353.53C75.0106 353.375 87.5539 353.684 100.097 353.53C113.289 353.375 126.049 352.911 139.241 352.756C163.03 352.447 186.603 351.673 210.824 352.137C224.881 352.447 238.938 352.137 252.995 351.828C286.084 351.364 319.172 350.745 352.477 350.435C365.236 350.281 377.779 350.745 390.755 350.59C402.433 350.436 413.895 350.126 425.79 349.971C445.902 349.662 466.231 349.662 486.344 349.507C498.238 349.353 510.133 349.198 522.027 349.198C533.273 349.198 544.518 349.353 555.764 349.353C577.607 349.353 599.449 349.198 621.292 349.198C634.268 349.198 646.378 346.258 660.003 346.568C660.003 363.895 658.705 384.162 664.328 401.645C659.354 401.645 655.678 401.645 651.785 401.645C615.453 401.954 579.337 402.418 542.788 402.728C520.297 402.882 497.373 402.882 474.882 403.037C443.74 403.192 412.598 403.656 381.456 403.656C354.207 403.811 326.957 403.501 299.708 403.501C284.137 403.501 268.783 403.81 252.995 403.81C245.859 403.81 238.938 403.501 231.802 403.501C213.635 403.656 195.686 403.965 177.736 404.12C169.085 404.12 160.218 403.656 151.352 403.656C132.537 403.811 113.938 404.12 95.3394 404.275C86.4726 404.429 77.8221 404.12 68.739 404.12C57.4933 404.12 46.2476 404.12 35.0019 404.12C33.2718 404.12 31.1092 404.12 29.1628 403.965Z" fill="#FFFEFB"/>
<path fill-rule="evenodd" clip-rule="evenodd" d="M660 3.99359C656.313 2.62592 657.725 1.93903 657.725 1.93903C657.774 130.057 657.368 273.026 656.781 401.28L656.781 402.024C656.781 402.024 659.546 402.084 660.467 401.34C658.624 393.134 660.222 366.343 660.467 358.258C660.81 242.335 662.115 126.41 662.311 10.4869C662.262 2.67651 661.843 3.99359 660 3.99359Z" fill="#6D5F44"/>
<path fill-rule="evenodd" clip-rule="evenodd" d="M24.9512 0.99995C24.9512 1.47538 24.1464 2.66396 24.1464 2.66396C226.823 2.63871 457.107 3.69224 660 3.99517C660 3.99517 659.195 1.33275 656.378 0.99995C654.563 0.78555 611.375 0.413054 598.586 0.286833C415.202 0.110123 231.812 -0.563082 48.4283 -0.664058C36.0726 -0.638813 26.9634 0.00154257 24.9512 0.99995Z" fill="#6D5F44"/>
<path d="M6.41342 33.2108C9.74711 30.8041 12.4678 27.9673 15.0174 25.1264C15.5361 24.5779 14.2826 24.2297 13.764 24.7781C11.2453 27.4978 8.59921 30.312 5.3183 32.6468C4.77782 33.146 5.77653 33.6831 6.41342 33.2108Z" fill="#6D5F44"/>
<path d="M6.70786 39.5135C10.0415 37.1068 12.7622 34.2701 15.3119 31.4291C15.8305 30.8806 14.5771 30.5324 14.0584 31.0809C11.5397 33.8006 8.89364 36.6148 5.61274 38.9496C5.07226 39.4487 6.07096 39.9859 6.70786 39.5135Z" fill="#6D5F44"/>
<path d="M6.70786 46.1678C10.0415 43.7611 12.7622 40.9244 15.3119 38.0834C15.8305 37.5349 14.5771 37.1867 14.0584 37.7352C11.5397 40.4549 8.89364 43.2691 5.61274 45.6039C5.07226 46.103 6.07096 46.6402 6.70786 46.1678Z" fill="#6D5F44"/>
<path d="M5.90317 53.4921C9.23686 51.0853 11.9575 48.2486 14.5072 45.4076C15.0258 44.8592 13.7724 44.5109 13.2537 45.0594C10.735 47.7791 8.08896 50.5933 4.80805 52.9281C4.26757 53.4272 5.26627 53.9644 5.90317 53.4921Z" fill="#6D5F44"/>
<path d="M5.90317 61.4764C9.23686 59.0697 11.9575 56.233 14.5072 53.392C15.0258 52.8435 13.7724 52.4953 13.2537 53.0438C10.735 55.7635 8.08896 58.5777 4.80805 60.9125C4.26757 61.4116 5.26627 61.9487 5.90317 61.4764Z" fill="#6D5F44"/>
<path d="M5.90317 67.4667C9.23686 65.0599 11.9575 62.2232 14.5072 59.3822C15.0258 58.8338 13.7724 58.4855 13.2537 59.034C10.735 61.7537 8.08896 64.5679 4.80805 66.9027C4.26757 67.4018 5.26627 67.939 5.90317 67.4667Z" fill="#6D5F44"/>
<path d="M5.90317 75.4549C9.23686 73.0482 11.9575 70.2115 14.5072 67.3705C15.0258 66.822 13.7724 66.4738 13.2537 67.0223C10.735 69.742 8.08896 72.5562 4.80805 74.891C4.26757 75.3901 5.26627 75.9273 5.90317 75.4549Z" fill="#6D5F44"/>
<path d="M5.90317 84.1092C9.23686 81.7025 11.9575 78.8658 14.5072 76.0248C15.0258 75.4763 13.7724 75.1281 13.2537 75.6766C10.735 78.3963 8.08896 81.2105 4.80805 83.5453C4.26757 84.0444 5.26627 84.5816 5.90317 84.1092Z" fill="#6D5F44"/>
<path d="M5.90317 91.4296C9.23686 89.0228 11.9575 86.1861 14.5072 83.3451C15.0258 82.7967 13.7724 82.4484 13.2537 82.9969C10.735 85.7166 8.08896 88.5308 4.80805 90.8656C4.26757 91.3647 5.26627 91.9019 5.90317 91.4296Z" fill="#6D5F44"/>
<path d="M5.90317 98.0858C9.23686 95.6791 11.9575 92.8423 14.5072 90.0014C15.0258 89.4529 13.7724 89.1047 13.2537 89.6531C10.735 92.3728 8.08896 95.187 4.80805 97.5218C4.26757 98.021 5.26627 98.5581 5.90317 98.0858Z" fill="#6D5F44"/>
<path d="M5.90317 104.74C9.23686 102.333 11.9575 99.4966 14.5072 96.6557C15.0258 96.1072 13.7724 95.759 13.2537 96.3074C10.735 99.0271 8.08896 101.841 4.80805 104.176C4.26757 104.675 5.26627 105.212 5.90317 104.74Z" fill="#6D5F44"/>
<path d="M5.90317 111.398C9.23686 108.992 11.9575 106.155 14.5072 103.314C15.0258 102.765 13.7724 102.417 13.2537 102.966C10.735 105.685 8.08896 108.5 4.80805 110.834C4.26757 111.333 5.26627 111.871 5.90317 111.398Z" fill="#6D5F44"/>
<path d="M5.90317 119.385C9.23686 116.978 11.9575 114.141 14.5072 111.3C15.0258 110.752 13.7724 110.403 13.2537 110.952C10.735 113.672 8.08896 116.486 4.80805 118.821C4.26757 119.32 5.26627 119.857 5.90317 119.385Z" fill="#6D5F44"/>
<path d="M5.16312 125.363C8.7091 122.896 11.6206 120.004 14.3528 117.111C14.908 116.552 13.6 116.219 13.0448 116.778C10.3475 119.549 7.51473 122.416 4.02557 124.811C3.44848 125.32 4.48541 125.847 5.16312 125.363Z" fill="#6D5F44"/>
<path d="M4.61017 152.195C8.37302 149.719 11.4652 146.819 14.3674 143.918C14.957 143.358 13.5726 143.027 12.983 143.587C10.1181 146.366 7.10946 149.241 3.407 151.644C2.7943 152.155 3.89098 152.68 4.61017 152.195Z" fill="#6D5F44"/>
<path d="M4.51278 189.244C8.32122 186.734 11.4604 183.804 14.4088 180.873C15.0075 180.307 13.6202 179.985 13.0215 180.551C10.112 183.358 7.05688 186.264 3.30994 188.7C2.68861 189.217 3.78473 189.736 4.51278 189.244Z" fill="#6D5F44"/>
<path d="M4.48931 225.219C8.01033 222.812 10.8839 219.975 13.5768 217.134C14.1246 216.586 12.8007 216.237 12.2529 216.786C9.59268 219.506 6.79792 222.32 3.33265 224.655C2.7618 225.154 3.81663 225.691 4.48931 225.219Z" fill="#6D5F44"/>
<path d="M3.87804 262.191C7.58437 259.785 10.6092 256.948 13.4438 254.107C14.0205 253.558 12.6269 253.21 12.0502 253.759C9.25001 256.478 6.30816 259.293 2.6605 261.627C2.05961 262.126 3.16995 262.664 3.87804 262.191Z" fill="#6D5F44"/>
<path d="M3.26725 298.139C7.1589 295.732 10.3349 292.895 13.3113 290.054C13.9168 289.506 12.4535 289.157 11.8481 289.706C8.90782 292.426 5.81887 295.24 1.98884 297.575C1.3579 298.074 2.52376 298.611 3.26725 298.139Z" fill="#6D5F44"/>
<path d="M5.17879 131.348C8.78424 128.863 11.7495 125.956 14.5332 123.047C15.0987 122.485 13.7758 122.156 13.2103 122.718C10.4627 125.504 7.57729 128.388 4.02981 130.799C3.44242 131.312 4.48964 131.836 5.17879 131.348Z" fill="#6D5F44"/>
<path d="M4.58811 161.622C8.48405 159.108 11.6965 156.174 14.7139 153.24C15.3265 152.673 13.9089 152.352 13.2962 152.919C10.3188 155.729 7.19234 158.639 3.35935 161.079C2.72361 161.596 3.84333 162.115 4.58811 161.622Z" fill="#6D5F44"/>
<path d="M4.41943 196.596C7.87366 194.189 10.6927 191.352 13.3346 188.511C13.872 187.963 12.5732 187.614 12.0358 188.163C9.426 190.883 6.68425 193.697 3.28471 196.032C2.72469 196.531 3.75951 197.068 4.41943 196.596Z" fill="#6D5F44"/>
<path d="M4.48931 234.236C8.01033 231.829 10.8839 228.993 13.5768 226.152C14.1246 225.603 12.8007 225.255 12.2529 225.804C9.59268 228.523 6.79792 231.337 3.33265 233.672C2.7618 234.171 3.81663 234.709 4.48931 234.236Z" fill="#6D5F44"/>
<path d="M3.87804 271.512C7.58437 269.105 10.6092 266.268 13.4438 263.427C14.0205 262.879 12.6269 262.53 12.0502 263.079C9.25001 265.799 6.30816 268.613 2.6605 270.948C2.05961 271.447 3.16995 271.984 3.87804 271.512Z" fill="#6D5F44"/>
<path d="M3.26725 307.455C7.1589 305.048 10.3349 302.211 13.3113 299.371C13.9168 298.822 12.4535 298.474 11.8481 299.022C8.90782 301.742 5.81887 304.556 1.98884 306.891C1.3579 307.39 2.52376 307.927 3.26725 307.455Z" fill="#6D5F44"/>
<path d="M4.5426 140.002C8.26582 137.538 11.3222 134.648 14.1901 131.757C14.7729 131.199 13.3984 130.865 12.8156 131.424C9.98427 134.192 7.01064 137.058 3.34705 139.449C2.74121 139.958 3.83103 140.486 4.5426 140.002Z" fill="#6D5F44"/>
<path d="M5.03673 169.305C8.74306 166.898 11.7679 164.061 14.6025 161.22C15.1792 160.672 13.7856 160.323 13.2089 160.872C10.4087 163.592 7.46685 166.406 3.81919 168.741C3.2183 169.24 4.32864 169.777 5.03673 169.305Z" fill="#6D5F44"/>
<path d="M4.13992 205.785C7.73404 203.358 10.6737 200.502 13.4298 197.643C13.9903 197.091 12.6481 196.748 12.0877 197.3C9.36559 200.037 6.50617 202.87 2.96921 205.225C2.38571 205.728 3.45318 206.262 4.13992 205.785Z" fill="#6D5F44"/>
<path d="M4.48931 243.557C8.01033 241.15 10.8839 238.313 13.5768 235.472C14.1246 234.924 12.8007 234.575 12.2529 235.124C9.59268 237.844 6.79792 240.658 3.33265 242.993C2.7618 243.492 3.81663 244.029 4.48931 243.557Z" fill="#6D5F44"/>
<path d="M3.87804 280.83C7.58437 278.423 10.6092 275.586 13.4438 272.746C14.0205 272.197 12.6269 271.849 12.0502 272.397C9.25001 275.117 6.30816 277.931 2.6605 280.266C2.05961 280.765 3.16995 281.302 3.87804 280.83Z" fill="#6D5F44"/>
<path d="M2.9847 316.739C6.90513 314.218 10.1397 311.278 13.1783 308.338C13.7952 307.77 12.3714 307.45 11.7545 308.018C8.75632 310.835 5.60824 313.75 1.75123 316.197C1.11126 316.716 2.23521 317.234 2.9847 316.739Z" fill="#6D5F44"/>
<path d="M4.53323 145.935C8.2209 143.48 11.2451 140.6 14.0822 137.718C14.6589 137.161 13.2933 136.825 12.7167 137.382C9.91543 140.142 6.97324 142.998 3.34452 145.38C2.74483 145.887 3.8285 146.416 4.53323 145.935Z" fill="#6D5F44"/>
<path d="M4.68322 179.289C8.38955 176.882 11.4144 174.045 14.249 171.204C14.8256 170.656 13.432 170.308 12.8554 170.856C10.0552 173.576 7.11333 176.39 3.46568 178.725C2.86479 179.224 3.97512 179.761 4.68322 179.289Z" fill="#6D5F44"/>
<path d="M4.41943 215.898C7.87366 213.492 10.6927 210.655 13.3346 207.814C13.872 207.265 12.5732 206.917 12.0358 207.466C9.426 210.185 6.68425 213 3.28471 215.334C2.72469 215.833 3.75951 216.371 4.41943 215.898Z" fill="#6D5F44"/>
<path d="M4.48931 252.875C8.01033 250.468 10.8839 247.631 13.5768 244.79C14.1246 244.242 12.8007 243.894 12.2529 244.442C9.59268 247.162 6.79792 249.976 3.33265 252.311C2.7618 252.81 3.81663 253.347 4.48931 252.875Z" fill="#6D5F44"/>
<path d="M3.68414 289.115C7.20515 286.708 10.0787 283.872 12.7716 281.031C13.3194 280.482 11.9955 280.134 11.4477 280.682C8.78751 283.402 5.99275 286.216 2.52748 288.551C1.95663 289.05 3.01145 289.587 3.68414 289.115Z" fill="#6D5F44"/>
<path d="M3.26725 325.723C7.1589 323.316 10.3349 320.479 13.3113 317.638C13.9168 317.09 12.4535 316.741 11.8481 317.29C8.90782 320.01 5.81887 322.824 1.98884 325.159C1.3579 325.658 2.52376 326.195 3.26725 325.723Z" fill="#6D5F44"/>
<path d="M3.26725 332.381C7.1589 329.974 10.3349 327.137 13.3113 324.296C13.9168 323.748 12.4535 323.4 11.8481 323.948C8.90782 326.668 5.81887 329.482 1.98884 331.817C1.3579 332.316 2.52376 332.853 3.26725 332.381Z" fill="#6D5F44"/>
<path d="M3.26725 343.695C7.1589 341.288 10.3349 338.452 13.3113 335.611C13.9168 335.062 12.4535 334.714 11.8481 335.263C8.90782 337.982 5.81887 340.796 1.98884 343.131C1.3579 343.63 2.52376 344.168 3.26725 343.695Z" fill="#6D5F44"/>
<path d="M3.26725 351.683C7.1589 349.277 10.3349 346.44 13.3113 343.599C13.9168 343.051 12.4535 342.702 11.8481 343.251C8.90782 345.971 5.81887 348.785 1.98884 351.12C1.3579 351.619 2.52376 352.156 3.26725 351.683Z" fill="#6D5F44"/>
<path d="M3.26725 361.002C7.1589 358.595 10.3349 355.758 13.3113 352.917C13.9168 352.369 12.4535 352.021 11.8481 352.569C8.90782 355.289 5.81887 358.103 1.98884 360.438C1.3579 360.937 2.52376 361.474 3.26725 361.002Z" fill="#6D5F44"/>
<path d="M3.26725 369.654C7.1589 367.247 10.3349 364.411 13.3113 361.57C13.9168 361.021 12.4535 360.673 11.8481 361.221C8.90782 363.941 5.81887 366.755 1.98884 369.09C1.3579 369.589 2.52376 370.126 3.26725 369.654Z" fill="#6D5F44"/>
<path d="M3.26725 378.307C7.1589 375.9 10.3349 373.063 13.3113 370.222C13.9168 369.674 12.4535 369.325 11.8481 369.874C8.90782 372.594 5.81887 375.408 1.98884 377.743C1.3579 378.242 2.52376 378.779 3.26725 378.307Z" fill="#6D5F44"/>
<path d="M3.26725 386.959C7.1589 384.552 10.3349 381.715 13.3113 378.874C13.9168 378.326 12.4535 377.978 11.8481 378.526C8.90782 381.246 5.81887 384.06 1.98884 386.395C1.3579 386.894 2.52376 387.431 3.26725 386.959Z" fill="#6D5F44"/>
<path d="M3.26725 394.943C7.1589 392.537 10.3349 389.7 13.3113 386.859C13.9168 386.31 12.4535 385.962 11.8481 386.511C8.90782 389.23 5.81887 392.044 1.98884 394.379C1.3579 394.878 2.52376 395.416 3.26725 394.943Z" fill="#6D5F44"/>
<path d="M3.26725 404.262C7.1589 401.855 10.3349 399.018 13.3113 396.177C13.9168 395.629 12.4535 395.28 11.8481 395.829C8.90782 398.549 5.81887 401.363 1.98884 403.698C1.3579 404.197 2.52376 404.734 3.26725 404.262Z" fill="#6D5F44"/>
<path d="M26.1073 407.712C23.1539 411.175 19.704 414.027 16.2535 416.706C15.5867 417.25 15.2041 415.986 15.8709 415.442C19.1762 412.798 22.5973 410.022 25.4636 406.615C26.0722 406.05 26.6864 407.05 26.1073 407.712Z" fill="#6D5F44"/>
<path d="M18.0589 406.743C15.1056 410.206 11.6557 413.059 8.20515 415.737C7.53834 416.281 7.15575 415.017 7.82256 414.473C11.1278 411.83 14.5489 409.054 17.4152 405.646C18.0238 405.082 18.6381 406.081 18.0589 406.743Z" fill="#6D5F44"/>
<path d="M35.2663 408.659C32.3579 411.897 28.9299 414.54 25.4967 417.016C24.8339 417.52 24.4131 416.302 25.0759 415.798C28.3625 413.352 31.7633 410.782 34.5848 407.596C35.1879 407.071 35.8371 408.041 35.2663 408.659Z" fill="#6D5F44"/>
<path d="M44.9177 408.657C42.0093 411.895 38.5812 414.538 35.1481 417.014C34.4853 417.518 34.0645 416.3 34.7272 415.796C38.0139 413.35 41.4147 410.78 44.2362 407.594C44.8393 407.069 45.4884 408.039 44.9177 408.657Z" fill="#6D5F44"/>
<path d="M57.7902 408.538C54.8818 411.776 51.4538 414.418 48.0206 416.895C47.3578 417.399 46.937 416.181 47.5998 415.677C50.8864 413.231 54.2872 410.661 57.1087 407.475C57.7119 406.95 58.361 407.92 57.7902 408.538Z" fill="#6D5F44"/>
<path d="M69.0505 407.876C66.1421 411.114 62.714 413.756 59.2809 416.233C58.6181 416.736 58.1973 415.519 58.86 415.015C62.1467 412.569 65.5475 409.999 68.369 406.812C68.9721 406.288 69.6213 407.258 69.0505 407.876Z" fill="#6D5F44"/>
<path d="M81.9172 407.876C79.0088 411.114 75.5807 413.756 72.1476 416.233C71.4848 416.736 71.064 415.519 71.7267 415.015C75.0134 412.569 78.4142 409.999 81.2357 406.812C81.8388 406.288 82.488 407.258 81.9172 407.876Z" fill="#6D5F44"/>
<path d="M93.1789 407.876C90.2705 411.114 86.8425 413.756 83.4093 416.233C82.7465 416.736 82.3257 415.519 82.9885 415.015C86.2751 412.569 89.6759 409.999 92.4974 406.812C93.1005 406.288 93.7497 407.258 93.1789 407.876Z" fill="#6D5F44"/>
<path d="M102.026 407.876C99.1177 411.114 95.6896 413.756 92.2565 416.233C91.5937 416.736 91.1729 415.519 91.8356 415.015C95.1223 412.569 98.5231 409.999 101.345 406.812C101.948 406.288 102.597 407.258 102.026 407.876Z" fill="#6D5F44"/>
<path d="M113.287 407.876C110.379 411.114 106.951 413.756 103.518 416.233C102.855 416.736 102.434 415.519 103.097 415.015C106.383 412.569 109.784 409.999 112.606 406.812C113.209 406.288 113.858 407.258 113.287 407.876Z" fill="#6D5F44"/>
<path d="M124.548 407.876C121.64 411.114 118.212 413.756 114.778 416.233C114.116 416.736 113.695 415.519 114.358 415.015C117.644 412.569 121.045 409.999 123.867 406.812C124.47 406.288 125.119 407.258 124.548 407.876Z" fill="#6D5F44"/>
<path d="M135.809 407.876C132.901 411.114 129.473 413.756 126.04 416.233C125.377 416.736 124.956 415.519 125.619 415.015C128.905 412.569 132.306 409.999 135.128 406.812C135.731 406.288 136.38 407.258 135.809 407.876Z" fill="#6D5F44"/>
<path d="M145.462 407.876C142.553 411.114 139.125 413.756 135.692 416.233C135.029 416.736 134.608 415.519 135.271 415.015C138.558 412.569 141.959 409.999 144.78 406.812C145.383 406.288 146.032 407.258 145.462 407.876Z" fill="#6D5F44"/>
<path d="M155.918 407.832C153.009 411.252 149.581 414.043 146.148 416.658C145.485 417.19 145.064 415.904 145.727 415.372C149.014 412.789 152.415 410.074 155.236 406.709C155.839 406.154 156.488 407.179 155.918 407.832Z" fill="#6D5F44"/>
<path d="M206.828 407.285C203.836 410.939 200.332 413.942 196.826 416.761C196.149 417.334 195.749 415.989 196.427 415.417C199.784 412.634 203.259 409.712 206.162 406.116C206.78 405.521 207.415 406.586 206.828 407.285Z" fill="#6D5F44"/>
<path d="M254.82 407.145C251.786 410.916 248.246 414.024 244.704 416.942C244.02 417.535 243.63 416.162 244.315 415.569C247.707 412.689 251.218 409.664 254.162 405.954C254.787 405.339 255.415 406.424 254.82 407.145Z" fill="#6D5F44"/>
<path d="M306.331 406.458C303.422 410.058 299.994 412.995 296.561 415.749C295.898 416.309 295.478 414.955 296.14 414.395C299.427 411.675 302.828 408.818 305.649 405.275C306.252 404.692 306.902 405.77 306.331 406.458Z" fill="#6D5F44"/>
<path d="M354.591 407.053C351.683 410.473 348.255 413.263 344.822 415.879C344.159 416.411 343.738 415.125 344.401 414.593C347.688 412.009 351.088 409.295 353.91 405.929C354.513 405.375 355.162 406.399 354.591 407.053Z" fill="#6D5F44"/>
<path d="M407.678 406.646C404.77 410.426 401.342 413.511 397.909 416.401C397.246 416.99 396.825 415.568 397.488 414.98C400.775 412.125 404.175 409.124 406.997 405.405C407.6 404.792 408.249 405.924 407.678 406.646Z" fill="#6D5F44"/>
<path d="M167.178 407.832C164.27 411.252 160.842 414.043 157.409 416.658C156.746 417.19 156.325 415.904 156.988 415.372C160.275 412.789 163.675 410.074 166.497 406.709C167.1 406.154 167.749 407.179 167.178 407.832Z" fill="#6D5F44"/>
<path d="M218.237 407.535C215.266 411.131 211.781 414.081 208.293 416.849C207.62 417.412 207.215 416.082 207.888 415.519C211.228 412.787 214.684 409.916 217.568 406.378C218.182 405.793 218.82 406.848 218.237 407.535Z" fill="#6D5F44"/>
<path d="M266.113 407.053C263.205 410.473 259.777 413.263 256.343 415.879C255.681 416.411 255.26 415.125 255.923 414.593C259.209 412.009 262.61 409.295 265.431 405.929C266.035 405.375 266.684 406.399 266.113 407.053Z" fill="#6D5F44"/>
<path d="M317.591 406.458C314.683 410.058 311.255 412.995 307.822 415.749C307.159 416.309 306.738 414.955 307.401 414.395C310.688 411.675 314.088 408.818 316.91 405.275C317.513 404.692 318.162 405.77 317.591 406.458Z" fill="#6D5F44"/>
<path d="M365.852 407.053C362.944 410.473 359.516 413.263 356.083 415.879C355.42 416.411 354.999 415.125 355.662 414.593C358.948 412.009 362.349 409.295 365.171 405.929C365.774 405.375 366.423 406.399 365.852 407.053Z" fill="#6D5F44"/>
<path d="M418.959 406.587C416.122 410.144 412.759 413.027 409.388 415.725C408.738 416.274 408.299 414.909 408.949 414.359C412.175 411.693 415.512 408.89 418.263 405.389C418.854 404.815 419.516 405.908 418.959 406.587Z" fill="#6D5F44"/>
<path d="M178.44 407.832C175.531 411.252 172.103 414.043 168.67 416.658C168.007 417.19 167.586 415.904 168.249 415.372C171.536 412.789 174.937 410.074 177.758 406.709C178.361 406.154 179.01 407.179 178.44 407.832Z" fill="#6D5F44"/>
<path d="M229.113 407.354C226.205 410.954 222.777 413.892 219.344 416.645C218.681 417.205 218.26 415.852 218.923 415.292C222.21 412.572 225.61 409.715 228.432 406.172C229.035 405.588 229.684 406.667 229.113 407.354Z" fill="#6D5F44"/>
<path d="M277.355 407.108C274.372 410.735 270.877 413.714 267.38 416.51C266.704 417.078 266.302 415.74 266.978 415.172C270.327 412.412 273.793 409.514 276.687 405.944C277.303 405.354 277.94 406.414 277.355 407.108Z" fill="#6D5F44"/>
<path d="M286.225 406.988C283.242 410.616 279.747 413.595 276.25 416.391C275.574 416.959 275.172 415.621 275.848 415.053C279.197 412.293 282.663 409.395 285.558 405.825C286.174 405.235 286.81 406.295 286.225 406.988Z" fill="#6D5F44"/>
<path d="M296.688 406.988C293.705 410.616 290.21 413.595 286.713 416.391C286.037 416.959 285.635 415.621 286.311 415.053C289.66 412.293 293.126 409.395 296.02 405.825C296.636 405.235 297.273 406.295 296.688 406.988Z" fill="#6D5F44"/>
<path d="M328.853 406.458C325.944 410.058 322.516 412.995 319.083 415.749C318.42 416.309 318 414.955 318.662 414.395C321.949 411.675 325.35 408.818 328.171 405.275C328.774 404.692 329.424 405.77 328.853 406.458Z" fill="#6D5F44"/>
<path d="M377.172 406.888C374.243 410.366 370.796 413.209 367.345 415.875C366.679 416.417 366.263 415.116 366.929 414.574C370.233 411.942 373.652 409.176 376.494 405.754C377.101 405.189 377.746 406.224 377.172 406.888Z" fill="#6D5F44"/>
<path d="M430.172 406.35C427.155 410.075 423.628 413.142 420.101 416.021C419.419 416.606 419.026 415.244 419.707 414.659C423.086 411.817 426.583 408.833 429.511 405.168C430.133 404.561 430.763 405.638 430.172 406.35Z" fill="#6D5F44"/>
<path d="M188.893 407.832C185.985 411.252 182.557 414.043 179.124 416.658C178.461 417.19 178.04 415.904 178.703 415.372C181.989 412.789 185.39 410.074 188.212 406.709C188.815 406.154 189.464 407.179 188.893 407.832Z" fill="#6D5F44"/>
<path d="M198.284 407.602C195.375 411.021 191.947 413.812 188.514 416.428C187.851 416.96 187.431 415.674 188.093 415.142C191.38 412.558 194.781 409.844 197.602 406.478C198.206 405.924 198.855 406.948 198.284 407.602Z" fill="#6D5F44"/>
<path d="M247.616 407.354C244.708 410.954 241.279 413.892 237.846 416.645C237.184 417.205 236.763 415.852 237.425 415.292C240.712 412.572 244.113 409.715 246.934 406.172C247.538 405.588 248.187 406.667 247.616 407.354Z" fill="#6D5F44"/>
<path d="M236.918 407.122C234.01 410.722 230.582 413.66 227.149 416.413C226.486 416.973 226.065 415.619 226.728 415.059C230.014 412.339 233.415 409.482 236.237 405.939C236.84 405.356 237.489 406.434 236.918 407.122Z" fill="#6D5F44"/>
<path d="M343.331 406.458C340.422 410.058 336.994 412.995 333.561 415.749C332.898 416.309 332.478 414.955 333.14 414.395C336.427 411.675 339.828 408.818 342.649 405.275C343.252 404.692 343.902 405.77 343.331 406.458Z" fill="#6D5F44"/>
<path d="M391.805 406.452C388.822 410.084 385.325 413.067 381.827 415.866C381.151 416.434 380.749 415.096 381.425 414.527C384.775 411.764 388.243 408.862 391.138 405.288C391.755 404.697 392.391 405.758 391.805 406.452Z" fill="#6D5F44"/>
<path d="M444.678 406.379C441.77 409.904 438.342 412.781 434.909 415.477C434.246 416.025 433.825 414.7 434.488 414.151C437.775 411.488 441.175 408.691 443.997 405.222C444.6 404.65 445.249 405.706 444.678 406.379Z" fill="#6D5F44"/>
<path d="M467.2 406.379C464.292 409.904 460.864 412.781 457.431 415.477C456.768 416.025 456.347 414.7 457.01 414.151C460.297 411.488 463.697 408.691 466.519 405.222C467.122 404.65 467.771 405.706 467.2 406.379Z" fill="#6D5F44"/>
<path d="M455.844 406.379C452.936 409.904 449.508 412.781 446.075 415.477C445.412 416.025 444.991 414.7 445.654 414.151C448.941 411.488 452.341 408.691 455.163 405.222C455.766 404.65 456.415 405.706 455.844 406.379Z" fill="#6D5F44"/>
<path d="M478.382 406.379C475.474 409.904 472.046 412.781 468.612 415.477C467.95 416.025 467.529 414.7 468.192 414.151C471.478 411.488 474.879 408.691 477.701 405.222C478.304 404.65 478.953 405.706 478.382 406.379Z" fill="#6D5F44"/>
<path d="M488.845 406.379C485.937 409.904 482.508 412.781 479.075 415.477C478.413 416.025 477.992 414.7 478.654 414.151C481.941 411.488 485.342 408.691 488.163 405.222C488.767 404.65 489.416 405.706 488.845 406.379Z" fill="#6D5F44"/>
<path d="M497.699 405.713C494.791 409.238 491.362 412.115 487.929 414.811C487.267 415.359 486.846 414.034 487.508 413.485C490.795 410.822 494.196 408.025 497.017 404.556C497.621 403.984 498.27 405.04 497.699 405.713Z" fill="#6D5F44"/>
<path d="M506.552 406.379C503.644 409.904 500.216 412.781 496.783 415.477C496.12 416.025 495.699 414.7 496.362 414.151C499.649 411.488 503.049 408.691 505.871 405.222C506.474 404.65 507.123 405.706 506.552 406.379Z" fill="#6D5F44"/>
<path d="M519.43 406.379C516.522 409.904 513.094 412.781 509.661 415.477C508.998 416.025 508.577 414.7 509.24 414.151C512.527 411.488 515.927 408.691 518.749 405.222C519.352 404.65 520.001 405.706 519.43 406.379Z" fill="#6D5F44"/>
<path d="M532.308 406.379C529.4 409.904 525.972 412.781 522.539 415.477C521.876 416.025 521.455 414.7 522.118 414.151C525.404 411.488 528.805 408.691 531.627 405.222C532.23 404.65 532.879 405.706 532.308 406.379Z" fill="#6D5F44"/>
<path d="M545.186 406.379C542.278 409.904 538.85 412.781 535.417 415.477C534.754 416.025 534.333 414.7 534.996 414.151C538.282 411.488 541.683 408.691 544.505 405.222C545.108 404.65 545.757 405.706 545.186 406.379Z" fill="#6D5F44"/>
<path d="M556.455 406.379C553.546 409.904 550.118 412.781 546.685 415.477C546.022 416.025 545.602 414.7 546.264 414.151C549.551 411.488 552.952 408.691 555.773 405.222C556.376 404.65 557.026 405.706 556.455 406.379Z" fill="#6D5F44"/>
<path d="M577.382 406.379C574.474 409.904 571.046 412.781 567.612 415.477C566.95 416.025 566.529 414.7 567.192 414.151C570.478 411.488 573.879 408.691 576.701 405.222C577.304 404.65 577.953 405.706 577.382 406.379Z" fill="#6D5F44"/>
<path d="M586.235 406.379C583.327 409.904 579.899 412.781 576.465 415.477C575.803 416.025 575.382 414.7 576.045 414.151C579.331 411.488 582.732 408.691 585.554 405.222C586.157 404.65 586.806 405.706 586.235 406.379Z" fill="#6D5F44"/>
<path d="M567.723 405.047C564.814 408.572 561.386 411.449 557.953 414.145C557.29 414.693 556.87 413.368 557.532 412.819C560.819 410.156 564.22 407.359 567.041 403.89C567.644 403.318 568.294 404.374 567.723 405.047Z" fill="#6D5F44"/>
<path d="M597.503 406.379C594.595 409.904 591.167 412.781 587.734 415.477C587.071 416.025 586.65 414.7 587.313 414.151C590.599 411.488 594 408.691 596.822 405.222C597.425 404.65 598.074 405.706 597.503 406.379Z" fill="#6D5F44"/>
<path d="M611.991 405.713C609.083 409.238 605.654 412.115 602.221 414.811C601.559 415.359 601.138 414.034 601.8 413.485C605.087 410.822 608.488 408.025 611.309 404.556C611.913 403.984 612.562 405.04 611.991 405.713Z" fill="#6D5F44"/>
<path d="M626.479 405.047C623.57 408.572 620.142 411.449 616.709 414.145C616.046 414.693 615.625 413.368 616.288 412.819C619.575 410.156 622.976 407.359 625.797 403.89C626.4 403.318 627.049 404.374 626.479 405.047Z" fill="#6D5F44"/>
<path fill-rule="evenodd" clip-rule="evenodd" d="M658.001 396.768C657.994 400.567 654.957 403.425 651.158 403.51L643.098 403.69L152.122 406.685H35.8172L19.8056 405.306C17.7385 405.128 15.8943 403.936 14.8832 402.124C14.3602 401.187 14.0872 400.131 14.0906 399.058L15.289 16.8414C15.2915 16.0478 15.4258 15.2556 15.7081 14.514C18.7728 6.46252 22.2549 3.42682 30.2279 1.50855C30.7314 1.3874 30.8181 1.33185 31.336 1.33241C47.8495 1.35027 646.384 1.99748 651.146 1.99748C655.976 1.99748 658.793 3.66134 658.793 6.32392C658.793 8.78253 658.106 345.235 658.001 396.768Z" fill="#FFFEFB"/>
</svg>
