<svg preserveAspectRatio="none" viewBox="0 0 390 165" fill="none" xmlns="http://www.w3.org/2000/svg">
<path fill-rule="evenodd" clip-rule="evenodd" d="M6.02621 1.33224C4.51291 1.39935 3.34164 2.65091 2.84972 4.0836C2.63462 4.71008 2.43815 5.31136 2.30436 5.97479C2.01876 7.39096 1.87598 8.80714 1.87598 10.5065C2.29619 63.8491 -3.69127 104.32 0.257867 157.973C0.393439 159.815 1.78567 161.328 3.60957 161.618C7.09672 162.173 6.64057 162.059 12.6914 162.521C20.1169 163.087 23.6793 161.954 31.2476 162.521C39.2443 163.087 52.1161 161.671 60.1127 162.52C74.5353 163.653 74.2697 166.12 88.9779 164.42C97.5457 163.57 105.547 163.57 114.115 164.42C134.249 165.836 134.678 161.104 154.955 162.521C162.666 163.087 176.998 162.237 184.851 162.521C191.991 162.804 210.932 162.237 218.072 162.521C230.352 163.37 232.637 162.238 244.918 162.521C252.2 162.804 274.477 162.52 281.759 162.52C288.614 162.52 306.859 158.722 313.714 158.722C326.994 158.722 339.607 158.722 352.888 158.722C359.772 158.722 376.737 159.375 386.399 158.964C388.448 158.877 390 157.147 389.997 155.096C389.908 98.2987 387.78 62.2309 390.799 5.31941C390.921 3.02475 389.1 1.08051 386.802 1.08051C381.69 1.08051 374.132 1.08051 372.46 1.08051C350.327 -0.0524292 341.002 2.21344 318.868 1.08051C305.159 0.514038 280.001 3.14244 266.292 2.57597C247.3 2.00951 237.064 3.42567 218.072 3.14244C201.507 2.85921 194.2 1.08051 177.635 1.08051C168.21 1.08051 149.529 2.57597 139.961 2.57597C135.677 2.57597 126.251 2.00951 121.967 1.72627C110.971 1.15981 105.119 1.72626 94.2661 1.44302C88.9826 1.44302 75.8452 1.08051 70.5616 1.08051C59.1378 0.797272 55.5679 1.72627 44.1441 1.15981C38.7178 0.876572 33.4343 1.44302 28.0079 1.44302C21.2988 1.44302 14.5897 1.44302 7.88063 1.44302C7.59112 1.44302 7.30318 1.40541 7.01601 1.36873C6.68608 1.32658 6.35614 1.31761 6.02621 1.33224Z" fill="#FCF9F2"/>
</svg>
