
<svg preserveAspectRatio="none" viewBox="0 0 155 30" fill="none" xmlns="http://www.w3.org/2000/svg">
<g clip-path="url(#clip0_7_2)">
<rect width="1512" height="1048" transform="translate(-709 -642)" fill="#FFFCF6"/>
<line x1="-709" y1="16.502" x2="803" y2="16.5021" stroke="black" stroke-opacity="0.1" stroke-dasharray="2 2"/>
<g clip-path="url(#clip1_7_2)">
<path fill-rule="evenodd" clip-rule="evenodd" d="M487.316 344.095C487.304 347.912 484.238 350.804 480.422 350.862L467.284 351.059L-192.557 353.768H-348.864L-372.06 352.423C-373.824 352.321 -375.465 351.491 -376.593 350.131C-377.547 348.981 -378.066 347.531 -378.059 346.037L-376.456 1.8673C-376.45 0.736 -376.182 -0.384003 -375.61 -1.36015C-371.494 -8.38744 -366.703 -11.0227 -355.881 -12.715C-355.534 -12.7693 -355.586 -12.7961 -355.235 -12.7958C-343.894 -12.7876 471.656 -12.1941 478.101 -12.1941C484.592 -12.1941 488.378 -10.6895 488.378 -8.2817C488.378 -6.06926 487.464 295.222 487.316 344.095Z" fill="#FFFEFB"/>
</g>
<mask id="path-3-inside-1_7_2" fill="white">
<path fill-rule="evenodd" clip-rule="evenodd" d="M2.25788 29.9572C1.72953 29.9388 1.15294 29.7054 0.912493 29.2346V29.2346C0.79939 29.0131 0.742845 28.7916 0.742845 28.5259C0.892873 21.0051 -0.593424 12.7223 0.273017 4.93339C0.473005 3.13558 1.99747 1.82532 3.80391 1.73099C6.27331 1.60205 9.07011 1.47834 11.0918 1.41743C14.0325 1.32885 18.5634 1.50602 21.5606 1.41743C24.7275 1.32885 27.8311 1.55032 30.9979 1.41743C36.7096 1.24026 40.599 1.15167 46.4238 1.41743C49.8169 1.55032 54.1762 1.55032 57.5693 1.41743C65.5431 1.19596 71.3192 0.841602 79.3495 0.620128C82.4033 0.531539 85.4571 0.753013 88.5674 0.708718C91.395 0.664423 94.1661 0.442949 96.9936 0.398654C101.857 0.26577 106.72 0.221475 111.584 0.17718C114.468 0.132885 117.296 0.0442958 120.18 0.0442958C122.894 0.0442958 125.609 0.08859 128.323 0.08859C133.582 0.08859 138.842 0 144.101 0C145.977 0 147.852 0.0805254 149.765 0.173599C151.908 0.27791 153.601 2.04952 153.579 4.19556C153.508 11.336 153.329 18.4241 154.082 25.5956C154.247 27.1686 153.035 28.5702 151.453 28.5702V28.5702C142.687 28.7473 133.978 28.9688 125.213 29.146C119.784 29.2346 114.298 29.2346 108.869 29.3232C101.348 29.4118 93.8833 29.6332 86.3619 29.6775C79.8019 29.7218 73.242 29.5889 66.682 29.5889C62.9496 29.5889 59.2172 29.7661 55.4282 29.7661C53.7317 29.7661 52.0351 29.5889 50.3386 29.6332C45.9841 29.7218 41.6296 29.899 37.3317 29.9433C35.2393 29.9433 33.0903 29.6775 30.9979 29.6775C26.4738 29.7218 22.0062 29.899 17.4821 29.9876C15.3331 30.0319 13.2407 29.9433 11.0918 29.9433C8.3773 29.9433 5.66283 29.9433 2.94835 29.9433C2.7182 29.9633 2.48804 29.9652 2.25788 29.9572Z"/>
</mask>
<path fill-rule="evenodd" clip-rule="evenodd" d="M2.25788 29.9572C1.72953 29.9388 1.15294 29.7054 0.912493 29.2346V29.2346C0.79939 29.0131 0.742845 28.7916 0.742845 28.5259C0.892873 21.0051 -0.593424 12.7223 0.273017 4.93339C0.473005 3.13558 1.99747 1.82532 3.80391 1.73099C6.27331 1.60205 9.07011 1.47834 11.0918 1.41743C14.0325 1.32885 18.5634 1.50602 21.5606 1.41743C24.7275 1.32885 27.8311 1.55032 30.9979 1.41743C36.7096 1.24026 40.599 1.15167 46.4238 1.41743C49.8169 1.55032 54.1762 1.55032 57.5693 1.41743C65.5431 1.19596 71.3192 0.841602 79.3495 0.620128C82.4033 0.531539 85.4571 0.753013 88.5674 0.708718C91.395 0.664423 94.1661 0.442949 96.9936 0.398654C101.857 0.26577 106.72 0.221475 111.584 0.17718C114.468 0.132885 117.296 0.0442958 120.18 0.0442958C122.894 0.0442958 125.609 0.08859 128.323 0.08859C133.582 0.08859 138.842 0 144.101 0C145.977 0 147.852 0.0805254 149.765 0.173599C151.908 0.27791 153.601 2.04952 153.579 4.19556C153.508 11.336 153.329 18.4241 154.082 25.5956C154.247 27.1686 153.035 28.5702 151.453 28.5702V28.5702C142.687 28.7473 133.978 28.9688 125.213 29.146C119.784 29.2346 114.298 29.2346 108.869 29.3232C101.348 29.4118 93.8833 29.6332 86.3619 29.6775C79.8019 29.7218 73.242 29.5889 66.682 29.5889C62.9496 29.5889 59.2172 29.7661 55.4282 29.7661C53.7317 29.7661 52.0351 29.5889 50.3386 29.6332C45.9841 29.7218 41.6296 29.899 37.3317 29.9433C35.2393 29.9433 33.0903 29.6775 30.9979 29.6775C26.4738 29.7218 22.0062 29.899 17.4821 29.9876C15.3331 30.0319 13.2407 29.9433 11.0918 29.9433C8.3773 29.9433 5.66283 29.9433 2.94835 29.9433C2.7182 29.9633 2.48804 29.9652 2.25788 29.9572Z" fill="#FFFEFB" stroke="#D7D4CE" stroke-width="2" mask="url(#path-3-inside-1_7_2)"/>
</g>
</svg>
