<svg preserveAspectRatio="none" viewBox="0 0 279 73" fill="none" xmlns="http://www.w3.org/2000/svg">
<path d="M7.88383 71.6417C8.53961 71.6895 9.21367 71.8663 9.83557 72.0294C9.89658 72.0454 9.95709 72.0613 10.017 72.0769C10.7374 72.2644 11.3875 72.4174 11.9914 72.405C12.1978 72.4008 12.4022 72.3883 12.6048 72.3652L12.633 72.362H12.6613H12.6909H12.7206H12.7502H12.7798H12.8095H12.8391H12.8688H12.8984H12.9281H12.9577H12.9873H13.017H13.0466H13.0763H13.1059H13.1355H13.1652H13.1948H13.2245H13.2541H13.2837H13.3134H13.343H13.3727H13.4023H13.4319H13.4616H13.4912H13.5209H13.5505H13.5802H13.6098H13.6394H13.6691H13.6987H13.7284H13.758H13.7876H13.8173H13.8469H13.8766H13.9062H13.9358H13.9655H13.9951H14.0248H14.0544H14.084H14.1137H14.1433H14.173H14.2026H14.2323H14.2619H14.2915H14.3212H14.3508H14.3805H14.4101H14.4397H14.4694H14.499H14.5287H14.5583H14.5879H14.6176H14.6472H14.6769H14.7065H14.7361H14.7658H14.7954H14.8251H14.8547H14.8843H14.914H14.9436H14.9733H15.0029H15.0326H15.0622H15.0918H15.1215H15.1511H15.1808H15.2104H15.24H15.2697H15.2993H15.329H15.3586H15.3882H15.4179H15.4475H15.4772H15.5068H15.5364H15.5661H15.5957H15.6254H15.655H15.6847H15.7143H15.7439H15.7736H15.8032H15.8329H15.8625H15.8921H15.9218H15.9514H15.9811H16.0107H16.0403H16.07H16.0996H16.1293H16.1589H16.1885H16.2182H16.2478H16.2775H16.3071H16.3368H16.3664H16.396H16.4257H16.4553H16.485H16.5146H16.5442H16.5739H16.6035H16.6332H16.6628H16.6924H16.7221H16.7517H16.7814H16.811H16.8406H16.8703H16.8999H16.9296H16.9592H16.9888H17.0185H17.0481H17.0778H17.1074H17.1371H17.1667H17.1963H17.226H17.2556H17.2853H17.3149H17.3445H17.3742H17.4038H17.4335H17.4631H17.4927H17.5224H17.552H17.5817H17.6113H17.6409H17.6706H17.7002H17.7299H17.7595H17.7892H17.8188H17.8484H17.8781H17.9077H17.9374H17.967H17.9966H18.0263H18.0559H18.0856H18.1152H18.1448H18.1745H18.2041H18.2338H18.2634H18.293H18.3227H18.3523H18.382H18.4116H18.4413H18.4709H18.5005H18.5302H18.5598H18.5895H18.6191H18.6487H18.6784H18.708H18.7377H18.7673H18.7969H18.8266H18.8562H18.8859H18.9155H18.9451H18.9748H19.0044H19.0341H19.0637H19.0933H19.123H19.1526H19.1823H19.2119H19.2416H19.2712H19.3008H19.3305H19.3601H19.3898H19.4194H19.449H19.4787H19.5083H19.538H19.5676H19.5972H19.6269H19.6565H19.6862H19.7158H19.7454H19.7751H19.8047H19.8344H19.864H19.8937H19.9233H19.9529H19.9826H20.0122H20.0419H20.0715H20.1011H20.1308H20.1604H20.1901H20.2197H20.2493H20.279H20.3086H20.3383H20.3679H20.3975H20.4272H20.4568H20.4865H20.5161H20.5458H20.5754H20.605H20.6347H20.6643H20.694H20.7236H20.7532H20.7829H20.8125H20.8422H20.8718H20.9014H20.9311H20.9607H20.9904H21.02H21.0496H21.0793H21.1089H21.1386H21.1682H21.1978H21.2275H21.2571H21.2868H21.3164H21.3461H21.3757H21.4053H21.435H21.4646H21.4943H21.5239H21.5535H21.5832H21.6128H21.6425H21.6721H21.7017H21.7314H21.761H21.7907H21.8203H21.8499H21.8796H21.9092H21.9389H21.9685H21.9982H22.0278H22.0574H22.0871H22.1167H22.1464H22.176H22.2056H22.2353H22.2649H22.2946H22.3242H22.3538H22.3835H22.4131H22.4428H22.4724H22.502H22.5317H22.5613H22.591H22.6206H22.6503H22.6799H22.7095H22.7392H22.7688H22.7985H22.8281H22.8577H22.8874H22.917H22.9467H22.9763H23.0059H23.0356H23.0652H23.0949H23.1245H23.1541H23.1838H23.2134H23.2431H23.2727H23.3024H23.332H23.3616H23.3913H23.4209H23.4506H23.4802H23.5098H23.5395H23.5691H23.5988H23.6284H23.658H23.6877H23.7173H23.747H23.7766H23.8062H23.8359H23.8655H23.8952H23.9248H23.9544H23.9841H24.0137H24.0434H24.073H24.1027H24.1323H24.1619H24.1916H24.2212H24.2509H24.2805H24.3101H24.3398H24.3694H24.3991H24.4287H24.4583H24.488H24.5176H24.5473H24.5769H24.6065H24.6362H24.6658H24.6955H24.7251H24.7548H24.7844H24.814H24.8437H24.8733H24.903H24.9326H24.9622H24.9919H25.0215H25.0512H25.0808H25.1104H25.1401H25.1697H25.1994H25.229H25.2586H25.2883H25.3179H25.3476H25.3772H25.4069H25.4365H25.4661H25.4958H25.5254H25.5551H25.5847H25.6143H25.644H25.6736H25.7033H25.7329H25.7625H25.7922H25.8218H25.8515H25.8811H25.9107H25.9404H25.97H25.9997H26.0293H26.0589H26.0886H26.1182H26.1479H26.1775H26.2072H26.2368H26.2664H26.2961H26.3257H26.3554H26.385H26.4146H26.4443H26.4739H26.5036H26.5332H26.5628H26.5925H26.6221H26.6518H26.6814H26.711H26.7407H26.7703H26.8H26.8296H26.8593H26.8889H26.9185H26.9482H26.9778H27.0075H27.0371H27.0667H27.0964H27.126H27.1557H27.1853H27.2149H27.2446H27.2742H27.3039H27.3335H27.3631H27.3928H27.4224H27.4521H27.4817H27.5114H27.541H27.5706H27.6003H27.6299H27.6596H27.6892H27.7188H27.7485H27.7781H27.8078H27.8374C29.468 72.362 31.064 72.397 32.6504 72.4317C35.0055 72.4833 37.3392 72.5344 39.733 72.47L39.7336 72.47C43.1057 72.3838 46.4692 72.2627 49.8324 72.1416C54.8558 71.9607 59.8785 71.7799 64.9282 71.7154L64.9346 71.7153C66.9048 71.7153 68.8979 71.8784 70.867 72.0395L70.8772 72.0404C72.8557 72.2022 74.8101 72.3619 76.7349 72.362C81.5133 72.2977 86.3181 72.1186 91.1449 71.9386C94.4079 71.817 97.681 71.695 100.963 71.6078C100.963 71.6077 100.964 71.6077 100.965 71.6077L100.978 72.1075C102.734 72.0477 104.491 72.1541 106.247 72.2606C107.653 72.3457 109.058 72.4309 110.463 72.4309C114.007 72.4309 117.524 72.3223 121.028 72.2141C124.506 72.1067 127.971 71.9998 131.435 71.9998C136.675 71.9998 141.914 72.0592 147.154 72.1185C154.139 72.1977 161.125 72.2769 168.111 72.2153L7.88383 71.6417ZM7.88383 71.6417C8.01033 71.5527 8.14868 71.4576 8.29773 71.3573C9.16217 70.7755 10.3402 70.0457 11.5319 69.3285C12.722 68.6123 13.9194 67.9124 14.8196 67.3914C15.2697 67.131 15.6452 66.9154 15.9081 66.7649C16.0396 66.6897 16.1429 66.6308 16.2133 66.5907L16.2935 66.545L16.3141 66.5334L16.3192 66.5304L16.3205 66.5297L16.3208 66.5295C16.3208 66.5295 16.3209 66.5295 16.0741 66.0946L16.3209 66.5295L16.9398 66.1784L16.3997 65.7151L16.3996 65.715L16.3988 65.7143L16.3954 65.7114L16.3814 65.6993L16.3254 65.6507C16.2762 65.6078 16.2036 65.5441 16.1111 65.462C15.9262 65.2979 15.6622 65.0603 15.3471 64.7677C14.7162 64.1819 13.8839 63.3788 13.073 62.5057C12.2591 61.6294 11.4811 60.6976 10.9484 59.8534C10.6819 59.4311 10.4871 59.0467 10.3768 58.714C10.2647 58.376 10.255 58.137 10.2982 57.9783C10.3894 57.6432 10.7253 57.0541 11.2603 56.2914C11.7801 55.5503 12.4448 54.7043 13.1311 53.875C14.506 52.2137 15.9416 50.6508 16.4253 50.1735L16.6879 49.9144L16.5178 49.587C16.3363 49.2378 15.9733 48.7889 15.5198 48.2933C15.0559 47.7863 14.4627 47.1939 13.7864 46.5508C12.4331 45.2638 10.7288 43.7565 9.01915 42.2934C5.81214 39.549 2.54285 36.9236 1.51819 36.1959C1.53815 36.1535 1.56705 36.099 1.60837 36.0314C1.80135 35.7159 2.16205 35.2788 2.66434 34.7473C3.66048 33.693 5.12442 32.3594 6.64405 31.0424C8.16058 29.7281 9.72064 28.4406 10.9024 27.4811C11.4931 27.0015 11.9888 26.6042 12.3367 26.327C12.5106 26.1883 12.6476 26.0797 12.741 26.0058L12.8475 25.9216L12.8748 25.9002L12.8816 25.8948L12.8833 25.8935L12.8837 25.8932C12.8838 25.8931 12.8838 25.8931 12.5748 25.5M7.88383 71.6417L210.056 71.3531L210.046 70.8532C210.046 70.8532 210.046 70.8531 210.047 70.8531C215.108 70.7453 220.195 70.6914 225.279 70.6375H225.28C230.365 70.5836 235.447 70.5298 240.502 70.4221C248.668 70.2065 256.808 69.9641 264.949 69.7215L264.957 69.7213C273.096 69.4789 281.235 69.2364 289.401 69.0209L289.414 69.0206L289.417 69.0207H289.419H289.421H289.423H289.425H289.428H289.43H289.432H289.434H289.436H289.439H289.441H289.443H289.445H289.447H289.449H289.452H289.454H289.456H289.458H289.46H289.462H289.465H289.467H289.469H289.471H289.473H289.476H289.478H289.48H289.482H289.484H289.487H289.489H289.491H289.493H289.495H289.497H289.5H289.502H289.504H289.506H289.508H289.51H289.513H289.515H289.517H289.519H289.521H289.524H289.526H289.528H289.53H289.532H289.535H289.537H289.539H289.541H289.543H289.545H289.548H289.55H289.552H289.554H289.556H289.559H289.561H289.563H289.565H289.567H289.569H289.572H289.574H289.576H289.578H289.58H289.583H289.585H289.587H289.589H289.591H289.593H289.596H289.598H289.6H289.602H289.604H289.607H289.609H289.611H289.613H289.615H289.617H289.62H289.622H289.624H289.626H289.628H289.631H289.633H289.635H289.637H289.639H289.641H289.644H289.646H289.648H289.65H289.652H289.655H289.657H289.659H289.661H289.663H289.666H289.668H289.67H289.672H289.674H289.676H289.679H289.681H289.683H289.685H289.687H289.69H289.692H289.694H289.696H289.698H289.7H289.703H289.705H289.707H289.709H289.711H289.714H289.716H289.718H289.72H289.722H289.724H289.727H289.729H289.731H289.733H289.735H289.738H289.74H289.742H289.744H289.746H289.749H289.751H289.753H289.755H289.757H289.759H289.762H289.764H289.766H289.768H289.77H289.773H289.775H289.777H289.779H289.781H289.784H289.786H289.788H289.79H289.792H289.794H289.797H289.799H289.801H289.803H289.805H289.808H289.81H289.812H289.814H289.816H289.818H289.821H289.823H289.825H289.827H289.829H289.832H289.834H289.836H289.838H289.84H289.843H289.845H289.847H289.849H289.851H289.853H289.856H289.858H289.86H289.862H289.864H289.867H289.869H289.871H289.873H289.875H289.878H289.88H289.882H289.884H289.886H289.888H289.891H289.893H289.895H289.897H289.899H289.902H289.904H289.906H289.908H289.91H289.913H289.915H289.917H289.919H289.921H289.923H289.926H289.928H289.93H289.932H289.934H289.937H289.939H289.941H289.943H289.945H289.948H289.95H289.952H289.954H289.956H289.959H289.961H289.963H289.965H289.967H289.969H289.972H289.974H289.976H289.978H289.98H289.983H289.985H289.987H289.989H289.991H289.994H289.996H289.998H290H290.002H290.005H290.007H290.009H290.011H290.013H290.016H290.018H290.02H290.022H290.024H290.026H290.029H290.031H290.033H290.035H290.037H290.04H290.042H290.044H290.046H290.048H290.051H290.053H290.055H290.057H290.059H290.062H290.064H290.066H290.068H290.07H290.073H290.075H290.077H290.079H290.081H290.083H290.086H290.088H290.09H290.092H290.094H290.097H290.099H290.101H290.103H290.105H290.108H290.11H290.112H290.114H290.116H290.119H290.121H290.123H290.125H290.127H290.13H290.132H290.134H290.136H290.138H290.141H290.143H290.145H290.147H290.149H290.152H290.154H290.156H290.158H290.16H290.163H290.165H290.167H290.169H290.171H290.174H290.176H290.178H290.18H290.182H290.185H290.187H290.189H290.191H290.193H290.195H290.198H290.2H290.202H290.204H290.206H290.209H290.211H290.213H290.215H290.217H290.22H290.222H290.224H290.226H290.228H290.231H290.233H290.235H290.237H290.24H290.242H290.244H290.246H290.248H290.25H290.253H290.255H290.257H290.259H290.262H290.264H290.266H290.268H290.27H290.272H290.275H290.277H290.279H290.281H290.284H290.286H290.288H290.29H290.292H290.295H290.297H290.299H290.301H290.303H290.306H290.308H290.31H290.312H290.314H290.317H290.319H290.321H290.323H290.325H290.328H290.33H290.332H290.334H290.336H290.339H290.341H290.343H290.345H290.347H290.35H290.352H290.354H290.356H290.358H290.361H290.363H290.365H290.367H290.369H290.372H290.374H290.376H290.378H290.381H290.383H290.385H290.387H290.389H290.392H290.394H290.396H290.398H290.4H290.403H290.405H290.407H290.409H290.411H290.414H290.416H290.418H290.42H290.422H290.425H290.427H290.429H290.431H290.434H290.436H290.438H290.44H290.442H290.445H290.447H290.449H290.451H290.453H290.456H290.458H290.46H290.462H290.464H290.467H290.469H290.471H290.473H290.476H290.478H290.48H290.482H290.484H290.487H290.489H290.491H290.493H290.495H290.498H290.5H290.502H290.504H290.507H290.509H290.511H290.513H290.515H290.518H290.52H290.522H290.524H290.526H290.529H290.531H290.533H290.535H290.538C292.619 69.0207 294.247 67.2109 294.057 65.1258C292.539 48.5026 292.685 32.0755 292.832 15.5933C292.864 11.9506 292.897 8.30522 292.911 4.65442C292.919 2.79601 291.463 1.2558 289.6 1.13758C289.024 1.10104 288.451 1.06399 287.881 1.0271C283.742 0.759499 279.728 0.5 275.714 0.5C270.816 0.5 265.919 0.553857 261.017 0.607754L261.016 0.607769C256.116 0.661651 251.214 0.715569 246.31 0.715569C243.778 0.715569 241.247 0.6886 238.718 0.661664L238.717 0.661649C236.187 0.634699 233.66 0.607787 231.134 0.607787C227.573 0.607787 224.063 0.702458 220.531 0.79775C218.738 0.84612 216.939 0.894649 215.125 0.931037L215.121 0.931119C206.056 1.0389 196.999 1.14664 187.942 1.46974L187.935 1.47001C185.312 1.5236 182.714 1.68457 180.104 1.84635L180.099 1.84665C177.494 2.00813 174.877 2.17034 172.231 2.22444L172.231 2.22446C169.534 2.27461 166.861 2.1855 164.215 2.0973C164.002 2.09019 163.789 2.08309 163.576 2.07607C160.717 1.98174 157.887 1.90159 155.062 2.00862L155.061 2.00866C147.565 2.27859 140.124 2.21155 132.709 2.14471L132.707 2.14469C125.29 2.07784 117.9 2.01122 110.485 2.28003C106.098 2.504 101.485 2.14708 96.9872 1.79917C94.9695 1.64307 92.9751 1.48879 91.0352 1.38959L91.031 1.38938C83.2263 0.924387 75.6206 1.36821 67.9778 1.81421C65.0241 1.98657 62.0649 2.15925 59.0864 2.27993C56.1149 2.44256 53.1401 2.38809 50.1843 2.32078C49.9879 2.3163 49.7916 2.31177 49.5954 2.30725C46.8317 2.24349 44.0859 2.18014 41.3476 2.28014C38.5381 2.38854 35.6531 2.33424 32.7984 2.2804L32.7931 2.2803C29.9345 2.22639 27.1069 2.17306 24.3856 2.2801C23.1298 2.3295 21.6965 2.38029 20.1697 2.4344C15.3591 2.60489 9.62034 2.80828 5.58045 3.10446C6.80487 4.95776 7.68899 5.95089 9.1205 7.55891C10.0718 8.62745 11.2647 9.96752 12.9599 12.0119L13.2129 12.3171L12.9735 12.6331C12.6422 13.0703 12.0753 13.7553 11.434 14.5303C10.8969 15.1792 10.3076 15.8914 9.7606 16.574C9.15103 17.3347 8.58714 18.0666 8.17751 18.6652C7.97217 18.9653 7.81256 19.2218 7.70622 19.4256C7.64757 19.538 7.61526 19.6159 7.59754 19.6649C7.62381 19.7029 7.65952 19.7513 7.70602 19.8105C7.84481 19.9873 8.04972 20.2231 8.30471 20.5021C8.81284 21.0582 9.49412 21.758 10.18 22.4471C10.8649 23.1351 11.5503 23.8083 12.0647 24.3097C12.3218 24.5603 12.5361 24.7679 12.686 24.9127L12.8598 25.0804L12.9055 25.1244L12.9172 25.1356L12.9201 25.1384L12.9208 25.1391L12.921 25.1392L12.5748 25.5M12.5748 25.5L12.921 25.1393L13.3361 25.5376L12.8838 25.8931L12.5748 25.5Z" fill="#FFF6F6" stroke="#DA8787"/>
</svg>
