<svg preserveAspectRatio="none" viewBox="0 0 279 73" fill="none" xmlns="http://www.w3.org/2000/svg">
<path d="M7.88359 71.6417C8.53937 71.6895 9.21343 71.8663 9.83533 72.0294C9.89634 72.0454 9.95685 72.0613 10.0168 72.0769C10.7372 72.2644 11.3872 72.4174 11.9912 72.405C12.1976 72.4008 12.4019 72.3883 12.6046 72.3652L12.6327 72.362H12.661H12.6907H12.7203H12.75H12.7796H12.8092H12.8389H12.8685H12.8982H12.9278H12.9574H12.9871H13.0167H13.0464H13.076H13.1057H13.1353H13.1649H13.1946H13.2242H13.2539H13.2835H13.3131H13.3428H13.3724H13.4021H13.4317H13.4613H13.491H13.5206H13.5503H13.5799H13.6095H13.6392H13.6688H13.6985H13.7281H13.7578H13.7874H13.817H13.8467H13.8763H13.906H13.9356H13.9652H13.9949H14.0245H14.0542H14.0838H14.1134H14.1431H14.1727H14.2024H14.232H14.2616H14.2913H14.3209H14.3506H14.3802H14.4099H14.4395H14.4691H14.4988H14.5284H14.5581H14.5877H14.6173H14.647H14.6766H14.7063H14.7359H14.7655H14.7952H14.8248H14.8545H14.8841H14.9137H14.9434H14.973H15.0027H15.0323H15.062H15.0916H15.1212H15.1509H15.1805H15.2102H15.2398H15.2694H15.2991H15.3287H15.3584H15.388H15.4176H15.4473H15.4769H15.5066H15.5362H15.5658H15.5955H15.6251H15.6548H15.6844H15.714H15.7437H15.7733H15.803H15.8326H15.8623H15.8919H15.9215H15.9512H15.9808H16.0105H16.0401H16.0697H16.0994H16.129H16.1587H16.1883H16.2179H16.2476H16.2772H16.3069H16.3365H16.3661H16.3958H16.4254H16.4551H16.4847H16.5144H16.544H16.5736H16.6033H16.6329H16.6626H16.6922H16.7218H16.7515H16.7811H16.8108H16.8404H16.87H16.8997H16.9293H16.959H16.9886H17.0182H17.0479H17.0775H17.1072H17.1368H17.1665H17.1961H17.2257H17.2554H17.285H17.3147H17.3443H17.3739H17.4036H17.4332H17.4629H17.4925H17.5221H17.5518H17.5814H17.6111H17.6407H17.6703H17.7H17.7296H17.7593H17.7889H17.8186H17.8482H17.8778H17.9075H17.9371H17.9668H17.9964H18.026H18.0557H18.0853H18.115H18.1446H18.1742H18.2039H18.2335H18.2632H18.2928H18.3224H18.3521H18.3817H18.4114H18.441H18.4706H18.5003H18.5299H18.5596H18.5892H18.6189H18.6485H18.6781H18.7078H18.7374H18.7671H18.7967H18.8263H18.856H18.8856H18.9153H18.9449H18.9745H19.0042H19.0338H19.0635H19.0931H19.1227H19.1524H19.182H19.2117H19.2413H19.271H19.3006H19.3302H19.3599H19.3895H19.4192H19.4488H19.4784H19.5081H19.5377H19.5674H19.597H19.6266H19.6563H19.6859H19.7156H19.7452H19.7748H19.8045H19.8341H19.8638H19.8934H19.923H19.9527H19.9823H20.012H20.0416H20.0713H20.1009H20.1305H20.1602H20.1898H20.2195H20.2491H20.2787H20.3084H20.338H20.3677H20.3973H20.4269H20.4566H20.4862H20.5159H20.5455H20.5751H20.6048H20.6344H20.6641H20.6937H20.7234H20.753H20.7826H20.8123H20.8419H20.8716H20.9012H20.9308H20.9605H20.9901H21.0198H21.0494H21.079H21.1087H21.1383H21.168H21.1976H21.2272H21.2569H21.2865H21.3162H21.3458H21.3755H21.4051H21.4347H21.4644H21.494H21.5237H21.5533H21.5829H21.6126H21.6422H21.6719H21.7015H21.7311H21.7608H21.7904H21.8201H21.8497H21.8793H21.909H21.9386H21.9683H21.9979H22.0275H22.0572H22.0868H22.1165H22.1461H22.1758H22.2054H22.235H22.2647H22.2943H22.324H22.3536H22.3832H22.4129H22.4425H22.4722H22.5018H22.5314H22.5611H22.5907H22.6204H22.65H22.6796H22.7093H22.7389H22.7686H22.7982H22.8279H22.8575H22.8871H22.9168H22.9464H22.9761H23.0057H23.0353H23.065H23.0946H23.1243H23.1539H23.1835H23.2132H23.2428H23.2725H23.3021H23.3317H23.3614H23.391H23.4207H23.4503H23.48H23.5096H23.5392H23.5689H23.5985H23.6282H23.6578H23.6874H23.7171H23.7467H23.7764H23.806H23.8356H23.8653H23.8949H23.9246H23.9542H23.9838H24.0135H24.0431H24.0728H24.1024H24.132H24.1617H24.1913H24.221H24.2506H24.2803H24.3099H24.3395H24.3692H24.3988H24.4285H24.4581H24.4877H24.5174H24.547H24.5767H24.6063H24.6359H24.6656H24.6952H24.7249H24.7545H24.7841H24.8138H24.8434H24.8731H24.9027H24.9324H24.962H24.9916H25.0213H25.0509H25.0806H25.1102H25.1398H25.1695H25.1991H25.2288H25.2584H25.288H25.3177H25.3473H25.377H25.4066H25.4362H25.4659H25.4955H25.5252H25.5548H25.5845H25.6141H25.6437H25.6734H25.703H25.7327H25.7623H25.7919H25.8216H25.8512H25.8809H25.9105H25.9401H25.9698H25.9994H26.0291H26.0587H26.0883H26.118H26.1476H26.1773H26.2069H26.2365H26.2662H26.2958H26.3255H26.3551H26.3848H26.4144H26.444H26.4737H26.5033H26.533H26.5626H26.5922H26.6219H26.6515H26.6812H26.7108H26.7404H26.7701H26.7997H26.8294H26.859H26.8886H26.9183H26.9479H26.9776H27.0072H27.0369H27.0665H27.0961H27.1258H27.1554H27.1851H27.2147H27.2443H27.274H27.3036H27.3333H27.3629H27.3925H27.4222H27.4518H27.4815H27.5111H27.5407H27.5704H27.6H27.6297H27.6593H27.689H27.7186H27.7482H27.7779H27.8075H27.8372C29.4678 72.362 31.0638 72.397 32.6501 72.4317C35.0052 72.4833 37.3389 72.5344 39.7327 72.47L39.7334 72.47C43.1055 72.3838 46.469 72.2627 49.8322 72.1416C54.8556 71.9607 59.8783 71.7799 64.9279 71.7154L64.9343 71.7153C66.9046 71.7153 68.8977 71.8784 70.8668 72.0395L70.8769 72.0404C72.8555 72.2022 74.8099 72.3619 76.7346 72.362C81.513 72.2977 86.3179 72.1186 91.1447 71.9386C94.4077 71.817 97.6808 71.695 100.963 71.6078C100.963 71.6077 100.964 71.6077 100.964 71.6077L100.978 72.1075C102.734 72.0477 104.491 72.1541 106.247 72.2606C107.652 72.3457 109.057 72.4309 110.463 72.4309C114.007 72.4309 117.524 72.3223 121.028 72.2141C124.506 72.1067 127.97 71.9998 131.435 71.9998C136.675 71.9998 141.914 72.0592 147.153 72.1185C154.139 72.1977 161.125 72.2769 168.111 72.2153L7.88359 71.6417ZM7.88359 71.6417C8.01009 71.5527 8.14844 71.4576 8.29749 71.3573C9.16193 70.7755 10.3399 70.0457 11.5317 69.3285C12.7218 68.6123 13.9191 67.9124 14.8194 67.3914C15.2694 67.131 15.6449 66.9154 15.9079 66.7649C16.0393 66.6897 16.1426 66.6308 16.213 66.5907L16.2933 66.545L16.3138 66.5334L16.319 66.5304L16.3202 66.5297L16.3205 66.5295C16.3206 66.5295 16.3206 66.5295 16.0739 66.0946L16.3206 66.5295L16.9395 66.1784L16.3994 65.7151L16.3993 65.715L16.3986 65.7143L16.3952 65.7114L16.3812 65.6993L16.3252 65.6507C16.2759 65.6078 16.2033 65.5441 16.1109 65.462C15.926 65.2979 15.662 65.0603 15.3469 64.7677C14.716 64.1819 13.8836 63.3788 13.0728 62.5057C12.2589 61.6294 11.4808 60.6976 10.9481 59.8534C10.6817 59.4311 10.4869 59.0467 10.3766 58.714C10.2645 58.376 10.2547 58.137 10.2979 57.9783C10.3892 57.6432 10.7251 57.0541 11.26 56.2914C11.7799 55.5503 12.4445 54.7043 13.1309 53.875C14.5057 52.2137 15.9414 50.6508 16.4251 50.1735L16.6877 49.9144L16.5176 49.587C16.3361 49.2378 15.9731 48.7889 15.5196 48.2933C15.0557 47.7863 14.4625 47.1939 13.7862 46.5508C12.4329 45.2638 10.7286 43.7565 9.01891 42.2934C5.8119 39.549 2.54261 36.9236 1.51794 36.1959C1.53791 36.1535 1.5668 36.099 1.60812 36.0314C1.80111 35.7159 2.1618 35.2788 2.66409 34.7473C3.66024 33.693 5.12418 32.3594 6.6438 31.0424C8.16033 29.7281 9.7204 28.4406 10.9022 27.4811C11.4928 27.0015 11.9885 26.6042 12.3364 26.327C12.5104 26.1883 12.6473 26.0797 12.7407 26.0058L12.8473 25.9216L12.8745 25.9002L12.8813 25.8948L12.883 25.8935L12.8834 25.8932C12.8835 25.8931 12.8835 25.8931 12.5746 25.5M7.88359 71.6417L210.056 71.3531L210.045 70.8532C210.046 70.8532 210.046 70.8531 210.047 70.8531C215.108 70.7453 220.195 70.6914 225.279 70.6375H225.279C230.364 70.5836 235.446 70.5298 240.502 70.4221C248.668 70.2065 256.808 69.9641 264.949 69.7215L264.957 69.7213C273.095 69.4789 281.235 69.2364 289.401 69.0209L289.414 69.0206L289.416 69.0207H289.419H289.421H289.423H289.425H289.427H289.43H289.432H289.434H289.436H289.438H289.44H289.443H289.445H289.447H289.449H289.451H289.454H289.456H289.458H289.46H289.462H289.464H289.467H289.469H289.471H289.473H289.475H289.478H289.48H289.482H289.484H289.486H289.488H289.491H289.493H289.495H289.497H289.499H289.502H289.504H289.506H289.508H289.51H289.512H289.515H289.517H289.519H289.521H289.523H289.526H289.528H289.53H289.532H289.534H289.536H289.539H289.541H289.543H289.545H289.547H289.55H289.552H289.554H289.556H289.558H289.56H289.563H289.565H289.567H289.569H289.571H289.574H289.576H289.578H289.58H289.582H289.584H289.587H289.589H289.591H289.593H289.595H289.598H289.6H289.602H289.604H289.606H289.608H289.611H289.613H289.615H289.617H289.619H289.622H289.624H289.626H289.628H289.63H289.633H289.635H289.637H289.639H289.641H289.643H289.646H289.648H289.65H289.652H289.654H289.657H289.659H289.661H289.663H289.665H289.667H289.67H289.672H289.674H289.676H289.678H289.681H289.683H289.685H289.687H289.689H289.691H289.694H289.696H289.698H289.7H289.702H289.705H289.707H289.709H289.711H289.713H289.716H289.718H289.72H289.722H289.724H289.726H289.729H289.731H289.733H289.735H289.737H289.74H289.742H289.744H289.746H289.748H289.75H289.753H289.755H289.757H289.759H289.761H289.764H289.766H289.768H289.77H289.772H289.775H289.777H289.779H289.781H289.783H289.785H289.788H289.79H289.792H289.794H289.796H289.799H289.801H289.803H289.805H289.807H289.809H289.812H289.814H289.816H289.818H289.82H289.823H289.825H289.827H289.829H289.831H289.834H289.836H289.838H289.84H289.842H289.844H289.847H289.849H289.851H289.853H289.855H289.858H289.86H289.862H289.864H289.866H289.869H289.871H289.873H289.875H289.877H289.879H289.882H289.884H289.886H289.888H289.89H289.893H289.895H289.897H289.899H289.901H289.904H289.906H289.908H289.91H289.912H289.914H289.917H289.919H289.921H289.923H289.925H289.928H289.93H289.932H289.934H289.936H289.939H289.941H289.943H289.945H289.947H289.95H289.952H289.954H289.956H289.958H289.96H289.963H289.965H289.967H289.969H289.971H289.974H289.976H289.978H289.98H289.982H289.985H289.987H289.989H289.991H289.993H289.996H289.998H290H290.002H290.004H290.007H290.009H290.011H290.013H290.015H290.017H290.02H290.022H290.024H290.026H290.028H290.031H290.033H290.035H290.037H290.039H290.042H290.044H290.046H290.048H290.05H290.053H290.055H290.057H290.059H290.061H290.064H290.066H290.068H290.07H290.072H290.074H290.077H290.079H290.081H290.083H290.085H290.088H290.09H290.092H290.094H290.096H290.099H290.101H290.103H290.105H290.107H290.11H290.112H290.114H290.116H290.118H290.121H290.123H290.125H290.127H290.129H290.132H290.134H290.136H290.138H290.14H290.143H290.145H290.147H290.149H290.151H290.154H290.156H290.158H290.16H290.162H290.164H290.167H290.169H290.171H290.173H290.175H290.178H290.18H290.182H290.184H290.186H290.189H290.191H290.193H290.195H290.197H290.2H290.202H290.204H290.206H290.208H290.211H290.213H290.215H290.217H290.219H290.222H290.224H290.226H290.228H290.23H290.233H290.235H290.237H290.239H290.241H290.244H290.246H290.248H290.25H290.252H290.255H290.257H290.259H290.261H290.263H290.266H290.268H290.27H290.272H290.274H290.277H290.279H290.281H290.283H290.285H290.288H290.29H290.292H290.294H290.296H290.299H290.301H290.303H290.305H290.307H290.31H290.312H290.314H290.316H290.319H290.321H290.323H290.325H290.327H290.33H290.332H290.334H290.336H290.338H290.341H290.343H290.345H290.347H290.349H290.352H290.354H290.356H290.358H290.36H290.363H290.365H290.367H290.369H290.371H290.374H290.376H290.378H290.38H290.382H290.385H290.387H290.389H290.391H290.394H290.396H290.398H290.4H290.402H290.405H290.407H290.409H290.411H290.413H290.416H290.418H290.42H290.422H290.424H290.427H290.429H290.431H290.433H290.435H290.438H290.44H290.442H290.444H290.447H290.449H290.451H290.453H290.455H290.458H290.46H290.462H290.464H290.466H290.469H290.471H290.473H290.475H290.477H290.48H290.482H290.484H290.486H290.489H290.491H290.493H290.495H290.497H290.5H290.502H290.504H290.506H290.508H290.511H290.513H290.515H290.517H290.52H290.522H290.524H290.526H290.528H290.531H290.533H290.535H290.537C292.619 69.0207 294.247 67.2109 294.056 65.1258C292.539 48.5026 292.685 32.0755 292.832 15.5933C292.864 11.9506 292.897 8.30522 292.911 4.65442C292.919 2.79601 291.463 1.2558 289.6 1.13758C289.024 1.10104 288.451 1.06399 287.88 1.0271C283.741 0.759499 279.727 0.5 275.714 0.5C270.816 0.5 265.918 0.553857 261.017 0.607754L261.016 0.607769C256.116 0.661651 251.213 0.715569 246.31 0.715569C243.778 0.715569 241.246 0.6886 238.718 0.661664L238.717 0.661649C236.187 0.634699 233.66 0.607787 231.134 0.607787C227.572 0.607787 224.063 0.702458 220.531 0.79775C218.738 0.84612 216.939 0.894649 215.125 0.931037L215.121 0.931119C206.056 1.0389 196.999 1.14664 187.942 1.46974L187.934 1.47001C185.312 1.5236 182.714 1.68457 180.103 1.84635L180.098 1.84665C177.493 2.00813 174.876 2.17034 172.231 2.22444L172.23 2.22446C169.534 2.27461 166.861 2.1855 164.215 2.0973C164.002 2.09019 163.789 2.08309 163.576 2.07607C160.716 1.98174 157.887 1.90159 155.061 2.00862L155.061 2.00866C147.565 2.27859 140.124 2.21155 132.709 2.14471L132.706 2.14469C125.29 2.07784 117.899 2.01122 110.484 2.28003C106.098 2.504 101.484 2.14708 96.987 1.79917C94.9692 1.64307 92.9749 1.48879 91.0349 1.38959L91.0307 1.38938C83.226 0.924387 75.6204 1.36821 67.9775 1.81421C65.0239 1.98657 62.0646 2.15925 59.0862 2.27993C56.1147 2.44256 53.1399 2.38809 50.1841 2.32078C49.9877 2.3163 49.7914 2.31177 49.5951 2.30725C46.8315 2.24349 44.0856 2.18014 41.3473 2.28014C38.5378 2.38854 35.6528 2.33424 32.7982 2.2804L32.7928 2.2803C29.9343 2.22639 27.1067 2.17306 24.3854 2.2801C23.1296 2.3295 21.6963 2.38029 20.1695 2.4344C15.3589 2.60489 9.6201 2.80828 5.58021 3.10446C6.80462 4.95776 7.68875 5.95089 9.12026 7.55891C10.0715 8.62745 11.2645 9.96752 12.9597 12.0119L13.2127 12.3171L12.9733 12.6331C12.6419 13.0703 12.0751 13.7553 11.4337 14.5303C10.8967 15.1792 10.3074 15.8914 9.76036 16.574C9.15079 17.3347 8.5869 18.0666 8.17726 18.6652C7.97193 18.9653 7.81231 19.2218 7.70597 19.4256C7.64733 19.538 7.61501 19.6159 7.5973 19.6649C7.62356 19.7029 7.65927 19.7513 7.70577 19.8105C7.84456 19.9873 8.04947 20.2231 8.30446 20.5021C8.8126 21.0582 9.49387 21.758 10.1798 22.4471C10.8647 23.1351 11.55 23.8083 12.0644 24.3097C12.3216 24.5603 12.5358 24.7679 12.6857 24.9127L12.8596 25.0804L12.9053 25.1244L12.9169 25.1356L12.9198 25.1384L12.9206 25.1391L12.9207 25.1392L12.5746 25.5M12.5746 25.5L12.9208 25.1393L13.3358 25.5376L12.8835 25.8931L12.5746 25.5Z" fill="#F7FFF6" stroke="#77B092"/>
</svg>
