<svg preserveAspectRatio="none" viewBox="0 0 279 73" fill="none" xmlns="http://www.w3.org/2000/svg">
<mask id="path-2-inside-1_7_2" fill="white">
<path fill-rule="evenodd" clip-rule="evenodd" d="M11.0241 72.9049C9.65841 72.9329 8.16815 72.2155 6.80449 72.1361C6.34819 72.1095 5.92181 72.1098 5.6546 72.1098C5.44382 71.5708 15.0966 66.0946 15.0966 66.0946C15.0966 66.0946 8.20274 60.1808 8.83821 57.8469C9.30727 56.1242 14.0969 50.8041 15.0966 49.8176C13.9112 47.5364 1.60041 37.4865 0.100745 36.5C-1.25914 35.6055 11.5973 25.5 11.5973 25.5C11.5973 25.5 6.09899 20.223 6.09893 19.7297C6.09893 18.7432 10.3833 13.9334 11.5975 12.3311C7.09866 6.90541 6.09893 6.41216 3.72706 2.67073C8.99655 2.2396 17.9082 1.99606 23.3884 1.78049C28.8687 1.56492 34.7656 1.99606 40.3512 1.78049C46.2531 1.56492 52.1833 2.10384 58.0851 1.78049C68.7295 1.34935 79.228 0.243539 90.0832 0.890244C96.4065 1.2136 103.162 2.10384 109.485 1.78049C124.345 1.24157 139.1 2.0479 154.065 1.50898C159.756 1.29341 165.447 1.83233 171.244 1.72455C176.513 1.61676 181.677 1.07784 186.947 0.970058C196.01 0.646706 205.074 0.538922 214.137 0.431138C219.512 0.323354 224.782 0.107787 230.157 0.107787C235.215 0.107787 240.274 0.215569 245.333 0.215569C255.134 0.215569 264.935 0 274.736 0C279.323 0 283.91 0.337501 288.654 0.638583C290.777 0.773312 292.442 2.5294 292.434 4.65641C292.354 24.8445 291.727 44.814 293.577 65.0804C293.794 67.4523 291.942 69.5207 289.56 69.5207C289.182 69.5207 288.809 69.5207 288.437 69.5207C272.102 69.9519 255.872 70.4908 239.536 70.9219C229.419 71.1375 219.196 71.1375 209.079 71.3531C195.062 71.5686 181.15 72.1075 167.133 72.2153C154.908 72.3231 142.683 71.9998 130.458 71.9998C123.502 71.9998 116.546 72.4309 109.485 72.4309C106.324 72.4309 103.162 71.9998 100 72.1075C91.8853 72.3231 83.7703 72.7543 75.7607 72.862C71.8612 72.862 67.8565 72.2153 63.957 72.2153C55.5259 72.3231 47.2001 72.7542 38.7689 72.9698C34.7641 73.0776 30.8647 72.862 26.8599 72.862C21.8012 72.862 16.7425 72.862 11.6837 72.862C11.4639 72.887 11.244 72.9004 11.0241 72.9049Z"/>
</mask>
<path fill-rule="evenodd" clip-rule="evenodd" d="M11.0241 72.9049C9.65841 72.9329 8.16815 72.2155 6.80449 72.1361C6.34819 72.1095 5.92181 72.1098 5.6546 72.1098C5.44382 71.5708 15.0966 66.0946 15.0966 66.0946C15.0966 66.0946 8.20274 60.1808 8.83821 57.8469C9.30727 56.1242 14.0969 50.8041 15.0966 49.8176C13.9112 47.5364 1.60041 37.4865 0.100745 36.5C-1.25914 35.6055 11.5973 25.5 11.5973 25.5C11.5973 25.5 6.09899 20.223 6.09893 19.7297C6.09893 18.7432 10.3833 13.9334 11.5975 12.3311C7.09866 6.90541 6.09893 6.41216 3.72706 2.67073C8.99655 2.2396 17.9082 1.99606 23.3884 1.78049C28.8687 1.56492 34.7656 1.99606 40.3512 1.78049C46.2531 1.56492 52.1833 2.10384 58.0851 1.78049C68.7295 1.34935 79.228 0.243539 90.0832 0.890244C96.4065 1.2136 103.162 2.10384 109.485 1.78049C124.345 1.24157 139.1 2.0479 154.065 1.50898C159.756 1.29341 165.447 1.83233 171.244 1.72455C176.513 1.61676 181.677 1.07784 186.947 0.970058C196.01 0.646706 205.074 0.538922 214.137 0.431138C219.512 0.323354 224.782 0.107787 230.157 0.107787C235.215 0.107787 240.274 0.215569 245.333 0.215569C255.134 0.215569 264.935 0 274.736 0C279.323 0 283.91 0.337501 288.654 0.638583C290.777 0.773312 292.442 2.5294 292.434 4.65641C292.354 24.8445 291.727 44.814 293.577 65.0804C293.794 67.4523 291.942 69.5207 289.56 69.5207C289.182 69.5207 288.809 69.5207 288.437 69.5207C272.102 69.9519 255.872 70.4908 239.536 70.9219C229.419 71.1375 219.196 71.1375 209.079 71.3531C195.062 71.5686 181.15 72.1075 167.133 72.2153C154.908 72.3231 142.683 71.9998 130.458 71.9998C123.502 71.9998 116.546 72.4309 109.485 72.4309C106.324 72.4309 103.162 71.9998 100 72.1075C91.8853 72.3231 83.7703 72.7543 75.7607 72.862C71.8612 72.862 67.8565 72.2153 63.957 72.2153C55.5259 72.3231 47.2001 72.7542 38.7689 72.9698C34.7641 73.0776 30.8647 72.862 26.8599 72.862C21.8012 72.862 16.7425 72.862 11.6837 72.862C11.4639 72.887 11.244 72.9004 11.0241 72.9049Z" fill="#F7FFF6" stroke="#77B092" stroke-width="2" mask="url(#path-2-inside-1_7_2)"/>
</svg>
