<svg preserveAspectRatio="none" viewBox="0 0 279 73" fill="none" xmlns="http://www.w3.org/2000/svg">
<mask id="path-2-inside-1_7_2" fill="white">
<path fill-rule="evenodd" clip-rule="evenodd" d="M12.0016 72.9049C10.6359 72.9329 9.14569 72.2155 7.78203 72.1361C7.32573 72.1095 6.89935 72.1098 6.63214 72.1098C6.42136 71.5708 16.0741 66.0946 16.0741 66.0946C16.0741 66.0946 9.18028 60.1808 9.81575 57.8469C10.2848 56.1242 15.0744 50.8041 16.0741 49.8176C14.8887 47.5364 2.57795 37.4865 1.07828 36.5C-0.281598 35.6055 12.5748 25.5 12.5748 25.5C12.5748 25.5 7.07653 20.223 7.07647 19.7297C7.07647 18.7432 11.3608 13.9334 12.575 12.3311C8.0762 6.90541 7.07647 6.41216 4.7046 2.67073C9.97408 2.2396 18.8857 1.99606 24.366 1.78049C29.8462 1.56492 35.7431 1.99606 41.3288 1.78049C47.2306 1.56492 53.1608 2.10384 59.0627 1.78049C69.707 1.34935 80.2056 0.243539 91.0607 0.890244C97.3841 1.2136 104.14 2.10384 110.463 1.78049C125.323 1.24157 140.077 2.0479 155.043 1.50898C160.734 1.29341 166.425 1.83233 172.221 1.72455C177.491 1.61676 182.655 1.07784 187.924 0.970058C196.988 0.646706 206.051 0.538922 215.115 0.431138C220.49 0.323354 225.759 0.107787 231.134 0.107787C236.193 0.107787 241.251 0.215569 246.31 0.215569C256.111 0.215569 265.913 0 275.714 0C280.301 0 284.888 0.337501 289.632 0.638583C291.755 0.773312 293.42 2.5294 293.411 4.65641C293.331 24.8445 292.705 44.814 294.555 65.0804C294.771 67.4523 292.919 69.5207 290.538 69.5207C290.159 69.5207 289.787 69.5207 289.414 69.5207C273.079 69.9519 256.849 70.4908 240.514 70.9219C230.396 71.1375 220.174 71.1375 210.056 71.3531C196.039 71.5686 182.128 72.1075 168.111 72.2153C155.886 72.3231 143.661 71.9998 131.435 71.9998C124.48 71.9998 117.524 72.4309 110.463 72.4309C107.301 72.4309 104.14 71.9998 100.978 72.1075C92.8628 72.3231 84.7478 72.7543 76.7382 72.862C72.8388 72.862 68.834 72.2153 64.9346 72.2153C56.5034 72.3231 48.1776 72.7542 39.7464 72.9698C35.7416 73.0776 31.8422 72.862 27.8374 72.862C22.7787 72.862 17.72 72.862 12.6613 72.862C12.4414 72.887 12.2215 72.9004 12.0016 72.9049Z"/>
</mask>
<path fill-rule="evenodd" clip-rule="evenodd" d="M12.0016 72.9049C10.6359 72.9329 9.14569 72.2155 7.78203 72.1361C7.32573 72.1095 6.89935 72.1098 6.63214 72.1098C6.42136 71.5708 16.0741 66.0946 16.0741 66.0946C16.0741 66.0946 9.18028 60.1808 9.81575 57.8469C10.2848 56.1242 15.0744 50.8041 16.0741 49.8176C14.8887 47.5364 2.57795 37.4865 1.07828 36.5C-0.281598 35.6055 12.5748 25.5 12.5748 25.5C12.5748 25.5 7.07653 20.223 7.07647 19.7297C7.07647 18.7432 11.3608 13.9334 12.575 12.3311C8.0762 6.90541 7.07647 6.41216 4.7046 2.67073C9.97408 2.2396 18.8857 1.99606 24.366 1.78049C29.8462 1.56492 35.7431 1.99606 41.3288 1.78049C47.2306 1.56492 53.1608 2.10384 59.0627 1.78049C69.707 1.34935 80.2056 0.243539 91.0607 0.890244C97.3841 1.2136 104.14 2.10384 110.463 1.78049C125.323 1.24157 140.077 2.0479 155.043 1.50898C160.734 1.29341 166.425 1.83233 172.221 1.72455C177.491 1.61676 182.655 1.07784 187.924 0.970058C196.988 0.646706 206.051 0.538922 215.115 0.431138C220.49 0.323354 225.759 0.107787 231.134 0.107787C236.193 0.107787 241.251 0.215569 246.31 0.215569C256.111 0.215569 265.913 0 275.714 0C280.301 0 284.888 0.337501 289.632 0.638583C291.755 0.773312 293.42 2.5294 293.411 4.65641C293.331 24.8445 292.705 44.814 294.555 65.0804C294.771 67.4523 292.919 69.5207 290.538 69.5207C290.159 69.5207 289.787 69.5207 289.414 69.5207C273.079 69.9519 256.849 70.4908 240.514 70.9219C230.396 71.1375 220.174 71.1375 210.056 71.3531C196.039 71.5686 182.128 72.1075 168.111 72.2153C155.886 72.3231 143.661 71.9998 131.435 71.9998C124.48 71.9998 117.524 72.4309 110.463 72.4309C107.301 72.4309 104.14 71.9998 100.978 72.1075C92.8628 72.3231 84.7478 72.7543 76.7382 72.862C72.8388 72.862 68.834 72.2153 64.9346 72.2153C56.5034 72.3231 48.1776 72.7542 39.7464 72.9698C35.7416 73.0776 31.8422 72.862 27.8374 72.862C22.7787 72.862 17.72 72.862 12.6613 72.862C12.4414 72.887 12.2215 72.9004 12.0016 72.9049Z" fill="#FFF6F6" stroke="#DA8787" stroke-width="2" mask="url(#path-2-inside-1_7_2)"/>

</svg>
