
<svg preserveAspectRatio="none"  viewBox="0 0 244 41" fill="none" xmlns="http://www.w3.org/2000/svg">
<mask id="path-2-inside-1_7_2" fill="white">
<path fill-rule="evenodd" clip-rule="evenodd" d="M9.91144 40.9458C8.73346 40.9678 7.44159 40.5493 6.26404 40.5108C5.92857 40.4999 5.62175 40.5 5.42222 40.5C5.24784 40.1973 6.37909 37.3632 6.37909 37C7.6549 33.5 7.97386 32.5 9.56863 29C7.6549 26.5 2.23268 22.5 0 20C2.87059 17.5 8.29285 13 10.5254 11C7.9739 8 5.42227 4 3.82749 1.5C8.18714 1.25785 15.56 1.12107 20.0941 1C24.6281 0.878927 29.5068 1.12107 34.1281 1C39.0109 0.878927 43.9172 1.18161 48.8 1C57.6064 0.757855 66.2923 0.136782 75.2732 0.5C80.5047 0.681609 86.0938 1.18161 91.3253 1C103.62 0.697319 115.827 1.15019 128.208 0.847509C132.916 0.726436 137.625 1.02912 142.42 0.968582C146.78 0.908045 151.052 0.605363 155.412 0.544827C162.911 0.363218 170.409 0.302682 177.908 0.242146C182.355 0.18161 186.714 0.0605376 191.161 0.0605376C195.346 0.0605376 199.532 0.121073 203.717 0.121073C211.826 0.121073 219.935 0 228.044 0C231.606 0 235.167 0.166969 238.836 0.327292C240.987 0.421293 242.692 2.19004 242.672 4.34322C242.578 14.4023 242.228 24.3762 243.373 34.4675C243.646 36.8755 241.802 39.0459 239.379 39.0459V39.0459C225.864 39.288 212.436 39.5907 198.921 39.8329C190.551 39.9539 182.093 39.9539 173.723 40.075C162.126 40.1961 150.616 40.4988 139.02 40.5593C128.905 40.6198 118.791 40.4382 108.677 40.4382C102.922 40.4382 97.1673 40.6804 91.3253 40.6804C88.7096 40.6804 86.0938 40.4382 83.478 40.4988C76.7641 40.6198 70.0503 40.862 63.4236 40.9225C60.1975 40.9225 56.8842 40.5593 53.658 40.5593C46.6826 40.6198 39.7943 40.862 32.8189 40.983C29.5056 41.0436 26.2795 40.9225 22.9661 40.9225C18.7809 40.9225 14.5956 40.9225 10.4104 40.9225C10.2441 40.9353 10.0777 40.9427 9.91144 40.9458Z"/>
</mask>
<path fill-rule="evenodd" clip-rule="evenodd" d="M9.91144 40.9458C8.73346 40.9678 7.44159 40.5493 6.26404 40.5108C5.92857 40.4999 5.62175 40.5 5.42222 40.5C5.24784 40.1973 6.37909 37.3632 6.37909 37C7.6549 33.5 7.97386 32.5 9.56863 29C7.6549 26.5 2.23268 22.5 0 20C2.87059 17.5 8.29285 13 10.5254 11C7.9739 8 5.42227 4 3.82749 1.5C8.18714 1.25785 15.56 1.12107 20.0941 1C24.6281 0.878927 29.5068 1.12107 34.1281 1C39.0109 0.878927 43.9172 1.18161 48.8 1C57.6064 0.757855 66.2923 0.136782 75.2732 0.5C80.5047 0.681609 86.0938 1.18161 91.3253 1C103.62 0.697319 115.827 1.15019 128.208 0.847509C132.916 0.726436 137.625 1.02912 142.42 0.968582C146.78 0.908045 151.052 0.605363 155.412 0.544827C162.911 0.363218 170.409 0.302682 177.908 0.242146C182.355 0.18161 186.714 0.0605376 191.161 0.0605376C195.346 0.0605376 199.532 0.121073 203.717 0.121073C211.826 0.121073 219.935 0 228.044 0C231.606 0 235.167 0.166969 238.836 0.327292C240.987 0.421293 242.692 2.19004 242.672 4.34322C242.578 14.4023 242.228 24.3762 243.373 34.4675C243.646 36.8755 241.802 39.0459 239.379 39.0459V39.0459C225.864 39.288 212.436 39.5907 198.921 39.8329C190.551 39.9539 182.093 39.9539 173.723 40.075C162.126 40.1961 150.616 40.4988 139.02 40.5593C128.905 40.6198 118.791 40.4382 108.677 40.4382C102.922 40.4382 97.1673 40.6804 91.3253 40.6804C88.7096 40.6804 86.0938 40.4382 83.478 40.4988C76.7641 40.6198 70.0503 40.862 63.4236 40.9225C60.1975 40.9225 56.8842 40.5593 53.658 40.5593C46.6826 40.6198 39.7943 40.862 32.8189 40.983C29.5056 41.0436 26.2795 40.9225 22.9661 40.9225C18.7809 40.9225 14.5956 40.9225 10.4104 40.9225C10.2441 40.9353 10.0777 40.9427 9.91144 40.9458Z" fill="#FBFFFB" stroke="#D7D4CE" stroke-width="2" mask="url(#path-2-inside-1_7_2)"/>

</svg>
