<svg preserveAspectRatio="none" viewBox="0 0 244 41" fill="none" xmlns="http://www.w3.org/2000/svg">
<path d="M193.393 39.3329C189.198 39.3934 184.982 39.4237 180.763 39.4539L180.761 39.454C176.544 39.4842 172.324 39.5145 168.126 39.575C163.128 39.6271 158.153 39.7125 153.182 39.7979C146.572 39.9114 139.969 40.0247 133.329 40.0593H133.329C127.533 40.0939 121.746 40.0495 115.956 40.005C111.609 39.9716 107.261 39.9382 102.904 39.9382C100.024 39.9382 97.1452 39.9984 94.2616 40.0587L94.2262 40.0594C91.3291 40.12 88.427 40.1804 85.5039 40.1804C84.349 40.1804 83.1939 40.133 82.0268 40.0851C81.8812 40.0791 81.7354 40.0732 81.5894 40.0673C80.2782 40.0143 78.953 39.9683 77.6245 39.9989C74.9035 40.0478 72.1884 40.1163 69.4811 40.1846C65.4752 40.2857 61.4866 40.3864 57.5216 40.4225C55.921 40.4224 54.2963 40.3326 52.6552 40.2417L52.648 40.2413C51.0134 40.1507 49.3625 40.0593 47.7311 40.0593L47.7268 40.0593C43.5376 40.0956 39.3725 40.1971 35.2057 40.2986C32.4155 40.3666 29.6244 40.4347 26.825 40.4831L26.8246 40.4831C24.8377 40.5193 22.8973 40.4906 20.9412 40.4616C19.6253 40.4421 18.3023 40.4225 16.9533 40.4225H16.9287H16.9041H16.8795H16.8549H16.8303H16.8057H16.7812H16.7566H16.732H16.7074H16.6828H16.6582H16.6336H16.609H16.5844H16.5598H16.5352H16.5106H16.4861H16.4615H16.4369H16.4123H16.3877H16.3631H16.3385H16.3139H16.2893H16.2647H16.2401H16.2155H16.191H16.1664H16.1418H16.1172H16.0926H16.068H16.0434H16.0188H15.9942H15.9696H15.945H15.9204H15.8959H15.8713H15.8467H15.8221H15.7975H15.7729H15.7483H15.7237H15.6991H15.6745H15.6499H15.6253H15.6008H15.5762H15.5516H15.527H15.5024H15.4778H15.4532H15.4286H15.404H15.3794H15.3548H15.3302H15.3057H15.2811H15.2565H15.2319H15.2073H15.1827H15.1581H15.1335H15.1089H15.0843H15.0597H15.0351H15.0106H14.986H14.9614H14.9368H14.9122H14.8876H14.863H14.8384H14.8138H14.7892H14.7646H14.74H14.7155H14.6909H14.6663H14.6417H14.6171H14.5925H14.5679H14.5433H14.5187H14.4941H14.4695H14.4449H14.4204H14.3958H14.3712H14.3466H14.322H14.2974H14.2728H14.2482H14.2236H14.199H14.1744H14.1498H14.1253H14.1007H14.0761H14.0515H14.0269H14.0023H13.9777H13.9531H13.9285H13.9039H13.8793H13.8548H13.8302H13.8056H13.781H13.7564H13.7318H13.7072H13.6826H13.658H13.6334H13.6088H13.5842H13.5597H13.5351H13.5105H13.4859H13.4613H13.4367H13.4121H13.3875H13.3629H13.3383H13.3137H13.2891H13.2646H13.24H13.2154H13.1908H13.1662H13.1416H13.117H13.0924H13.0678H13.0432H13.0186H12.994H12.9695H12.9449H12.9203H12.8957H12.8711H12.8465H12.8219H12.7973H12.7727H12.7481H12.7235H12.6989H12.6744H12.6498H12.6252H12.6006H12.576H12.5514H12.5268H12.5022H12.4776H12.453H12.4284H12.4038H12.3793H12.3547H12.3301H12.3055H12.2809H12.2563H12.2317H12.2071H12.1825H12.1579H12.1333H12.1087H12.0842H12.0596H12.035H12.0104H11.9858H11.9612H11.9366H11.912H11.8874H11.8628H11.8382H11.8136H11.7891H11.7645H11.7399H11.7153H11.6907H11.6661H11.6415H11.6169H11.5923H11.5677H11.5431H11.5185H11.494H11.4694H11.4448H11.4202H11.3956H11.371H11.3464H11.3218H11.2972H11.2726H11.248H11.2234H11.1989H11.1743H11.1497H11.1251H11.1005H11.0759H11.0513H11.0267H11.0021H10.9775H10.9529H10.9283H10.9038H10.8792H10.8546H10.83H10.8054H10.7808H10.7562H10.7316H10.707H10.6824H10.6578H10.6332H10.6087H10.5841H10.5595H10.5349H10.5103H10.4857H10.4611H10.4365H10.4119H10.3873H10.3627H10.3381H10.3136H10.289H10.2644H10.2398H10.2152H10.1906H10.166H10.1414H10.1168H10.0922H10.0676H10.043H10.0185H9.99386H9.96927H9.94468H9.92009H9.8955H9.87091H9.84631H9.82172H9.79713H9.77254H9.74795H9.72336H9.69876H9.67417H9.64958H9.62499H9.6004H9.57581H9.55121H9.52662H9.50203H9.47744H9.45285H9.42826H9.40366H9.37907H9.35448H9.32989H9.3053H9.28071H9.25611H9.23152H9.20693H9.18234H9.15775H9.13316H9.10857H9.08397H9.05938H9.03479H9.0102H8.98561H8.96102H8.93642H8.91183H8.88724H8.86265H8.83806H8.81347H8.78887H8.76428H8.73969H8.7151H8.69051H8.66592H8.64132H8.61673H8.59214H8.56755H8.54296H8.51837H8.49377H8.46918H8.44459H8.42H8.39541H8.37082H8.34622H8.32163H8.29704H8.27245H8.24786H8.22327H8.19867H8.17408H8.14949H8.1249H8.10031H8.07572H8.05112H8.02653H8.00194H7.97735H7.95276H7.92817H7.90357H7.87898H7.85439H7.8298H7.80521H7.78062H7.75603H7.73143H7.70684H7.68225H7.65766H7.63307H7.60848H7.58388H7.55929H7.5347H7.51011H7.48552H7.46093H7.43633H7.41174H7.38715H7.36256H7.33797H7.31338H7.28878H7.26419H7.2396H7.21501H7.19042H7.16583H7.14123H7.11664H7.09205H7.06746H7.04287H7.01828H6.99368H6.96909H6.9445H6.91991H6.89532H6.87073H6.84613H6.82154H6.79695H6.77236H6.74777H6.72318H6.69859H6.67399H6.6494H6.62481H6.60022H6.57563H6.55103H6.52644H6.50185H6.47726H6.45267H6.42808H6.40349H6.37889H6.3543H6.32971H6.30512H6.28053H6.25594H6.23134H6.20675H6.18216H6.15757H6.13298H6.10839H6.08379H6.0592H6.03461H6.01002H5.98543H5.96084H5.93624H5.91165H5.88706H5.86247H5.83788H5.81329H5.78869H5.7641H5.73951H5.71492H5.69033H5.66574H5.64114H5.61655H5.59196H5.56737H5.54278H5.51819H5.49359H5.469H5.44441H5.41982H5.39523H5.37064H5.34604H5.32145H5.29686H5.27227H5.24768H5.22309H5.19849H5.1739H5.14931H5.12472H5.10013H5.07554H5.05095H5.02635H5.00176H4.97717H4.95258H4.92799H4.9034H4.8788H4.85421H4.82962H4.80503H4.78044H4.75585H4.73125H4.70666H4.68207H4.65748H4.63289H4.6083H4.5837H4.55911H4.53452H4.50993H4.48534H4.46075H4.43615H4.41156H4.38697H4.36238H4.34318L4.32403 40.424C3.96215 40.4518 3.5957 40.4527 3.22158 40.4388C2.53156 40.4132 1.9036 40.1469 1.64758 39.7038C1.51523 39.4747 1.45315 39.2591 1.45235 38.9906C1.54527 34.8573 1.26423 30.7184 0.984443 26.5977C0.901979 25.3832 0.819623 24.1703 0.746982 22.9596C0.426826 17.6237 0.292778 12.3073 1.13789 6.96712C1.3764 5.46004 2.682 4.35264 4.24931 4.25371C4.64691 4.22861 5.045 4.20322 5.44362 4.1778C8.46419 3.98513 11.5148 3.79055 14.6058 3.70824C16.8656 3.64807 19.1489 3.67804 21.4548 3.7083L21.4607 3.70838C23.7651 3.73862 26.0919 3.76908 28.4203 3.70826C31.3475 3.63587 34.2542 3.49818 37.1604 3.36052C39.1137 3.26799 41.0667 3.17548 43.0256 3.1028C45.4333 3.03677 47.8362 2.94407 50.2393 2.85136C56.6769 2.603 63.1167 2.35456 69.6576 2.61837L69.6605 2.61847C74.924 2.80068 80.1847 2.61857 85.4252 2.43716L85.4287 2.43701C85.4295 2.43699 85.4304 2.43697 85.4312 2.43695C91.5496 2.28672 97.6677 2.0918 103.794 1.8966L103.936 1.89208C110.112 1.69533 116.296 1.49865 122.502 1.34736L122.503 1.34734C124.85 1.28715 127.2 1.33224 129.572 1.38522C129.748 1.38916 129.925 1.39315 130.102 1.39713C132.297 1.44668 134.513 1.49668 136.748 1.46854L136.749 1.46853C138.942 1.43817 141.112 1.34712 143.274 1.25641L143.277 1.25626C145.442 1.16541 147.599 1.07493 149.777 1.04481L149.782 1.04468C157.297 0.863186 164.813 0.802671 172.333 0.742137L172.336 0.7421C173.84 0.721678 175.332 0.694433 176.819 0.667272C179.75 0.613742 182.664 0.560538 185.619 0.560538C187.716 0.560538 189.812 0.575656 191.911 0.590792L191.912 0.590799C194.01 0.605928 196.11 0.621073 198.21 0.621073C202.278 0.621073 206.345 0.590793 210.41 0.560529L210.411 0.560523C214.477 0.530252 218.541 0.5 222.605 0.5C224.983 0.5 227.298 0.702342 229.666 0.92961C229.907 0.952743 230.149 0.976138 230.391 0.999597C232.418 1.19587 234.493 1.39668 236.663 1.48659C236.695 1.55527 236.733 1.62902 236.774 1.70633C236.909 1.95699 237.099 2.2775 237.329 2.64627C237.791 3.3856 238.431 4.34382 239.147 5.37435C240.477 7.2869 242.086 9.46971 243.338 10.9868C241.24 13.2638 237.714 16.2918 234.526 19.0295C234.295 19.2283 234.065 19.4255 233.838 19.6208L233.355 20.0358L233.873 20.4065C236.486 22.2782 238.905 24.9924 240.773 27.0884C241.276 27.6522 241.739 28.1712 242.154 28.6172C241.083 31.5156 240.068 34.317 239.324 36.4572C238.94 37.5624 238.627 38.4955 238.417 39.176C238.313 39.509 238.233 39.7881 238.18 40H238.171H238.16H238.15H238.139H238.129H238.118H238.108H238.098H238.087H238.077H238.066H238.056H238.046H238.035H238.025H238.014H238.004H237.994H237.983H237.973H237.963H237.952H237.942H237.932H237.921H237.911H237.901H237.89H237.88H237.87H237.86H237.849H237.839H237.829H237.819H237.808H237.798H237.788H237.778H237.767H237.757H237.747H237.737H237.727H237.716H237.706H237.696H237.686H237.676H237.666H237.655H237.645H237.635H237.625H237.615H237.605H237.595H237.585H237.574H237.564H237.554H237.544H237.534H237.524H237.514H237.504H237.494H237.484H237.474H237.464H237.454H237.444H237.434H237.424H237.414H237.404H237.394H237.384H237.374H237.364H237.354H237.344H237.334H237.324H237.314H237.304H237.294H237.284H237.275H237.265H237.255H237.245H237.235H237.225H237.215H237.205H237.195H237.186H237.176H237.166H237.156H237.146H237.136H237.127H237.117H237.107H237.097H237.087H237.078H237.068H237.058H237.048H237.038H237.029H237.019H237.009H236.999H236.99H236.98H236.97H236.961H236.951H236.941H236.931H236.922H236.912H236.902H236.893H236.883H236.873H236.864H236.854H236.844H236.835H236.825H236.815H236.806H236.796H236.787H236.777H236.767H236.758H236.748H236.739H236.729H236.719H236.71H236.7H236.691H236.681H236.672H236.662H236.652H236.643H236.633H236.624H236.614H236.605H236.595H236.586H236.576H236.567H236.557H236.548H236.538H236.529H236.52H236.51H236.501H236.491H236.482H236.472H236.463H236.453H236.444H236.435H236.425H236.416H236.406H236.397H236.388H236.378H236.369H236.359H236.35H236.341H236.331H236.322H236.313H236.303H236.294H236.285H236.275H236.266H236.257H236.247H236.238H236.229H236.22H236.21H236.201H236.192H236.182H236.173H236.164H236.155H236.145H236.136H236.127H236.118H236.108H236.099H236.09H236.081H236.072H236.062H236.053H236.044H236.035H236.026H236.016H236.007H235.998H235.989H235.98H235.971H235.961H235.952H235.943H235.934H235.925H235.916H235.907H235.897H235.888H235.879H235.87H235.861H235.852H235.843H235.834H235.825H235.816H235.807H235.797H235.788H235.779H235.77H235.761H235.752H235.743H235.734H235.725H235.716H235.707H235.698H235.689H235.68H235.671H235.662H235.653H235.644H235.635H235.626H235.617H235.608H235.599H235.59H235.581H235.572H235.563H235.554H235.546H235.537H235.528H235.519H235.51H235.501H235.492H235.483H235.474H235.465H235.456H235.448H235.439H235.43H235.421H235.412H235.403H235.394H235.385H235.377H235.368H235.359H235.35H235.341H235.332H235.324H235.315H235.306H235.297H235.288H235.28H235.271H235.262H235.253H235.244H235.236H235.227H235.218H235.209H235.201H235.192H235.183H235.174H235.165H235.157H235.148H235.139H235.131H235.122H235.113H235.104H235.096H235.087H235.078H235.07H235.061H235.052H235.043H235.035H235.026H235.017H235.009H235H234.991H234.983H234.974H234.965H234.957H234.948H234.939H234.931H234.922H234.914H234.905H234.896H234.888H234.879H234.87H234.862H234.853H234.845H234.836H234.827H234.819H234.81H234.802H234.793H234.785H234.776H234.767H234.759H234.75H234.742H234.733H234.725H234.716H234.708H234.699H234.691H234.682H234.673H234.665H234.656H234.648H234.639H234.631H234.622H234.614H234.605H234.597H234.588H234.58H234.571H234.563H234.555H234.546H234.538H234.529H234.521H234.512H234.504H234.495H234.487H234.478H234.47H234.462H234.453H234.445H234.436H234.428H234.419H234.411H234.403H234.394H234.386H234.377H234.369H234.361H234.352H234.344H234.335H234.327H234.319H234.31H234.302H234.294H234.285H234.277H234.269H234.26H234.252H234.243H234.235H234.227H234.218H234.21H234.202H234.193H234.185H234.177H234.169H234.16H234.152H234.144H234.135H234.127H234.119H234.11H234.102H234.094H234.086H234.077H234.069H234.061H234.052H234.044H234.036H234.028H234.019H234.011H234.003H233.995H233.986H233.978H233.97H233.962H233.953H233.945H233.937H233.929H233.92H233.912H233.904H233.896H233.888H233.879H233.871H233.863H233.855L233.847 39.9999L233.838 40.0001C227.076 40.1209 220.366 39.8941 213.641 39.6667L213.634 39.6665C206.916 39.4393 200.182 39.2117 193.393 39.3329ZM193.393 39.3329C193.393 39.3329 193.393 39.3329 193.394 39.3329L193.401 39.8329L193.392 39.3329C193.392 39.3329 193.393 39.3329 193.393 39.3329Z" fill="#FBFFFB" stroke="#D7D4CE"/>
</svg>
