<svg preserveAspectRatio="none" viewBox="0 0 190 149" fill="none" xmlns="http://www.w3.org/2000/svg">
<path d="M43.0149 147.988L43.022 147.986L43.0292 147.985C47.237 147.208 51.1724 147.207 55.3796 147.983C60.138 148.604 62.5497 147.882 65.0087 147.147L65.0285 147.141C67.5611 146.383 70.1466 145.615 75.1582 146.267L75.1615 146.267C76.979 146.516 79.6035 146.455 82.2939 146.359C82.6211 146.347 82.9492 146.335 83.2766 146.323C85.6131 146.235 87.9172 146.149 89.6153 146.264L89.6186 146.264C91.3189 146.389 94.448 146.327 97.6212 146.263L97.6549 146.262C100.79 146.199 103.964 146.134 105.718 146.264L105.731 146.265L105.745 146.267C108.679 146.645 110.41 146.582 112.15 146.456C112.384 146.439 112.62 146.42 112.858 146.402C114.408 146.282 116.104 146.151 118.712 146.263L118.72 146.263L118.727 146.264C121.246 146.446 127.501 146.366 132.147 146.306C133.967 146.282 135.541 146.262 136.545 146.262C137.311 146.262 138.436 146.061 139.783 145.74C141.119 145.422 142.629 144.996 144.152 144.567L144.159 144.565C145.674 144.138 147.203 143.707 148.561 143.384C149.91 143.062 151.136 142.835 152.03 142.835L161.523 142.834L171.015 142.834C172.115 142.834 173.741 142.898 175.584 142.97C176.269 142.996 176.984 143.024 177.713 143.051C180.416 143.148 183.325 143.223 185.692 143.139C187.303 143.081 188.5 141.704 188.499 140.013C188.485 124.682 188.384 111.022 188.287 98.0293C188.062 67.7056 187.864 41.0149 188.879 5.18927C188.935 3.21283 187.35 1.57266 185.377 1.57266H185.365H185.352H185.34H185.328H185.315H185.303H185.291H185.279H185.266H185.254H185.242H185.229H185.217H185.205H185.192H185.18H185.168H185.156H185.143H185.131H185.119H185.106H185.094H185.082H185.069H185.057H185.045H185.032H185.02H185.008H184.996H184.983H184.971H184.959H184.946H184.934H184.922H184.909H184.897H184.885H184.873H184.86H184.848H184.836H184.823H184.811H184.799H184.786H184.774H184.762H184.75H184.737H184.725H184.713H184.701H184.688H184.676H184.664H184.651H184.639H184.627H184.615H184.602H184.59H184.578H184.566H184.553H184.541H184.529H184.517H184.504H184.492H184.48H184.468H184.456H184.443H184.431H184.419H184.407H184.395H184.382H184.37H184.358H184.346H184.334H184.321H184.309H184.297H184.285H184.273H184.261H184.249H184.236H184.224H184.212H184.2H184.188H184.176H184.164H184.152H184.139H184.127H184.115H184.103H184.091H184.079H184.067H184.055H184.043H184.031H184.019H184.007H183.995H183.983H183.971H183.959H183.947H183.935H183.923H183.911H183.899H183.887H183.875H183.863H183.851H183.839H183.827H183.815H183.803H183.791H183.779H183.768H183.756H183.744H183.732H183.72H183.708H183.696H183.685H183.673H183.661H183.649H183.637H183.626H183.614H183.602H183.59H183.578H183.567H183.555H183.543H183.532H183.52H183.508H183.496H183.485H183.473H183.461H183.45H183.438H183.426H183.415H183.403H183.392H183.38H183.368H183.357H183.345H183.334H183.322H183.311H183.299H183.288H183.276H183.265H183.253H183.242H183.23H183.219H183.208H183.196H183.185H183.173H183.162H183.151H183.139H183.128H183.117H183.105H183.094H183.083H183.071H183.06H183.049H183.038H183.026H183.015H183.004H182.993H182.982H182.97H182.959H182.948H182.937H182.926H182.915H182.904H182.893H182.881H182.87H182.859H182.848H182.837H182.826H182.815H182.804H182.793H182.783H182.772H182.761H182.75H182.739H182.728H182.717H182.706H182.696H182.685H182.674H182.663H182.652H182.642H182.631H182.62H182.609H182.599H182.588H182.577H182.567H182.556H182.546H182.535H182.524H182.514H182.503H182.493H182.482H182.472H182.461H182.451H182.44H182.43H182.42H182.409H182.399H182.388H182.378H182.368H182.357H182.347H182.337H182.327H182.316H182.306H182.296H182.286H182.276H182.265H182.255H182.245H182.235H182.225H182.215H182.205H182.195H182.185H182.175H182.165H182.155H182.145H182.135H182.125H182.115H182.106H182.096H182.086H182.076H182.066H182.057H182.047H182.037H182.027H182.018H182.008H181.998H181.989H181.979H181.97H181.96H181.95H181.941H181.931H181.922H181.913H181.903H181.894H181.884H181.875H181.866H181.856H181.847H181.838H181.828H181.819H181.81H181.801H181.791H181.782H181.773H181.764H181.755H181.746H181.737H181.728H181.719H181.71H181.701H181.692H181.683H181.674H181.665H181.656H181.647H181.639H181.63H181.621H181.612H181.604H181.595H181.586H181.578H181.569H181.56H181.552H181.543H181.535H181.526H181.518H181.509H181.501H181.492H181.484H181.476H181.467H181.459H181.451H181.442H181.434H181.426H181.418H181.41H181.401H181.393H181.385H181.377H181.369H181.361H181.353H181.345H181.337H181.329H181.321H181.314H181.306H181.298H181.29H181.282H181.275H181.267H181.259H181.252H181.244H181.236H181.229H181.221H181.214H181.206H181.199H181.191H181.184H181.176H181.169H181.162H181.154H181.147H181.14H181.133H181.125H181.118H181.111H181.104H181.097H181.09H181.083H181.076H181.069H181.062H181.055H181.048H181.041H181.034H181.028H181.021H181.014H181.007H181.001H180.994H180.987H180.981H180.974H180.968H180.961H180.955H180.948H180.942H180.935H180.929H180.923H180.916H180.91H180.904H180.898H180.891H180.885H180.879H180.873H180.867H180.861H180.855H180.849H180.843H180.837H180.831H180.825H180.819H180.814H180.808H180.802H180.796H180.791H180.785H180.779H180.774H180.768H180.763H180.757H180.752H180.747H180.741H180.736H180.73H180.725H180.72H180.715H180.71H180.704H180.699H180.694H180.689H180.684H180.679H180.674H180.669H180.664H180.659H180.655H180.65H180.645H180.64H180.636H180.631H180.626H180.622H180.617H180.613H180.608H180.604H180.599H180.595H180.59H180.586H180.582H180.578H180.573H180.569H180.565H180.561H180.557H180.553H180.549H180.545H180.541H180.537H180.533H180.529H180.526H180.522H180.518H180.514H180.511H180.507H180.504H180.5H180.476L180.453 1.5704C175.132 1.06329 171.355 1.31621 167.548 1.57155L167.542 1.57191C163.73 1.82758 159.887 2.08533 154.485 1.57083C151.218 1.32021 146.563 1.77826 141.838 2.24503L141.795 2.24928C137.121 2.71101 132.382 3.17918 129.017 2.9212C124.448 2.66768 120.932 2.85771 117.397 3.08098C117.162 3.09581 116.927 3.11079 116.692 3.12579C113.381 3.33688 109.988 3.55324 105.667 3.43324L105.665 3.43317C101.86 3.31201 99.0511 2.88942 96.3268 2.47952C96.1539 2.45349 95.9812 2.42752 95.8087 2.40167C92.9237 1.96951 90.0607 1.57266 86.0847 1.57266C83.8341 1.57266 80.4634 1.90581 77.042 2.24397L77.0312 2.24503C73.6281 2.58134 70.1763 2.92223 67.8274 2.92223C65.7167 2.92223 61.1228 2.40729 59.0526 2.15251C56.4184 1.90012 54.4 1.89992 52.3767 1.9317C52.1 1.93605 51.823 1.94101 51.5442 1.946C49.7848 1.97749 47.9527 2.01028 45.6707 1.89981C44.3794 1.89931 42.1489 1.81755 39.9332 1.73636L39.9207 1.7359C37.6839 1.65393 35.4639 1.57266 34.1952 1.57266H34.1837L34.1722 1.57213C31.6735 1.45677 29.9638 1.56642 28.3006 1.67308C28.1419 1.68326 27.9837 1.69341 27.8253 1.70332C25.9959 1.81786 24.1509 1.90103 21.3469 1.64212L21.3445 1.64188C20.0744 1.51843 18.8125 1.57933 17.5198 1.6748C17.2679 1.69342 17.0142 1.71341 16.7591 1.73352C15.7165 1.81567 14.6488 1.89981 13.5731 1.89981H13.5546H13.5361H13.5176H13.4991H13.4806H13.4621H13.4436H13.4251H13.4066H13.3881H13.3696H13.3511H13.3326H13.3141H13.2956H13.2771H13.2586H13.2401H13.2216H13.2031H13.1846H13.1661H13.1476H13.1291H13.1106H13.0921H13.0736H13.0551H13.0366H13.0181H12.9996H12.9811H12.9626H12.9441H12.9256H12.9071H12.8886H12.8701H12.8516H12.8331H12.8146H12.7961H12.7776H12.7591H12.7406H12.7221H12.7036H12.6851H12.6666H12.6481H12.6297H12.6112H12.5927H12.5742H12.5557H12.5372H12.5187H12.5002H12.4817H12.4632H12.4447H12.4262H12.4077H12.3892H12.3707H12.3522H12.3337H12.3152H12.2967H12.2782H12.2597H12.2412H12.2227H12.2042H12.1857H12.1672H12.1487H12.1302H12.1117H12.0932H12.0747H12.0562H12.0377H12.0192H12.0007H11.9822H11.9637H11.9452H11.9267H11.9082H11.8897H11.8712H11.8527H11.8342H11.8157H11.7972H11.7787H11.7602H11.7417H11.7232H11.7047H11.6862H11.6677H11.6493H11.6308H11.6123H11.5938H11.5753H11.5568H11.5383H11.5198H11.5013H11.4828H11.4643H11.4458H11.4273H11.4088H11.3903H11.3718H11.3533H11.3348H11.3163H11.2978H11.2793H11.2608H11.2423H11.2238H11.2053H11.1868H11.1683H11.1498H11.1313H11.1128H11.0943H11.0758H11.0573H11.0388H11.0203H11.0018H10.9833H10.9648H10.9463H10.9278H10.9093H10.8908H10.8723H10.8538H10.8353H10.8168H10.7983H10.7798H10.7613H10.7428H10.7243H10.7058H10.6874H10.6689H10.6504H10.6319H10.6134H10.5949H10.5764H10.5579H10.5394H10.5209H10.5024H10.4839H10.4654H10.4469H10.4284H10.4099H10.3914H10.3729H10.3544H10.3359H10.3174H10.2989H10.2804H10.2619H10.2434H10.2249H10.2064H10.1879H10.1694H10.1509H10.1324H10.1139H10.0954H10.0769H10.0584H10.0399H10.0214H10.0029H9.98442H9.96592H9.94743H9.92893H9.91043H9.89193H9.87343H9.85494H9.83644H9.81794H9.79944H9.78094H9.76244H9.74395H9.72545H9.70695H9.68845H9.66995H9.65146H9.63296H9.61446H9.59596H9.57746H9.55897H9.54047H9.52197H9.50347H9.48497H9.46648H9.44798H9.42948H9.41098H9.39248H9.37398H9.35549H9.33699H9.31849H9.29999H9.28149H9.263H9.2445H9.226H9.2075H9.189H9.17051H9.15201H9.13351H9.11501H9.09651H9.07802H9.05952H9.04102H9.02252H9.00402H8.98552H8.96703H8.94853H8.93003H8.91153H8.89303H8.87454H8.85604H8.83754H8.81904H8.80054H8.78205H8.76355H8.74505H8.72655H8.70805H8.68956H8.67106H8.65256H8.63406H8.61556H8.59706H8.57857H8.56007H8.54157H8.52307H8.50457H8.48608H8.46758H8.44908H8.43058H8.41208H8.39359H8.37509H8.35659H8.33809H8.31959H8.3011H8.2826H8.2641H8.2456H8.2271H8.2086H8.19011H8.17161H8.15311H8.13461H8.11611H8.09762H8.07912H8.06062H8.04212H8.02362H8.00513H7.98663H7.96813H7.94963H7.93113H7.91263H7.89414H7.87564H7.85714H7.83864H7.82014H7.80165H7.78315H7.76465H7.74615H7.72765H7.70916H7.69066H7.67216H7.65366H7.63516H7.61666H7.59817H7.57967H7.56117H7.54267H7.52417H7.50568H7.48718H7.46868H7.45018H7.43168H7.41319H7.39469H7.37619H7.35769H7.33919H7.32069H7.3022H7.2837H7.2652H7.2467H7.2282H7.20971H7.19121H7.17271H7.15421H7.13571H7.11722H7.09872H7.08022H7.06172H7.04322H7.02473H7.00623H6.98773H6.96923H6.95073H6.93223H6.91374H6.89524H6.87674H6.85824H6.83974H6.82125H6.80275H6.78425H6.76575H6.74725H6.72876H6.71026H6.69176H6.67326H6.65476H6.63627H6.61777H6.59927H6.58077H6.56227H6.54377H6.52528H6.50678H6.48828H6.46978H6.45128H6.43279H6.41429H6.39579H6.37729H6.35879H6.3403H6.3218H6.3033H6.2848H6.2663H6.24781H6.22931H6.21081H6.19231H6.17381H6.15531H6.13682H6.11832H6.09982H6.08132H6.06282H6.04433H6.02583H6.00733H5.98883H5.97033H5.95184H5.93334H5.91484H5.89634H5.87784H5.85934H5.84085H5.82235H5.80385H5.78535H5.76685H5.74836H5.72986H5.71136H5.69286H5.67436H5.65587H5.63737H5.61887H5.60037H5.58187H5.56337H5.54488H5.52638H5.50788H5.48938H5.47088H5.45239H5.43389H5.41539H5.39689H5.37839H5.3599H5.3414H5.3229H5.3044H5.2859H5.26741H5.24891H5.23041H5.21191H5.19341H5.17491H5.15642H5.13792H5.11942H5.10092H5.08242H5.06393H5.04543H5.02693H5.00843H4.98993H4.97144H4.95294H4.93444H4.91594H4.89744H4.87895H4.86045H4.84195H4.82345H4.80495H4.78645H4.76796H4.74946H4.73096H4.71246H4.69396H4.67547H4.65697H4.63847H4.61997H4.60147H4.58298H4.56448H4.54598H4.52748H4.50898H4.49048H4.47199H4.45349H4.43499H4.41649H4.39799H4.3795H4.361H4.3425H4.324H4.3055H4.28701H4.26851H4.25001H4.23151H4.21301H4.19452H4.17602H4.15752H4.13902H4.12052H4.10202C3.89735 1.89981 3.70281 1.87178 3.54256 1.84769L3.5041 1.84187C3.35149 1.81883 3.23035 1.80054 3.10935 1.79503C2.8677 1.78403 2.64239 1.89868 2.43596 2.15636C2.22506 2.4196 2.07048 2.79422 2.00208 3.1718C1.97214 3.33711 1.94251 3.49684 1.91357 3.65292C1.79348 4.30048 1.68509 4.88498 1.6138 5.54329C1.47753 6.80157 1.40914 8.0612 1.4091 9.57802C1.48572 27.6928 1.21399 44.3237 0.948019 60.6014C0.506691 87.6116 0.0812554 113.649 1.28967 143.88C1.31986 144.635 1.61509 145.433 2.05251 145.95C2.26846 146.205 2.50172 146.372 2.73267 146.449C2.95402 146.523 3.20114 146.524 3.48419 146.404C3.98933 146.189 4.64161 146.043 6.22076 146.268C7.95675 146.514 9.23688 146.392 10.5733 146.265L10.5744 146.265C11.9179 146.137 13.3157 146.003 15.2102 146.267C16.9562 146.497 19.2127 146.353 21.5736 146.201C21.7505 146.19 21.9279 146.179 22.1057 146.168C24.6129 146.009 27.2044 145.874 29.2162 146.269C31.8211 146.651 33.485 147.208 34.8471 147.663C35.33 147.824 35.7751 147.973 36.2106 148.097C37.849 148.563 39.5139 148.741 43.0149 147.988Z" fill="#FFFEFB" stroke="#D7D4CE"/>
</svg>
