<svg preserveAspectRatio="none" viewBox="0 0 190 149" fill="none" xmlns="http://www.w3.org/2000/svg">
<mask id="path-1-inside-1_27_2" fill="white">
<path fill-rule="evenodd" clip-rule="evenodd" d="M3.13211 0.518021C2.2384 0.477337 1.66958 1.42483 1.51012 2.30514C1.3585 3.14217 1.20771 3.87183 1.11673 4.71193C0.978329 5.98994 0.909135 7.26794 0.909135 8.80155C1.11275 56.9334 -1.14681 94.6668 0.790096 143.122C0.858359 144.83 2.10736 146.756 3.68 146.086C4.07357 145.919 4.62615 145.769 6.15047 145.985C9.74897 146.496 11.4754 145.474 15.1431 145.985C19.0184 146.496 25.2563 145.218 29.1316 145.985C36.121 147.007 35.9923 149.233 43.1201 147.699C47.2722 146.932 51.1497 146.932 55.3019 147.699C65.0593 148.977 65.2671 144.707 75.0938 145.985C78.8307 146.496 85.7757 145.729 89.5818 145.985C93.0419 146.24 102.221 145.729 105.681 145.985C111.632 146.752 112.74 145.73 118.691 145.985C122.22 146.241 133.016 145.985 136.545 145.985C139.867 145.985 148.709 142.557 152.03 142.557C158.466 142.557 164.579 142.557 171.015 142.557C174.008 142.557 180.936 143.031 185.71 142.861C187.629 142.792 189 141.155 188.999 139.235C188.955 88.1093 187.929 55.5923 189.379 4.4259C189.443 2.1701 187.634 0.295137 185.377 0.295137C183.281 0.295137 181.102 0.295137 180.5 0.295137C169.774 -0.72727 165.255 1.31754 154.528 0.295137C147.885 -0.216066 135.693 2.15591 129.049 1.64471C119.845 1.1335 114.885 2.4115 105.681 2.1559C97.6534 1.9003 94.1121 0.295137 86.0847 0.295137C81.5174 0.295137 72.464 1.64471 67.8274 1.64471C65.7514 1.64471 61.183 1.1335 59.1069 0.877896C53.7784 0.366693 50.9421 0.877884 45.6828 0.622283C43.1223 0.622283 36.7557 0.295137 34.1953 0.295137C28.6591 0.0395352 26.9291 0.877902 21.3929 0.366699C18.7632 0.111097 16.2028 0.622283 13.5731 0.622283C10.4161 0.622283 7.25907 0.622283 4.10205 0.622283C3.77583 0.622283 3.458 0.532856 3.13211 0.518021V0.518021Z"/>
</mask>
<path fill-rule="evenodd" clip-rule="evenodd" d="M3.13211 0.518021C2.2384 0.477337 1.66958 1.42483 1.51012 2.30514C1.3585 3.14217 1.20771 3.87183 1.11673 4.71193C0.978329 5.98994 0.909135 7.26794 0.909135 8.80155C1.11275 56.9334 -1.14681 94.6668 0.790096 143.122C0.858359 144.83 2.10736 146.756 3.68 146.086C4.07357 145.919 4.62615 145.769 6.15047 145.985C9.74897 146.496 11.4754 145.474 15.1431 145.985C19.0184 146.496 25.2563 145.218 29.1316 145.985C36.121 147.007 35.9923 149.233 43.1201 147.699C47.2722 146.932 51.1497 146.932 55.3019 147.699C65.0593 148.977 65.2671 144.707 75.0938 145.985C78.8307 146.496 85.7757 145.729 89.5818 145.985C93.0419 146.24 102.221 145.729 105.681 145.985C111.632 146.752 112.74 145.73 118.691 145.985C122.22 146.241 133.016 145.985 136.545 145.985C139.867 145.985 148.709 142.557 152.03 142.557C158.466 142.557 164.579 142.557 171.015 142.557C174.008 142.557 180.936 143.031 185.71 142.861C187.629 142.792 189 141.155 188.999 139.235C188.955 88.1093 187.929 55.5923 189.379 4.4259C189.443 2.1701 187.634 0.295137 185.377 0.295137C183.281 0.295137 181.102 0.295137 180.5 0.295137C169.774 -0.72727 165.255 1.31754 154.528 0.295137C147.885 -0.216066 135.693 2.15591 129.049 1.64471C119.845 1.1335 114.885 2.4115 105.681 2.1559C97.6534 1.9003 94.1121 0.295137 86.0847 0.295137C81.5174 0.295137 72.464 1.64471 67.8274 1.64471C65.7514 1.64471 61.183 1.1335 59.1069 0.877896C53.7784 0.366693 50.9421 0.877884 45.6828 0.622283C43.1223 0.622283 36.7557 0.295137 34.1953 0.295137C28.6591 0.0395352 26.9291 0.877902 21.3929 0.366699C18.7632 0.111097 16.2028 0.622283 13.5731 0.622283C10.4161 0.622283 7.25907 0.622283 4.10205 0.622283C3.77583 0.622283 3.458 0.532856 3.13211 0.518021V0.518021Z" fill="#FFFEFB" stroke="#D7D4CE" stroke-width="2" mask="url(#path-1-inside-1_27_2)"/>
</svg>
