<svg preserveAspectRatio="none" viewBox="0 0 16 13" fill="none" xmlns="http://www.w3.org/2000/svg">
<path d="M15.6798 4.95145C15.6798 11.4515 10.2879 12.6895 6.39982 12.6895C2.87982 12.6895 0.319824 10.537 0.319824 7.11812C0.319824 3.69921 4.75174 0.308594 8.63982 0.308594C12.5279 0.308594 15.6798 1.53255 15.6798 4.95145Z" fill="#C9C9C9"/>
<path d="M8.03229 1.81867C3.23179 0.978225 0.222528 9.66287 5.11856 12.0441C8.5816 13.725 15.5793 12.0161 15.5316 6.52519C15.5077 3.63965 13.5015 1.37044 11.3043 0.501971C8.91597 -0.450539 6.14553 0.0257158 3.90052 1.31441C1.77493 2.54706 -0.374548 5.20849 0.0553474 8.17808C0.46136 11.0636 3.30344 12.5484 5.4768 12.9126C6.81425 13.1367 8.08006 12.9126 9.34586 12.4364C10.755 11.9041 12.1641 11.2317 13.3821 10.2232C14.4807 9.32669 15.3644 8.00999 15.4838 6.41313C15.6271 4.62017 14.8867 3.13538 13.7403 2.04279C11.567 -0.0303141 8.77267 0.0537305 6.28883 1.23036C4.13935 2.2389 1.98987 4.28399 1.70328 7.14152C1.41668 10.0271 3.35121 12.5764 5.71563 12.8846C8.34277 13.2488 11.0893 11.9321 13.1672 10.1391C14.7912 8.73838 16.5824 6.21703 15.8182 3.69568C15.1256 1.45448 12.785 0.529985 10.9699 0.249835C7.69793 -0.254434 4.211 1.37044 3.23179 5.34856C3.16014 5.6007 3.51839 5.71276 3.56616 5.46062C4.44983 1.79066 7.53075 0.361896 10.5161 0.642046C12.5462 0.810135 15.4599 1.98676 15.6271 4.81628C15.7226 6.3571 14.8151 7.8419 13.9314 8.85044C12.9761 9.97104 11.7819 10.8115 10.54 11.4558C8.10394 12.7445 4.4976 13.4449 2.75413 10.4473C0.915135 7.2816 2.8019 3.97583 5.21409 2.32294C7.84123 0.50197 11.1371 0.193805 13.597 2.51905C15.1017 3.94781 15.5555 6.21703 14.5763 8.20609C13.7403 9.88699 12.0208 10.8395 10.5639 11.5119C9.20256 12.1562 7.81734 12.6325 6.33659 12.6044C4.90361 12.5764 3.44674 12.0441 2.25259 11.1477C1.13008 10.2792 0.318059 8.93448 0.318059 7.33763C0.318059 5.54467 1.44056 3.9198 2.53919 2.82721C4.64089 0.78212 7.76958 0.0537306 10.4206 0.698075C13 1.3144 15.5555 4.08789 15.0778 7.42167C14.6718 10.3352 11.7819 11.708 9.60857 12.1282C7.10085 12.6325 3.59004 12.0441 2.9452 8.5983C2.34812 5.26452 5.02302 1.76264 7.88899 2.26691C8.17559 2.26691 8.27112 1.84669 8.03229 1.81867Z" fill="#666562"/>
</svg>
