<svg preserveAspectRatio="none" viewBox="0 0 15 13" fill="none" xmlns="http://www.w3.org/2000/svg">
<path d="M7.53027 1.81867C3.02981 0.978225 0.20862 9.66287 4.79865 12.0441C8.04525 13.725 14.6056 12.0161 14.5609 6.52519C14.5385 3.63965 12.6577 1.37044 10.5978 0.501971C8.35872 -0.450539 5.76143 0.0257158 3.65674 1.31441C1.66399 2.54706 -0.351139 5.20849 0.0518882 8.17808C0.432525 11.0636 3.09698 12.5484 5.1345 12.9126C6.38836 13.1367 7.57505 12.9126 8.76174 12.4364C10.0828 11.9041 11.4038 11.2317 12.5457 10.2232C13.5757 9.32669 14.4041 8.00999 14.5161 6.41313C14.6504 4.62017 13.9563 3.13538 12.8816 2.04279C10.844 -0.0303141 8.22437 0.0537305 5.89577 1.23036C3.88064 2.2389 1.86551 4.28399 1.59682 7.14152C1.32814 10.0271 3.14176 12.5764 5.35841 12.8846C7.82135 13.2488 10.3962 11.9321 12.3442 10.1391C13.8667 8.73838 15.546 6.21703 14.8295 3.69568C14.1802 1.45448 11.986 0.529985 10.2843 0.249835C7.2168 -0.254434 3.94781 1.37044 3.02981 5.34856C2.96263 5.6007 3.29849 5.71276 3.34327 5.46062C4.17172 1.79066 7.06007 0.361896 9.85887 0.642046C11.7621 0.810135 14.4937 1.98676 14.6504 4.81628C14.74 6.3571 13.8891 7.8419 13.0607 8.85044C12.1651 9.97104 11.0456 10.8115 9.88126 11.4558C7.59744 12.7445 4.2165 13.4449 2.582 10.4473C0.857939 7.2816 2.62678 3.97583 4.88821 2.32294C7.35115 0.50197 10.441 0.193805 12.7472 2.51905C14.1578 3.94781 14.5832 6.21703 13.6652 8.20609C12.8816 9.88699 11.2695 10.8395 9.90365 11.5119C8.6274 12.1562 7.32876 12.6325 5.94055 12.6044C4.59713 12.5764 3.23132 12.0441 2.1118 11.1477C1.05945 10.2792 0.29818 8.93448 0.29818 7.33763C0.29818 5.54467 1.35053 3.9198 2.38049 2.82721C4.35084 0.78212 7.28398 0.0537306 9.76931 0.698075C12.1875 1.3144 14.5832 4.08789 14.1354 7.42167C13.7548 10.3352 11.0456 11.708 9.00804 12.1282C6.65705 12.6325 3.36566 12.0441 2.76112 8.5983C2.20136 5.26452 4.70908 1.76264 7.39593 2.26691C7.66461 2.26691 7.75418 1.84669 7.53027 1.81867Z" fill="#666562"/>
</svg>
