<svg preserveAspectRatio="none" viewBox="0 0 221 129" fill="none" xmlns="http://www.w3.org/2000/svg">
<path d="M220.199 65.6181C220.199 106.291 128.917 119.306 91.2827 116.595C42.4385 111.714 1.60156 91.1021 1.60156 61.2797C1.60156 31.4572 31.6188 3.36832 98.4893 1.62643C159.344 1.08418 220.199 27.2572 220.199 65.6181Z" fill="#FFFEFB"/>
<path d="M46.4235 103.781L45.6883 103.642C45.9609 103.67 46.2055 103.717 46.4235 103.781L77.8375 109.738C54.4496 133.406 39.2416 126.137 36.0331 124.187C34.8518 123.469 37.1193 123.175 40.0365 119.306C44.7998 112.989 50.6905 105.04 46.4235 103.781Z" fill="#FFFEFB"/>
<path d="M219.901 65.3202C222.12 98.3818 154.627 111.48 110.593 111.48C66.5595 111.48 10.2876 95.1427 10.2876 65.3202C10.2876 35.4977 43.7228 5.22528 110.593 3.4834C154.627 3.4834 217.329 26.9988 219.901 65.3202Z" fill="#FFFEFB"/>
<path d="M55.9872 103.772L55.297 103.642C55.5498 103.668 55.7795 103.712 55.9872 103.772L87.4462 109.738C76.6247 124.097 48.2178 129.107 45.0093 127.157C43.828 126.439 47.2356 124.058 50.1528 120.189C54.9337 113.849 60.3878 105.058 55.9872 103.772Z" fill="#FFFEFB"/>
<path fill-rule="evenodd" clip-rule="evenodd" d="M113.742 117.054C78.7636 117.054 81.5928 116.88 80.564 117.403C69.7619 124.196 54.3302 130.293 40.4418 127.506C37.8698 126.983 35.8123 125.241 33.7547 124.022C33.4975 123.848 34.0119 123.151 34.2691 122.977C38.3842 120.538 42.4993 117.054 45.8428 109.042C46.3572 107.997 45.8429 106.952 43.7853 106.081C-0.70921 88.4876 2.37708 71.7655 0.833919 66.7141C-1.22363 60.0949 0.833935 48.4243 3.66307 43.5471C21.6666 10.6255 69.7619 0 97.5388 0C157.722 0 220.477 29.612 220.992 63.5787C221.506 92.1456 197.587 98.7647 157.465 110.784C139.461 116.358 113.742 117.054 113.742 117.054ZM199.388 93.0165C219.192 82.9136 223.564 64.4496 213.276 47.3792C205.817 35.186 190.643 24.038 170.839 16.0253C152.321 8.36103 129.945 2.9612 101.654 4.87727C74.1342 6.79334 65.1324 9.40616 49.958 16.5479C29.8968 25.7799 20.3807 33.4441 13.9508 49.6436C1.09113 80.8233 27.8392 92.3198 49.1863 101.203C58.7025 105.21 61.7889 104.339 59.217 108.868C55.1019 115.835 53.0443 118.622 48.9292 123.151C46.8717 125.415 43.2709 126.809 45.5856 126.983C58.1881 127.854 73.8769 121.409 78.7636 116.88C82.8787 113.048 83.9075 109.913 86.7366 110.087C131.231 113.222 171.353 107.3 199.388 93.0165ZM54.5874 105.558C56.3878 105.384 51.7583 103.99 48.1576 102.597C30.6684 95.1067 30.4112 94.5842 28.868 93.7133C11.636 82.5652 14.208 81.6943 11.3789 77.5137C7.77817 72.1139 5.46339 56.2628 16.0083 39.8891C20.3806 33.2699 24.7529 23.8638 62.046 9.75454C77.992 3.65795 110.398 3.30958 113.742 3.48376C116.828 3.48376 137.404 4.87727 133.032 4.52889C100.625 1.21931 63.8464 -2.26444 28.3537 21.4252C7.2638 35.3602 2.37711 47.205 2.63431 63.9271C2.8915 72.4623 6.74939 83.4362 19.0947 91.623C25.5245 95.9777 32.4687 99.984 40.1845 103.468C47.6432 106.429 47.386 106.081 54.5874 105.558ZM159.78 108.171C153.35 109.39 155.922 109.913 132.774 111.829C85.7079 115.661 87.5082 107.474 82.8787 115.138C82.6216 115.661 83.3931 115.835 84.1647 115.835C144.348 117.229 162.094 107.823 159.78 108.171ZM54.5874 106.952C48.1576 107.474 48.9292 107.126 47.6432 109.739C39.9274 126.286 30.9256 120.887 41.4705 126.286C41.9849 126.635 45.3285 124.022 45.8428 123.674C48.672 121.583 50.4723 119.319 51.7583 116.706C57.9309 106.255 58.7025 106.603 54.5874 106.952Z" fill="#A79F91"/>
</svg>
