<svg width="95" height="38" viewBox="0 0 95 38" fill="none" xmlns="http://www.w3.org/2000/svg">
<path d="M86.3076 33.0769C86.7391 32.3641 89.2667 32.8393 89.0201 32.1265C88.9585 31.8889 88.8352 31.6512 88.6502 31.473C88.7735 31.176 87.9721 30.879 86.9857 30.7008C87.109 30.5226 87.0474 30.3444 86.4309 30.1662C85.9994 30.1662 85.7528 30.2256 85.5678 30.285C85.3829 30.3444 85.2596 30.4038 85.1979 30.4632C84.7664 30.4038 84.3965 30.4038 84.1499 30.4038C84.5815 29.6909 87.0474 30.0474 86.8008 29.3939C86.6775 29.0969 86.5542 28.7999 86.3076 28.6217L85.0746 29.0375C81.9306 28.7999 86.3692 28.1464 84.2732 27.493C83.8417 27.5524 83.5951 27.5524 83.4101 27.6712C82.3621 28.0276 82.6703 28.2059 83.2868 28.5623C80.3894 28.6811 81.3141 26.8396 79.9578 26.7208C79.9578 26.6614 80.1428 26.6614 80.3277 26.6614C80.2661 26.602 80.5127 26.602 80.5743 26.602C80.5743 26.5426 80.636 26.5426 80.7593 26.5426C80.8826 26.602 80.6976 26.602 80.6976 26.6614C80.8209 26.6614 81.0059 26.6614 81.0059 26.602C80.8209 26.602 81.1908 26.5426 81.0059 26.4832C80.9442 26.4832 81.0058 26.5426 80.8825 26.5426C80.8825 26.4832 80.9442 26.4238 81.0059 26.4238C81.1292 26.4238 81.1291 26.5426 81.1908 26.5426C81.2524 26.5426 81.4374 26.5426 81.5607 26.4832C81.3757 26.5426 81.1291 26.4832 81.2524 26.4238C81.3757 26.4238 81.3141 26.4832 81.3757 26.4832C81.4374 26.4832 81.684 26.4238 81.6223 26.5426C81.7456 26.4832 81.7456 26.4832 81.684 26.4238C81.8689 26.4238 81.8073 26.4832 81.7456 26.4832C81.8689 26.4832 81.8073 26.5426 81.8689 26.4832C81.9306 26.4238 81.8073 26.3644 81.8689 26.3644C81.9306 26.3644 81.9306 26.4238 81.9922 26.4238C82.1155 26.4238 82.1772 26.3644 82.3621 26.3644C82.4238 26.4832 82.6087 26.3644 82.732 26.4238C82.732 26.3644 82.6703 26.3644 82.732 26.3644C82.7936 26.3644 82.7937 26.4238 82.8553 26.4238C82.8553 26.3644 82.8553 26.3644 82.917 26.3644C82.917 26.3644 82.9169 26.3644 82.9786 26.3644C82.9786 26.3644 82.917 26.3644 82.917 26.4238C83.3485 26.3644 83.4101 26.3644 83.7184 26.4832C83.78 26.4238 83.965 26.4238 84.0883 26.4238C84.0266 26.3644 84.1499 26.3644 84.1499 26.3644C83.965 26.3644 84.0883 26.3049 84.0883 26.3049C83.965 26.3049 83.9033 26.3049 83.78 26.3049C83.78 26.3644 83.6567 26.3644 83.5951 26.3644C83.5951 26.305 83.4718 26.3049 83.4101 26.3049C83.4101 26.3644 83.1635 26.3644 83.1635 26.3644C83.1635 26.305 83.4101 26.3644 83.3485 26.3049C83.1635 26.3644 83.2252 26.305 83.2868 26.2456C82.8553 26.2456 82.8553 26.2455 82.4854 26.3049C82.4854 26.2455 82.5471 26.2455 82.4854 26.1861C82.4238 26.305 82.1772 26.1861 81.9922 26.1861C82.0539 26.1861 82.1155 26.1861 82.1155 26.1861C82.0539 26.1267 81.9922 26.1861 81.9922 26.1267C82.0539 26.1267 81.9922 26.1267 81.9306 26.0673C81.8689 26.1267 81.9306 26.1267 81.8689 26.1861C81.5607 26.1861 81.0675 26.1861 80.9442 26.0079C81.1291 26.0673 81.2524 25.9485 81.4374 26.0079C81.4374 25.9485 81.499 25.9485 81.4374 25.9485C81.1908 25.9485 81.0675 25.9485 80.8209 25.8891C80.8825 25.8891 80.8209 25.8297 80.7593 25.8297C80.7593 25.8297 80.7593 25.8891 80.6976 25.8891C80.7593 25.8891 80.7593 25.8297 80.636 25.8297C80.636 25.8891 80.5127 25.8891 80.451 25.8297C80.636 25.8297 80.451 25.7109 80.5743 25.7109C80.7593 25.7109 80.6976 25.8297 80.7593 25.7703C80.6976 25.7703 80.7593 25.7109 80.6976 25.7109C80.7593 25.7109 80.8826 25.6515 80.9442 25.7109C80.8826 25.7703 80.9442 25.8297 81.0059 25.8297C80.9442 25.7703 80.9442 25.7109 81.0059 25.7109C81.1908 25.7109 81.3757 25.6515 81.3757 25.7703C81.3141 25.7703 81.3141 25.8297 81.3141 25.8297C81.4374 25.8297 81.3141 25.7703 81.4374 25.7703C81.499 25.7703 81.5607 25.7703 81.5607 25.7703C81.499 25.7109 81.4374 25.8297 81.3757 25.7703C81.499 25.7703 81.499 25.7109 81.6223 25.7703C81.6223 25.8297 81.684 25.8297 81.684 25.8891C81.5607 25.8891 81.684 25.9485 81.684 25.9485C81.684 25.9485 81.9306 25.9485 81.8073 25.8891H81.7456C81.8073 25.8891 81.7456 25.8297 81.8073 25.8297C81.8689 25.8297 81.9306 25.8297 81.9922 25.8891C81.9922 25.8891 81.8689 25.8891 81.8689 25.9485C81.9922 26.0079 82.1772 25.8297 82.2388 25.9485C82.1772 25.9485 82.0539 25.9485 82.0539 25.9485C82.1772 26.0079 82.3005 25.9485 82.4238 26.0079C82.4238 25.9485 82.4238 25.9485 82.4854 25.9485C82.4854 26.0079 82.6087 26.0079 82.732 25.9485C82.7936 26.0079 82.732 26.0079 82.7936 26.0079C82.7936 25.9485 82.9786 25.9485 82.9786 25.9485C82.9169 25.9485 82.917 25.9485 82.917 25.8891C82.9786 25.8297 82.9786 25.8891 83.1019 25.8891C83.1019 25.8297 82.917 25.8891 82.917 25.8297C83.1019 25.8297 82.917 25.7703 82.917 25.7703C82.9786 25.7109 83.1019 25.7703 83.1635 25.8297C83.1019 25.7703 83.2252 25.7109 83.1019 25.7109C83.0402 25.7703 82.9786 25.7109 82.8553 25.7703C82.8553 25.7109 82.8553 25.7109 82.7936 25.7109C82.732 25.7703 82.8553 25.7703 82.732 25.7703C82.4238 25.7703 82.6087 25.5921 82.8553 25.5921C82.732 25.5327 82.7936 25.5921 82.6703 25.5921C82.7936 25.5327 82.6087 25.5327 82.5471 25.5327C82.6087 25.4733 82.917 25.5327 82.917 25.4733C82.6704 25.4733 82.4854 25.4733 82.3621 25.4733C82.4238 25.4733 82.4238 25.4139 82.4854 25.4139C82.7936 25.4139 83.1635 25.4139 83.5951 25.4139C83.6567 25.4139 83.6567 25.4139 83.6567 25.4139C83.7184 25.4139 83.8417 25.3545 83.8417 25.4139C83.6567 25.4139 83.9033 25.4139 83.8417 25.4733C83.9033 25.4733 83.965 25.4733 83.965 25.4733C83.7184 25.4733 84.1499 25.4139 83.965 25.4139C83.965 25.4733 83.8417 25.4139 83.8417 25.4139C84.0266 25.4139 84.0883 25.4733 84.2732 25.4733C84.2732 25.4139 84.2732 25.4139 84.3349 25.4139C84.5198 25.4139 84.7664 25.4139 84.9513 25.4733C84.9513 25.4733 84.9513 25.4733 85.013 25.4733C85.3212 25.4733 85.6911 25.5327 85.9994 25.5327C85.9377 25.5327 85.8761 25.5327 85.9377 25.5921C85.9994 25.5921 86.061 25.5921 86.1227 25.5327C86.2459 25.5327 86.3692 25.5327 86.4309 25.5921C86.6158 25.5921 86.8008 25.5327 86.9857 25.5327C86.9857 25.5921 86.9857 25.5921 87.0474 25.5921C87.109 25.5921 87.1707 25.5921 87.1707 25.5921C87.109 25.5921 87.109 25.5327 87.0474 25.5327C87.294 25.4733 87.5406 25.4733 87.7255 25.4139C87.7872 25.4139 87.7872 25.4139 87.8488 25.4139C88.2804 25.2951 88.4653 25.1763 88.5269 25.0575C88.5886 25.0575 88.5886 25.0575 88.6502 25.0575L88.7119 24.9981C88.6502 24.9981 88.5886 24.9981 88.5886 24.9981C88.6502 24.8793 88.5269 24.7605 88.2803 24.6417C88.5886 24.6417 88.8968 24.6417 89.1434 24.6417C89.1434 24.7011 89.2051 24.7011 89.1434 24.7011C89.2667 24.6417 89.4517 24.6417 89.575 24.6417C89.575 24.5823 89.6366 24.5823 89.7599 24.5823C89.7599 24.5823 89.6982 24.5823 89.7599 24.6417C89.8215 24.6417 89.8216 24.6417 89.8832 24.6417C89.8832 24.6417 89.8832 24.6417 89.8832 24.7011C90.0065 24.7011 90.0681 24.7605 90.0681 24.7011C90.0065 24.7011 90.0065 24.7011 89.9449 24.7011C90.0065 24.7011 90.0065 24.7011 90.0681 24.7011C90.0065 24.7605 90.1914 24.7011 90.1298 24.7605C90.2531 24.7011 90.3147 24.7011 90.4997 24.7011C90.4997 24.6417 90.4997 24.6417 90.5613 24.6417C90.4997 24.7011 90.8079 24.7011 90.8696 24.6417V24.7011C91.1162 24.7011 91.3011 24.7011 91.4861 24.7011C91.4244 24.6417 91.671 24.6417 91.7943 24.6417C91.7943 24.6417 91.7943 24.7011 91.7327 24.7011C91.7943 24.6417 91.5477 24.6417 91.6093 24.7011C91.7943 24.7011 91.7327 24.7605 91.7943 24.7605C91.8559 24.6417 91.9176 24.7011 91.856 24.5823C91.7327 24.5823 91.4244 24.6417 91.4861 24.5823C91.4861 24.6417 91.5477 24.5823 91.6093 24.5823C91.7326 24.5823 91.7326 24.5823 91.9176 24.5823C91.9176 24.5229 91.9792 24.5229 91.9792 24.5229C91.9176 24.5229 91.9176 24.4635 91.856 24.4635C91.856 24.5823 91.5477 24.4634 91.3628 24.5229C91.3628 24.5823 90.8696 24.6417 90.6846 24.5823C90.8079 24.5823 90.9312 24.5823 90.9929 24.5823C90.9312 24.5823 90.9929 24.5229 90.9312 24.5229C90.8696 24.5229 90.6846 24.5229 90.7463 24.5823C90.6846 24.5229 90.5613 24.5823 90.4997 24.5823C90.5613 24.6417 90.3764 24.7011 90.3764 24.6417H90.438C90.0681 24.5229 89.6366 24.7011 89.2667 24.5823C89.2051 24.5823 89.3284 24.6417 89.2667 24.6417C89.0818 24.5823 88.7735 24.7011 88.5269 24.5823V24.6417C88.5269 24.6417 88.4036 24.6417 88.2803 24.6417C88.2187 24.5823 88.1571 24.5823 88.0954 24.5229C88.2187 24.5229 88.342 24.5823 88.4036 24.5229C88.4036 24.4634 88.1571 24.4634 88.0954 24.5229C87.109 24.107 85.1979 23.6912 84.2116 23.6318L84.2732 23.5724C84.3349 23.5724 84.3965 23.5724 84.4582 23.5724C84.4582 23.513 84.3349 23.5724 84.3349 23.513C84.3349 23.513 84.3349 23.513 84.3965 23.4536C84.4582 23.4536 84.5198 23.4536 84.5814 23.4536C84.5814 23.513 84.5815 23.513 84.6431 23.513C84.5815 23.3348 85.2596 23.4536 85.4445 23.3348L85.3829 23.3942C85.4445 23.3942 85.4445 23.3942 85.5062 23.3942C85.5678 23.3942 85.4445 23.3348 85.5062 23.3348C85.6295 23.3348 85.5678 23.3348 85.5678 23.3942C85.6911 23.3942 85.6295 23.3348 85.7528 23.3348C85.7528 23.4536 85.9377 23.3348 85.9994 23.3942C86.061 23.3348 86.1843 23.3942 86.3076 23.3942C86.3693 23.3348 86.1227 23.3942 86.1227 23.3348C86.1843 23.3348 86.1227 23.2754 86.1843 23.2754C86.1227 23.216 86.1227 23.1566 85.9994 23.1566C85.9994 23.2754 85.8761 23.1566 85.8144 23.216C85.8144 23.216 85.8144 23.216 85.8144 23.1566C86.4925 23.1566 87.109 23.1566 87.0474 22.7408C87.0474 22.7408 87.0474 22.7408 87.0474 22.6814C87.109 22.6814 87.109 22.6814 87.1707 22.6814C87.1707 22.622 87.109 22.6219 87.1707 22.6219C87.109 22.6219 87.109 22.6219 87.0474 22.6219V22.5626C87.109 22.5626 87.1707 22.5625 87.1707 22.5031C87.109 22.5031 87.109 22.5031 87.0474 22.5031C86.9857 22.3843 86.9241 22.2655 86.8624 22.1467C86.8624 22.1467 86.9241 22.1467 86.9241 22.2061C86.9857 22.2061 87.0474 22.2061 87.109 22.1467C86.9857 22.1467 86.9857 22.0873 86.8624 22.0873C86.8008 22.0279 86.7391 21.9685 86.6775 21.9091C86.9857 21.9091 87.3556 21.8497 87.6639 21.9091C87.6022 21.9091 87.6639 21.8497 87.6022 21.8497C87.4789 21.9091 87.294 21.9091 87.1707 21.8497C86.9241 21.9091 86.5542 21.9091 86.3076 21.9091C86.3076 21.7903 85.9377 21.7903 85.9994 21.7309C85.8761 21.7309 85.7528 21.7903 85.6911 21.7309C85.8144 21.7309 85.7528 21.6715 85.8761 21.6715C85.8144 21.6715 85.6911 21.6121 85.5678 21.6715C85.5678 21.6121 85.6295 21.6121 85.5062 21.6121C85.2596 21.6121 84.8897 21.6715 84.6431 21.5527C84.7047 21.5527 84.7664 21.4933 84.7664 21.4933C84.828 21.4933 84.9513 21.4933 85.013 21.4933C84.8897 21.4933 85.1979 21.4933 85.1363 21.4339C85.013 21.4339 85.013 21.3151 85.1363 21.3151C85.1979 21.3151 85.2596 21.3745 85.2596 21.4339C85.3212 21.4339 85.4445 21.4339 85.4445 21.3745C85.2596 21.4339 85.3829 21.3151 85.3212 21.3151C85.3212 21.3151 85.2596 21.3745 85.1979 21.3745C85.1979 21.3151 85.1363 21.3151 85.1363 21.3151C85.1979 21.2557 85.2596 21.2557 85.2596 21.1963C85.3212 21.1369 85.4445 21.1369 85.5062 21.1369C85.5062 21.1369 85.5062 21.0775 85.4445 21.0775C85.7528 21.0181 86.061 20.9587 86.246 21.0181C86.3693 21.0181 86.5542 21.0181 86.6159 20.9587C86.4926 20.9587 86.4925 20.8993 86.3692 20.8993C86.4925 20.8993 86.5542 20.8399 86.6159 20.7805C86.6775 20.8399 86.8624 20.7804 86.9241 20.8399C86.9857 20.8993 86.7391 20.8399 86.8008 20.8993C87.1707 21.0181 87.7872 20.8993 88.2187 20.9587C88.157 21.0181 87.9105 20.8993 87.8488 21.0181C87.9721 21.0775 88.1571 21.0181 88.342 21.0775C88.4036 21.1369 88.2804 21.1369 88.1571 21.1369C88.1571 21.0181 87.6639 21.1369 87.7872 20.9587C87.6022 21.0181 87.4173 21.0181 87.294 20.9587C87.2323 20.9587 87.294 21.0181 87.1707 21.0181C87.1707 20.9587 87.2323 20.9587 87.2323 20.9587C87.0474 21.0181 86.3692 21.0181 86.1843 21.0775C86.1843 21.0181 86.1227 21.0181 86.1227 21.0181C86.1227 21.0775 85.9994 21.0775 85.9994 21.0775C86.1227 21.0775 86.1227 21.1369 86.1843 21.1369C86.1843 21.1369 86.3692 21.0775 86.3692 21.1369C86.3692 21.1963 86.246 21.1369 86.246 21.1963H86.3076H86.246C86.4309 21.1963 86.6158 21.0775 86.6775 21.1369C86.5542 21.1369 86.6158 21.1963 86.5542 21.1963C86.3693 21.1369 86.1227 21.2557 86.061 21.2557C86.3076 21.2557 86.2459 21.3151 86.3692 21.3745C86.2459 21.3745 86.3076 21.3151 86.1843 21.3745C86.1843 21.4933 86.3076 21.4933 86.3692 21.5527C86.2459 21.5527 86.3076 21.6121 86.246 21.6121C86.3693 21.6121 86.5542 21.6121 86.4309 21.6715C86.5542 21.6715 86.6775 21.6121 86.7391 21.6715C86.6775 21.7309 86.4309 21.6715 86.4925 21.7309C87.0474 21.4933 87.4173 21.9685 87.9721 21.7903C87.9105 21.8497 88.0338 21.8497 88.1571 21.9091C88.0954 21.9685 88.0337 22.0279 87.9104 22.0873C87.8488 22.0873 87.8488 22.0873 87.7255 22.0873C87.6022 22.0873 87.7255 22.0279 87.6022 22.0279C87.6022 22.0279 87.6022 22.0873 87.6639 22.0873C87.4789 22.0873 87.4789 22.0873 87.1707 22.0873C87.109 22.1467 87.0474 22.1467 87.109 22.2061C87.3556 22.1467 87.4789 22.2061 87.6639 22.1467C87.6022 22.2061 87.7872 22.3249 87.8488 22.2061C87.7872 22.2061 87.7255 22.2061 87.7255 22.2061V22.1467C87.8488 22.1467 87.9721 22.0873 87.9721 22.1467C87.9105 22.1467 87.8488 22.1467 87.8488 22.1467C87.9721 22.1467 87.8488 22.2061 87.9721 22.2061C88.0338 22.1467 88.342 22.1467 88.4036 22.2061V22.2655C88.2187 22.2655 88.157 22.3843 88.2187 22.3249C88.4653 22.3843 88.5886 22.2061 88.5886 22.1467C88.7119 22.1467 88.6502 22.2061 88.7119 22.2061C88.7119 22.1467 88.8968 22.1467 88.9585 22.0873C88.8968 22.0873 88.8352 22.0279 88.8968 22.0279C89.1434 22.0279 89.5133 22.0279 89.6983 22.0873C89.6983 22.1467 89.575 22.1467 89.6983 22.1467C89.6983 22.0279 90.0065 22.1467 90.0681 22.0873C90.0681 22.0279 89.9449 22.0873 89.9449 22.0279C90.1298 22.0279 90.0681 21.9685 90.1914 21.9091C90.3764 21.9685 90.8079 21.9091 90.9312 21.9091C90.8696 21.8497 90.7463 21.9091 90.6846 21.8497C90.7463 21.7903 90.6846 21.7309 90.7463 21.7309C90.8079 21.7309 90.9929 21.7309 91.0545 21.6715C90.9312 21.6715 90.8696 21.6121 90.9929 21.6121C90.6846 21.6121 90.5613 21.6715 90.1914 21.6715C90.1914 21.7309 90.1914 21.7309 90.1298 21.7309H89.9449C89.9449 21.6715 90.1298 21.7309 90.1298 21.6121C90.0065 21.6121 89.6982 21.6715 89.7599 21.6121C89.6982 21.6121 89.6366 21.6121 89.575 21.6121C89.6366 21.7309 89.1434 21.6715 89.2667 21.6121C89.0818 21.6121 88.8352 21.6121 88.8352 21.5527C89.0818 21.5527 89.2051 21.5527 89.39 21.4933C89.3284 21.4933 89.3284 21.4339 89.2051 21.4933C89.2667 21.5527 89.1434 21.5527 89.0818 21.5527C89.0818 21.4933 88.8968 21.5527 88.8968 21.4933C88.8968 21.4339 88.8352 21.4339 88.8352 21.4339C89.0201 21.3745 89.2051 21.4339 89.3284 21.4339C89.3284 21.3745 89.1434 21.4339 89.0818 21.3745C89.0818 21.3745 89.2051 21.3745 89.2051 21.3151C89.1434 21.2557 88.9585 21.3151 88.8968 21.3151C88.9585 21.3151 89.1434 21.3151 89.1434 21.2557C89.2667 21.2557 89.39 21.3151 89.4517 21.3151C89.39 21.2557 89.6366 21.2557 89.6366 21.1369C89.4517 21.1963 89.2667 21.3151 89.0818 21.1963C88.8968 21.1963 88.6502 21.2557 88.5269 21.1963C88.5886 21.1963 88.7119 21.1369 88.7119 21.0775C88.6502 21.0181 88.4653 21.1369 88.342 21.0775C88.4036 21.0775 88.4036 21.0775 88.4036 21.0181C88.2803 21.0181 88.2803 21.0775 88.2187 21.0775C88.157 21.0775 88.0338 21.0181 88.1571 20.9587C88.5886 21.0181 88.9585 20.9587 89.4517 21.0181C89.2051 21.0775 88.8352 20.9587 88.7735 21.0775C88.9585 21.0181 89.0201 21.1369 89.0818 21.0181C89.2051 21.0181 89.2667 21.1369 89.39 21.0775C89.2667 21.0775 89.3284 21.0181 89.39 21.0181C89.5133 21.0181 89.5133 21.0181 89.6366 21.0181C89.6366 20.9587 89.9449 20.9587 89.9449 20.8993C89.6366 21.0181 89.2051 20.8993 88.9585 20.8399C88.8352 20.8399 89.0201 20.8993 88.9585 20.8993C88.8968 20.8993 88.8968 20.8993 88.8352 20.8399C88.8968 20.7804 88.7735 20.7805 88.7119 20.721C88.8968 20.6616 88.8352 20.7805 88.9585 20.7805C89.0201 20.7805 89.1434 20.721 89.2051 20.721C89.2051 20.721 89.1434 20.7211 89.1434 20.7805C89.2051 20.7805 89.2667 20.7805 89.2667 20.7805C89.2667 20.7211 89.2667 20.721 89.3284 20.721C89.39 20.7805 89.4517 20.8399 89.6366 20.8399C89.6366 20.8399 89.575 20.7805 89.6366 20.7805C89.7599 20.8399 89.9448 20.7804 90.0681 20.8399C90.1298 20.7804 90.2531 20.8399 90.3148 20.7805C90.3148 20.8399 90.623 20.7804 90.623 20.8399C90.623 20.8399 90.623 20.8399 90.6846 20.8399C90.6846 20.6616 90.1914 20.7805 90.0681 20.721C90.2531 20.721 90.1914 20.6616 90.0681 20.6616C90.3147 20.5428 90.6846 20.7804 90.6846 20.6616C90.7463 20.6616 90.9929 20.721 90.9929 20.721C90.8079 20.721 90.9312 20.721 90.9312 20.6616C90.8696 20.6022 90.7463 20.721 90.623 20.6616C90.623 20.6616 90.8696 20.6616 90.7463 20.6022C90.623 20.6022 90.623 20.6022 90.4997 20.6616C90.438 20.6616 90.438 20.6022 90.3764 20.6022C90.3147 20.6022 90.3764 20.6616 90.2531 20.6616C90.1914 20.4834 89.7599 20.6022 89.5133 20.5428C90.0065 20.4834 90.4997 20.4834 90.8079 20.4834C90.7463 20.4834 90.7463 20.4834 90.8079 20.424C90.8696 20.424 90.8696 20.424 90.9312 20.424C90.9312 20.4834 90.9312 20.4834 90.9929 20.4834C91.1162 20.424 91.1778 20.5428 91.3011 20.5428C91.5477 20.4834 92.2258 20.4834 92.4724 20.5428C92.6574 20.5428 93.2738 20.4834 93.4588 20.6022V20.5428C93.6437 20.5428 94.1986 20.6022 94.1986 20.6022C94.1986 20.6022 94.1369 20.5428 94.1986 20.5428C94.2602 20.5428 94.2602 20.6022 94.3835 20.6022C94.5685 20.4834 94.8151 20.6616 95 20.6022C94.9384 20.5428 94.8151 20.6022 94.8767 20.6022C94.8151 20.6022 94.7534 20.6022 94.6918 20.6022C94.8151 20.6022 94.6918 20.6022 94.6918 20.5428C94.7534 20.5428 94.7534 20.5428 94.8151 20.5428C94.8151 20.424 94.4452 20.5428 94.2602 20.5428C94.0753 20.5428 94.1369 20.424 93.952 20.424C93.952 20.4834 94.0136 20.4834 94.0136 20.4834C93.8904 20.4834 93.6437 20.5428 93.5821 20.4834C93.7054 20.4834 93.5821 20.424 93.5204 20.424C93.4588 20.4834 93.3972 20.424 93.2739 20.4834C93.3355 20.424 93.0889 20.4834 93.2122 20.3646C93.0273 20.3646 93.1506 20.424 93.0273 20.424C92.904 20.3646 93.0273 20.424 92.904 20.424C92.904 20.3646 92.7807 20.424 92.8423 20.3646C92.6574 20.3646 92.5341 20.424 92.4108 20.3646C92.3491 20.3646 92.3491 20.424 92.2875 20.424C92.1642 20.424 91.9792 20.3646 91.7943 20.424C91.7943 20.3052 91.2395 20.3052 91.1162 20.2458V20.3052C90.9929 20.3052 91.0545 20.1864 90.9312 20.2458C90.9312 20.3052 91.0545 20.2458 91.0545 20.3052C90.8696 20.3052 90.5613 20.3646 90.3764 20.3646C90.4997 20.3646 90.5613 20.3052 90.4997 20.3052C90.438 20.3052 90.3764 20.3646 90.2531 20.3646C90.3147 20.3646 90.2531 20.3052 90.3148 20.3052C90.1298 20.3052 89.9448 20.3646 89.7599 20.3052C89.7599 20.3052 89.8215 20.3052 89.8215 20.2458C90.0681 20.2458 90.4997 20.3052 90.5613 20.1864C90.3147 20.2458 90.0065 20.127 89.6983 20.1864C89.6983 20.0676 89.2051 20.2458 89.1434 20.127C88.7735 20.1864 88.1571 20.1864 87.8488 20.127C87.8488 20.127 87.9105 20.127 87.8488 20.0676C87.7872 20.0676 87.6639 20.0676 87.6639 20.127C87.7255 20.127 87.7255 20.127 87.7255 20.1864C87.4789 20.1864 87.4173 20.1864 87.294 20.1864L87.3556 20.127C87.1707 20.1864 87.109 20.0676 86.9241 20.127C86.9241 20.1864 87.0474 20.1864 86.9241 20.1864C86.9241 20.127 86.8008 20.127 86.8008 20.127C86.7391 20.127 86.8624 20.1864 86.7391 20.1864C86.4925 20.1864 86.4926 20.1864 86.3076 20.2458C86.3076 20.1864 86.061 20.1864 86.1843 20.127C85.9377 20.127 85.9377 20.0676 85.8144 20.1864C85.8761 20.127 85.7528 20.127 85.8144 20.0676C85.7528 20.0676 85.7528 20.0676 85.6911 20.0676C85.6911 20.127 85.8144 20.127 85.6911 20.1864C85.3212 20.1864 84.828 20.127 84.5814 20.2458V20.1864C84.5198 20.1864 84.4582 20.1864 84.3965 20.1864C84.3965 20.2458 84.3965 20.2458 84.2732 20.2458C84.3349 20.1864 84.2116 20.2458 84.2116 20.127C84.3348 20.0676 84.5198 20.127 84.7048 20.127C84.7664 20.0082 85.2596 20.0676 85.3212 20.127C85.1363 20.0082 84.6431 20.0676 84.5198 20.0676C84.2732 20.0082 84.0883 20.0082 83.8417 20.0082C83.9033 20.0676 83.78 20.0676 83.7184 20.0676C83.7184 20.127 83.78 20.127 83.78 20.1864C83.9033 20.1864 83.8417 20.127 83.965 20.127C83.9033 20.1864 84.1499 20.1864 84.0883 20.2458C83.9033 20.2458 83.6567 20.1864 83.6567 20.2458C83.5951 20.2458 83.5334 20.2458 83.4718 20.2458C83.5334 20.2458 83.4718 20.1864 83.5334 20.1864C83.3485 20.1864 83.5951 20.2458 83.3485 20.3052C83.2868 20.3052 83.2868 20.2458 83.2252 20.3052C83.1019 20.2458 83.2868 20.1864 83.2252 20.1864C83.2252 20.1864 82.9786 20.2458 82.9786 20.1864C82.9786 20.127 82.9786 20.127 83.0402 20.127C82.9786 20.1864 83.2252 20.127 83.3485 20.127C83.4101 20.127 83.4101 20.1864 83.4718 20.1864C83.4718 20.127 83.6567 20.1864 83.7184 20.1864C83.6567 20.0676 83.4718 20.127 83.4101 20.127C83.4101 20.0676 83.5334 20.127 83.5951 20.0676C83.4718 20.0676 83.2868 20.127 83.2252 20.0676C83.2252 20.127 82.9786 20.0676 83.0402 20.127C83.1635 20.127 83.2252 20.0676 83.2252 20.127C83.1019 20.1864 82.9786 20.127 82.8553 20.127C82.7937 20.1864 82.9786 20.127 82.917 20.1864C82.8553 20.1864 82.8553 20.1864 82.8553 20.1864C82.6704 20.1864 82.6087 20.1864 82.4854 20.127C82.3621 20.127 82.5471 20.127 82.5471 20.1864C82.4854 20.1864 82.4854 20.1864 82.4238 20.1864C82.3621 20.1864 82.3005 20.1864 82.3005 20.127C82.3005 20.0676 82.4238 20.127 82.4238 20.0676C82.3005 20.0676 82.2388 20.0676 82.1155 20.0676C82.0539 20.0676 82.0539 20.127 81.9306 20.127C81.8689 20.127 81.8689 20.0676 81.8073 20.0676C81.7456 20.0676 81.5607 20.127 81.3757 20.0676C81.3141 20.127 81.2524 20.127 81.1908 20.127C81.3757 20.127 81.4374 20.0676 81.499 20.127C81.4374 20.127 81.4374 20.127 81.3757 20.1864C81.4374 20.1864 81.499 20.127 81.5607 20.127C81.5607 20.2458 81.8073 20.127 81.8073 20.1864C81.8073 20.1864 81.7456 20.2458 81.8073 20.2458C81.9922 20.1864 82.3005 20.1864 82.4238 20.2458C82.3621 20.127 82.7936 20.1864 82.6703 20.3052C82.8553 20.3052 82.732 20.2458 82.8553 20.2458C82.8553 20.3052 82.917 20.3052 82.917 20.3052C82.6087 20.424 82.4238 20.3646 82.1155 20.2458C81.8689 20.3052 81.8073 20.2458 81.684 20.3052V20.2458C81.684 20.3052 81.3141 20.3052 81.4374 20.3052C81.499 20.2458 81.7456 20.3052 81.7456 20.3052C81.499 20.3052 81.3757 20.3052 81.1908 20.3052C81.2524 20.2458 81.1908 20.2458 81.1291 20.2458C81.1291 20.3052 81.0675 20.3052 81.0059 20.3052C80.8209 19.8894 80.636 19.533 79.9578 19.533C78.9098 19.5924 78.6016 19.8894 78.6016 20.2458C78.4166 20.2458 78.2317 20.2458 78.17 20.2458C78.1084 20.2458 77.8001 20.3052 77.6152 20.3052C76.2589 19.533 73.5464 18.8795 71.2654 18.7013C69.9708 18.8201 68.6145 18.7013 67.1966 18.5231C67.3199 18.5231 67.4432 18.4637 67.5049 18.4043C67.5665 18.2855 67.7515 18.2855 67.8748 18.2855C67.9364 18.2855 68.0597 18.2855 68.1214 18.2855C68.4913 18.3449 68.6145 18.3449 68.6762 18.2261C68.7995 18.0479 68.9844 18.1667 69.1694 18.1073C69.416 18.0479 69.9092 18.0479 69.7859 17.8103C69.7859 17.7509 69.9092 17.6915 69.9708 17.6321C70.0325 17.5727 70.0325 17.5133 69.9708 17.4539C69.7859 17.3351 69.5393 17.1569 69.2927 17.038C69.231 16.9786 69.1077 16.9786 68.9844 16.9786C68.7378 16.9786 68.4912 16.9786 68.2447 16.9192C68.0597 16.741 67.6898 16.9786 67.5049 16.8004C67.0733 16.8598 66.6418 16.741 66.2103 16.6816C65.9637 16.6816 65.7787 16.5628 65.5321 16.5628C65.2855 16.5628 65.0389 16.5034 64.7923 16.5628C64.5457 16.5628 64.3608 16.444 64.1142 16.444C63.9909 16.444 63.9293 16.5034 63.8676 16.444C63.806 16.3846 63.9909 16.2658 64.1759 16.2658C64.4841 16.2658 64.7924 16.2658 65.0389 16.2658C65.1006 16.2658 65.2239 16.2658 65.2855 16.2064C65.4088 16.147 65.2239 16.0876 65.2239 16.0282C65.1622 15.9094 65.1622 15.7906 65.1006 15.7312C64.9773 15.6124 64.9156 15.553 65.1006 15.4342C65.2239 15.3748 65.2239 15.1965 65.4705 15.1965C65.5938 15.1965 65.8404 15.1965 65.902 15.2559C65.9637 15.3154 65.7787 15.3153 65.7171 15.3153C65.6554 15.3153 65.6554 15.3748 65.5938 15.3748C65.8404 15.4342 66.087 15.553 66.3335 15.553C66.6418 15.6124 67.0117 15.6124 67.3199 15.6124C67.3816 15.6124 67.3816 15.6124 67.4432 15.6718C67.3816 15.6718 67.3199 15.7312 67.3199 15.7312C67.0733 15.7312 66.8268 15.7312 66.5802 15.7312C66.4569 15.7312 66.3336 15.7906 66.2719 15.85C66.2103 15.9094 66.1486 16.0876 66.3335 16.0876C66.5801 16.147 66.7651 16.3252 67.0733 16.2658C67.4432 16.2658 67.6898 16.3846 67.9981 16.3846C68.368 16.444 68.7378 16.3846 69.1077 16.5034H69.1694C69.1694 16.444 69.231 16.3846 69.231 16.3846C69.1694 16.3252 69.1077 16.2658 68.9844 16.2064C68.7995 16.147 67.9364 16.0876 67.6282 16.0876C67.5665 16.0876 67.5049 16.0282 67.5049 16.0282V15.9688C67.5665 15.85 67.6898 15.7906 67.8131 15.6718C67.8748 15.6124 67.9981 15.6124 67.9981 15.6718C68.0597 15.85 68.183 15.9094 68.4912 15.9094C68.9228 15.9094 69.2927 15.9688 69.416 16.2064C69.9091 16.3846 70.3407 16.5628 70.8955 16.6222C70.9572 16.6222 71.0805 16.6222 71.1421 16.6222C71.2038 16.6222 71.2038 16.5628 71.2654 16.5034C71.2654 16.444 71.2038 16.3846 71.2038 16.3846C71.0188 16.3252 70.8339 16.2064 70.5873 16.147C70.5873 15.9688 70.279 15.9688 70.0941 15.9094C69.9708 15.85 69.7242 15.7906 69.6009 15.7312C69.5393 15.6718 69.5393 15.553 69.2927 15.6124C69.0461 15.7312 68.7378 15.6124 68.4296 15.7312C68.3063 15.7906 68.3063 15.6718 68.2447 15.6124C68.2447 15.6124 68.2446 15.553 68.183 15.553C67.9981 15.4936 67.8131 15.4936 67.6282 15.4342C67.4432 15.3748 67.5665 15.1965 67.2583 15.1965C67.135 15.1965 67.0117 15.1965 66.8884 15.1371C66.8268 15.1371 66.8267 15.1371 66.7651 15.0777C66.8267 15.0777 66.8268 15.0183 66.8884 15.0183C67.3199 15.0183 67.8131 14.9589 68.2447 15.0777C68.4296 15.1371 68.6145 15.1371 68.8611 15.1371C69.3543 15.1371 69.8475 15.1371 70.3407 15.2559C70.5873 15.3154 70.8955 15.2559 71.2038 15.2559C71.2654 15.2559 71.3271 15.1965 71.3271 15.1371C71.3271 15.0777 71.2654 15.0183 71.2654 15.0183C70.9572 15.0183 70.6489 14.8995 70.4023 14.8401C70.3407 14.8995 70.279 14.9589 70.0941 14.9589C69.9708 14.9589 69.9092 14.8995 69.9092 14.8401C69.9092 14.7807 69.9092 14.7807 69.9092 14.7213C69.7242 14.7213 69.6009 14.7213 69.416 14.7213V14.6619C68.9844 14.5431 68.7378 14.5431 68.4296 14.7213C68.368 14.7807 68.3063 14.7807 68.2447 14.7807C67.9981 14.6619 67.6898 14.5431 67.2583 14.5431C67.1966 14.5431 67.0117 14.4837 67.0117 14.4243C66.8884 14.2461 66.6418 14.1867 66.2719 14.1867C65.9637 14.1867 65.5938 14.1867 65.2855 14.1867C65.1006 14.1867 64.9773 14.2461 64.9156 14.3055C64.6691 14.5431 64.6691 14.4837 64.1142 14.4243C63.7443 14.3649 63.4977 14.2461 63.1278 14.1867C62.9429 14.1273 62.8196 14.1273 62.6963 14.1867C62.573 14.2461 62.5114 14.2461 62.3881 14.1867C62.2648 14.1273 62.1415 14.0085 61.9565 14.0085C61.8949 14.1273 61.9565 14.2461 61.6483 14.2461C61.5866 14.3055 61.5866 14.3055 61.525 14.3055C61.4017 14.3055 61.4017 14.2461 61.3401 14.1867C61.2168 14.1867 61.0934 14.2461 61.0934 14.3055C61.0318 14.3649 61.1551 14.4243 61.2784 14.4837C61.4633 14.4837 61.7099 14.4837 61.8949 14.4837C61.9565 14.4837 62.0182 14.5431 62.0182 14.5431C61.9565 14.5431 61.9565 14.6025 61.8949 14.6025C61.4633 14.6025 60.9702 14.6025 60.5386 14.6025C60.0454 14.6025 59.5522 14.6025 59.1207 14.7213C58.9974 14.7213 58.9358 14.8401 58.8125 14.7807C58.5659 14.6619 58.3809 14.7213 58.1343 14.7807C57.8877 14.6619 57.5795 14.6619 57.3329 14.6619C56.7781 14.6619 56.2232 14.6619 55.6684 14.6025C55.4835 14.6025 55.2369 14.6025 55.0519 14.5431C54.8053 14.4243 54.4971 14.4243 54.1889 14.4243C52.6476 14.3649 51.0448 14.3649 49.5036 14.3055C49.1953 14.3055 49.1953 14.3055 49.1337 14.0679C49.1337 14.0085 49.072 14.0085 49.072 13.9491C49.0104 13.9491 48.9487 14.0085 48.8871 14.0085C48.6405 14.1273 48.209 14.1867 47.9624 14.1273V14.0679C47.9624 14.0679 48.024 14.0085 48.0857 14.0085C48.4556 14.0085 48.7638 14.0085 48.7022 13.7115C48.7022 13.5927 48.8871 13.5333 48.9487 13.4144C49.0104 13.355 49.1337 13.355 49.257 13.4144C49.3186 13.4738 49.4419 13.4738 49.4419 13.4144C49.4419 13.355 49.4419 13.2956 49.5036 13.2362C48.8871 13.2362 48.2706 13.1174 47.7158 13.2956C47.5925 13.355 47.2842 13.2956 47.0993 13.2362C46.8527 13.1174 46.5444 13.1174 46.2979 13.058C46.2362 13.058 46.2362 12.9986 46.1746 12.9392C45.9896 12.9392 45.8663 12.8798 45.6814 12.9392C45.4964 13.058 45.1882 13.1174 45.1265 13.2956C45.1265 13.355 45.0649 13.355 45.0033 13.4144C44.9416 13.355 44.9416 13.2956 44.88 13.2362C44.7567 13.1768 44.6334 13.1174 44.4484 13.1768C44.3868 13.1768 44.2635 13.2362 44.2635 13.2362C44.0785 13.1768 43.7703 13.1174 43.7086 12.9986C43.5853 12.8204 43.5237 12.8798 43.3387 12.9392C43.1538 12.9986 43.2154 13.1768 42.9072 13.2362C42.9072 13.2362 42.9072 13.2956 42.8456 13.2956C42.599 13.4739 42.2907 13.1174 41.9825 13.2956C41.9208 13.2956 41.8592 13.2362 41.8592 13.2362C41.7975 13.1768 41.7975 13.1174 41.7975 13.1174C41.3044 13.058 40.8728 12.8798 40.3796 12.761C40.3796 12.761 40.318 12.761 40.2563 12.761C40.1947 12.761 40.1947 12.8204 40.2563 12.8798C40.318 12.8798 40.318 12.9986 40.318 12.9986C39.9481 13.058 39.5782 13.058 39.2083 12.9986C39.0234 12.9986 39.1467 12.9986 39.2083 12.9392C39.3932 12.8204 39.3316 12.761 39.0234 12.761C38.8384 12.761 38.6535 12.761 38.5302 12.761C38.3452 12.761 38.1603 12.9392 37.9753 12.8204C37.7288 12.6422 37.5438 12.8204 37.2972 12.8204C37.1123 12.8204 36.989 12.761 36.804 12.761C36.7424 12.761 36.6191 12.7016 36.6191 12.761C36.3725 12.8798 36.1875 12.8204 35.941 12.761C35.8793 12.7016 35.6944 12.7016 35.5711 12.7016C35.0779 12.7016 34.5847 12.5828 34.0915 12.761C34.0299 12.761 33.9066 12.761 33.8449 12.761C33.7216 12.7016 33.5367 12.7016 33.4134 12.6422C32.9818 12.464 32.6119 12.464 32.1188 12.5828C32.0571 12.5828 31.9338 12.6422 31.8722 12.6422C31.2557 12.5828 30.6392 12.7016 30.0227 12.761C29.6528 12.761 29.2829 12.8204 29.098 12.9986C28.913 12.9986 28.6048 12.9986 28.4815 12.9392C28.2349 12.8204 27.9883 12.9392 27.8034 12.8798C27.5568 12.761 27.3102 12.8204 27.0636 12.8204C26.7554 12.8204 26.5704 12.7016 26.2622 12.6422C26.2005 12.6422 26.0772 12.6422 26.0156 12.6422C25.769 12.6422 25.584 12.761 25.3374 12.6422C25.0909 12.761 24.7826 12.7016 24.536 12.761C24.1661 12.8798 23.6113 12.8204 23.3031 13.058C23.2414 13.1174 23.1181 12.9392 22.9332 12.9986C22.8099 13.058 22.6866 13.2362 22.44 13.1174C22.1934 12.9986 22.0701 13.1768 21.8851 13.1768C21.8235 13.1768 21.7002 13.1768 21.7002 13.1174C21.7002 13.058 21.7002 12.9986 21.7002 12.9986C21.7618 12.9392 21.8235 12.9392 21.8851 12.9392C21.9468 12.9392 22.0084 12.8798 22.1317 12.8798C22.0701 12.8798 22.0084 12.8204 21.9468 12.8204C21.7618 12.8204 21.5153 12.8204 21.3303 12.8204C21.0837 12.8204 20.8371 12.8204 20.5905 12.8204C20.4056 12.8204 20.2206 12.9392 20.0357 12.9392C19.7891 12.9392 19.5425 12.9392 19.2959 12.9392C19.2343 12.9392 19.1726 12.9986 19.111 12.9986C19.0493 12.9986 19.0493 13.058 18.9877 13.1174C18.9877 13.1174 19.0493 13.1174 19.111 13.1768C19.7275 13.2956 20.2823 13.1174 20.8371 13.1174C20.9604 13.1174 21.0837 12.9392 21.207 13.058C21.2687 13.1174 21.0837 13.1768 20.8371 13.2362C20.5905 13.2956 20.3439 13.355 20.0973 13.355C19.5425 13.2956 19.0493 13.4144 18.4945 13.4739C18.4328 13.4739 18.3712 13.5333 18.3712 13.5927C18.3712 13.6521 18.4328 13.6521 18.4328 13.7115C18.4328 13.7115 18.4945 13.7115 18.5561 13.7115C18.6178 13.7115 18.6794 13.7709 18.7411 13.7709C18.6794 13.7709 18.6178 13.8303 18.5561 13.8303C18.3712 13.8303 18.1862 13.8303 18.063 13.8303C17.7547 13.8303 17.3232 13.7709 17.1382 13.6521C17.0149 13.5333 16.83 13.5332 16.5834 13.5332C16.0286 13.4738 15.5354 13.6521 15.0422 13.7115C14.4874 13.7709 13.9325 13.9491 13.3777 13.8897C12.7612 13.8303 12.2064 13.9491 11.7748 14.1273C11.6515 14.1867 11.5282 14.2461 11.3433 14.2461C11.22 14.2461 11.035 14.2461 11.035 14.1867C11.035 14.1273 11.1583 14.1273 11.2816 14.1273C11.3433 14.1273 11.3433 14.0679 11.4049 14.0679C11.4049 14.0679 10.5419 13.9491 10.4802 13.9491C10.4186 14.0085 10.2953 14.0679 10.2336 14.0679C10.2953 14.0679 10.3569 14.1273 10.4186 14.1273C10.4802 14.1273 10.5419 14.1867 10.6035 14.1867C10.5419 14.2461 10.4802 14.2461 10.4186 14.3055C10.2336 14.4243 10.0487 14.3649 9.86373 14.3649C9.30889 14.3649 8.87736 14.6025 8.38417 14.6619C8.26087 14.8995 7.82933 15.0183 7.58274 15.1371C7.33615 15.256 7.21285 15.3748 7.2745 15.553C7.33615 15.7312 7.2745 15.9094 6.78131 15.9094C6.28813 16.0876 5.73329 16.147 5.30176 16.3846C5.24011 16.3846 5.2401 16.444 5.2401 16.5034C5.2401 16.5034 5.30175 16.5628 5.3634 16.5628C5.54834 16.5628 5.79494 16.5628 5.97988 16.5628C6.16483 16.6222 6.34978 16.6816 6.41143 16.8004C6.47308 16.8598 6.22648 16.9786 6.04153 17.038C5.85659 17.0975 5.73329 17.038 5.61 16.9786C5.4867 16.9192 5.30176 16.8598 5.17846 16.9786C5.05516 17.038 4.93186 17.1569 4.80857 17.1569C4.37703 17.2163 4.43868 17.2757 4.56198 17.4539C4.62363 17.5133 4.31538 17.6321 4.37703 17.6915C4.62363 17.8697 4.50033 18.0479 4.50033 18.2855C4.50033 18.4043 4.50032 18.5231 4.62362 18.5825C4.80857 18.7607 4.80857 18.939 4.31538 18.9984C4.25373 18.9984 4.19209 19.0578 4.19209 19.1172C4.19209 19.236 4.19208 19.3548 4.13043 19.4736C4.13043 19.5924 4.25373 19.6518 4.50033 19.7112C4.62362 19.7112 4.62363 19.7706 4.56198 19.83C4.50033 19.8894 4.37703 19.9488 4.43867 20.0082C4.62362 20.127 4.43868 20.2458 4.37703 20.424C4.31538 20.5428 4.19209 20.6022 4.19209 20.721C4.19209 20.8399 4.31538 20.9587 4.43867 21.0775C4.62362 21.1963 4.56198 21.3745 4.50033 21.5527L4.37703 21.6121C4.13044 21.4933 4.06879 21.5527 4.00714 21.6715C3.94549 21.9091 4.06879 22.0873 3.82219 22.3249C3.76054 22.3843 4.00714 22.622 4.19209 22.6814C4.56198 22.7408 4.43868 22.8596 4.31538 22.9784L4.25374 23.0378C4.43868 23.1566 4.43867 23.2754 4.43867 23.3348C4.31538 23.3348 4.25373 23.3348 4.13043 23.2754C4.00714 23.216 3.88385 23.0972 3.76055 23.0972C3.51396 23.0378 3.51396 23.3348 3.45231 23.4536C3.32901 23.6318 3.14407 23.81 3.02077 23.9882C2.83583 24.1664 2.71252 24.1664 2.46593 24.0476C2.09604 23.9288 1.7878 24.2852 1.35626 24.1664C1.29461 24.1664 1.23297 24.2258 1.17132 24.2852V24.404C1.17132 24.4634 1.23297 24.6417 1.29462 24.6417C1.72616 24.7011 2.15769 24.8199 2.52758 24.5229C2.71253 24.404 2.83583 24.4635 3.02077 24.5823C3.14407 24.6417 3.32901 24.7011 3.39066 24.7011C3.51395 24.5229 3.6989 24.5229 3.88384 24.4635C3.88384 24.5229 3.88384 24.5823 4.00714 24.6417C4.37703 24.8199 4.43868 25.0575 4.31538 25.2357C4.00714 25.2357 3.6989 25.2357 3.32901 25.2357C3.14407 25.2357 3.02076 25.4139 2.89747 25.5327C2.83582 25.5921 2.77417 25.7109 2.89747 25.7703C3.02076 25.8891 3.14407 26.0079 3.32901 26.0673C3.51396 26.1267 3.6989 26.0673 3.82219 26.0673C3.94549 26.0673 4.13044 26.0673 4.19209 26.1267C4.31538 26.2456 4.50033 26.3644 4.56198 26.4832C4.56198 26.602 4.37703 26.8396 4.25374 26.8396C3.88385 26.899 3.5756 26.899 3.20571 26.899C2.95912 26.899 2.83582 27.0178 2.77417 27.3148C2.65088 27.6712 2.28099 27.79 2.21934 28.2059C2.15769 28.5029 2.1577 28.6811 2.40429 28.7999C2.58923 28.8593 2.77418 28.9187 3.02077 28.9781C3.08242 29.4533 3.39066 29.3345 3.6989 29.3939C3.94549 29.3939 4.06879 29.2157 4.31538 29.1563C4.56197 29.0375 4.68528 29.3345 4.87022 29.3939C4.93187 29.3939 5.05516 29.3939 5.11681 29.3345C5.30175 29.2157 5.4867 29.1563 5.73329 29.1563C6.65802 29.1563 7.58274 29.2751 8.44581 28.9187C8.50746 28.9187 8.50747 28.9187 8.56912 28.9187C8.56912 28.9781 8.50746 28.9781 8.44581 29.0375C8.44581 29.0375 8.38417 29.0375 8.38417 29.0969C8.01428 29.1563 7.70604 29.2157 7.33615 29.2751C7.2745 29.2751 7.21285 29.2751 7.08955 29.3345H7.15121C6.90461 29.3939 6.71967 29.5127 6.53472 29.6315C6.59637 29.8691 6.65801 30.0474 6.78131 30.1662C6.22648 30.2256 5.73329 30.4038 5.2401 30.6414C5.17846 30.6414 5.17846 30.6414 5.11681 30.6414C4.93186 30.7008 4.80857 30.8196 4.62362 30.8196C4.43868 30.879 4.31538 30.5226 4.06879 30.7602C3.88385 30.9384 3.76055 30.6414 3.63725 30.6414C3.51396 30.6414 3.39066 30.6414 3.26736 30.6414C3.20571 30.6414 3.20571 30.7008 3.14407 30.7008C2.89747 30.879 2.71253 31.176 2.40429 31.2354C2.34264 31.2354 2.34263 31.3542 2.46593 31.4136C2.58923 31.473 2.77418 31.4136 2.71253 31.5918C2.71253 31.7107 2.46593 31.8889 2.46593 31.8889C2.15769 31.7107 1.84945 32.0671 1.6645 31.9483C1.29461 31.6512 1.10967 31.8889 0.986376 32.1859C0.924728 32.4829 0.739781 32.5423 0.493188 32.5423C0.369892 32.5423 0.246591 32.5423 0.123295 32.5423C0.0616464 32.5423 0 32.6611 0 32.7205L0.061652 32.8393C0.246597 32.9581 0.431538 33.0769 0.616483 33.1957C0.986373 33.4333 1.47956 33.4927 1.54121 34.0868C1.54121 34.1462 1.72615 34.2056 1.84945 34.265C1.97275 34.3244 2.15769 34.3244 2.21934 34.3838C2.28099 34.5026 2.34263 34.7402 2.28098 34.9184C2.28098 35.0966 2.1577 35.2154 2.09605 35.3937C2.34264 35.4531 2.46593 35.7501 2.65088 35.8689C2.89747 36.0471 3.26736 35.9283 3.51395 36.1659C3.63725 36.2847 3.88384 36.2253 3.88384 35.9877C3.94549 35.7501 4.06879 35.6907 4.25374 35.6907C4.62363 35.6907 4.93186 35.2748 5.3634 35.3343C5.3634 35.3343 5.4867 35.2154 5.4867 35.0966C5.4867 35.0372 5.42505 34.9184 5.3634 34.859C5.2401 34.7402 5.05516 34.6808 4.93186 34.6214C4.80857 34.5026 4.74692 34.3244 4.68527 34.1462C4.68527 33.968 4.74692 33.7304 4.93186 33.7304C5.17846 33.7304 5.4867 33.7304 5.73329 33.7304C5.97989 33.7304 6.10318 33.9086 5.97988 34.2056C5.79494 34.6214 5.85659 34.6214 6.16483 34.859C6.28813 34.9184 6.34977 35.0372 6.47307 35.156C6.59637 35.2748 6.65801 35.3936 6.90461 35.2154C7.2745 34.9778 7.70604 34.9778 8.01428 35.156C8.44582 35.4531 9.00065 35.2154 9.37054 35.4531C9.86372 35.7501 10.2953 35.5125 10.7885 35.6313C10.9117 35.6313 11.035 35.6313 11.1583 35.6313C11.2816 35.6313 11.4666 35.6907 11.5282 35.7501C11.8365 36.1065 12.268 36.2253 12.6996 36.1659C13.1927 36.5817 13.7476 36.5817 14.3024 36.2847C14.364 36.2253 14.4873 36.4035 14.6106 36.4629C14.7339 36.5817 14.6723 36.7005 14.549 36.7005C14.3024 36.7599 14.0558 37.0569 13.7476 36.7005H13.6243C13.3777 36.9381 13.1927 36.9381 12.9461 36.7005C12.8845 36.6411 12.7612 36.7005 12.6996 36.7599C12.6996 36.7599 12.6996 36.8193 12.6996 36.8787C12.8845 37.5322 13.0078 37.5916 13.6243 37.4134C14.1791 37.2352 14.7339 37.1758 15.5354 37.4134C15.7203 37.4728 15.9053 37.1758 16.0902 37.4134C16.2135 37.5322 16.3368 37.354 16.3984 37.2946C16.5217 37.2351 16.645 37.2352 16.7683 37.354C16.9533 37.5322 17.1382 37.5322 17.3232 37.354C17.5081 37.1757 17.7547 37.1758 17.9397 37.2352C18.4328 37.354 18.8644 37.7104 19.3576 37.2352C19.4192 37.1758 19.6042 37.2946 19.7275 37.354C19.974 37.5322 20.2823 37.5322 20.4672 37.4134C20.9604 37.1163 21.4536 37.2351 22.0084 37.1757C22.8715 37.1757 23.7346 37.1163 24.6593 37.1757C24.9059 37.1757 25.1525 37.1163 25.3991 36.9975C25.7073 37.2946 25.9539 37.1758 26.2005 36.9381C26.7554 37.1163 27.1869 36.5817 27.7417 36.6411C28.05 36.6411 28.3582 36.5817 28.6665 36.6411C29.0363 36.7005 29.2829 36.3441 29.6528 36.3441C29.8378 36.3441 30.0844 36.3441 30.2693 36.2253C30.7008 35.9877 31.1324 35.9877 31.5023 36.1659C31.8105 36.3441 32.0571 36.3441 32.3653 36.2253C32.7969 36.0471 33.1668 35.7501 33.66 36.0471C33.7216 36.0471 33.8449 35.9877 33.9066 35.9877C34.2148 35.7501 34.4614 35.7501 34.7696 35.9877C34.9546 36.1659 35.2012 36.2253 35.3861 36.1065C35.756 35.8095 36.1259 35.8689 36.4958 35.8689C36.8657 35.8689 37.1739 35.8689 37.4822 35.6907C37.8521 35.5125 38.3452 35.5125 38.7151 35.7501C39.0234 35.9283 39.3933 35.9283 39.7015 35.7501C39.8864 35.6313 40.0097 35.6313 40.1947 35.6313C40.4413 35.5719 40.5029 35.9877 40.7495 35.7501C40.9961 35.5719 41.2427 35.6313 41.4893 35.6313C42.2907 35.6313 43.0921 35.6313 43.8319 35.6313C46.6677 35.6313 49.4419 35.6313 52.2777 35.6313C52.5243 35.6313 52.8326 35.6907 53.0175 35.5125C53.2641 35.3342 53.5724 35.7501 53.819 35.3937C54.1272 35.3937 54.4354 35.3937 54.7437 35.3937C55.4218 35.3937 56.1616 35.3937 56.8397 35.3937C57.0863 35.3937 57.3329 35.4531 57.4562 35.3343C57.7644 35.0966 58.1343 35.156 58.4426 35.156C58.6892 35.156 58.9974 35.2154 59.244 35.0966C59.6755 34.859 60.1071 34.9184 60.5386 34.9184C60.9702 34.9184 61.4633 34.9184 61.8949 34.9184C62.3264 35.0372 62.758 35.2154 63.1895 35.5125L62.758 35.2748C62.6963 35.156 63.0045 35.0966 63.2511 35.0372C63.1895 35.0372 63.1895 34.9778 63.1278 34.9778C64.1142 34.9778 65.0389 34.9778 66.0253 34.9778C66.3952 34.9778 66.7651 34.9778 67.1966 34.7996C67.5665 34.6214 68.0597 34.7402 68.4912 34.7402C69.231 35.2154 70.0325 34.9184 70.8339 34.9184C71.3271 34.562 71.8203 34.6808 72.3751 34.6808C72.745 34.6808 73.2382 34.7402 73.5464 34.562C73.6081 34.5026 73.6697 34.5026 73.793 34.4432C74.2862 34.562 75.026 34.7402 76.2589 34.859C78.4783 34.562 81.1292 34.1462 83.78 34.265C84.7048 34.3244 85.5678 34.7402 85.4445 34.9778C86.6158 34.9184 88.2187 34.9184 89.39 34.9778C93.952 34.0868 88.2187 33.1957 86.3076 33.0769ZM83.5334 26.4832C83.5334 26.4238 83.6567 26.4832 83.6567 26.4832C83.6567 26.4832 83.5334 26.4832 83.6567 26.5426C83.6567 26.5426 83.5334 26.5426 83.4718 26.602C83.4101 26.4832 83.6567 26.4832 83.5334 26.4832ZM82.6703 26.3644C82.732 26.3644 82.7937 26.3644 82.8553 26.3644C82.7937 26.4238 82.732 26.4238 82.6703 26.4832C82.6087 26.4832 82.6703 26.4238 82.6703 26.3644ZM82.3005 26.3644C82.2388 26.4238 82.4238 26.3644 82.4854 26.3644C82.5471 26.3644 82.4238 26.4238 82.5471 26.4238C82.5471 26.4832 82.3621 26.4238 82.3621 26.4832C82.2388 26.4832 82.3005 26.4238 82.2388 26.4832C82.1772 26.4832 82.3005 26.4832 82.2388 26.5426C82.2388 26.5426 82.1772 26.5426 82.1155 26.5426C82.1155 26.5426 82.1772 26.4832 82.1155 26.4832C81.9922 26.5426 82.0539 26.5426 81.8689 26.4832C81.8689 26.4238 81.9922 26.4238 82.0539 26.4238C82.0539 26.4238 81.9922 26.4238 81.9306 26.4238C82.0539 26.305 82.1155 26.4238 82.3005 26.3644ZM81.7456 26.3644C81.8073 26.3644 81.8689 26.3644 81.8689 26.3644C81.9306 26.3644 81.8689 26.3644 81.7456 26.3644C81.7456 26.4238 81.8073 26.4832 81.684 26.4238V26.3644C81.7456 26.4238 81.7456 26.3644 81.7456 26.3644ZM82.3621 25.7109C82.4854 25.7703 82.6087 25.7109 82.6703 25.7703C82.4854 25.7703 82.3621 25.8297 82.3005 25.7703C82.3621 25.7703 82.4238 25.7703 82.3621 25.7109ZM85.9377 21.3745C85.8144 21.3745 86.1227 21.4339 85.9377 21.3745C85.9994 21.3151 86.1227 21.3745 86.246 21.3745C86.246 21.3745 86.1843 21.3745 86.1227 21.3745C86.061 21.3745 86.1227 21.4339 86.061 21.4339C86.061 21.4933 86.061 21.3745 85.9377 21.3745ZM86.1227 21.5527C86.1227 21.5527 86.1227 21.6121 86.1227 21.5527C85.9994 21.6121 86.1227 21.4933 86.3076 21.5527C86.3076 21.5527 86.1843 21.5527 86.1227 21.5527ZM86.4309 21.6121C86.4309 21.6121 86.4309 21.6715 86.4309 21.6121C86.3076 21.6715 86.3693 21.6121 86.3076 21.6121C86.3693 21.6121 86.4926 21.6121 86.5542 21.6121C86.4926 21.6715 86.4309 21.6715 86.4309 21.6121ZM86.6159 21.4339C86.6159 21.3745 86.7391 21.4339 86.9241 21.4339H86.6159ZM86.6775 21.3745C86.4925 21.3745 86.4925 21.3745 86.3692 21.3151C86.3692 21.2557 86.4926 21.3151 86.5542 21.3151C86.7391 21.1963 86.9241 21.3151 87.1707 21.2557C87.2323 21.3151 87.294 21.2557 87.4173 21.3151C87.2323 21.3745 86.8624 21.2557 86.6775 21.3745ZM87.4789 21.3151C87.4789 21.2557 87.5406 21.2557 87.6022 21.2557C87.6639 21.2557 87.6639 21.3151 87.6639 21.3151C87.6022 21.3151 87.5406 21.3151 87.4789 21.3151ZM89.8832 20.7805C89.9448 20.8399 89.8832 20.8399 89.8832 20.8993C89.6983 20.8993 89.7599 20.8399 89.575 20.8993C89.5133 20.8399 89.6983 20.8993 89.6983 20.8399C89.6983 20.7804 89.4517 20.8399 89.5133 20.7805C89.6982 20.7805 89.8216 20.8399 89.8832 20.7805ZM92.719 20.4834C92.719 20.5428 92.5957 20.5428 92.5341 20.5428C92.4724 20.4834 92.6574 20.4834 92.719 20.4834ZM91.3628 20.4834C91.2395 20.5428 91.1778 20.4834 91.0545 20.4834V20.424C91.2395 20.424 91.3011 20.424 91.3628 20.4834ZM89.4517 20.8399C89.39 20.8399 89.3284 20.8399 89.2667 20.8399C89.2667 20.7804 89.5133 20.7804 89.4517 20.8399ZM89.1434 20.5428C89.2051 20.6022 88.8968 20.6022 88.9585 20.6022C88.8968 20.5428 89.0818 20.5428 89.1434 20.5428ZM88.5886 20.424C88.5269 20.4834 88.342 20.424 88.2803 20.424C88.2187 20.3052 88.5269 20.3646 88.5886 20.424ZM88.6502 21.3151C88.5886 21.3151 88.4036 21.3151 88.342 21.2557C88.4653 21.2557 88.5886 21.1963 88.6502 21.3151ZM88.342 22.0279C88.2803 22.0873 88.2803 22.0873 88.342 22.1467C88.1571 22.1467 88.0954 22.0873 88.0338 22.2061C87.9105 22.2061 87.7255 22.0279 87.9721 22.0279C87.9105 22.0279 88.2187 21.9685 88.342 22.0279ZM88.0954 21.8497C88.0954 21.9091 87.9105 21.8497 87.9721 21.9091C87.9105 21.9091 87.8488 21.9091 87.7872 21.9091C87.7872 21.7903 88.0338 21.8497 88.0954 21.8497ZM88.0338 21.2557C88.0338 21.3151 87.8488 21.2557 87.7872 21.2557C87.7872 21.1963 87.9721 21.2557 88.0338 21.2557ZM86.9857 20.8399C87.1707 20.8399 87.294 20.8399 87.4789 20.8399C87.4789 20.8993 87.6022 20.8993 87.7255 20.8993C87.7872 20.8993 87.5406 20.8993 87.6639 20.9587C87.5406 20.9587 87.4789 20.8993 87.3556 20.9587V20.8993C87.2323 20.8993 87.1707 20.8993 86.9857 20.8399C86.9857 20.8993 86.9857 20.8993 86.9857 20.8993C86.8624 20.8993 87.0474 20.8993 86.9857 20.8399ZM86.8008 20.8993C86.8624 20.8399 86.8624 20.9587 86.9241 20.8993C86.9241 20.9587 86.7391 20.9587 86.6775 20.9587C86.5542 20.8993 86.9241 20.8993 86.8008 20.8993ZM85.9377 20.8399C85.9994 20.8993 85.9377 20.8993 85.8761 20.9587C85.7528 20.9587 85.6911 20.9587 85.6911 20.8399C85.7528 20.8399 85.8144 20.8399 85.9377 20.8399ZM85.6295 20.8399C85.5678 20.8993 85.7528 20.8993 85.7528 20.9587C85.5062 20.8993 85.2596 20.8399 85.013 20.8399C85.1363 20.8399 85.4445 20.8993 85.6295 20.8399ZM68.6145 15.1371C68.7378 15.1371 68.8611 15.1371 68.9228 15.1371V15.1965C68.8611 15.2559 68.7995 15.2559 68.6145 15.2559C68.5529 15.2559 68.5529 15.2559 68.5529 15.1965C68.5529 15.1371 68.5529 15.1371 68.6145 15.1371ZM65.7787 15.2559C65.5938 15.2559 65.4705 15.3153 65.4088 15.3153C65.1006 15.3153 64.9773 15.3153 64.854 15.1965V15.1371C64.9156 15.0777 64.9773 15.0777 64.9773 15.0777C65.1006 15.0777 65.1622 15.1371 65.2855 15.1965C65.4705 15.1965 65.7171 15.0777 65.7787 15.2559ZM64.7307 14.7807C64.7307 14.7807 64.854 14.7807 64.9156 14.7213C64.9156 14.6619 64.9773 14.6619 64.9773 14.6619C65.0389 14.6619 65.1006 14.6619 65.0389 14.7213C64.9773 14.7213 64.9156 14.7213 64.854 14.7807C64.854 14.7807 64.854 14.7807 64.854 14.8401C64.854 14.8401 64.854 14.8995 64.7923 14.8995C64.7307 14.8401 64.6691 14.8401 64.7307 14.7807ZM3.76055 34.265C3.76055 34.265 3.6989 34.2056 3.6989 34.1462C3.6989 34.1462 3.6989 34.1462 3.6989 34.0868V34.0274C3.6989 34.0274 3.6989 34.0274 3.76055 34.0274C3.76055 34.0274 3.76054 34.0274 3.82219 34.0274C3.88384 34.1462 3.8222 34.2056 3.76055 34.265ZM79.7729 26.7802C79.7729 26.7802 79.7112 26.7802 79.7729 26.7802C78.7865 26.899 78.4783 27.196 78.4166 27.493C78.2317 27.493 77.9851 27.493 77.8618 27.4336C77.7385 27.4336 77.5535 27.5524 77.4919 27.4336C77.3686 27.4336 77.4303 27.493 77.307 27.493C77.2453 27.493 77.307 27.3742 77.2453 27.3742C77.2453 27.4336 77.122 27.3742 77.0604 27.4336C76.9987 27.3742 76.8138 27.3742 76.7521 27.3148C76.8754 27.3148 77.122 27.2554 76.9987 27.196C76.8754 27.3148 76.6905 27.3148 76.4439 27.3148C76.3822 27.3148 76.2589 27.2554 76.1973 27.2554C76.1973 27.2554 76.1356 27.2554 76.1356 27.196C76.074 27.196 76.074 27.196 76.074 27.196C76.0123 27.196 75.9507 27.1366 75.889 27.1366C75.889 27.1366 75.889 27.1366 75.889 27.0772C75.9507 27.0772 76.0123 27.0772 76.0123 27.0772C76.0123 26.9584 75.8274 26.9584 75.6424 26.9584C75.7041 26.9584 75.7041 26.899 75.7657 26.899C75.889 26.899 76.074 26.899 76.3206 26.899C76.3822 26.8396 76.3206 26.8396 76.2589 26.8396C76.3206 26.7802 76.4439 26.7802 76.5672 26.8396C76.5672 26.899 76.5672 26.899 76.5055 26.9584C76.4439 26.9584 76.3822 26.9584 76.3822 26.9584C76.3822 26.9584 76.3822 27.0178 76.4439 27.0178H76.5055C76.5055 26.9584 76.5055 26.9584 76.5672 26.9584C76.5672 27.0178 76.5672 27.0178 76.5055 27.0772H76.4439C76.3206 27.0772 76.2589 27.1366 76.1356 27.1366C76.074 27.196 76.1973 27.196 76.074 27.196C76.1973 27.196 76.3206 27.196 76.1973 27.1366C76.2589 27.1366 76.3822 27.1366 76.5055 27.1366C76.5055 27.1366 76.6288 27.196 76.6905 27.2554C76.6905 27.196 76.6905 27.196 76.7521 27.1366C76.8754 27.1366 76.9987 27.1366 77.0604 27.0772C76.9987 27.0772 76.9987 27.0772 76.9371 27.0772C76.9371 27.0772 76.8754 27.1366 76.7521 27.1366C76.7521 27.0772 76.7521 27.0772 76.8138 27.0178H76.8754H76.8138C76.8754 27.0178 76.9371 27.0178 76.9371 27.0178C76.8754 27.0178 76.8138 27.0178 76.8138 27.0178L76.7521 26.9584C76.9371 26.9584 77.0604 26.9584 77.1837 26.899C77.122 26.899 76.9987 26.899 76.8754 26.8396C77.4919 26.8396 77.8001 26.8396 78.4166 26.8396L78.355 26.899C78.4783 26.899 78.5399 26.8396 78.7249 26.8396C78.7249 26.8396 78.7249 26.899 78.7865 26.899C78.7865 26.899 78.8482 26.899 78.9098 26.899C78.9098 26.8396 78.7865 26.899 78.7865 26.8396C78.9715 26.7802 79.2797 26.8396 79.5263 26.7802C79.5879 26.8396 79.7729 26.8396 79.8345 26.8396C79.8962 26.7802 79.7729 26.7208 79.8962 26.7208C79.7729 26.6614 79.9578 26.7208 79.7729 26.7802ZM82.0539 25.1169C82.0539 25.1763 81.9306 25.1169 81.9306 25.1169C81.9306 25.0575 81.9922 25.0575 82.0539 25.1169C82.0539 25.0575 81.9922 25.0575 82.0539 25.1169C81.9922 25.1169 81.9922 25.1169 82.0539 25.1169ZM81.9306 24.9981C81.8073 24.9387 81.5607 24.9981 81.4374 25.0575C81.3757 24.9981 81.3141 24.9981 81.1908 24.9387C81.1908 24.9387 81.2524 24.9981 81.1908 24.9981C81.0675 24.9981 81.0675 24.9387 80.9442 24.9387C80.9442 24.9981 80.9442 24.9981 80.8825 24.9981C80.7593 24.8199 80.6359 24.7605 80.5127 24.6417C80.6976 24.5823 80.8826 24.6417 81.0059 24.6417C81.1292 24.6417 80.9442 24.5823 81.0059 24.5823C81.3757 24.6417 81.7456 24.7605 81.9922 24.9387C81.9922 24.9981 81.9922 24.9981 81.9306 24.9981ZM77.122 24.7605H77.1837H77.122ZM77.4919 25.4139C77.6152 25.4139 77.6152 25.4139 77.6768 25.4139C77.6768 25.4139 77.6768 25.4139 77.6768 25.4733C77.6152 25.4139 77.4919 25.4733 77.4919 25.4139ZM79.9578 26.6614C79.8962 26.6614 79.8962 26.602 79.8345 26.602C79.8962 26.5426 80.0811 26.602 79.9578 26.6614ZM80.451 26.5426C80.451 26.602 80.3894 26.602 80.451 26.6614C80.3277 26.6614 80.1428 26.6614 80.1428 26.602C80.451 26.602 80.3277 26.5426 80.451 26.5426ZM81.684 25.6515C81.6223 25.6515 81.5607 25.7109 81.499 25.6515C81.499 25.5921 81.6223 25.6515 81.6223 25.5921C81.499 25.5921 81.499 25.5327 81.3757 25.5921C81.3141 25.7109 80.8209 25.7109 80.8825 25.5921C80.7593 25.6515 80.6359 25.6515 80.8209 25.6515C80.6976 25.6515 80.451 25.6515 80.5127 25.7109C80.5127 25.6515 80.3894 25.7109 80.3894 25.6515C80.3894 25.5921 80.5743 25.6515 80.5743 25.5921C80.5743 25.5327 80.3277 25.5921 80.3277 25.5921C80.451 25.5921 80.3277 25.5327 80.451 25.5327C80.3894 25.5921 80.5127 25.5921 80.5743 25.5327C80.5127 25.5921 80.5743 25.5921 80.6976 25.5921C80.5743 25.5327 80.636 25.5327 80.7593 25.4733C80.5743 25.4733 80.3277 25.4733 80.1428 25.4733C80.2044 25.4733 80.0195 25.5327 80.0195 25.5327C79.7729 25.5921 79.6496 25.4733 79.403 25.5327C79.4646 25.5327 79.403 25.4733 79.403 25.4733H79.4646C79.5263 25.4733 79.7112 25.4733 79.7112 25.4733C79.6496 25.4733 79.7112 25.4733 79.7112 25.4139C79.6496 25.4139 79.5879 25.4139 79.5263 25.4139C79.5263 25.4139 79.5879 25.3545 79.5879 25.2951C79.5879 25.2951 79.5879 25.2951 79.6496 25.2951C79.6496 25.2951 79.6496 25.3545 79.7112 25.3545C79.7729 25.3545 79.9578 25.3545 79.8962 25.2951C79.6496 25.3545 79.7729 25.2357 79.6496 25.1763V25.1169C79.7112 25.1169 79.8345 25.1169 79.8962 25.1169C79.8345 25.1169 79.8345 25.1169 79.8962 25.1169C80.0195 25.1169 80.0811 25.1169 80.1428 25.1763C80.1428 25.1169 80.1428 25.1169 80.2661 25.1169C80.2661 25.0575 80.2044 25.0575 80.2044 25.0575C80.3277 25.0575 80.451 25.0575 80.5127 25.0575C80.5743 25.0575 80.636 25.1169 80.636 25.1763C80.636 25.1763 80.636 25.1763 80.6976 25.2357C80.451 25.2951 80.1428 25.2357 80.0195 25.2357C80.0811 25.2951 80.2661 25.2357 80.3277 25.2951C80.0811 25.2951 79.9578 25.2357 79.8345 25.2357C79.8345 25.2951 80.0195 25.3545 80.1428 25.3545C80.2044 25.4733 79.8345 25.4139 79.7729 25.4733C79.9578 25.4733 80.1428 25.4139 80.2661 25.3545C80.3894 25.4139 80.5127 25.4139 80.7593 25.4139C80.636 25.3545 80.6976 25.4139 80.6976 25.2951C80.636 25.2951 80.5743 25.3545 80.5743 25.2951C80.5743 25.2357 80.7593 25.2357 80.7593 25.2357C80.8209 25.2357 80.8826 25.2951 80.9442 25.2357H81.0059C81.0675 25.2357 81.0675 25.2951 81.0675 25.2951C80.9442 25.2951 80.8826 25.2951 80.7593 25.2951C80.8209 25.3545 80.7593 25.4139 80.8825 25.4139C80.8825 25.3545 80.8209 25.3545 80.8209 25.3545C80.9442 25.3545 81.1291 25.3545 81.1291 25.4139C81.1291 25.3545 81.5607 25.4139 81.3757 25.3545C81.4374 25.3545 81.499 25.3545 81.499 25.3545C81.499 25.4139 81.499 25.4139 81.499 25.4733C81.6223 25.5921 81.684 25.5921 81.684 25.6515C81.684 25.6515 81.7456 25.6515 81.684 25.6515ZM81.684 25.5921C81.7456 25.5327 81.8073 25.5921 81.8073 25.5327C81.9922 25.5327 81.9922 25.5327 82.1155 25.5327C82.0539 25.5921 81.8073 25.5921 81.684 25.5921ZM81.9306 25.6515C82.1155 25.6515 81.8689 25.7109 81.8073 25.7109C81.8073 25.6515 81.8689 25.5921 81.9306 25.6515C81.9922 25.6515 82.1155 25.6515 82.1772 25.6515C82.1155 25.7109 82.0539 25.5921 81.9306 25.6515ZM81.684 25.3545C81.684 25.3545 81.7456 25.3545 81.684 25.3545C81.6223 25.3545 81.499 25.4139 81.3757 25.4139C81.3757 25.3545 81.3757 25.3545 81.2524 25.3545C81.3141 25.4139 81.0675 25.4139 81.0675 25.3545V25.4139C81.0059 25.3545 81.2524 25.3545 81.1291 25.3545C81.1291 25.3545 81.0675 25.3545 81.0059 25.3545C81.0675 25.2951 81.0675 25.2951 81.0675 25.2951C81.1292 25.2951 81.0675 25.3545 81.1908 25.3545C81.1908 25.2951 81.3757 25.2357 81.4374 25.2951C81.4374 25.3545 81.3141 25.2951 81.4374 25.3545C81.499 25.2951 81.684 25.3545 81.684 25.2357C81.8689 25.2951 81.8689 25.2357 82.0539 25.2357C82.1155 25.1763 82.0539 25.1763 82.0539 25.1763C82.1155 25.1763 82.1772 25.1763 82.1772 25.1763C82.2388 25.2357 82.3005 25.2951 82.3621 25.3545C82.1772 25.3545 81.8689 25.4139 81.684 25.3545ZM84.3349 23.3942C84.3349 23.2754 84.5198 23.3348 84.7048 23.3348C84.6431 23.3942 84.4582 23.3348 84.3349 23.3942ZM85.4445 23.3348C85.4445 23.3348 85.5062 23.3348 85.5678 23.3348V23.3942H85.6295C85.5678 23.3942 85.3829 23.3942 85.4445 23.3348C85.1979 23.3942 84.9513 23.3348 84.7048 23.2754C84.8897 23.2754 85.1363 23.216 85.3829 23.216C85.3829 23.216 85.2596 23.216 85.3212 23.2754C85.3212 23.2754 85.4445 23.2754 85.4445 23.3348ZM85.8761 22.0279C85.9377 22.0279 85.9994 22.0279 86.061 22.0279H85.8761C85.8761 22.0873 85.8761 22.0873 85.8761 22.0279ZM85.8144 22.0873L85.6295 22.1467C85.5678 22.1467 85.5678 22.1467 85.5678 22.0873C85.6295 22.0873 85.7528 22.0873 85.8144 22.0873ZM84.3965 21.8497C84.4582 21.9091 84.5198 21.9091 84.4582 21.8497C84.5815 21.9091 84.8897 21.8497 84.9513 21.9091C84.9513 21.9685 84.8897 21.9685 84.9513 22.0279C84.7664 22.0873 84.4581 22.0873 84.2116 22.0873C84.2116 22.1467 84.2732 22.1467 84.2732 22.1467C84.2732 22.0873 84.2732 22.0873 84.3965 22.0873C84.4582 22.1467 84.4582 22.1467 84.3965 22.1467C84.4582 22.1467 84.5814 22.1467 84.5814 22.1467C84.5198 22.1467 84.4582 22.1467 84.4582 22.1467C84.4582 22.2061 84.7664 22.2655 84.828 22.2061C84.7664 22.2061 84.7664 22.2061 84.7048 22.1467C84.7664 22.1467 84.7664 22.1467 84.828 22.0873C84.9513 22.0873 84.8897 22.1467 84.9513 22.1467C85.013 22.0873 85.013 22.2061 85.013 22.2061C85.013 22.2061 85.0746 22.1467 85.1363 22.1467C85.1363 22.1467 85.1363 22.1467 85.1363 22.2061L84.8897 22.2655C84.8897 22.2655 84.8897 22.2061 84.828 22.2655C84.4581 22.2061 84.2116 22.1467 84.0266 22.0873C84.0883 22.0873 84.1499 22.0279 84.2116 22.0279C84.0883 22.0279 83.9033 21.9685 83.78 21.9091C83.78 21.8497 83.78 21.8497 83.78 21.7903C83.78 21.7903 83.78 21.7903 83.8417 21.7903C83.8417 21.7903 83.78 21.7903 83.8417 21.8497C84.1499 21.8497 83.965 21.9685 84.2732 21.9685C84.3349 21.9685 84.3349 21.9091 84.4582 21.8497C84.2732 21.9685 84.3349 21.8497 84.3965 21.8497ZM84.7048 21.1369C84.7664 21.0775 84.7664 21.0775 84.828 21.0775C84.8897 21.1369 84.7664 21.1369 84.7048 21.1369ZM84.8897 20.9587C84.7664 20.9587 84.828 20.8993 84.7048 20.9587C84.6431 20.8399 84.8897 20.8993 84.8897 20.9587ZM82.732 20.3052C82.7936 20.2458 82.917 20.3052 82.917 20.3646C82.7937 20.424 82.8553 20.3052 82.732 20.3052ZM78.2933 21.3151C78.2933 21.3745 78.2317 21.3745 78.17 21.4339C78.17 21.3745 78.17 21.3745 78.17 21.3151C78.2317 21.3151 78.2933 21.3151 78.2933 21.3151ZM53.5107 17.2757C53.5107 17.3351 53.3874 17.3945 53.3258 17.3945C53.0792 17.3945 52.8326 17.3945 52.586 17.3351C52.5243 17.3351 52.5243 17.2757 52.5243 17.2163C52.4627 17.2163 52.4011 17.2163 52.4011 17.1569C52.3394 17.0974 52.401 17.0974 52.4627 17.0974C52.5243 17.0974 52.5243 17.1569 52.5243 17.1569C52.586 17.1569 52.6476 17.1568 52.7093 17.0974C52.9559 16.9786 53.1408 16.9786 53.3258 17.0974C53.3874 17.2757 53.4491 17.2757 53.5107 17.2757C53.5724 17.2757 53.5724 17.2163 53.5107 17.2757C53.5724 17.2163 53.5724 17.2163 53.634 17.1569C53.6957 17.1569 53.7573 17.1569 53.6957 17.2163C53.6957 17.2757 53.5724 17.2757 53.5107 17.2757ZM52.2777 16.0282H52.2161C52.1544 16.0282 52.0928 15.9688 52.0312 15.9688C51.9695 15.9688 51.9695 15.9094 51.9695 15.85C52.0312 15.85 52.0928 15.85 52.1544 15.85C52.2777 15.85 52.401 15.9094 52.3394 15.9688C52.3394 15.9688 52.2777 15.9688 52.2777 16.0282ZM66.8267 18.6419C66.7035 18.6419 66.6418 18.6419 66.5185 18.5825V18.5231C66.5802 18.5231 66.6418 18.5231 66.7034 18.5825C66.8267 18.6419 66.8267 18.6419 66.8267 18.6419ZM63.621 15.0183C63.9293 14.9589 64.1142 15.1371 64.4225 15.1965C64.4841 15.1965 64.4841 15.2559 64.4841 15.2559C64.4225 15.2559 64.3608 15.2559 64.2375 15.3153C64.1142 15.3153 64.0526 15.3748 64.0526 15.4342C64.1759 15.4342 64.2375 15.4342 64.3608 15.4342C64.4225 15.4342 64.4225 15.4342 64.4225 15.4936C64.4225 15.4936 64.3608 15.553 64.2992 15.553C64.1759 15.553 64.0526 15.553 63.9909 15.553C64.0526 15.6124 64.1142 15.6718 64.1142 15.7312C64.1759 15.7906 64.1759 15.85 64.1759 15.85C63.9909 16.0282 63.7443 16.147 63.3744 16.2064C63.3128 16.2064 63.2512 16.147 63.1895 16.147C63.3744 16.0282 63.4977 15.9688 63.3128 15.7906C63.1278 15.6718 62.9429 15.6124 62.6347 15.6124C62.573 15.6124 62.573 15.6124 62.5114 15.553C62.5114 15.553 62.5114 15.553 62.4497 15.553H62.5114H62.573C63.0046 15.553 63.4977 15.553 63.9293 15.553C63.9293 15.4936 63.9293 15.4936 63.9293 15.4342C63.621 15.3748 63.4977 15.256 63.3128 15.1371L63.2511 15.0777C63.4977 15.0183 63.5594 15.0183 63.621 15.0183ZM61.8332 14.8995L61.8949 14.8401H61.9565C62.0798 14.9589 62.1415 15.0183 62.2648 15.1371C62.4497 15.256 62.5114 15.1371 62.5114 15.0777L62.6347 15.0183C62.6347 15.0777 62.6963 15.0777 62.6963 15.1371C62.6963 15.3748 62.6347 15.3748 62.0798 15.3748C61.7716 15.3748 61.7099 15.3153 61.7099 15.1965C61.8332 15.0777 61.8332 15.0183 61.8332 14.8995ZM59.9221 15.0777H59.9838C59.9838 15.0777 59.9838 15.1371 59.9221 15.0777C59.9221 15.1371 59.8605 15.1371 59.8605 15.1371C59.8605 15.0777 59.8605 15.0777 59.9221 15.0777ZM59.4906 15.7906C59.5523 15.7312 59.6139 15.6718 59.7988 15.6718C59.9838 15.6718 60.1687 15.6718 60.292 15.6718C60.7236 15.7906 61.1551 15.7906 61.5866 15.85C61.6483 15.85 61.7099 15.9094 61.7099 15.9094C61.7099 15.9688 61.7099 16.0282 61.525 16.0876C61.34 16.0876 61.2168 16.147 61.2168 16.2064C61.4633 16.2658 61.7099 16.444 62.0798 16.2658C62.2648 16.2064 62.573 16.2658 62.8196 16.2658C62.8813 16.2658 62.9429 16.3252 62.9429 16.3846C63.0045 16.444 62.8813 16.5034 62.758 16.5034C61.8332 16.5034 60.9085 16.444 59.9838 16.444C59.7988 16.444 59.6755 16.3846 59.6755 16.2658C59.6755 16.2064 59.5523 16.147 59.4906 16.0876C59.429 16.0282 59.244 15.9688 59.244 15.9094C59.3056 15.9688 59.429 15.85 59.4906 15.7906ZM51.2914 15.1371C51.4147 15.1371 51.5996 15.1965 51.7229 15.2559C51.9079 15.3154 52.0928 15.3154 52.3394 15.2559C52.401 15.2559 52.5243 15.1965 52.5243 15.1965C53.0792 15.4342 53.7573 15.2559 54.3738 15.3153C54.7437 15.3748 55.1752 15.3154 55.6068 15.4342C55.8533 15.4936 56.2849 15.4936 56.5931 15.4936C57.2713 15.4936 57.9494 15.4936 58.5042 15.6718C58.6892 15.7312 58.9974 15.6124 59.1207 15.7906C58.8741 15.9094 58.6275 15.7906 58.3809 15.85C58.196 15.85 57.9494 15.85 57.7644 15.85C57.4562 15.85 57.0863 15.85 56.7781 15.85C56.5315 15.85 56.2849 15.85 56.0383 15.9094C55.8534 15.9688 55.6068 15.9688 55.4835 15.9094C55.2985 15.7906 55.1136 15.9094 54.9903 15.9094C54.8053 15.85 54.6204 15.7906 54.4354 15.7312C54.2505 15.6718 54.0655 15.6718 53.819 15.6718C53.5724 15.6124 53.3258 15.7906 53.1408 15.7312C52.8942 15.6124 52.586 15.6718 52.2777 15.6718C52.0312 15.6718 51.7846 15.6718 51.538 15.6718C51.2914 15.6718 51.1064 15.6124 50.9831 15.553C50.9215 15.4936 50.8598 15.4342 50.8598 15.3748C50.9215 15.1371 51.1681 15.0777 51.2914 15.1371ZM47.0376 14.0085C47.1609 13.9491 47.2842 13.8303 47.4692 13.9491C47.5925 14.0085 47.6541 13.8897 47.7774 13.9491C47.8391 13.9491 47.9624 14.0085 47.9007 14.0085C47.9007 14.0679 47.8391 14.1273 47.7774 14.1867C47.7158 14.1867 47.5308 14.1867 47.4692 14.1867C47.3459 14.1867 47.2226 14.1867 47.0993 14.1867C46.976 14.0679 46.9143 14.0085 47.0376 14.0085ZM45.6814 14.3649H45.743C45.8047 14.3649 45.8047 14.4243 45.6814 14.4243C45.743 14.4243 45.6814 14.4243 45.6814 14.3649ZM45.0033 13.9491L45.0649 14.0085L45.0033 14.0679C44.88 14.0085 44.88 13.9491 45.0033 13.9491ZM44.2635 14.3055L44.3251 14.3649L44.2635 14.4243C44.1402 14.3649 44.1402 14.3055 44.2635 14.3055ZM44.0169 14.0679L44.0785 14.1273C44.0785 14.1273 44.0169 14.1273 44.0169 14.1867H43.9552C43.9552 14.0679 44.0169 14.0679 44.0169 14.0679ZM42.7223 14.4243C42.7223 14.4243 42.7839 14.4243 42.7839 14.4837C42.7839 14.4837 42.7223 14.4837 42.7223 14.5431H42.6606C42.6606 14.4837 42.6606 14.4243 42.7223 14.4243ZM37.6055 13.9491C37.6671 13.8897 37.7904 13.8897 37.9137 13.8897C38.037 13.9491 38.0986 13.9491 38.2219 14.0085C38.1603 14.0085 38.0986 14.0679 38.037 14.0679C37.9753 14.0679 37.9137 14.0679 37.7904 14.1273C37.7288 14.1273 37.7288 14.1273 37.6671 14.1273C37.6055 14.1273 37.5438 14.1273 37.4822 14.0679C37.5438 14.0085 37.5438 13.9491 37.6055 13.9491ZM36.5574 14.7213C36.5574 14.6619 36.5574 14.6619 36.5574 14.7213C36.6191 14.7213 36.6191 14.7213 36.6807 14.7213C36.6807 14.7213 36.6807 14.7213 36.6807 14.7807C36.6191 14.7213 36.5574 14.7213 36.5574 14.7213C36.4958 14.7213 36.4958 14.7213 36.5574 14.7213ZM34.9546 13.2956C34.9546 13.2956 35.0162 13.2956 35.0162 13.355C35.0162 13.355 34.9546 13.355 34.9546 13.4144H34.8929C34.8929 13.355 34.8929 13.355 34.9546 13.2956ZM33.8449 13.8303L33.9066 13.8897L33.8449 13.9491C33.7216 13.8897 33.7216 13.8303 33.8449 13.8303ZM31.9338 14.0085C31.9955 13.8897 32.1188 13.8897 32.3037 13.8897C32.3654 13.8897 32.3653 13.8897 32.3653 13.9491C32.427 13.9491 32.3654 14.0085 32.3037 14.0085C32.1804 14.0085 32.0571 14.0085 31.9338 14.0085L31.8722 14.0679H31.8105C31.7489 14.0085 31.8105 14.0085 31.9338 14.0085ZM28.6665 13.4144C28.913 13.4144 29.2213 13.4739 29.3446 13.355C29.5912 13.2362 29.7761 13.4739 29.9611 13.355C30.146 13.2956 30.4543 13.2956 30.6392 13.2362C30.8858 13.1768 31.1324 13.1768 31.379 13.1768C31.5023 13.1768 31.6256 13.2362 31.6256 13.2956C31.6256 13.355 31.5639 13.4144 31.4406 13.4144C31.2557 13.4144 31.0091 13.4144 30.8241 13.4144C30.7625 13.4144 30.7625 13.4739 30.7625 13.4739L30.8241 13.5332C30.9474 13.5332 31.0707 13.5332 31.194 13.5332C31.2557 13.5332 31.2557 13.5333 31.3173 13.5927C31.379 13.5927 31.3173 13.6521 31.194 13.6521C30.8858 13.6521 30.5159 13.6521 30.2077 13.7709C30.0227 13.8303 29.6528 13.8303 29.4679 13.7709C29.2829 13.7115 28.7281 13.7115 28.6665 13.4144ZM4.13043 19.5924C4.13043 19.5924 4.06879 19.5924 4.06879 19.533C4.13044 19.533 4.13044 19.533 4.19209 19.4736L4.25374 19.533C4.19209 19.533 4.19208 19.5924 4.13043 19.5924ZM3.82219 21.9685C3.82219 21.9091 3.88384 21.9091 3.88384 21.8497C3.94549 21.8497 4.00714 21.8497 4.13043 21.8497L4.19209 21.9091H4.25374C4.13044 21.9685 4.00714 22.0279 3.88384 22.0873C3.88384 22.0873 3.82219 22.0279 3.82219 21.9685ZM3.14407 24.1664C3.20571 24.107 3.26736 23.9882 3.32901 23.9882C3.39066 23.9288 3.51396 23.81 3.63725 23.81C3.76055 23.7506 3.8222 23.81 3.88384 23.8694C3.8222 23.9882 3.76055 24.0476 3.6989 24.1664C3.6989 24.2258 3.63725 24.2852 3.5756 24.3446C3.51395 24.3446 3.45231 24.3446 3.45231 24.3446C3.26736 24.2258 3.20571 24.1664 3.14407 24.1664ZM5.85659 28.087C5.79494 28.087 5.79494 28.0276 5.79494 28.0276C5.85659 28.0276 5.85659 27.9682 5.91824 27.9682C5.97989 27.9682 5.97989 28.0276 6.04153 28.0276C5.91824 28.0276 5.85659 28.087 5.85659 28.087ZM7.2745 32.0077C7.21285 31.9483 7.1512 31.9483 7.08955 31.8889C7.1512 31.8295 7.21285 31.7701 7.33615 31.7701C7.3978 31.7701 7.45944 31.8295 7.52109 31.8889C7.45944 31.9483 7.3978 32.0077 7.2745 32.0077ZM7.95263 31.7106L7.89098 31.6512C7.95263 31.6512 8.01428 31.6512 8.01428 31.6512L7.95263 31.7106ZM14.7956 35.6313L14.7339 35.5719C14.7339 35.5719 14.7339 35.5125 14.7956 35.5125H14.8572C14.9189 35.5125 14.9189 35.5719 14.7956 35.6313ZM15.4121 36.7005C15.3504 36.7599 15.2888 36.7599 15.2271 36.6411L15.2888 36.5817C15.2888 36.5817 15.3504 36.5817 15.3504 36.6411C15.4121 36.6411 15.4121 36.7005 15.4121 36.7005ZM16.5217 30.6414C16.4601 30.6414 16.3984 30.6414 16.3368 30.582C16.4601 30.582 16.5217 30.6414 16.645 30.6414C16.645 30.582 16.5834 30.6414 16.5217 30.6414ZM16.9533 36.9975C16.8916 36.9975 16.8916 36.9381 16.83 36.9381L16.8916 36.8787L16.9533 36.9381C17.0149 36.9381 16.9533 36.9381 16.9533 36.9975ZM19.0493 31.7106L18.9877 31.6512L19.0493 31.5918C19.111 31.5918 19.111 31.6512 19.111 31.6512L19.0493 31.7106ZM22.0084 31.7106C21.9468 31.7106 21.9468 31.7701 21.8851 31.7701C21.5769 31.8295 21.2687 31.7701 21.1454 31.4136C21.1454 31.4136 21.1454 31.3542 21.1454 31.2948C21.1454 31.2354 21.207 31.2354 21.2687 31.2354C21.4536 31.2948 21.6385 31.4136 21.7618 31.473C21.7618 31.5324 21.8235 31.5918 21.8235 31.6512C21.8851 31.6512 21.9468 31.5918 22.0084 31.5918C22.0084 31.5918 22.0084 31.5918 22.0701 31.5918C22.0084 31.5918 22.0084 31.6512 22.0084 31.7106ZM22.7482 31.7106L22.6866 31.6512C22.6866 31.6512 22.6866 31.5918 22.7482 31.5918H22.8099C22.8715 31.6512 22.8099 31.7106 22.7482 31.7106ZM78.0467 28.2059L77.9851 28.1465C77.9851 28.087 77.9851 28.0276 77.9851 27.9682C78.1084 27.9682 78.2317 27.9682 78.355 27.9682V28.0276C78.2933 28.0871 78.17 28.1465 78.0467 28.2059Z" fill="#F1E6D0"/>
<path d="M19.6 21.884C16.464 22.044 13.328 22.172 10.224 22.332C10.128 16.316 10.064 10.332 10 4.348C9.968 2.492 7.088 2.492 7.12 4.348C7.184 10.876 7.28 17.404 7.344 23.964C7.376 25.148 8.56 25.564 9.392 25.244C12.816 25.084 16.208 24.924 19.6 24.764C21.456 24.7 21.456 21.788 19.6 21.884ZM34.158 10.716C34.094 10.364 33.87 10.044 33.422 9.852C33.198 9.724 32.942 9.596 32.686 9.5C32.462 9.372 32.27 9.244 32.046 9.116C31.566 8.796 31.086 8.86 30.702 9.084C27.918 8.86 25.166 10.268 23.406 12.604C21.23 15.516 20.366 20.028 22.35 23.26C24.11 26.108 27.822 27.452 31.022 26.62C34.35 25.788 36.782 22.652 37.262 19.356C37.742 16.124 36.43 12.956 34.158 10.716ZM31.374 23.42C29.486 24.444 26.99 24.06 25.486 22.556C23.598 20.732 23.918 17.564 25.038 15.42C26.19 13.18 28.718 11.292 31.278 12.06C33.038 13.34 34.35 15.356 34.478 17.596C34.606 19.932 33.422 22.3 31.374 23.42ZM52.0823 13.66C51.6983 13.116 51.2503 12.636 50.7703 12.22C50.6423 11.612 50.5143 11.036 50.3863 10.46C50.0343 8.956 47.9223 9.212 47.6023 10.524C46.7703 10.332 45.9062 10.236 45.0423 10.332C42.1943 10.588 39.8903 12.38 38.8663 15.036C37.8742 17.628 38.2903 20.86 40.3703 22.812C41.4903 23.9 43.0263 24.508 44.6263 24.22C46.0023 23.964 47.1223 22.972 47.8583 21.82C48.2423 21.244 48.5303 20.668 48.7543 20.028C48.8183 22.556 48.8503 25.308 48.0823 27.74C47.4743 29.692 45.8103 31.132 43.6983 31.132C41.6503 31.132 39.9863 29.596 39.5063 27.644C39.0583 25.852 36.2742 26.588 36.7222 28.412C37.8422 33.052 43.1223 35.356 47.2823 33.084C49.3623 31.964 50.5783 29.884 51.0903 27.612C51.6663 25.052 51.7303 22.332 51.6343 19.708C51.6023 18.396 51.5063 17.052 51.3463 15.708C51.4103 15.708 51.4743 15.676 51.5383 15.612C52.1783 15.26 52.5303 14.3 52.0823 13.66ZM46.2263 18.588C45.7463 19.964 44.7223 22.108 42.9623 21.18C41.3943 20.348 40.9783 18.332 41.3623 16.732C41.7463 15.068 42.8983 13.724 44.5943 13.308C45.4903 13.052 46.4503 13.148 47.3463 13.468C47.1543 15.196 46.7703 16.924 46.2263 18.588ZM66.3143 10.716C66.2503 10.364 66.0263 10.044 65.5783 9.852C65.3543 9.724 65.0983 9.596 64.8423 9.5C64.6183 9.372 64.4263 9.244 64.2023 9.116C63.7223 8.796 63.2423 8.86 62.8583 9.084C60.0743 8.86 57.3223 10.268 55.5623 12.604C53.3863 15.516 52.5222 20.028 54.5063 23.26C56.2663 26.108 59.9783 27.452 63.1783 26.62C66.5063 25.788 68.9383 22.652 69.4183 19.356C69.8983 16.124 68.5863 12.956 66.3143 10.716ZM63.5303 23.42C61.6423 24.444 59.1463 24.06 57.6423 22.556C55.7543 20.732 56.0743 17.564 57.1943 15.42C58.3463 13.18 60.8743 11.292 63.4343 12.06C65.1943 13.34 66.5063 15.356 66.6343 17.596C66.7623 19.932 65.5783 22.3 63.5303 23.42Z" fill="#666562"/>
</svg>
